<svg width="28" height="22" viewBox="0 0 28 22" version="1.1" xmlns="http://www.w3.org/2000/svg" xmlns:xlink="http://www.w3.org/1999/xlink">
<title>Group</title>
<desc>Created using Figma</desc>
<g id="Canvas" transform="translate(-4221 1134)">
<g id="Group">
<g id="Group">
<g id="Vector">
<use xlink:href="#path0_fill" transform="translate(4221 -1134)" fill="#0D4F97"/>
<use xlink:href="#path1_fill" transform="translate(4221 -1134)" fill="#0D4F97"/>
<mask id="mask0_outline_ins">
<use xlink:href="#path0_fill" fill="white" transform="translate(4221 -1134)"/>
<use xlink:href="#path1_fill" fill="white" transform="translate(4221 -1134)"/>
</mask>
<g mask="url(#mask0_outline_ins)">
<use xlink:href="#path2_stroke_2x" transform="translate(4221 -1134)" fill="#0D4F97"/>
</g>
</g>
<g id="Vector">
<use xlink:href="#path3_fill" transform="translate(4230.62 -1128.47)" fill="#0D4F97"/>
<mask id="mask1_outline_ins">
<use xlink:href="#path3_fill" fill="white" transform="translate(4230.62 -1128.47)"/>
</mask>
<g mask="url(#mask1_outline_ins)">
<use xlink:href="#path4_stroke_2x" transform="translate(4230.62 -1128.47)" fill="#FFFFFF"/>
</g>
</g>
</g>
</g>
</g>
<defs>
<path id="path0_fill" d="M 16.5238 14.684C 18.2166 13.9822 19.5525 13.027 20.5315 11.8178C 21.5106 10.609 22.0002 9.29255 22.0002 7.86846C 22.0002 6.44431 21.5106 5.12792 20.5315 3.91886C 19.5525 2.70996 18.2166 1.75459 16.5238 1.05264C 14.831 0.35079 12.9899 0 11.0002 0C 9.01056 0 7.16944 0.351005 5.47657 1.05285C 3.78393 1.7547 2.44795 2.71007 1.46891 3.91902C 0.489656 5.12792 0 6.44425 0 7.86846C 0 9.08753 0.370184 10.2355 1.10968 11.3111C 1.84917 12.3868 2.86487 13.2937 4.15647 14.0312C 4.05237 14.2773 3.9456 14.5024 3.83619 14.7076C 3.72674 14.9125 3.59665 15.1095 3.44549 15.2992C 3.29444 15.4889 3.17737 15.6374 3.09397 15.7446C 3.01062 15.8522 2.87522 16.0035 2.68766 16.1979C 2.50005 16.3926 2.3802 16.5207 2.32826 16.582C 2.32826 16.5717 2.3073 16.5949 2.26571 16.6513C 2.22395 16.7076 2.20052 16.7331 2.19527 16.7283C 2.19013 16.7228 2.16922 16.7484 2.13282 16.8047C 2.09638 16.8611 2.0781 16.8893 2.0781 16.8893L 2.03897 16.9659C 2.02342 16.9965 2.01291 17.0271 2.00777 17.058C 2.00252 17.0886 1.99989 17.1221 1.99989 17.1578C 1.99989 17.1936 2.00503 17.2267 2.01554 17.2576C 2.0365 17.3906 2.09638 17.498 2.19527 17.5804C 2.29427 17.6622 2.40089 17.703 2.51565 17.703L 2.56255 17.703C 3.08329 17.6314 3.5313 17.5494 3.90625 17.4571C 5.51045 17.0473 6.95851 16.3915 8.25016 15.49C 9.18755 15.654 10.1044 15.7359 11.0002 15.7359C 12.9898 15.7365 14.8311 15.3859 16.5238 14.684ZM 7.78152 13.401L 7.09391 13.8772C 6.80221 14.0717 6.47947 14.2718 6.12522 14.4768L 6.67223 13.1857L 5.15658 12.3252C 4.15636 11.7516 3.38042 11.0754 2.82831 10.2967C 2.27616 9.51809 2.00022 8.70869 2.00022 7.86851C 2.00022 6.82336 2.40926 5.84495 3.2269 4.93312C 4.04444 4.02129 5.14607 3.29905 6.53152 2.76611C 7.91686 2.23349 9.40652 1.96694 11.0003 1.96694C 12.594 1.96694 14.0838 2.23349 15.4691 2.76611C 16.8544 3.29899 17.956 4.02129 18.774 4.93312C 19.5917 5.84489 20.0004 6.8233 20.0004 7.86851C 20.0004 8.91351 19.5917 9.89186 18.774 10.8037C 17.9561 11.7158 16.8545 12.4379 15.4691 12.9705C 14.0838 13.5033 12.5942 13.7697 11.0003 13.7697C 10.2192 13.7697 9.42228 13.6978 8.60967 13.5545L 7.78152 13.401Z"/>
<path id="path1_fill" d="M 7.78152 13.401L 7.09391 13.8772C 6.80221 14.0717 6.47947 14.2718 6.12522 14.4768L 6.67223 13.1857L 5.15658 12.3252C 4.15636 11.7516 3.38042 11.0754 2.82831 10.2967C 2.27616 9.51809 2.00022 8.70869 2.00022 7.86851C 2.00022 6.82336 2.40926 5.84495 3.2269 4.93312C 4.04444 4.02129 5.14607 3.29905 6.53152 2.76611C 7.91686 2.23349 9.40652 1.96694 11.0003 1.96694C 12.594 1.96694 14.0838 2.23349 15.4691 2.76611C 16.8544 3.29899 17.956 4.02129 18.774 4.93312C 19.5917 5.84489 20.0004 6.8233 20.0004 7.86851C 20.0004 8.91351 19.5917 9.89186 18.774 10.8037C 17.9561 11.7158 16.8545 12.4379 15.4691 12.9705C 14.0838 13.5033 12.5942 13.7697 11.0003 13.7697C 10.2192 13.7697 9.42228 13.6978 8.60967 13.5545L 7.78152 13.401Z"/>
<path id="path2_stroke_2x" d="M 7.78152 13.401L 7.87262 12.9094L 7.66798 12.8715L 7.49687 12.99L 7.78152 13.401ZM 7.09391 13.8772L 7.37136 14.2932L 7.37856 14.2883L 7.09391 13.8772ZM 6.12522 14.4768L 5.66483 14.2818L 5.08151 15.6586L 6.37567 14.9096L 6.12522 14.4768ZM 6.67223 13.1857L 7.13261 13.3808L 7.30632 12.9708L 6.91911 12.7509L 6.67223 13.1857ZM 5.15658 12.3252L 4.90784 12.7589L 4.9097 12.76L 5.15658 12.3252ZM 2.82831 10.2967L 3.23619 10.0075L 3.23617 10.0075L 2.82831 10.2967ZM 3.2269 4.93312L 3.59916 5.26693L 3.59918 5.2669L 3.2269 4.93312ZM 6.53152 2.76611L 6.35209 2.29941L 6.35201 2.29944L 6.53152 2.76611ZM 15.4691 2.76611L 15.6486 2.29944L 15.6485 2.29941L 15.4691 2.76611ZM 18.774 4.93312L 19.1463 4.5993L 19.1462 4.59924L 18.774 4.93312ZM 18.774 10.8037L 19.1463 11.1375L 19.1463 11.1375L 18.774 10.8037ZM 15.4691 12.9705L 15.2896 12.5038L 15.2896 12.5039L 15.4691 12.9705ZM 8.60967 13.5545L 8.51857 14.0462L 8.52285 14.0469L 8.60967 13.5545ZM 7.49687 12.99L 6.80926 13.4661L 7.37856 14.2883L 8.06617 13.8121L 7.49687 12.99ZM 6.8165 13.4612C 6.53174 13.6512 6.22249 13.8429 5.87476 14.0441L 6.37567 14.9096C 6.73645 14.7007 7.07267 14.4923 7.37132 14.2932L 6.8165 13.4612ZM 6.5856 14.6719L 7.13261 13.3808L 6.21184 12.9907L 5.66483 14.2818L 6.5856 14.6719ZM 6.91911 12.7509L 5.40345 11.8904L 4.9097 12.76L 6.42535 13.6205L 6.91911 12.7509ZM 5.40531 11.8914C 4.44637 11.3443 3.75121 10.7399 3.23619 10.0075L 2.42044 10.5859C 3.00962 11.4108 3.86635 12.1589 4.90784 12.7589L 5.40531 11.8914ZM 3.23617 10.0075C 2.72133 9.29044 2.49349 8.62692 2.50022 7.86851L 1.50022 7.86851C 1.50695 8.79047 1.83099 9.74574 2.42046 10.5859L 3.23617 10.0075ZM 2.50022 7.86851C 2.50022 6.96738 2.84872 6.1038 3.59916 5.26693L 2.85465 4.59932C 1.9698 5.58609 1.50022 6.67933 1.50022 7.86851L 2.50022 7.86851ZM 3.59918 5.2669C 4.37039 4.40045 5.37419 3.74397 6.71103 3.23277L 6.35201 2.29944C 4.91795 2.85412 3.71849 3.64214 2.85462 4.59934L 3.59918 5.2669ZM 6.71095 3.2328C 8.05122 2.7151 9.45073 2.46498 11.0003 2.46694L 11.0003 1.46694C 9.36231 1.4689 7.78251 1.75188 6.35209 2.29941L 6.71095 3.2328ZM 11.0003 2.46694C 12.5498 2.46498 13.9494 2.7151 15.2896 3.2328L 15.6485 2.29941C 14.2181 1.75188 12.6382 1.4689 11.0003 1.46694L 11.0003 2.46694ZM 15.2896 3.23277C 16.6263 3.74392 17.6301 4.40048 18.4018 5.267L 19.1462 4.59924C 18.2819 3.64211 17.0825 2.85407 15.6486 2.29944L 15.2896 3.23277ZM 18.4018 5.26694C 19.1521 6.10367 19.5004 6.96723 19.5004 7.86851L 20.5004 7.86851C 20.5004 6.67938 20.0312 5.58612 19.1463 4.5993L 18.4018 5.26694ZM 19.5004 7.86851C 19.5004 8.76956 19.1521 9.63307 18.4018 10.4699L 19.1463 11.1375C 20.0312 10.1507 20.5004 9.05745 20.5004 7.86851L 19.5004 7.86851ZM 18.4018 10.4699C 17.6302 11.3366 16.6264 11.9929 15.2896 12.5038L 15.6485 13.4372C 17.0825 12.8828 18.282 12.095 19.1463 11.1375L 18.4018 10.4699ZM 15.2896 12.5039C 13.9494 13.0217 12.55 13.2716 11.0003 13.2697L 11.0003 14.2697C 12.6384 14.2677 14.2181 13.9849 15.6485 13.4372L 15.2896 12.5039ZM 11.0003 13.2697C 10.2417 13.2702 9.4882 13.2022 8.6965 13.0621L 8.52285 14.0469C 9.35636 14.1934 10.1967 14.2691 11.0003 14.2697L 11.0003 13.2697ZM 8.70077 13.0629L 7.87262 12.9094L 7.69042 13.8927L 8.51857 14.0461L 8.70077 13.0629ZM 16.5238 14.684L 16.1408 13.7603L 16.1408 13.7603L 16.5238 14.684ZM 20.5315 11.8178L 19.7544 11.1884L 19.7543 11.1886L 20.5315 11.8178ZM 20.5315 3.91886L 19.7543 4.5482L 19.7543 4.54821L 20.5315 3.91886ZM 16.5238 1.05264L 16.9069 0.128911L 16.9068 0.12889L 16.5238 1.05264ZM 5.47657 1.05285L 5.09359 0.129097L 5.09355 0.129114L 5.47657 1.05285ZM 1.46891 3.91902L 2.24596 4.54846L 2.24604 4.54836L 1.46891 3.91902ZM 1.10968 11.3111L 1.93374 10.7446L 1.9337 10.7445L 1.10968 11.3111ZM 4.15647 14.0312L 5.07747 14.4208L 5.42334 13.6031L 4.65234 13.1628L 4.15647 14.0312ZM 3.83619 14.7076L 4.7182 15.1788L 4.7186 15.1781L 3.83619 14.7076ZM 3.44549 15.2992L 2.66344 14.676L 2.66313 14.6764L 3.44549 15.2992ZM 3.09397 15.7446L 2.30465 15.1306L 2.30356 15.132L 3.09397 15.7446ZM 2.68766 16.1979L 1.96786 15.5038L 1.96758 15.5041L 2.68766 16.1979ZM 2.32826 16.582L 1.32826 16.582L 1.32826 19.3095L 3.09127 17.2284L 2.32826 16.582ZM 2.26571 16.6513L 3.06918 17.2466L 3.0703 17.2451L 2.26571 16.6513ZM 2.19527 16.7283L 1.46223 17.4085L 1.49064 17.4391L 1.5215 17.4672L 2.19527 16.7283ZM 2.13282 16.8047L 2.97275 17.3474L 2.97288 17.3472L 2.13282 16.8047ZM 2.0781 16.8893L 1.2394 16.3447L 1.21117 16.3882L 1.18758 16.4343L 2.0781 16.8893ZM 2.03897 16.9659L 1.14845 16.5109L 1.14754 16.5127L 2.03897 16.9659ZM 2.00777 17.058L 2.99329 17.2277L 2.99424 17.222L 2.00777 17.058ZM 2.01554 17.2576L 3.00335 17.102L 2.98997 17.017L 2.96229 16.9356L 2.01554 17.2576ZM 2.19527 17.5804L 1.55534 18.3488L 1.55825 18.3512L 2.19527 17.5804ZM 2.56255 17.703L 2.56255 18.703L 2.63107 18.703L 2.69895 18.6937L 2.56255 17.703ZM 3.90625 17.4571L 4.14532 18.4282L 4.15377 18.426L 3.90625 17.4571ZM 8.25016 15.49L 8.42245 14.505L 8.0161 14.4339L 7.67783 14.67L 8.25016 15.49ZM 11.0002 15.7359L 11.0005 14.7359L 11.0002 14.7359L 11.0002 15.7359ZM 16.9068 15.6078C 18.702 14.8565 20.2381 13.7549 21.3086 12.4471L 19.7543 11.1886C 18.8668 12.299 17.7311 13.108 16.1408 13.7603L 16.9068 15.6078ZM 21.3085 12.4473C 22.3792 11.1045 22.9844 9.46964 23.0002 7.86846L 21.0002 7.86846C 21.016 9.11546 20.642 10.1135 19.7544 11.1884L 21.3085 12.4473ZM 23.0002 7.86846C 22.9844 6.26721 22.3792 4.63243 21.3086 3.28951L 19.7543 4.54821C 20.642 5.6234 21.016 6.62141 21.0002 7.86846L 23.0002 7.86846ZM 21.3086 3.28953C 20.2381 1.98201 18.7021 0.880367 16.9069 0.128911L 16.1407 1.97636C 17.731 2.62882 18.8669 3.43792 19.7543 4.5482L 21.3086 3.28953ZM 16.9068 0.12889C 15.1176 -0.607265 13.0839 -0.995572 11.0002 -1L 11.0002 1C 12.8959 0.995572 14.5445 1.30884 16.1408 1.97638L 16.9068 0.12889ZM 11.0002 -1C 8.9165 -0.995567 6.88281 -0.607037 5.09359 0.129097L 5.85956 1.97661C 7.45606 1.30905 9.10461 0.995567 11.0002 1L 11.0002 -1ZM 5.09355 0.129114C 3.29843 0.880462 1.76234 1.98211 0.691783 3.28968L 2.24604 4.54836C 3.13356 3.43804 4.26943 2.62894 5.8596 1.97659L 5.09355 0.129114ZM 0.691866 3.28958C -0.378918 4.63236 -0.984189 6.26713 -1 7.86846L 1 7.86846C 0.984189 6.62138 1.35823 5.62348 2.24596 4.54846L 0.691866 3.28958ZM -1 7.86846C -0.987861 9.24287 -0.527141 10.6769 0.285647 11.8776L 1.9337 10.7445C 1.26751 9.79412 0.987861 8.93219 1 7.86846L -1 7.86846ZM 0.285608 11.8776C 1.09874 13.0477 2.28071 14.1053 3.66059 14.8996L 4.65234 13.1628C 3.44904 12.482 2.59959 11.7258 1.93374 10.7446L 0.285608 11.8776ZM 3.23547 13.6416C 3.13991 13.8681 3.05239 14.0527 2.95379 14.2371L 4.7186 15.1781C 4.8388 14.952 4.96484 14.6865 5.07747 14.4208L 3.23547 13.6416ZM 2.95419 14.2363C 2.86754 14.4008 2.78754 14.5219 2.66344 14.676L 4.22754 15.9224C 4.40576 15.6972 4.58594 15.4241 4.7182 15.1788L 2.95419 14.2363ZM 2.66313 14.6764C 2.51064 14.8679 2.3901 15.0208 2.30465 15.1306L 3.88328 16.3586C 3.96465 16.254 4.07823 16.11 4.22785 15.922L 2.66313 14.6764ZM 2.30356 15.132C 2.24234 15.212 2.14259 15.3228 1.96786 15.5038L 3.40746 16.8921C 3.60784 16.6841 3.7789 16.4923 3.88437 16.3572L 2.30356 15.132ZM 1.96758 15.5041C 1.77495 15.704 1.63342 15.8556 1.56525 15.9356L 3.09127 17.2284C 3.12698 17.1858 3.22516 17.0813 3.40775 16.8918L 1.96758 15.5041ZM 3.32826 16.582C 3.32826 16.5394 3.33025 15.8819 2.67098 15.6406C 2.39785 15.5407 2.16269 15.5861 2.04906 15.6189C 1.97126 15.6448 1.84756 15.7015 1.80013 15.729C 1.66086 15.8147 1.57111 15.9207 1.57045 15.9214C 1.53758 15.9587 1.49107 16.0171 1.46111 16.0574L 3.0703 17.2451C 3.08941 17.2192 3.08002 17.2339 3.05471 17.2619C 3.06318 17.2527 2.99049 17.3266 3.00556 17.312C 2.98904 17.3276 2.93295 17.3802 2.84854 17.4322C 2.80673 17.4579 2.72144 17.5065 2.60304 17.5406C 2.4904 17.5731 2.25605 17.6185 1.98357 17.5188C 1.32562 17.278 1.32826 16.6221 1.32826 16.582L 3.32826 16.582ZM 1.46223 16.0559C 1.44602 16.0778 1.45475 16.0642 1.47933 16.0373C 1.48469 16.0315 1.53535 15.9747 1.61669 15.9158C 1.65052 15.8914 1.76043 15.8134 1.92496 15.7667C 2.09982 15.7171 2.513 15.6647 2.86904 15.9894L 1.5215 17.4672C 1.87885 17.7931 2.29392 17.741 2.47122 17.6907C 2.6382 17.6432 2.75113 17.5636 2.78855 17.5366C 2.8452 17.4928 2.92468 17.4195 2.95426 17.3881C 2.98878 17.3495 3.03775 17.2888 3.06918 17.2466L 1.46223 16.0559ZM 2.92831 16.0481C 2.61814 15.7138 2.20827 15.6938 1.95302 15.7568C 1.75173 15.8065 1.61927 15.9062 1.57852 15.9375C 1.51621 15.9892 1.43112 16.0753 1.40125 16.1108C 1.36772 16.1529 1.32104 16.2188 1.29277 16.2622L 2.97288 17.3472C 2.98709 17.3252 2.97672 17.3435 2.95028 17.3759C 2.94532 17.3819 2.89023 17.4517 2.7984 17.5224C 2.7609 17.5513 2.6312 17.6494 2.43218 17.6986C 2.1792 17.761 1.77112 17.7414 1.46223 17.4085L 2.92831 16.0481ZM 1.2929 16.262C 1.27488 16.2899 1.26151 16.3106 1.25249 16.3245C 1.24802 16.3314 1.24475 16.3364 1.24252 16.3399C 1.24143 16.3416 1.24065 16.3428 1.24011 16.3436C 1.23985 16.344 1.23967 16.3443 1.23954 16.3445C 1.23948 16.3446 1.23945 16.3446 1.23942 16.3447C 1.23941 16.3447 1.2394 16.3447 1.2394 16.3447C 1.2394 16.3447 1.2394 16.3447 1.2394 16.3447C 1.2394 16.3447 1.2394 16.3447 1.2394 16.3447C 1.2394 16.3447 1.2394 16.3447 1.2394 16.3447C 1.2394 16.3447 1.2394 16.3447 2.0781 16.8893C 2.91679 17.4339 2.91679 17.4339 2.91679 17.4339C 2.91679 17.4339 2.91679 17.4339 2.91679 17.4339C 2.9168 17.4339 2.9168 17.4339 2.9168 17.4339C 2.91681 17.4339 2.91681 17.4339 2.91682 17.4339C 2.91683 17.4338 2.91686 17.4338 2.91688 17.4338C 2.91692 17.4337 2.917 17.4336 2.91708 17.4335C 2.91723 17.4332 2.91749 17.4328 2.9178 17.4323C 2.9184 17.4314 2.91933 17.43 2.92052 17.4281C 2.92286 17.4245 2.92643 17.419 2.9311 17.4118C 2.94033 17.3976 2.95432 17.376 2.97275 17.3474L 1.2929 16.262ZM 1.18758 16.4343L 1.14845 16.5109L 2.92948 17.4208L 2.96861 17.3442L 1.18758 16.4343ZM 1.14754 16.5127C 1.10252 16.6067 1.04341 16.782 1.0213 16.8941L 2.99424 17.222C 2.98052 17.3045 2.95485 17.3709 2.93039 17.4191L 1.14754 16.5127ZM 1.02227 16.8884C 1.01024 16.9646 1.00065 17.083 0.999889 17.1578L 2.99989 17.1578C 2.99989 17.1698 2.9991 17.1938 2.99327 17.2277L 1.02227 16.8884ZM 0.999889 17.1578C 1.00285 17.2705 1.0339 17.4653 1.0688 17.5796L 2.96229 16.9356C 2.99075 17.0193 2.99989 17.0962 2.99989 17.1578L 0.999889 17.1578ZM 1.02773 17.4133C 1.09126 17.717 1.32673 18.1365 1.55535 18.3488L 2.83519 16.8119C 2.87579 16.8457 2.91704 16.8926 2.94979 16.9514C 2.98218 17.0095 2.99723 17.0631 3.00335 17.102L 1.02773 17.4133ZM 1.55825 18.3512C 1.79022 18.5259 2.21893 18.6864 2.51565 18.703L 2.51565 16.703C 2.58002 16.703 2.64593 16.7151 2.70719 16.7385C 2.76697 16.7614 2.80846 16.7898 2.83229 16.8095L 1.55825 18.3512ZM 2.51565 18.703L 2.56255 18.703L 2.56255 16.703L 2.51565 16.703L 2.51565 18.703ZM 2.69895 18.6937C 3.24147 18.6188 3.74087 18.5272 4.14531 18.4281L 3.66718 16.4861C 3.32173 16.5716 2.92512 16.6439 2.42616 16.7124L 2.69895 18.6937ZM 4.15377 18.426C 5.84175 17.9908 7.45304 17.2607 8.82249 16.31L 7.67783 14.67C 6.46399 15.5223 5.17915 16.1038 3.65872 16.4882L 4.15377 18.426ZM 8.07787 16.4751C 9.05679 16.6454 10.0598 16.7349 11.0002 16.7359L 11.0002 14.7359C 10.1489 14.7369 9.31831 14.6626 8.42245 14.505L 8.07787 16.4751ZM 10.9998 16.7359C 13.0836 16.7321 15.1177 16.3439 16.9068 15.6078L 16.1408 13.7603C 14.5445 14.4278 12.896 14.7409 11.0005 14.7359L 10.9998 16.7359Z"/>
<path id="path3_fill" d="M 17.2658 9.72021C 18.0056 8.64927 18.3753 7.49958 18.3753 6.27002C 18.3753 5.00988 17.9846 3.8315 17.2036 2.73542C 16.4222 1.6394 15.3596 0.727416 14.0159 -1.0513e-07C 14.2553 0.768324 14.3751 1.54693 14.3751 2.33598C 14.3751 3.70872 14.0266 5.00988 13.3282 6.23944C 12.6303 7.46863 11.6302 8.55454 10.3282 9.49726C 9.1198 10.3578 7.74474 11.0185 6.20293 11.4796C 4.66156 11.9405 3.05205 12.1712 1.37489 12.1712C 1.0625 12.1712 0.604093 12.1509 -1.46976e-07 12.11C 2.09369 13.4621 4.55215 14.1385 7.375 14.1385C 8.27096 14.1385 9.18755 14.0563 10.1252 13.8924C 11.4167 14.7943 12.8649 15.4497 14.469 15.8597C 14.844 15.9522 15.2919 16.034 15.8128 16.1056C 15.9377 16.1161 16.0525 16.08 16.1566 15.9982C 16.2608 15.9161 16.3286 15.8037 16.3597 15.6604C 16.3548 15.5989 16.3597 15.5652 16.3754 15.5603C 16.3908 15.5554 16.3881 15.5219 16.3675 15.4606C 16.3469 15.399 16.3364 15.3683 16.3364 15.3683L 16.2974 15.2916C 16.2866 15.2714 16.269 15.243 16.2428 15.2073C 16.2167 15.1717 16.196 15.1459 16.1802 15.1304C 16.1649 15.1152 16.1416 15.0894 16.1102 15.0538C 16.0791 15.0183 16.0581 14.995 16.0476 14.9847C 15.9956 14.9232 15.8758 14.7952 15.6884 14.6005C 15.5007 14.406 15.3655 14.2549 15.2822 14.1474C 15.1988 14.0398 15.0816 13.8913 14.9306 13.7016C 14.7797 13.5122 14.6493 13.3149 14.5399 13.11C 14.4305 12.9051 14.3238 12.6796 14.2196 12.4339C 15.5109 11.6956 16.5268 10.7915 17.2658 9.72021Z"/>
<path id="path4_stroke_2x" d="M 17.2658 9.72021L 16.8544 9.43602L 16.8542 9.43629L 17.2658 9.72021ZM 17.2036 2.73542L 17.6108 2.44528L 17.6107 2.44518L 17.2036 2.73542ZM 14.0159 -1.0513e-07L 14.254 -0.439699L 13.1729 -1.02498L 13.5386 0.148731L 14.0159 -1.0513e-07ZM 13.3282 6.23944L 12.8934 5.9925L 12.8934 5.99257L 13.3282 6.23944ZM 10.3282 9.49726L 10.6183 9.90455L 10.6214 9.90225L 10.3282 9.49726ZM 6.20293 11.4796L 6.34616 11.9587L 6.34622 11.9587L 6.20293 11.4796ZM -1.46976e-07 12.11L 0.0337818 11.6112L -1.89657 11.4804L -0.271249 12.53L -1.46976e-07 12.11ZM 10.1252 13.8924L 10.4114 13.4825L 10.2423 13.3644L 10.0391 13.3999L 10.1252 13.8924ZM 14.469 15.8597L 14.3451 16.3442L 14.3492 16.3452L 14.469 15.8597ZM 15.8128 16.1056L 15.7446 16.601L 15.7577 16.6028L 15.7709 16.6039L 15.8128 16.1056ZM 16.1566 15.9982L 16.4655 16.3915L 16.4663 16.3908L 16.1566 15.9982ZM 16.3597 15.6604L 16.8483 15.7664L 16.8639 15.6944L 16.8581 15.621L 16.3597 15.6604ZM 16.3754 15.5603L 16.5242 16.0376L 16.5256 16.0372L 16.3754 15.5603ZM 16.3675 15.4606L 15.8933 15.619L 15.8936 15.6199L 16.3675 15.4606ZM 16.3364 15.3683L 16.8095 15.2065L 16.7981 15.1731L 16.7821 15.1417L 16.3364 15.3683ZM 16.2974 15.2916L 16.7433 15.065L 16.7382 15.0556L 16.2974 15.2916ZM 16.2428 15.2073L 15.8396 15.5029L 15.8396 15.503L 16.2428 15.2073ZM 16.1802 15.1304L 15.8271 15.4844L 15.8302 15.4875L 16.1802 15.1304ZM 16.1102 15.0538L 15.7339 15.3831L 15.7356 15.3851L 16.1102 15.0538ZM 16.0476 14.9847L 15.6659 15.3077L 15.6811 15.3257L 15.6979 15.3421L 16.0476 14.9847ZM 15.6884 14.6005L 16.0486 14.2537L 16.0482 14.2533L 15.6884 14.6005ZM 15.2822 14.1474L 14.8869 14.4536L 14.887 14.4536L 15.2822 14.1474ZM 14.9306 13.7016L 15.3218 13.3902L 15.3216 13.3899L 14.9306 13.7016ZM 14.5399 13.11L 14.981 12.8745L 14.981 12.8745L 14.5399 13.11ZM 14.2196 12.4339L 13.9714 11.9998L 13.586 12.2202L 13.7593 12.629L 14.2196 12.4339ZM 17.6772 10.0044C 18.4541 8.87026 18.8692 7.57704 18.8753 6.27002L 17.8753 6.27002C 17.8813 7.42213 17.5571 8.42828 16.8544 9.43602L 17.6772 10.0044ZM 18.8753 6.27002C 18.8689 4.93018 18.4304 3.60523 17.6108 2.44528L 16.7964 3.02557C 17.5387 4.05777 17.8817 5.08958 17.8753 6.27002L 18.8753 6.27002ZM 17.6107 2.44518C 16.7913 1.30209 15.643 0.315517 14.254 -0.439699L 13.7779 0.439699C 15.0761 1.13931 16.0531 1.97671 16.7964 3.02567L 17.6107 2.44518ZM 13.5386 0.148731C 13.7682 0.881023 13.8766 1.58506 13.8751 2.33598L 14.8751 2.33598C 14.8736 1.5088 14.7424 0.655625 14.4933 -0.148731L 13.5386 0.148731ZM 13.8751 2.33598C 13.8794 3.64348 13.564 4.82018 12.8934 5.9925L 13.763 6.48639C 14.4892 5.19957 14.8708 3.77396 14.8751 2.33598L 13.8751 2.33598ZM 12.8934 5.99257C 12.2264 7.17393 11.2981 8.18082 10.035 9.09227L 10.6214 9.90225C 11.9624 8.92825 13.0342 7.76334 13.763 6.48631L 12.8934 5.99257ZM 10.0382 9.08998C 8.86558 9.92729 7.56428 10.5522 6.05964 11.0006L 6.34622 11.9587C 7.9252 11.4848 9.37401 10.7884 10.6182 9.90453L 10.0382 9.08998ZM 6.0597 11.0006C 4.55417 11.4522 3.01648 11.6725 1.37489 11.6712L 1.37489 12.6712C 3.08761 12.6699 4.76894 12.4288 6.34616 11.9587L 6.0597 11.0006ZM 1.37489 11.6712C 1.07356 11.6713 0.632043 11.6517 0.0337818 11.6112L -0.0337821 12.6089C 0.576143 12.6501 1.05144 12.6711 1.37489 12.6712L 1.37489 11.6712ZM -0.271249 12.53C 1.88938 13.9184 4.48523 14.634 7.375 14.6385L 7.375 13.6385C 4.61907 13.643 2.29801 13.0057 0.271248 11.69L -0.271249 12.53ZM 7.375 14.6385C 8.29329 14.638 9.25297 14.552 10.2113 14.385L 10.0391 13.3999C 9.12213 13.5606 8.24862 13.639 7.375 13.6385L 7.375 14.6385ZM 9.83891 14.3024C 11.1695 15.2289 12.6992 15.9215 14.3451 16.3442L 14.5928 15.3753C 13.0305 14.9779 11.664 14.3597 10.4114 13.4825L 9.83891 14.3024ZM 14.3492 16.3452C 14.7392 16.4411 15.2129 16.5277 15.7446 16.601L 15.8809 15.6103C 15.3709 15.5403 14.9488 15.4633 14.5887 15.3743L 14.3492 16.3452ZM 15.7709 16.6039C 16.0304 16.6257 16.2689 16.5458 16.4655 16.3915L 15.8478 15.605C 15.8428 15.6089 15.8401 15.6104 15.8396 15.6107C 15.8392 15.6109 15.8405 15.6102 15.8432 15.6093C 15.846 15.6085 15.8489 15.6079 15.8517 15.6076C 15.8543 15.6073 15.8555 15.6075 15.8546 15.6074L 15.7709 16.6039ZM 16.4663 16.3908C 16.6357 16.2469 16.7932 15.9884 16.8483 15.7664L 15.871 15.5544C 15.8639 15.6191 15.8858 15.5853 15.847 15.6057L 16.4663 16.3908ZM 16.8581 15.621C 16.8566 15.6015 16.8603 15.6238 16.854 15.665C 16.851 15.6849 16.8411 15.7407 16.806 15.8062C 16.7681 15.8765 16.6827 15.9882 16.5242 16.0376L 16.2265 15.0829C 16.0601 15.1348 15.9683 15.2525 15.9253 15.3325C 15.9004 15.3845 15.873 15.4724 15.8656 15.5132C 15.8587 15.5678 15.8576 15.6494 15.8612 15.6999L 16.8581 15.621ZM 16.5256 16.0372C 16.7208 15.9757 16.8198 15.8235 16.8578 15.7095C 16.8901 15.6128 16.8863 15.5292 16.8834 15.4923C 16.8773 15.4355 16.858 15.3519 16.8414 15.3012L 15.8936 15.6199C 15.9005 15.6406 15.8901 15.6172 15.8865 15.5709C 15.8849 15.5507 15.8801 15.4802 15.9092 15.3931C 15.9441 15.2886 16.0377 15.1424 16.2251 15.0834L 16.5256 16.0372ZM 16.8417 15.3021C 16.8312 15.2708 16.8232 15.2469 16.8179 15.2312C 16.8152 15.2232 16.8131 15.2171 16.8118 15.2131C 16.8111 15.211 16.8105 15.2094 16.8101 15.2083C 16.81 15.2078 16.8098 15.2073 16.8097 15.2071C 16.8097 15.2069 16.8096 15.2068 16.8096 15.2067C 16.8096 15.2066 16.8095 15.2066 16.8095 15.2066C 16.8095 15.2065 16.8095 15.2065 16.8095 15.2065C 16.8095 15.2065 16.8095 15.2065 16.8095 15.2065C 16.8095 15.2065 16.8095 15.2065 16.8095 15.2065C 16.8095 15.2065 16.8095 15.2065 16.3364 15.3683C 15.8633 15.53 15.8633 15.53 15.8633 15.53C 15.8633 15.53 15.8633 15.53 15.8633 15.53C 15.8633 15.53 15.8633 15.53 15.8633 15.53C 15.8633 15.53 15.8633 15.53 15.8633 15.53C 15.8633 15.53 15.8633 15.53 15.8633 15.53C 15.8633 15.5301 15.8633 15.5301 15.8634 15.5302C 15.8634 15.5304 15.8635 15.5306 15.8637 15.5311C 15.864 15.532 15.8644 15.5332 15.865 15.535C 15.8662 15.5387 15.8681 15.544 15.8706 15.5514C 15.8757 15.5666 15.8832 15.5888 15.8933 15.619L 16.8417 15.3021ZM 16.7821 15.1417L 16.7432 15.065L 15.8517 15.5182L 15.8907 15.5948L 16.7821 15.1417ZM 16.7382 15.0556C 16.7196 15.0213 16.6832 14.963 16.6459 14.9115L 15.8396 15.503C 15.8547 15.523 15.8597 15.5338 15.8566 15.5276L 16.7382 15.0556ZM 16.646 14.9116C 16.6134 14.8673 16.5666 14.8103 16.5302 14.7734L 15.8302 15.4875C 15.8239 15.4814 15.8201 15.4771 15.8189 15.4758C 15.8177 15.4743 15.8177 15.4744 15.8194 15.4764C 15.8229 15.4807 15.8294 15.489 15.8396 15.5029L 16.646 14.9116ZM 16.5333 14.7765C 16.5353 14.7783 16.5299 14.773 16.5209 14.763C 16.511 14.7522 16.4997 14.7396 16.4847 14.7225L 15.7356 15.3851C 15.7687 15.4225 15.8026 15.4597 15.8271 15.4844L 16.5333 14.7765ZM 16.4864 14.7245C 16.4529 14.6863 16.4188 14.6488 16.3973 14.6273L 15.6979 15.3421C 15.6935 15.3378 15.6915 15.3356 15.6931 15.3373C 15.6951 15.3394 15.6965 15.3409 15.7004 15.3452C 15.709 15.3548 15.7193 15.3664 15.7339 15.3831L 16.4864 14.7245ZM 16.4293 14.6618C 16.3691 14.5909 16.2385 14.451 16.0486 14.2537L 15.3281 14.9472C 15.5131 15.1394 15.622 15.2556 15.6659 15.3077L 16.4293 14.6618ZM 16.0482 14.2533C 15.867 14.0656 15.7497 13.9349 15.6774 13.8411L 14.887 14.4536C 14.9814 14.5749 15.1344 14.7463 15.3286 14.9477L 16.0482 14.2533ZM 15.6774 13.8412C 15.5927 13.7317 15.4734 13.5807 15.3218 13.3902L 14.5394 14.0129C 14.6898 14.2019 14.805 14.3478 14.8869 14.4536L 15.6774 13.8412ZM 15.3216 13.3899C 15.1841 13.2183 15.0789 13.0591 14.981 12.8745L 14.0988 13.3454C 14.2197 13.5708 14.3752 13.8061 14.5396 14.0132L 15.3216 13.3899ZM 14.981 12.8745C 14.8772 12.6803 14.78 12.475 14.68 12.2388L 13.7593 12.629C 13.8675 12.8842 13.9839 13.1299 14.0988 13.3454L 14.981 12.8745ZM 14.4678 12.8679C 15.8027 12.1016 16.9014 11.1226 17.6774 10.0041L 16.8542 9.43629C 16.1521 10.4604 15.219 11.2896 13.9714 11.9998L 14.4678 12.8679Z"/>
</defs>
</svg>
