<svg width="210" height="140" viewBox="0 0 210 140" version="1.1" xmlns="http://www.w3.org/2000/svg" xmlns:xlink="http://www.w3.org/1999/xlink">
<title>Camada 2</title>
<desc>Created using Figma</desc>
<g id="Canvas" transform="matrix(2 0 0 2 9182 2862)">
<g id="Camada 2">
<g id="icones">
<g id="Vector">
<use xlink:href="#path0_stroke" transform="matrix(6.12323e-17 -1 1 6.12323e-17 -4589 -1363)" fill="#333333"/>
</g>
<g id="Vector">
<use xlink:href="#path1_stroke" transform="translate(-4588.25 -1416.85)" fill="#333333"/>
</g>
<g id="Vector">
<use xlink:href="#path2_stroke" transform="translate(-4588.25 -1407.26)" fill="#333333"/>
</g>
<g id="Vector">
<use xlink:href="#path3_stroke" transform="translate(-4577.42 -1375.15)" fill="#333333"/>
</g>
<g id="Vector">
<use xlink:href="#path4_stroke" transform="translate(-4577.42 -1384.74)" fill="#333333"/>
</g>
<g id="Vector">
<use xlink:href="#path5_stroke" transform="translate(-4522.59 -1387.61)" fill="#E20A0F"/>
</g>
<g id="Vector">
<use xlink:href="#path6_stroke" transform="translate(-4511.29 -1387.61)" fill="#E20A0F"/>
</g>
</g>
</g>
</g>
<defs>
<path id="path0_stroke" d="M 6.40631 1.86L 59.5937 1.86L 59.5937 -1.86L 6.40631 -1.86L 6.40631 1.86ZM 59.5937 1.86C 62.1046 1.86 64.14 3.89545 64.14 6.4063L 67.86 6.4063C 67.86 1.84095 64.159 -1.86 59.5937 -1.86L 59.5937 1.86ZM 64.14 6.4063L 64.14 94.0285L 67.86 94.0285L 67.86 6.4063L 64.14 6.4063ZM 64.14 94.0285C 64.14 96.5393 62.1046 98.5748 59.5937 98.5748L 59.5937 102.295C 64.159 102.295 67.86 98.5938 67.86 94.0285L 64.14 94.0285ZM 59.5937 98.5748L 6.40631 98.5748L 6.40631 102.295L 59.5937 102.295L 59.5937 98.5748ZM 6.40631 98.5748C 3.89545 98.5748 1.86 96.5393 1.86 94.0285L -1.86 94.0285C -1.86 98.5938 1.84095 102.295 6.40631 102.295L 6.40631 98.5748ZM 1.86 94.0285L 1.86 6.4063L -1.86 6.4063L -1.86 94.0285L 1.86 94.0285ZM 1.86 6.4063C 1.86 3.89545 3.89545 1.86 6.40631 1.86L 6.40631 -1.86C 1.84095 -1.86 -1.86 1.84095 -1.86 6.4063L 1.86 6.4063Z"/>
<path id="path1_stroke" d="M 6.15742e-08 -1.87C -1.03277 -1.87 -1.87 -1.03277 -1.87 9.15527e-07C -1.87 1.03277 -1.03277 1.87 6.15742e-08 1.87L 6.15742e-08 -1.87ZM 98.9283 1.87C 99.961 1.87 100.798 1.03277 100.798 9.15527e-07C 100.798 -1.03277 99.961 -1.87 98.9283 -1.87L 98.9283 1.87ZM 6.15742e-08 1.87L 98.9283 1.87L 98.9283 -1.87L 6.15742e-08 -1.87L 6.15742e-08 1.87Z"/>
<path id="path2_stroke" d="M 6.15742e-08 -1.87C -1.03277 -1.87 -1.87 -1.03277 -1.87 -1.52588e-07C -1.87 1.03277 -1.03277 1.87 6.15742e-08 1.87L 6.15742e-08 -1.87ZM 98.9283 1.87C 99.961 1.87 100.798 1.03277 100.798 -1.52588e-07C 100.798 -1.03277 99.961 -1.87 98.9283 -1.87L 98.9283 1.87ZM 6.15742e-08 1.87L 98.9283 1.87L 98.9283 -1.87L 6.15742e-08 -1.87L 6.15742e-08 1.87Z"/>
<path id="path3_stroke" d="M 0 -1.855C -1.02449 -1.855 -1.855 -1.02449 -1.855 3.05176e-07C -1.855 1.02449 -1.02449 1.855 0 1.855L 0 -1.855ZM 45.0378 1.855C 46.0623 1.855 46.8928 1.02449 46.8928 3.05176e-07C 46.8928 -1.02449 46.0623 -1.855 45.0378 -1.855L 45.0378 1.855ZM 0 1.855L 45.0378 1.855L 45.0378 -1.855L 0 -1.855L 0 1.855Z"/>
<path id="path4_stroke" d="M 0 -1.855C -1.02449 -1.855 -1.855 -1.02449 -1.855 1.37329e-06C -1.855 1.02449 -1.02449 1.855 0 1.855L 0 -1.855ZM 23.9896 1.855C 25.0141 1.855 25.8446 1.02449 25.8446 1.37329e-06C 25.8446 -1.02449 25.0141 -1.855 23.9896 -1.855L 23.9896 1.855ZM 0 1.855L 23.9896 1.855L 23.9896 -1.855L 0 -1.855L 0 1.855Z"/>
<path id="path5_stroke" d="M 10.8715 6.23413C 10.8715 8.61699 8.88914 10.6133 6.36326 10.6133L 6.36326 14.3233C 10.866 14.3233 14.5815 10.7373 14.5815 6.23413L 10.8715 6.23413ZM 6.36326 10.6133C 3.83738 10.6133 1.855 8.61699 1.855 6.23413L -1.855 6.23413C -1.855 10.7373 1.86048 14.3233 6.36326 14.3233L 6.36326 10.6133ZM 1.855 6.23413C 1.855 3.85127 3.83738 1.855 6.36326 1.855L 6.36326 -1.855C 1.86048 -1.855 -1.855 1.73096 -1.855 6.23413L 1.855 6.23413ZM 6.36326 1.855C 8.88914 1.855 10.8715 3.85127 10.8715 6.23413L 14.5815 6.23413C 14.5815 1.73096 10.866 -1.855 6.36326 -1.855L 6.36326 1.855Z"/>
<path id="path6_stroke" d="M 4.89261 1.78332e-05L 6.74761 1.78332e-05L 6.74761 -1.85054L 4.89705 -1.85498L 4.89261 1.78332e-05ZM 2.1893e-07 2.25263L -1.41225 1.04989L -2.43861 2.25505L -1.40986 3.45816L 2.1893e-07 2.25263ZM 1.47016 6.23415L -0.384844 6.23415L 1.47016 6.23415ZM 2.1893e-07 10.2157L -1.40986 9.01014L -2.43861 10.2133L -1.41225 11.4184L 2.1893e-07 10.2157ZM 4.89261 12.4683L 4.95553 10.6143L 4.92186 10.6132L 4.88817 10.6133L 4.89261 12.4683ZM 7.34246 12.0561L 6.67641 10.3248L 7.34246 12.0561ZM 7.34246 0.419322L 6.67641 2.15062L 6.67641 2.15062L 7.34246 0.419322ZM 4.89261 0.00719328L 3.03761 0.00719328L 3.03761 1.92621L 4.95553 1.86113L 4.89261 0.00719328ZM 4.89705 -1.85498C 3.69756 -1.85785 2.51183 -1.59949 1.42228 -1.09784L 2.97385 2.27213C 3.57411 1.99577 4.22735 1.85343 4.88817 1.85501L 4.89705 -1.85498ZM 1.42228 -1.09784C 0.332719 -0.596198 -0.634533 0.136691 -1.41225 1.04989L 1.41225 3.45536C 1.84071 2.95226 2.37359 2.5485 2.97385 2.27213L 1.42228 -1.09784ZM -1.40986 3.45816C -0.748345 4.2318 -0.384844 5.21625 -0.384844 6.23415L 3.32516 6.23415C 3.32516 4.33215 2.64594 2.49267 1.40986 1.04709L -1.40986 3.45816ZM -0.384844 6.23415C -0.384844 7.25205 -0.748345 8.2365 -1.40986 9.01014L 1.40986 11.4212C 2.64594 9.97562 3.32516 8.13614 3.32516 6.23415L -0.384844 6.23415ZM -1.41225 11.4184C -0.634533 12.3316 0.332719 13.0645 1.42228 13.5661L 2.97385 10.1962C 2.37359 9.9198 1.84071 9.51604 1.41225 9.01294L -1.41225 11.4184ZM 1.42228 13.5661C 2.51183 14.0678 3.69756 14.3261 4.89705 14.3233L 4.88817 10.6133C 4.22735 10.6149 3.57411 10.4725 2.97385 10.1962L 1.42228 13.5661ZM 4.82969 14.3222C 5.91444 14.359 6.99551 14.1772 8.0085 13.7874L 6.67641 10.3248C 6.12801 10.5358 5.54276 10.6343 4.95553 10.6143L 4.82969 14.3222ZM 8.0085 13.7874C 9.0215 13.3977 9.94571 12.8082 10.7261 12.0538L 8.1476 9.38632C 7.72514 9.7947 7.22481 10.1139 6.67641 10.3248L 8.0085 13.7874ZM 10.7261 12.0538C 11.5065 11.2995 12.1271 10.3958 12.5509 9.39658L 9.13549 7.94781C 8.90604 8.48873 8.57007 8.97795 8.1476 9.38632L 10.7261 12.0538ZM 12.5509 9.39658C 12.9748 8.39739 13.1932 7.32311 13.1932 6.23774L 9.48319 6.23774C 9.48319 6.82531 9.36494 7.40688 9.13549 7.94781L 12.5509 9.39658ZM 13.1932 6.23774C 13.1932 5.15236 12.9748 4.07809 12.5509 3.07889L 9.13549 4.52766C 9.36494 5.06859 9.48319 5.65016 9.48319 6.23774L 13.1932 6.23774ZM 12.5509 3.07889C 12.1271 2.07969 11.5065 1.17601 10.7261 0.421663L 8.1476 3.08915C 8.57007 3.49752 8.90604 3.98674 9.13549 4.52766L 12.5509 3.07889ZM 10.7261 0.421663C 9.94571 -0.332686 9.0215 -0.92227 8.0085 -1.31198L 6.67641 2.15062C 7.22481 2.3616 7.72514 2.68077 8.1476 3.08915L 10.7261 0.421663ZM 8.0085 -1.31198C 6.99551 -1.70169 5.91444 -1.88355 4.82969 -1.84674L 4.95553 1.86113C 5.54277 1.8412 6.12801 1.93965 6.67641 2.15062L 8.0085 -1.31198ZM 6.74761 0.00719328L 6.74761 1.78332e-05L 3.03761 1.78332e-05L 3.03761 0.00719328L 6.74761 0.00719328Z"/>
</defs>
</svg>
