<svg width="76" height="76" viewBox="0 0 76 76" version="1.1" xmlns="http://www.w3.org/2000/svg" xmlns:xlink="http://www.w3.org/1999/xlink">
<g id="Canvas" fill="none">
<g id="Group">
<g id="Group_2">
<g id="Vector">
<path d="M 29.4194 14.7097C 29.4194 6.59852 22.8208 0 14.7097 0C 6.59852 0 0 6.59852 0 14.7097C 0 22.8208 6.59852 29.4194 14.7097 29.4194C 22.8208 29.4194 29.4194 22.8208 29.4194 14.7097ZM 2.45161 14.7097C 2.45161 7.95058 7.95058 2.45161 14.7097 2.45161C 21.4688 2.45161 26.9677 7.95058 26.9677 14.7097C 26.9677 21.4688 21.4688 26.9677 14.7097 26.9677C 7.95058 26.9677 2.45161 21.4688 2.45161 14.7097Z" transform="translate(41.6772 14.7097)" fill="#D32E28"/>
</g>
<g id="Vector_2">
<path d="M 4.90323 19.6129C 5.58022 19.6129 6.12903 19.0641 6.12903 18.3871L 6.12903 17.0988C 8.2031 16.7985 9.80645 15.0259 9.80645 12.871C 9.80645 10.5052 7.88194 8.58065 5.51613 8.58065L 4.29032 8.58065C 3.27658 8.58065 2.45161 7.75568 2.45161 6.74194C 2.45161 5.72819 3.27658 4.90323 4.29032 4.90323L 5.51613 4.90323C 6.52987 4.90323 7.35484 5.72819 7.35484 6.74194C 7.35484 7.08043 7.62924 7.35484 7.96774 7.35484L 9.19355 7.35484C 9.53205 7.35484 9.80645 7.08043 9.80645 6.74194C 9.80645 4.58697 8.2031 2.81445 6.12903 2.51413L 6.12903 1.22581C 6.12903 0.548812 5.58022 0 4.90323 0C 4.22623 0 3.67742 0.548812 3.67742 1.22581L 3.67742 2.51413C 1.60335 2.81445 0 4.58697 0 6.74194C 0 9.10774 1.92452 11.0323 4.29032 11.0323L 5.51613 11.0323C 6.52987 11.0323 7.35484 11.8572 7.35484 12.871C 7.35484 13.8847 6.52987 14.7097 5.51613 14.7097L 4.29032 14.7097C 3.27658 14.7097 2.45161 13.8847 2.45161 12.871C 2.45161 12.5325 2.17721 12.2581 1.83871 12.2581L 0.612904 12.2581C 0.274406 12.2581 0 12.5325 0 12.871C 0 15.0259 1.60335 16.7985 3.67742 17.0988L 3.67742 18.3871C 3.67742 19.0641 4.22623 19.6129 4.90323 19.6129Z" transform="translate(51.4839 19.6129)" fill="#D32E28"/>
</g>
<g id="Vector_3">
<path d="M 3.67742 7.35484C 5.7049 7.35484 7.35484 5.7049 7.35484 3.67742C 7.35484 1.64994 5.7049 0 3.67742 0C 1.64994 0 0 1.64994 0 3.67742C 0 5.7049 1.64994 7.35484 3.67742 7.35484ZM 3.67742 2.45161C 4.35284 2.45161 4.90323 3.00077 4.90323 3.67742C 4.90323 4.35406 4.35284 4.90323 3.67742 4.90323C 3.002 4.90323 2.45161 4.35406 2.45161 3.67742C 2.45161 3.00077 3.002 2.45161 3.67742 2.45161Z" transform="translate(15.9355 44.129)" fill="#6A707E"/>
</g>
<g id="Vector_4">
<path d="M 41.6774 18.3871C 41.6774 19.0641 42.2262 19.6129 42.9032 19.6129L 73.5484 19.6129L 73.5484 23.2903C 73.5484 25.3178 71.8984 26.9677 69.871 26.9677L 42.9032 26.9677C 40.8757 26.9677 39.2258 25.3178 39.2258 23.2903L 39.2258 18.3871L 39.2258 6.12903C 39.2258 2.74948 36.4763 0 33.0968 0L 6.12903 0C 2.74948 0 0 2.74948 0 6.12903L 0 38C 0 41.3795 2.74948 44.129 6.12903 44.129L 42.9032 44.129C 46.2828 44.129 49.0323 41.3795 49.0323 38L 49.0323 29.4194L 69.871 29.4194C 73.2505 29.4194 76 26.6699 76 23.2903L 76 17.1613L 42.9032 17.1613C 42.2262 17.1613 41.6774 17.7101 41.6774 18.3871ZM 14.7097 2.45161L 24.5161 2.45161L 24.5161 17.1613C 24.5161 19.8654 22.317 22.0645 19.6129 22.0645C 16.9088 22.0645 14.7097 19.8654 14.7097 17.1613L 14.7097 2.45161ZM 6.12903 41.6774C 4.10155 41.6774 2.45161 40.0275 2.45161 38L 2.45161 6.12903C 2.45161 4.10155 4.10155 2.45161 6.12903 2.45161L 12.2581 2.45161L 12.2581 17.1613C 12.2581 21.2175 15.5567 24.5161 19.6129 24.5161C 23.6691 24.5161 26.9677 21.2175 26.9677 17.1613L 26.9677 2.45161L 33.0968 2.45161C 35.1243 2.45161 36.7742 4.10155 36.7742 6.12903L 36.7742 18.3871L 36.7742 23.2903L 36.7742 38C 36.7742 39.379 37.2326 40.6526 38.0025 41.6774L 6.12903 41.6774ZM 46.5806 38C 46.5806 40.0275 44.9307 41.6774 42.9032 41.6774C 40.8757 41.6774 39.2258 40.0275 39.2258 38L 39.2258 28.1617C 39.9417 28.7035 40.7666 29.1092 41.6774 29.2943L 41.6774 38C 41.6774 38.677 42.2262 39.2258 42.9032 39.2258C 43.5802 39.2258 44.129 38.677 44.129 38L 44.129 29.4194L 46.5806 29.4194L 46.5806 38Z" transform="translate(0 31.871)" fill="#6A707E"/>
</g>
<g id="Vector_5">
<path d="M 33.0968 0L 6.12903 0C 2.74948 0 0 2.74948 0 6.12903L 0 29.4194C 0 30.0964 0.548812 30.6452 1.22581 30.6452C 1.9028 30.6452 2.45161 30.0963 2.45161 29.4194L 2.45161 9.80645L 36.7742 9.80645L 36.7742 45.3548C 36.7742 46.0318 37.323 46.5806 38 46.5806C 38.677 46.5806 39.2258 46.0318 39.2258 45.3548L 39.2258 6.12903C 39.2258 2.74948 36.4763 0 33.0968 0ZM 36.7742 7.35484L 2.45161 7.35484L 2.45161 6.12903C 2.45161 4.10155 4.10155 2.45161 6.12903 2.45161L 33.0968 2.45161C 35.1243 2.45161 36.7742 4.10155 36.7742 6.12903L 36.7742 7.35484Z" transform="translate(36.7744 0)" fill="#6A707E"/>
</g>
<g id="Vector_6">
<path d="M 8.58065 0L 1.22581 0C 0.548812 0 0 0.548812 0 1.22581C 0 1.9028 0.548813 2.45161 1.22581 2.45161L 8.58065 2.45161C 9.25764 2.45161 9.80645 1.9028 9.80645 1.22581C 9.80645 0.548812 9.25764 0 8.58065 0Z" transform="translate(51.4839 53.9355)" fill="#6A707E"/>
</g>
<g id="Vector_7">
<path d="M 14.7097 29.4194C 22.8208 29.4194 29.4194 22.8208 29.4194 14.7097C 29.4194 6.59852 22.8208 0 14.7097 0C 6.59852 0 0 6.59852 0 14.7097C 0 22.8208 6.59852 29.4194 14.7097 29.4194ZM 14.7097 2.45161C 21.4688 2.45161 26.9677 7.95058 26.9677 14.7097C 26.9677 21.4688 21.4688 26.9677 14.7097 26.9677C 7.95058 26.9677 2.45161 21.4688 2.45161 14.7097C 2.45161 7.95058 7.95058 2.45161 14.7097 2.45161Z" transform="translate(4.90332 0)" fill="#6A707E"/>
</g>
<g id="Vector_8">
<path d="M 3.67742 17.0988L 3.67742 18.3871C 3.67742 19.0641 4.22623 19.6129 4.90323 19.6129C 5.58022 19.6129 6.12903 19.0641 6.12903 18.3871L 6.12903 17.0988C 8.2031 16.7985 9.80645 15.0259 9.80645 12.871C 9.80645 10.5052 7.88194 8.58065 5.51613 8.58065L 4.29032 8.58065C 3.27658 8.58065 2.45161 7.75568 2.45161 6.74194C 2.45161 5.72819 3.27658 4.90323 4.29032 4.90323L 5.51613 4.90323C 6.52987 4.90323 7.35484 5.72819 7.35484 6.74194C 7.35484 7.08043 7.62924 7.35484 7.96774 7.35484L 9.19355 7.35484C 9.53205 7.35484 9.80645 7.08043 9.80645 6.74194C 9.80645 4.58697 8.2031 2.81445 6.12903 2.51413L 6.12903 1.22581C 6.12903 0.548812 5.58022 0 4.90323 0C 4.22623 0 3.67742 0.548812 3.67742 1.22581L 3.67742 2.51413C 1.60335 2.81445 0 4.58697 0 6.74194C 0 9.10774 1.92452 11.0323 4.29032 11.0323L 5.51613 11.0323C 6.52987 11.0323 7.35484 11.8572 7.35484 12.871C 7.35484 13.8847 6.52987 14.7097 5.51613 14.7097L 4.29032 14.7097C 3.27658 14.7097 2.45161 13.8847 2.45161 12.871C 2.45161 12.5325 2.17721 12.2581 1.83871 12.2581L 0.612904 12.2581C 0.274406 12.2581 0 12.5325 0 12.871C 0 15.0259 1.60335 16.7985 3.67742 17.0988Z" transform="translate(14.71 4.9032)" fill="#D32E28"/>
</g>
</g>
</g>
</g>
</svg>

