<svg width="206" height="136" viewBox="0 0 206 136" version="1.1" xmlns="http://www.w3.org/2000/svg" xmlns:xlink="http://www.w3.org/1999/xlink">
<title>icones</title>
<desc>Created using Figma</desc>
<g id="Canvas" transform="matrix(2 0 0 2 3962 4318)">
<g id="icones">
<g id="Vector">
<use xlink:href="#path0_stroke" transform="matrix(6.12323e-17 -1 1 6.12323e-17 -1980 -2129.09)" fill="#E20A0F"/>
</g>
<g id="Vector">
<use xlink:href="#path1_stroke" transform="translate(-1920.24 -2146.92)" fill="#4D4D4D"/>
</g>
<g id="Vector">
<use xlink:href="#path2_stroke" transform="matrix(6.12323e-17 -1 1 6.12323e-17 -1957.83 -2124.27)" fill="#4D4D4D"/>
</g>
<g id="Vector">
<use xlink:href="#path3_stroke" transform="translate(-1949.79 -2141.15)" fill="#4D4D4D"/>
</g>
</g>
</g>
<defs>
<path id="path0_stroke" d="M 2.8195 1L 21.2757 1L 21.2757 -1L 2.8195 -1L 2.8195 1ZM 21.2757 1C 22.2806 1 23.0952 1.81462 23.0952 2.8195L 25.0952 2.8195C 25.0952 0.710047 23.3851 -1 21.2757 -1L 21.2757 1ZM 23.0952 2.8195L 23.0952 19.3481L 25.0952 19.3481L 25.0952 2.8195L 23.0952 2.8195ZM 23.0952 19.3481C 23.0952 20.3529 22.2806 21.1676 21.2757 21.1676L 21.2757 23.1676C 23.3851 23.1676 25.0952 21.4575 25.0952 19.3481L 23.0952 19.3481ZM 21.2757 21.1676L 2.8195 21.1676L 2.8195 23.1676L 21.2757 23.1676L 21.2757 21.1676ZM 2.8195 21.1676C 1.81462 21.1676 1 20.3529 1 19.3481L -1 19.3481C -1 21.4575 0.710047 23.1676 2.8195 23.1676L 2.8195 21.1676ZM 1 19.3481L 1 2.8195L -1 2.8195L -1 19.3481L 1 19.3481ZM 1 2.8195C 1 1.81462 1.81462 1 2.8195 1L 2.8195 -1C 0.710046 -1 -1 0.710047 -1 2.8195L 1 2.8195Z"/>
<path id="path1_stroke" d="M 12.5295 8.4441L 13.5295 8.4464L 13.5295 8.4441L 12.5295 8.4441ZM 9.40791 11.5657L 9.40791 12.5657L 9.4102 12.5657L 9.40791 11.5657ZM 3.12159 11.5657L 3.11929 12.5657L 3.12159 12.5657L 3.12159 11.5657ZM -4.39001e-07 8.4441L -1 8.4441L -0.999998 8.4464L -4.39001e-07 8.4441ZM -4.39001e-07 3.12158L -1 3.11929L -1 3.12158L -4.39001e-07 3.12158ZM 3.12159 -4.93876e-07L 3.12159 -1L 3.11929 -0.999998L 3.12159 -4.93876e-07ZM 9.40791 -4.93876e-07L 9.4102 -1L 9.40791 -1L 9.40791 -4.93876e-07ZM 11.5295 3.12158L 11.5295 8.4441L 13.5295 8.4441L 13.5295 3.12158L 11.5295 3.12158ZM 11.5295 8.4418C 11.5282 9.0047 11.304 9.54416 10.906 9.94219L 12.3202 11.3564C 13.0922 10.5844 13.527 9.53813 13.5295 8.4464L 11.5295 8.4418ZM 10.906 9.94219C 10.508 10.3402 9.9685 10.5644 9.40561 10.5657L 9.4102 12.5657C 10.5019 12.5632 11.5482 12.1284 12.3202 11.3564L 10.906 9.94219ZM 9.40791 10.5657L 3.12159 10.5657L 3.12159 12.5657L 9.40791 12.5657L 9.40791 10.5657ZM 3.12388 10.5657C 2.56099 10.5644 2.02152 10.3402 1.6235 9.94219L 0.209285 11.3564C 0.981258 12.1284 2.02756 12.5632 3.11929 12.5657L 3.12388 10.5657ZM 1.6235 9.94219C 1.22547 9.54416 1.00129 9.00469 0.999997 8.4418L -0.999998 8.4464C -0.997491 9.53813 -0.562686 10.5844 0.209285 11.3564L 1.6235 9.94219ZM 1 8.4441L 1 3.12158L -1 3.12158L -1 8.4441L 1 8.4441ZM 0.999997 3.12388C 1.00129 2.56099 1.22547 2.02152 1.6235 1.6235L 0.209285 0.209282C -0.562686 0.981254 -0.997491 2.02755 -0.999998 3.11929L 0.999997 3.12388ZM 1.6235 1.6235C 2.02152 1.22547 2.56099 1.00129 3.12388 0.999997L 3.11929 -0.999998C 2.02756 -0.997491 0.981258 -0.562691 0.209285 0.209282L 1.6235 1.6235ZM 3.12159 1L 9.40791 1L 9.40791 -1L 3.12159 -1L 3.12159 1ZM 9.40561 0.999997C 9.9685 1.00129 10.508 1.22547 10.906 1.6235L 12.3202 0.209282C 11.5482 -0.562691 10.5019 -0.997491 9.4102 -0.999998L 9.40561 0.999997ZM 10.906 1.6235C 11.304 2.02152 11.5282 2.56099 11.5295 3.12388L 13.5295 3.11929C 13.527 2.02756 13.0922 0.981257 12.3202 0.209282L 10.906 1.6235Z"/>
<path id="path2_stroke" d="M 3.98469 1L 29.7486 1L 29.7486 -1L 3.98469 -1L 3.98469 1ZM 29.7486 1C 31.397 1 32.7332 2.33629 32.7332 3.98469L 34.7332 3.98469C 34.7332 1.23172 32.5015 -1 29.7486 -1L 29.7486 1ZM 32.7332 3.98469L 32.7332 33.6038L 34.7332 33.6038L 34.7332 3.98469L 32.7332 3.98469ZM 32.7332 33.6038C 32.7332 35.2522 31.397 36.5885 29.7486 36.5885L 29.7486 38.5885C 32.5015 38.5885 34.7332 36.3567 34.7332 33.6038L 32.7332 33.6038ZM 29.7486 36.5885L 3.98469 36.5885L 3.98469 38.5885L 29.7486 38.5885L 29.7486 36.5885ZM 3.98469 36.5885C 2.33629 36.5885 1 35.2522 1 33.6038L -0.999999 33.6038C -0.999999 36.3567 1.23172 38.5885 3.98469 38.5885L 3.98469 36.5885ZM 1 33.6038L 1 3.98469L -0.999999 3.98469L -0.999999 33.6038L 1 33.6038ZM 1 3.98469C 1 2.33629 2.33629 1 3.98469 1L 3.98469 -1C 1.23172 -1 -0.999999 1.23172 -0.999999 3.98469L 1 3.98469Z"/>
<path id="path3_stroke" d="M 42.335 -0.875896C 41.7856 -0.819982 41.3855 -0.329239 41.4414 0.220208C 41.4973 0.769655 41.9881 1.16974 42.5375 1.11383L 42.335 -0.875896ZM 62.5755 4.43452L 63.154 3.61883L 63.1505 3.61634L 62.5755 4.43452ZM 68.3296 32.4856L 69.267 32.8339L 69.267 32.8339L 68.3296 32.4856ZM 0.277361 43.7523C -0.253255 43.5991 -0.807583 43.905 -0.960765 44.4357C -1.11395 44.9663 -0.807976 45.5206 -0.277359 45.6738L 0.277361 43.7523ZM 42.4363 0.118966C 42.5375 1.11383 42.5373 1.11385 42.5372 1.11386C 42.5372 1.11386 42.5371 1.11387 42.5371 1.11387C 42.5373 1.11385 42.5373 1.11385 42.5377 1.11381C 42.5389 1.11369 42.5401 1.11357 42.5424 1.11335C 42.5476 1.11284 42.5543 1.11219 42.5646 1.11123C 42.5866 1.10917 42.6171 1.1064 42.66 1.10277C 42.7485 1.09527 42.8745 1.08532 43.0432 1.07417C 43.3864 1.05142 43.8736 1.02558 44.4939 1.01114C 45.747 0.981611 47.4636 0.998464 49.4445 1.18732C 53.4325 1.56404 58.2193 2.57098 62.0006 5.2527L 63.1505 3.61634C 59.0199 0.738191 53.7371 -0.412646 49.6334 -0.803737C 47.5685 -0.998787 45.7338 -1.01835 44.447 -0.988311C 43.7973 -0.972968 43.2675 -0.945039 42.911 -0.921456C 42.7299 -0.909441 42.5855 -0.89808 42.4911 -0.890076C 42.4424 -0.88595 42.4033 -0.882411 42.3785 -0.880095C 42.3655 -0.878873 42.3546 -0.877824 42.348 -0.87718C 42.3443 -0.876825 42.3411 -0.876505 42.3393 -0.876323C 42.3382 -0.876215 42.3371 -0.876108 42.3366 -0.876054C 42.3362 -0.876018 42.3359 -0.875979 42.3357 -0.875961C 42.3353 -0.875926 42.335 -0.875896 42.4363 0.118966ZM 61.997 5.2502C 68.6266 9.95201 71.7124 20.5093 67.3922 32.1374L 69.267 32.8339C 73.8081 20.6114 70.7227 8.98666 63.154 3.61884L 61.997 5.2502ZM 67.3922 32.1373C 65.0524 38.4349 60.1563 42.4439 53.9068 44.8861C 47.596 47.3616 40.0675 48.1828 32.5451 48.1509C 17.5044 48.0972 3.02318 44.5452 0.277361 43.7523L -0.277359 45.6738C 2.50793 46.4776 17.2609 50.0823 32.537 50.1508C 40.173 50.18 48.0735 49.3038 54.6348 46.7489C 61.2573 44.1609 66.6763 39.8066 69.267 32.8339L 67.3922 32.1373Z"/>
</defs>
</svg>
