<svg width="76" height="76" viewBox="0 0 76 76" version="1.1" xmlns="http://www.w3.org/2000/svg" xmlns:xlink="http://www.w3.org/1999/xlink">
<g id="Canvas" fill="none">
<g id="Group 4">
<g id="money">
<g id="Group">
<g id="Group_2">
<g id="Vector">
<path d="M 2.53374 0.434921C 2.25779 0.158679 1.87481 1.05095e-06 1.48441 1.05095e-06C 1.09401 1.05095e-06 0.711033 0.158679 0.434933 0.434921C 0.158832 0.711163 -2.44624e-07 1.09398 -2.44624e-07 1.48437C -2.44624e-07 1.87476 0.158684 2.25773 0.434933 2.53368C 0.711033 2.80977 1.09401 2.96875 1.48441 2.96875C 1.87481 2.96875 2.25779 2.80992 2.53374 2.53368C 2.80984 2.25773 2.96883 1.87476 2.96883 1.48437C 2.96883 1.09398 2.80999 0.711014 2.53374 0.434921Z" transform="translate(10.0933 67.0938)" fill="#6A707E"/>
</g>
</g>
</g>
<g id="Group_3">
<g id="Group_4">
<g id="Vector_2">
<path d="M 2.53389 0.434922C 2.25779 0.15868 1.8763 -6.52312e-07 1.48441 -6.52312e-07C 1.09401 -6.52312e-07 0.711034 0.15868 0.434933 0.434922C 0.158981 0.711015 1.48586e-06 1.09398 1.48586e-06 1.48437C 1.48586e-06 1.87476 0.158833 2.25773 0.434933 2.53367C 0.711034 2.80977 1.09401 2.96874 1.48441 2.96874C 1.8763 2.96874 2.25779 2.80992 2.53389 2.53367C 2.81133 2.25773 2.97016 1.87476 2.97016 1.48437C 2.97016 1.09398 2.81133 0.711015 2.53389 0.434922Z" transform="translate(67.1616 26.7199)" fill="#6A707E"/>
</g>
</g>
</g>
<g id="Group_5">
<g id="Group_6">
<g id="Vector_3">
<path d="M 75.5652 0.434773C 75.2867 0.156453 74.9091 0 74.5153 0L 37.9996 0.00192968C 37.1799 0.00192968 36.5154 0.666632 36.5154 1.4863L 36.5154 5.73116L 22.4448 9.50132C 21.6528 9.71358 21.1829 10.5275 21.3951 11.3192L 28.6876 38.534L 22.379 44.8424C 21.5761 43.6701 20.2279 42.8991 18.703 42.8991L 4.45309 42.8991C 1.99757 42.8991 0 44.8968 0 47.3521L 0 71.5467C 0 74.0022 1.99757 75.9999 4.45309 75.9999L 18.7032 75.9999C 20.7892 75.9999 22.5441 74.5576 23.025 72.6185L 24.79 74.1576C 26.1525 75.3457 27.8982 76 29.7061 76L 74.5156 76C 75.3353 76 76 75.3353 76 74.5156L 76 1.48437C 75.9997 1.09072 75.8435 0.713092 75.5652 0.434773ZM 20.1873 71.5469C 20.1873 72.3652 19.5214 73.0313 18.7029 73.0313L 4.45294 73.0313C 3.63444 73.0313 2.96853 72.3654 2.96853 71.5469L 2.96853 47.3522C 2.96853 46.5337 3.63444 45.8678 4.45294 45.8678L 10.0936 45.8678L 10.0936 62.9671C 10.0936 63.7867 10.7583 64.4514 11.578 64.4514C 12.3977 64.4514 13.0624 63.7867 13.0624 62.9671L 13.0624 45.8678L 18.703 45.8678C 19.5215 45.8678 20.1874 46.5337 20.1874 47.3522L 20.1874 71.5469L 20.1873 71.5469ZM 24.6469 11.9847L 36.5154 8.80455L 36.5154 14.3049L 35.5205 14.5715C 35.1401 14.6735 34.816 14.9221 34.6192 15.2631C 34.4223 15.604 34.3689 16.0091 34.4709 16.3894C 35.0413 18.5181 33.7735 20.714 31.6447 21.2844C 31.264 21.3865 30.9393 21.6356 30.7426 21.9773C 30.5459 22.3189 30.493 22.7247 30.5958 23.1053L 36.3819 44.5304L 33.4027 44.5304L 31.8674 38.5241C 31.8185 38.3329 31.733 38.1567 31.6186 38.0035L 24.6469 11.9847ZM 36.5154 21.1121L 36.5154 33.6374L 33.8079 23.6126C 34.9389 23.0287 35.8644 22.155 36.5154 21.1121ZM 57.841 73.0311L 29.7058 73.0311C 28.6155 73.0311 27.5626 72.6366 26.7408 71.9201L 23.1561 68.7938L 23.1561 48.2639L 29.6367 41.7834L 30.8121 46.382C 30.9801 47.0392 31.572 47.4987 32.2502 47.4987L 61.4343 47.5005C 62.5803 47.5005 63.5125 48.4327 63.5125 49.5786C 63.5125 50.7246 62.5803 51.6567 61.4343 51.6567L 46.4804 51.6567C 45.6607 51.6567 44.996 52.3214 44.996 53.1411C 44.996 53.9608 45.6607 54.6255 46.4804 54.6255L 66.0806 54.6255C 67.2265 54.6255 68.1587 55.5577 68.1587 56.7036C 68.1587 57.8495 67.2265 58.7817 66.0806 58.7817L 46.4804 58.7817C 45.6607 58.7817 44.996 59.4464 44.996 60.2661C 44.996 61.0858 45.6607 61.7505 46.4804 61.7505L 62.9044 61.7505C 64.0503 61.7505 64.9825 62.6827 64.9825 63.8286C 64.9825 64.9745 64.0503 65.9067 62.9044 65.9067L 46.4804 65.9067C 45.6607 65.9067 44.996 66.5714 44.996 67.3911C 44.996 68.2108 45.6607 68.8755 46.4804 68.8755L 57.841 68.8755C 58.987 68.8755 59.9192 69.8076 59.9192 70.9536C 59.9191 72.0989 58.9869 73.0311 57.841 73.0311ZM 73.0312 73.0311L 73.031 73.0311L 62.4384 73.0311C 62.7262 72.3968 62.8879 71.6937 62.8879 70.953C 62.8879 70.2123 62.7262 69.5091 62.4384 68.8749L 62.9044 68.8749C 65.6872 68.8749 67.9512 66.6109 67.9512 63.8282C 67.9512 63.0165 67.7575 62.2495 67.4155 61.5694C 69.5525 60.9825 71.1273 59.0238 71.1273 56.7033C 71.1273 55.5776 70.7565 54.5369 70.1311 53.6967L 70.1311 34.8838C 70.1311 34.0641 69.4664 33.3994 68.6467 33.3994C 67.827 33.3994 67.1623 34.0641 67.1623 34.8838L 67.1623 51.7748C 66.8134 51.6983 66.4517 51.6567 66.0803 51.6567L 66.0316 51.6567C 66.3194 51.0225 66.4811 50.3193 66.4811 49.5786C 66.4811 46.7957 64.217 44.5319 61.4342 44.5319L 59.048 44.5319C 61.5818 43.4453 63.3613 40.927 63.3613 37.9999C 63.3613 34.0828 60.1745 30.896 56.2573 30.896C 52.3402 30.896 49.1534 34.0828 49.1534 37.9999C 49.1534 40.927 50.933 43.4453 53.4666 44.5319L 45.3524 44.5319L 45.3524 16.3078C 48.0041 15.7299 50.0966 13.6377 50.6743 10.9858L 61.8402 10.9858C 62.4179 13.6377 64.5103 15.7299 67.1621 16.3078L 67.1621 20.9227C 67.1621 21.7423 67.8268 22.407 68.6465 22.407C 69.4662 22.407 70.1309 21.7423 70.1309 20.9227L 70.1309 14.9825C 70.1309 14.1628 69.4662 13.4981 68.6465 13.4981C 66.4426 13.4981 64.6499 11.7052 64.6499 9.50147C 64.6499 8.6818 63.9852 8.01709 63.1655 8.01709L 49.3492 8.01709C 48.5295 8.01709 47.8647 8.6818 47.8647 9.50147C 47.8647 11.7053 46.0719 13.4981 43.8681 13.4981C 43.0484 13.4981 42.3837 14.1628 42.3837 14.9825L 42.3837 44.5318L 39.4843 44.5318L 39.4843 2.97038L 73.0312 2.96874L 73.0312 73.0311ZM 56.2576 42.1351C 53.9774 42.1351 52.1225 40.2801 52.1225 38.0001C 52.1225 35.7201 53.9776 33.8649 56.2576 33.8649C 58.5377 33.8649 60.3927 35.7199 60.3927 37.9999C 60.3927 40.2799 58.5378 42.1351 56.2576 42.1351Z" fill="#6A707E"/>
</g>
<g id="Vector_4">
<path d="M 75.5652 0.434773C 75.2867 0.156453 74.9091 0 74.5153 0L 37.9996 0.00192968C 37.1799 0.00192968 36.5154 0.666632 36.5154 1.4863L 36.5154 5.73116L 22.4448 9.50132C 21.6528 9.71358 21.1829 10.5275 21.3951 11.3192L 28.6876 38.534L 22.379 44.8424C 21.5761 43.6701 20.2279 42.8991 18.703 42.8991L 4.45309 42.8991C 1.99757 42.8991 0 44.8968 0 47.3521L 0 71.5467C 0 74.0022 1.99757 75.9999 4.45309 75.9999L 18.7032 75.9999C 20.7892 75.9999 22.5441 74.5576 23.025 72.6185L 24.79 74.1576C 26.1525 75.3457 27.8982 76 29.7061 76L 74.5156 76C 75.3353 76 76 75.3353 76 74.5156L 76 1.48437C 75.9997 1.09072 75.8435 0.713092 75.5652 0.434773ZM 20.1873 71.5469C 20.1873 72.3652 19.5214 73.0313 18.7029 73.0313L 4.45294 73.0313C 3.63444 73.0313 2.96853 72.3654 2.96853 71.5469L 2.96853 47.3522C 2.96853 46.5337 3.63444 45.8678 4.45294 45.8678L 10.0936 45.8678L 10.0936 62.9671C 10.0936 63.7867 10.7583 64.4514 11.578 64.4514C 12.3977 64.4514 13.0624 63.7867 13.0624 62.9671L 13.0624 45.8678L 18.703 45.8678C 19.5215 45.8678 20.1874 46.5337 20.1874 47.3522L 20.1874 71.5469L 20.1873 71.5469ZM 24.6469 11.9847L 36.5154 8.80455L 36.5154 14.3049L 35.5205 14.5715C 35.1401 14.6735 34.816 14.9221 34.6192 15.2631C 34.4223 15.604 34.3689 16.0091 34.4709 16.3894C 35.0413 18.5181 33.7735 20.714 31.6447 21.2844C 31.264 21.3865 30.9393 21.6356 30.7426 21.9773C 30.5459 22.3189 30.493 22.7247 30.5958 23.1053L 36.3819 44.5304L 33.4027 44.5304L 31.8674 38.5241C 31.8185 38.3329 31.733 38.1567 31.6186 38.0035L 24.6469 11.9847ZM 36.5154 21.1121L 36.5154 33.6374L 33.8079 23.6126C 34.9389 23.0287 35.8644 22.155 36.5154 21.1121ZM 57.841 73.0311L 29.7058 73.0311C 28.6155 73.0311 27.5626 72.6366 26.7408 71.9201L 23.1561 68.7938L 23.1561 48.2639L 29.6367 41.7834L 30.8121 46.382C 30.9801 47.0392 31.572 47.4987 32.2502 47.4987L 61.4343 47.5005C 62.5803 47.5005 63.5125 48.4327 63.5125 49.5786C 63.5125 50.7246 62.5803 51.6567 61.4343 51.6567L 46.4804 51.6567C 45.6607 51.6567 44.996 52.3214 44.996 53.1411C 44.996 53.9608 45.6607 54.6255 46.4804 54.6255L 66.0806 54.6255C 67.2265 54.6255 68.1587 55.5577 68.1587 56.7036C 68.1587 57.8495 67.2265 58.7817 66.0806 58.7817L 46.4804 58.7817C 45.6607 58.7817 44.996 59.4464 44.996 60.2661C 44.996 61.0858 45.6607 61.7505 46.4804 61.7505L 62.9044 61.7505C 64.0503 61.7505 64.9825 62.6827 64.9825 63.8286C 64.9825 64.9745 64.0503 65.9067 62.9044 65.9067L 46.4804 65.9067C 45.6607 65.9067 44.996 66.5714 44.996 67.3911C 44.996 68.2108 45.6607 68.8755 46.4804 68.8755L 57.841 68.8755C 58.987 68.8755 59.9192 69.8076 59.9192 70.9536C 59.9191 72.0989 58.9869 73.0311 57.841 73.0311ZM 73.0312 73.0311L 73.031 73.0311L 62.4384 73.0311C 62.7262 72.3968 62.8879 71.6937 62.8879 70.953C 62.8879 70.2123 62.7262 69.5091 62.4384 68.8749L 62.9044 68.8749C 65.6872 68.8749 67.9512 66.6109 67.9512 63.8282C 67.9512 63.0165 67.7575 62.2495 67.4155 61.5694C 69.5525 60.9825 71.1273 59.0238 71.1273 56.7033C 71.1273 55.5776 70.7565 54.5369 70.1311 53.6967L 70.1311 34.8838C 70.1311 34.0641 69.4664 33.3994 68.6467 33.3994C 67.827 33.3994 67.1623 34.0641 67.1623 34.8838L 67.1623 51.7748C 66.8134 51.6983 66.4517 51.6567 66.0803 51.6567L 66.0316 51.6567C 66.3194 51.0225 66.4811 50.3193 66.4811 49.5786C 66.4811 46.7957 64.217 44.5319 61.4342 44.5319L 59.048 44.5319C 61.5818 43.4453 63.3613 40.927 63.3613 37.9999C 63.3613 34.0828 60.1745 30.896 56.2573 30.896C 52.3402 30.896 49.1534 34.0828 49.1534 37.9999C 49.1534 40.927 50.933 43.4453 53.4666 44.5319L 45.3524 44.5319L 45.3524 16.3078C 48.0041 15.7299 50.0966 13.6377 50.6743 10.9858L 61.8402 10.9858C 62.4179 13.6377 64.5103 15.7299 67.1621 16.3078L 67.1621 20.9227C 67.1621 21.7423 67.8268 22.407 68.6465 22.407C 69.4662 22.407 70.1309 21.7423 70.1309 20.9227L 70.1309 14.9825C 70.1309 14.1628 69.4662 13.4981 68.6465 13.4981C 66.4426 13.4981 64.6499 11.7052 64.6499 9.50147C 64.6499 8.6818 63.9852 8.01709 63.1655 8.01709L 49.3492 8.01709C 48.5295 8.01709 47.8647 8.6818 47.8647 9.50147C 47.8647 11.7053 46.0719 13.4981 43.8681 13.4981C 43.0484 13.4981 42.3837 14.1628 42.3837 14.9825L 42.3837 44.5318L 39.4843 44.5318L 39.4843 2.97038L 73.0312 2.96874L 73.0312 73.0311ZM 56.2576 42.1351C 53.9774 42.1351 52.1225 40.2801 52.1225 38.0001C 52.1225 35.7201 53.9776 33.8649 56.2576 33.8649C 58.5377 33.8649 60.3927 35.7199 60.3927 37.9999C 60.3927 40.2799 58.5378 42.1351 56.2576 42.1351Z" fill="#6A707E"/>
</g>
</g>
</g>
</g>
<g id="Vector_5">
<path d="M 2.53389 0.434922C 2.25779 0.158681 1.8763 0 1.48441 0C 1.09401 0 0.711033 0.158681 0.434932 0.434922C 0.15898 0.711015 0 1.09398 0 1.48437C 0 1.87476 0.158831 2.25773 0.434932 2.53367C 0.711033 2.80977 1.09401 2.96874 1.48441 2.96874C 1.8763 2.96874 2.25779 2.80992 2.53389 2.53367C 2.81133 2.25773 2.97016 1.87476 2.97016 1.48437C 2.97016 1.09398 2.81133 0.711015 2.53389 0.434922Z" transform="translate(67.1616 26.7199)" fill="#D32E28"/>
</g>
<g id="Vector_6">
<path d="M 27.7474 26.8667L 27.7474 45.6796L 24.7786 43.7577L 24.7786 26.8667C 24.7786 26.047 25.4433 25.3823 26.263 25.3823C 27.0827 25.3823 27.7474 26.047 27.7474 26.8667Z" transform="translate(42.3838 8.01709)" fill="#D32E28"/>
<path d="M 2.96867 8.29066L 2.96867 36.5148L 0 36.5147L 0 6.96542C 0 6.14575 0.66472 5.48104 1.48441 5.48104C 3.68817 5.48104 5.48104 3.68822 5.48104 1.48437C 5.48104 0.664703 6.14576 0 6.96545 0L 20.7818 0C 21.6015 0 22.2662 0.664703 22.2662 1.48437C 22.2662 3.68807 24.0589 5.48104 26.2628 5.48104C 27.0825 5.48104 27.7472 6.14575 27.7472 6.96542L 27.7472 12.9056C 27.7472 13.7252 27.0825 14.3899 26.2628 14.3899C 25.4431 14.3899 24.7784 13.7252 24.7784 12.9056L 24.7784 8.29066C 22.1266 7.7128 20.0342 5.62058 19.4565 2.96875L 8.29059 2.96875C 7.71285 5.62058 5.62043 7.7128 2.96867 8.29066Z" transform="translate(42.3838 8.01709)" fill="#D32E28"/>
</g>
</g>
</g>
</svg>

