<svg width="288" height="192" viewBox="0 0 288 192" version="1.1" xmlns="http://www.w3.org/2000/svg" xmlns:xlink="http://www.w3.org/1999/xlink">
<title>icn_cartao</title>
<desc>Created using Figma</desc>
<g id="Canvas" transform="matrix(2 0 0 2 7934 610)">
<g id="icn_cartao">
<g id="Camada 2">
<g id="icones">
<g id="Vector">
<use xlink:href="#path0_stroke" transform="matrix(6.12323e-17 -1 1 6.12323e-17 -3965 -211)" fill="#4D4D4D"/>
</g>
<g id="Vector">
<use xlink:href="#path1_stroke" transform="translate(-3963.95 -286.07)" fill="#4D4D4D"/>
</g>
<g id="Vector">
<use xlink:href="#path2_stroke" transform="translate(-3963.95 -272.7)" fill="#4D4D4D"/>
</g>
<g id="Vector">
<use xlink:href="#path3_stroke" transform="translate(-3948.86 -227.93)" fill="#4D4D4D"/>
</g>
<g id="Vector">
<use xlink:href="#path4_stroke" transform="translate(-3948.86 -241.3)" fill="#4D4D4D"/>
</g>
<g id="Vector">
<use xlink:href="#path5_stroke" transform="translate(-3872.43 -245.31)" fill="#E20A0F"/>
</g>
<g id="Vector">
<use xlink:href="#path6_stroke" transform="translate(-3856.68 -245.31)" fill="#E20A0F"/>
</g>
</g>
</g>
</g>
</g>
<defs>
<path id="path0_stroke" d="M 8.93 1.86L 83.07 1.86L 83.07 -1.86L 8.93 -1.86L 8.93 1.86ZM 83.07 1.86C 86.9747 1.86 90.14 5.02535 90.14 8.93L 93.86 8.93C 93.86 2.97085 89.0292 -1.86 83.07 -1.86L 83.07 1.86ZM 90.14 8.93L 90.14 131.07L 93.86 131.07L 93.86 8.93L 90.14 8.93ZM 90.14 131.07C 90.14 134.975 86.9747 138.14 83.07 138.14L 83.07 141.86C 89.0292 141.86 93.86 137.029 93.86 131.07L 90.14 131.07ZM 83.07 138.14L 8.93 138.14L 8.93 141.86L 83.07 141.86L 83.07 138.14ZM 8.93 138.14C 5.02535 138.14 1.86 134.975 1.86 131.07L -1.86 131.07C -1.86 137.029 2.97085 141.86 8.93 141.86L 8.93 138.14ZM 1.86 131.07L 1.86 8.93L -1.86 8.93L -1.86 131.07L 1.86 131.07ZM 1.86 8.93C 1.86 5.02535 5.02535 1.86 8.93 1.86L 8.93 -1.86C 2.97085 -1.86 -1.86 2.97085 -1.86 8.93L 1.86 8.93Z"/>
<path id="path1_stroke" d="M 8.58307e-08 -1.87C -1.03277 -1.87 -1.87 -1.03277 -1.87 9.15527e-07C -1.87 1.03277 -1.03277 1.87 8.58307e-08 1.87L 8.58307e-08 -1.87ZM 137.9 1.87C 138.933 1.87 139.77 1.03277 139.77 9.15527e-07C 139.77 -1.03277 138.933 -1.87 137.9 -1.87L 137.9 1.87ZM 8.58307e-08 1.87L 137.9 1.87L 137.9 -1.87L 8.58307e-08 -1.87L 8.58307e-08 1.87Z"/>
<path id="path2_stroke" d="M 8.58307e-08 -1.87C -1.03277 -1.87 -1.87 -1.03277 -1.87 -1.52588e-07C -1.87 1.03277 -1.03277 1.87 8.58307e-08 1.87L 8.58307e-08 -1.87ZM 137.9 1.87C 138.933 1.87 139.77 1.03277 139.77 -1.52588e-07C 139.77 -1.03277 138.933 -1.87 137.9 -1.87L 137.9 1.87ZM 8.58307e-08 1.87L 137.9 1.87L 137.9 -1.87L 8.58307e-08 -1.87L 8.58307e-08 1.87Z"/>
<path id="path3_stroke" d="M 0 -1.855C -1.02449 -1.855 -1.855 -1.02449 -1.855 3.05176e-07C -1.855 1.02449 -1.02449 1.855 0 1.855L 0 -1.855ZM 62.78 1.855C 63.8045 1.855 64.635 1.02449 64.635 3.05176e-07C 64.635 -1.02449 63.8045 -1.855 62.78 -1.855L 62.78 1.855ZM 0 1.855L 62.78 1.855L 62.78 -1.855L 0 -1.855L 0 1.855Z"/>
<path id="path4_stroke" d="M 0 -1.855C -1.02449 -1.855 -1.855 -1.02449 -1.855 1.37329e-06C -1.855 1.02449 -1.02449 1.855 0 1.855L 0 -1.855ZM 33.44 1.855C 34.4645 1.855 35.295 1.02449 35.295 1.37329e-06C 35.295 -1.02449 34.4645 -1.855 33.44 -1.855L 33.44 1.855ZM 0 1.855L 33.44 1.855L 33.44 -1.855L 0 -1.855L 0 1.855Z"/>
<path id="path5_stroke" d="M 15.885 8.69C 15.885 12.4292 12.7803 15.525 8.87 15.525L 8.87 19.235C 14.7572 19.235 19.595 14.5495 19.595 8.69L 15.885 8.69ZM 8.87 15.525C 4.95969 15.525 1.855 12.4292 1.855 8.69L -1.855 8.69C -1.855 14.5495 2.98279 19.235 8.87 19.235L 8.87 15.525ZM 1.855 8.69C 1.855 4.9508 4.95969 1.855 8.87 1.855L 8.87 -1.855C 2.98279 -1.855 -1.855 2.83048 -1.855 8.69L 1.855 8.69ZM 8.87 1.855C 12.7803 1.855 15.885 4.9508 15.885 8.69L 19.595 8.69C 19.595 2.83049 14.7572 -1.855 8.87 -1.855L 8.87 1.855Z"/>
<path id="path6_stroke" d="M 6.82 2.48584e-05L 8.675 2.48584e-05L 8.675 -1.85054L 6.82444 -1.85497L 6.82 2.48584e-05ZM 3.05176e-07 3.14002L -1.41225 1.93729L -2.43861 3.14244L -1.40986 4.34556L 3.05176e-07 3.14002ZM 2.04931 8.69002L 0.194309 8.69002L 2.04931 8.69002ZM 3.05176e-07 14.24L -1.40986 13.0345L -2.43861 14.2376L -1.41225 15.4428L 3.05176e-07 14.24ZM 6.82 17.38L 6.88292 15.5261L 6.84925 15.525L 6.81556 15.525L 6.82 17.38ZM 6.82 0.010027L 4.965 0.010027L 4.965 1.92905L 6.88292 1.86396L 6.82 0.010027ZM 6.82444 -1.85497C 5.25853 -1.85872 3.71058 -1.52143 2.28818 -0.866542L 3.83975 2.50343C 4.77285 2.07382 5.78831 1.85256 6.81556 1.85502L 6.82444 -1.85497ZM 2.28818 -0.866542C 0.86578 -0.211654 -0.396952 0.745121 -1.41225 1.93729L 1.41225 4.34276C 2.07829 3.56069 2.90665 2.93304 3.83975 2.50343L 2.28818 -0.866542ZM -1.40986 4.34556C -0.374576 5.55632 0.194309 7.09699 0.194309 8.69002L 3.90431 8.69002C 3.90431 6.21289 3.01971 3.81719 1.40986 1.93449L -1.40986 4.34556ZM 0.194309 8.69002C 0.194309 10.2831 -0.374577 11.8237 -1.40986 13.0345L 1.40986 15.4456C 3.01971 13.5629 3.90431 11.1672 3.90431 8.69002L 0.194309 8.69002ZM -1.41225 15.4428C -0.396952 16.6349 0.86578 17.5917 2.28818 18.2466L 3.83975 14.8766C 2.90665 14.447 2.07829 13.8194 1.41225 13.0373L -1.41225 15.4428ZM 2.28818 18.2466C 3.71058 18.9015 5.25853 19.2388 6.82444 19.235L 6.81556 15.525C 5.78831 15.5275 4.77285 15.3062 3.83975 14.8766L 2.28818 18.2466ZM 6.75708 19.234C 8.17117 19.2819 9.58045 19.0449 10.901 18.5368L 9.56889 15.0742C 8.71294 15.4035 7.79949 15.5572 6.88292 15.5261L 6.75708 19.234ZM 10.901 18.5368C 12.2215 18.0288 13.4263 17.2602 14.4436 16.2769L 11.8651 13.6094C 11.2058 14.2468 10.4248 14.7449 9.56889 15.0742L 10.901 18.5368ZM 14.4436 16.2769C 15.4609 15.2935 16.27 14.1155 16.8225 12.8129L 13.4071 11.3641C 13.0489 12.2084 12.5245 12.972 11.8651 13.6094L 14.4436 16.2769ZM 16.8225 12.8129C 17.375 11.5103 17.6597 10.1099 17.6597 8.69503L 13.9497 8.69503C 13.9497 9.61213 13.7652 10.5198 13.4071 11.3641L 16.8225 12.8129ZM 17.6597 8.69503C 17.6597 7.28013 17.375 5.8797 16.8225 4.57715L 13.4071 6.02592C 13.7652 6.8702 13.9497 7.77793 13.9497 8.69503L 17.6597 8.69503ZM 16.8225 4.57715C 16.27 3.27459 15.4609 2.09655 14.4436 1.11319L 11.8651 3.78067C 12.5245 4.41807 13.0489 5.18164 13.4071 6.02592L 16.8225 4.57715ZM 14.4436 1.11319C 13.4263 0.129817 12.2215 -0.638766 10.901 -1.14679L 9.56889 2.31581C 10.4248 2.6451 11.2058 3.14328 11.8651 3.78067L 14.4436 1.11319ZM 10.901 -1.14679C 9.58044 -1.65482 8.17116 -1.8919 6.75708 -1.84391L 6.88292 1.86396C 7.79949 1.83285 8.71295 1.98652 9.56889 2.31581L 10.901 -1.14679ZM 8.675 0.010027L 8.675 2.48584e-05L 4.965 2.48584e-05L 4.965 0.010027L 8.675 0.010027Z"/>
</defs>
</svg>
