<svg width="76" height="56" viewBox="0 0 76 56" version="1.1" xmlns="http://www.w3.org/2000/svg" xmlns:xlink="http://www.w3.org/1999/xlink">
<g id="Canvas" fill="none">
<g id="credit-card">
<g id="Group">
<g id="Vector">
<path d="M 70.6585 0L 5.34153 0C 2.39653 0 0 2.38476 0 5.31529L 0 50.1442C 0 53.0747 2.39653 55.4595 5.34153 55.4595L 70.6585 55.4595C 73.6035 55.4595 76 53.0747 76 50.1442L 76 5.31529C 76 2.38476 73.6035 0 70.6585 0ZM 73.4667 50.1442C 73.4667 51.6844 72.2076 52.9386 70.6585 52.9386L 5.34153 52.9386C 3.7924 52.9386 2.53333 51.6844 2.53333 50.1442L 2.53333 5.31529C 2.53333 3.77502 3.7924 2.52088 5.34153 2.52088L 70.6585 2.52088C 72.2076 2.52088 73.4667 3.77502 73.4667 5.31529L 73.4667 50.1442Z" fill="#6A707E"/>
</g>
<g id="Vector_2">
<path d="M 12.6667 0L 1.26667 0C 0.5662 0 0 0.564678 0 1.26044C 0 1.95621 0.5662 2.52088 1.26667 2.52088L 12.6667 2.52088C 13.3671 2.52088 13.9333 1.95621 13.9333 1.26044C 13.9333 0.564678 13.3671 0 12.6667 0Z" transform="translate(7.6001 36.5528)" fill="#6A707E"/>
</g>
<g id="Vector_3">
<path d="M 12.6667 0L 1.26667 0C 0.5662 0 0 0.564678 0 1.26044C 0 1.95621 0.5662 2.52088 1.26667 2.52088L 12.6667 2.52088C 13.3671 2.52088 13.9333 1.95621 13.9333 1.26044C 13.9333 0.564678 13.3671 0 12.6667 0Z" transform="translate(24.0664 36.5528)" fill="#6A707E"/>
</g>
<g id="Vector_4">
<path d="M 2.53333 0L 1.26667 0C 0.5662 0 0 0.564678 0 1.26044C 0 1.95621 0.5662 2.52088 1.26667 2.52088L 2.53333 2.52088C 3.2338 2.52088 3.8 1.95621 3.8 1.26044C 3.8 0.564678 3.2338 0 2.53333 0Z" transform="translate(7.6001 42.855)" fill="#6A707E"/>
</g>
<g id="Vector_5">
<path d="M 3.8 0L 1.26667 0C 0.5662 0 0 0.564678 0 1.26044C 0 1.95621 0.5662 2.52088 1.26667 2.52088L 3.8 2.52088C 4.50047 2.52088 5.06667 1.95621 5.06667 1.26044C 5.06667 0.564678 4.50047 0 3.8 0Z" transform="translate(13.9336 42.855)" fill="#6A707E"/>
</g>
<g id="Vector_6">
<path d="M 2.53333 0L 1.26667 0C 0.5662 0 0 0.564678 0 1.26044C 0 1.95621 0.5662 2.52088 1.26667 2.52088L 2.53333 2.52088C 3.2338 2.52088 3.8 1.95621 3.8 1.26044C 3.8 0.564678 3.2338 0 2.53333 0Z" transform="translate(21.5337 42.855)" fill="#6A707E"/>
</g>
<g id="Vector_7">
<path d="M 3.8 0L 1.26667 0C 0.5662 0 0 0.564678 0 1.26044C 0 1.95621 0.5662 2.52088 1.26667 2.52088L 3.8 2.52088C 4.50047 2.52088 5.06667 1.95621 5.06667 1.26044C 5.06667 0.564678 4.50047 0 3.8 0Z" transform="translate(27.8667 42.855)" fill="#6A707E"/>
</g>
<g id="Vector_8">
<path d="M 0.367334 0.349774C 0.138068 0.589258 0 0.916972 0 1.24469C 0 1.5724 0.138068 1.90012 0.367334 2.1396C 0.606734 2.36648 0.937333 2.50513 1.26667 2.50513C 1.596 2.50513 1.92533 2.36648 2.166 2.1396C 2.394 1.90012 2.53333 1.5724 2.53333 1.24469C 2.53333 0.916972 2.394 0.589258 2.166 0.349774C 1.68467 -0.11659 0.822068 -0.11659 0.367334 0.349774Z" transform="translate(35.4663 42.8708)" fill="#6A707E"/>
</g>
<g id="Vector_9">
<path d="M 17.7333 0C 16.1171 0 14.6059 0.439893 13.3 1.19364C 11.9941 0.439893 10.4829 0 8.86667 0C 3.9786 0 0 3.95779 0 8.8231C 0 13.6884 3.9786 17.6462 8.86667 17.6462C 10.4829 17.6462 11.9941 17.2063 13.3 16.4526C 14.6059 17.2063 16.1171 17.6462 17.7333 17.6462C 22.6214 17.6462 26.6 13.6884 26.6 8.8231C 26.6 3.95779 22.6214 0 17.7333 0ZM 15.2 8.8231C 15.2 10.5802 14.4704 12.1683 13.3 13.3128C 12.1296 12.1683 11.4 10.5802 11.4 8.8231C 11.4 7.06604 12.1296 5.47788 13.3 4.3334C 14.4704 5.47788 15.2 7.06604 15.2 8.8231ZM 2.53333 8.8231C 2.53333 5.34806 5.37447 2.52088 8.86667 2.52088C 9.66593 2.52088 10.4247 2.68474 11.1302 2.95574C 9.728 4.51617 8.86667 6.56942 8.86667 8.8231C 8.86667 11.0768 9.728 13.13 11.1302 14.6905C 10.4247 14.9614 9.66593 15.1253 8.86667 15.1253C 5.37447 15.1253 2.53333 12.2981 2.53333 8.8231ZM 17.7333 15.1253C 16.9341 15.1253 16.1753 14.9614 15.4698 14.6905C 16.872 13.13 17.7333 11.0768 17.7333 8.8231C 17.7333 6.56942 16.872 4.51617 15.4698 2.95574C 16.1753 2.68474 16.9341 2.52088 17.7333 2.52088C 21.2255 2.52088 24.0667 5.34806 24.0667 8.8231C 24.0667 12.2981 21.2255 15.1253 17.7333 15.1253Z" transform="translate(43.0664 31.511)" fill="#D32E28"/>
</g>
<g id="Vector_10">
<path d="M 2.85633 17.6462L 10.4563 17.6462L 12.3437 17.6462L 19.9437 17.6462C 21.5181 17.6462 22.8 16.3706 22.8 14.8039L 22.8 4.72036L 22.8 2.8423C 22.8 1.27557 21.5181 0 19.9437 0L 10.4563 0L 2.85633 0C 1.28187 0 0 1.27557 0 2.8423L 0 14.8039C 0 16.3706 1.28187 17.6462 2.85633 17.6462ZM 7.6 10.0835L 2.53333 10.0835L 2.53333 7.56265L 7.6 7.56265L 7.6 10.0835ZM 2.53333 14.8039L 2.53333 12.6044L 7.6 12.6044L 7.6 14.8039C 7.6 14.9136 7.62027 15.0182 7.63293 15.1253L 2.85633 15.1253C 2.67773 15.1253 2.53333 14.9816 2.53333 14.8039ZM 20.2667 10.0835L 15.2 10.0835L 15.2 7.88406C 15.2 7.70634 15.3444 7.56265 15.523 7.56265L 19.9437 7.56265C 20.0539 7.56265 20.159 7.54249 20.2667 7.52988L 20.2667 10.0835ZM 19.9437 15.1253L 15.1671 15.1253C 15.1797 15.0182 15.2 14.9136 15.2 14.8039L 15.2 12.6044L 20.2667 12.6044L 20.2667 14.8039C 20.2667 14.9816 20.1223 15.1253 19.9437 15.1253ZM 19.9437 2.52088C 20.1223 2.52088 20.2667 2.66457 20.2667 2.8423L 20.2667 4.72036C 20.2667 4.89808 20.1223 5.04177 19.9437 5.04177L 15.523 5.04177C 13.9485 5.04177 12.6667 6.31734 12.6667 7.88406L 12.6667 14.8039C 12.6667 14.9816 12.5223 15.1253 12.3437 15.1253L 10.4563 15.1253C 10.2777 15.1253 10.1333 14.9816 10.1333 14.8039L 10.1333 2.8423C 10.1333 2.66457 10.2777 2.52088 10.4563 2.52088L 19.9437 2.52088ZM 2.85633 2.52088L 7.63293 2.52088C 7.62027 2.62802 7.6 2.73264 7.6 2.8423L 7.6 5.04177L 2.53333 5.04177L 2.53333 2.8423C 2.53333 2.66457 2.67773 2.52088 2.85633 2.52088Z" transform="translate(7.6001 10.0836)" fill="#6A707E"/>
</g>
</g>
</g>
</g>
</svg>

