<svg width="102" height="136" viewBox="0 0 102 136" version="1.1" xmlns="http://www.w3.org/2000/svg" xmlns:xlink="http://www.w3.org/1999/xlink">
<title>icones</title>
<desc>Created using Figma</desc>
<g id="Canvas" transform="matrix(2 0 0 2 3654 4622)">
<g id="icones">
<g id="Vector">
<use xlink:href="#path0_stroke" transform="translate(-1825.91 -2254.48)" fill="#4D4D4D"/>
</g>
<g id="Vector">
<use xlink:href="#path1_stroke" transform="translate(-1820.73 -2284.34)" fill="#D52B1E"/>
</g>
<g id="Vector">
<use xlink:href="#path2_stroke" transform="translate(-1820.7 -2277.27)" fill="#D52B1E"/>
</g>
<g id="Vector">
<use xlink:href="#path3_stroke" transform="translate(-1821.9 -2270.05)" fill="#D52B1E"/>
</g>
<g id="Vector">
<use xlink:href="#path4_stroke" transform="translate(-1808.39 -2296.9)" fill="#D52B1E"/>
</g>
<g id="Vector">
<use xlink:href="#path5_stroke" transform="matrix(-0.894154 0.447759 -0.447759 -0.894154 -1789.73 -2281.53)" fill="#D52B1E"/>
</g>
<g id="Vector">
<use xlink:href="#path6_stroke" transform="matrix(-0.894154 0.447759 -0.447759 -0.894154 -1795.7 -2278.54)" fill="#D52B1E"/>
</g>
<g id="Vector">
<use xlink:href="#path7_stroke" transform="matrix(-0.894154 0.447759 -0.447759 -0.894154 -1792.68 -2280.12)" fill="#D52B1E"/>
</g>
<g id="Vector">
<use xlink:href="#path8_stroke" transform="matrix(-0.894154 0.447759 -0.447759 -0.894154 -1792.16 -2286.3)" fill="#D52B1E"/>
</g>
<g id="Vector">
<use xlink:href="#path9_stroke" transform="matrix(-0.894154 0.447759 -0.447759 -0.894154 -1790.92 -2283.83)" fill="#D52B1E"/>
</g>
<g id="Vector">
<use xlink:href="#path10_stroke" transform="matrix(-0.894154 0.447759 -0.447759 -0.894154 -1789.79 -2281.56)" fill="#D52B1E"/>
</g>
<g id="Vector">
<use xlink:href="#path11_stroke" transform="matrix(-0.894154 0.447759 -0.447759 -0.894154 -1798.25 -2283.25)" fill="#D52B1E"/>
</g>
<g id="Vector">
<use xlink:href="#path12_stroke" transform="matrix(-0.894154 0.447759 -0.447759 -0.894154 -1797.01 -2280.78)" fill="#D52B1E"/>
</g>
<g id="Vector">
<use xlink:href="#path13_stroke" transform="matrix(-0.894154 0.447759 -0.447759 -0.894154 -1795.88 -2278.51)" fill="#D52B1E"/>
</g>
<g id="Vector">
<use xlink:href="#path14_stroke" transform="translate(-1826 -2310)" fill="#4D4D4D"/>
</g>
<g id="Vector">
<use xlink:href="#path15_stroke" transform="translate(-1826 -2301.73)" fill="#4D4D4D"/>
</g>
<g id="Vector">
<use xlink:href="#path16_stroke" transform="translate(-1811.26 -2252.08)" fill="#4D4D4D"/>
</g>
<g id="Vector">
<use xlink:href="#path17_stroke" transform="translate(-1825.82 -2254.53)" fill="#4D4D4D"/>
</g>
</g>
</g>
<defs>
<path id="path0_stroke" d="M 6.74914e-09 1L 35.1054 1L 35.1054 -0.999995L 6.74914e-09 -0.999995L 6.74914e-09 1Z"/>
<path id="path1_stroke" d="M -0.229573 4.33279C -0.474887 4.45958 -0.57097 4.76123 -0.444181 5.00654C -0.317391 5.25185 -0.0157415 5.34794 0.229573 5.22115L -0.229573 4.33279ZM 9.47212 0.444181C 9.71743 0.317391 9.81352 0.0157415 9.68673 -0.229573C 9.55994 -0.474887 9.25829 -0.57097 9.01298 -0.444181L 9.47212 0.444181ZM 0.229573 5.22115L 9.47212 0.444181L 9.01298 -0.444181L -0.229573 4.33279L 0.229573 5.22115Z"/>
<path id="path2_stroke" d="M 13.1237 0.444249C 13.3691 0.317533 13.4652 0.0159127 13.3385 -0.229439C 13.2118 -0.474792 12.9102 -0.570965 12.6648 -0.444249L 13.1237 0.444249ZM -0.229439 6.2152C -0.474792 6.34191 -0.570965 6.64353 -0.444249 6.88889C -0.317533 7.13424 -0.0159127 7.23041 0.229439 7.1037L -0.229439 6.2152ZM 12.6648 -0.444249L -0.229439 6.2152L 0.229439 7.1037L 13.1237 0.444249L 12.6648 -0.444249Z"/>
<path id="path3_stroke" d="M 18.0812 0.444198C 18.3266 0.317427 18.4227 0.0157848 18.2959 -0.229539C 18.1691 -0.474863 17.8675 -0.570969 17.6222 -0.444198L 18.0812 0.444198ZM -0.229539 8.78066C -0.474863 8.90743 -0.570969 9.20907 -0.444198 9.4544C -0.317427 9.69972 -0.0157848 9.79583 0.229539 9.66906L -0.229539 8.78066ZM 17.6222 -0.444198L -0.229539 8.78066L 0.229539 9.66906L 18.0812 0.444198L 17.6222 -0.444198Z"/>
<path id="path4_stroke" d="M 19.1959 0.1246L 18.9773 -0.325127L 18.9721 -0.322509L 19.1959 0.1246ZM 20.2786 0.1246L 20.0601 0.574312L 20.0638 0.576098L 20.2786 0.1246ZM 25.8765 2.35031L 26.044 1.87917L 26.0434 1.87896L 25.8765 2.35031ZM 26.747 3.12171L 26.2994 3.34456L 26.2999 3.34559L 26.747 3.12171ZM 31.2621 12.1378L 30.8151 12.3617C 30.8175 12.3665 30.8199 12.3712 30.8225 12.3759L 31.2621 12.1378ZM 30.519 14.689L 30.7427 15.1362C 30.7492 15.133 30.7557 15.1296 30.7621 15.126L 30.519 14.689ZM 9.06162 25.4213L 9.2627 25.8791C 9.27031 25.8757 9.27784 25.8722 9.28528 25.8685L 9.06162 25.4213ZM 6.58467 24.4801L 7.03902 24.2713C 7.03666 24.2662 7.0342 24.2611 7.03166 24.256L 6.58467 24.4801ZM 0.229536 11.8016L 0.676524 11.5776C 0.674032 11.5726 0.671456 11.5677 0.668799 11.5628L 0.229536 11.8016ZM 1.19643 9.69395L 19.4197 0.57171L 18.9721 -0.322509L 0.748804 8.79973L 1.19643 9.69395ZM 19.4144 0.574296C 19.531 0.514097 19.6061 0.496806 19.7373 0.5L 19.7373 -0.5C 19.4933 -0.496805 19.1981 -0.428886 18.9773 -0.325096L 19.4144 0.574296ZM 19.7373 0.5C 19.8684 0.496806 19.9435 0.514097 20.0601 0.574296L 20.4972 -0.325096C 20.2764 -0.428886 19.9813 -0.496805 19.7373 -0.5L 19.7373 0.5ZM 20.0638 0.576098C 21.3978 1.21039 24.2138 2.29218 25.7097 2.82166L 26.0434 1.87896C 24.5599 1.35398 21.7922 0.291438 20.4935 -0.326897L 20.0638 0.576098ZM 25.7091 2.82145C 25.9662 2.9128 26.1778 3.10033 26.2994 3.34456L 27.1946 2.89886C 26.9576 2.42278 26.5451 2.05724 26.044 1.87917L 25.7091 2.82145ZM 26.2999 3.34559L 30.8151 12.3617L 31.7092 11.9139L 27.1941 2.89782L 26.2999 3.34559ZM 30.8225 12.3759C 30.9967 12.6976 31.0371 13.075 30.9348 13.4263L 31.8949 13.7059C 32.0708 13.1019 32.0014 12.4529 31.7018 11.8997L 30.8225 12.3759ZM 30.9348 13.4263C 30.8324 13.7775 30.5957 14.0743 30.276 14.2521L 30.7621 15.126C 31.3119 14.8202 31.7189 14.3099 31.8949 13.7059L 30.9348 13.4263ZM 30.2954 14.2419L 8.83795 24.9741L 9.28528 25.8685L 30.7427 15.1362L 30.2954 14.2419ZM 8.86054 24.9635C 8.52681 25.1101 8.14885 25.1197 7.80812 24.9902L 7.4529 25.925C 8.03884 26.1477 8.6888 26.1312 9.2627 25.8791L 8.86054 24.9635ZM 7.80812 24.9902C 7.46739 24.8607 7.19118 24.6026 7.03902 24.2713L 6.13032 24.6888C 6.39198 25.2584 6.86697 25.7023 7.4529 25.925L 7.80812 24.9902ZM 7.03166 24.256L 0.676524 11.5776L -0.217453 12.0257L 6.13768 24.7041L 7.03166 24.256ZM 0.668799 11.5628C 0.493746 11.2408 0.452952 10.8628 0.555296 10.5109L -0.404912 10.2316C -0.58091 10.8367 -0.510757 11.4869 -0.209727 12.0405L 0.668799 11.5628ZM 0.555296 10.5109C 0.657641 10.159 0.894838 9.86185 1.21525 9.68402L 0.729985 8.80966C 0.178984 9.11546 -0.228914 9.62654 -0.404912 10.2316L 0.555296 10.5109Z"/>
<path id="path5_stroke" d="M 0.477696 0.5L 9.67424 0.5L 9.67424 -0.5L 0.477696 -0.5L 0.477696 0.5ZM 9.67424 0.5C 9.66193 0.5 9.65194 0.490018 9.65194 0.477696L 10.6519 0.477696C 10.6519 -0.0622743 10.2142 -0.5 9.67424 -0.5L 9.67424 0.5ZM 9.65194 0.477696L 9.65194 6.96376L 10.6519 6.96376L 10.6519 0.477696L 9.65194 0.477696ZM 9.65194 6.96376C 9.65194 6.95144 9.66193 6.94145 9.67424 6.94145L 9.67424 7.94145C 10.2142 7.94145 10.6519 7.50373 10.6519 6.96376L 9.65194 6.96376ZM 9.67424 6.94145L 0.477696 6.94145L 0.477696 7.94145L 9.67424 7.94145L 9.67424 6.94145ZM 0.477696 6.94145C 0.490014 6.94145 0.5 6.95144 0.5 6.96376L -0.5 6.96376C -0.5 7.50372 -0.0622706 7.94145 0.477696 7.94145L 0.477696 6.94145ZM 0.5 6.96376L 0.5 0.477696L -0.5 0.477696L -0.5 6.96376L 0.5 6.96376ZM 0.5 0.477696C 0.5 0.490014 0.490014 0.5 0.477696 0.5L 0.477696 -0.5C -0.0622706 -0.5 -0.5 -0.0622706 -0.5 0.477696L 0.5 0.477696Z"/>
<path id="path6_stroke" d="M 0.477696 0.500001L 2.99357 0.500001L 2.99357 -0.499999L 0.477696 -0.499999L 0.477696 0.500001ZM 2.99357 0.500001C 2.98125 0.500001 2.97126 0.490015 2.97126 0.477698L 3.97126 0.477698C 3.97126 -0.0622695 3.53353 -0.499999 2.99357 -0.499999L 2.99357 0.500001ZM 2.97126 0.477698L 2.97126 6.96376L 3.97126 6.96376L 3.97126 0.477698L 2.97126 0.477698ZM 2.97126 6.96376C 2.97126 6.95144 2.98124 6.94145 2.99357 6.94145L 2.99357 7.94145C 3.53354 7.94145 3.97126 7.50372 3.97126 6.96376L 2.97126 6.96376ZM 2.99357 6.94145L 0.477696 6.94145L 0.477696 7.94145L 2.99357 7.94145L 2.99357 6.94145ZM 0.477696 6.94145C 0.490018 6.94145 0.5 6.95144 0.5 6.96376L -0.5 6.96376C -0.5 7.50372 -0.0622743 7.94145 0.477696 7.94145L 0.477696 6.94145ZM 0.5 6.96376L 0.5 0.477698L -0.5 0.477698L -0.5 6.96376L 0.5 6.96376ZM 0.5 0.477698C 0.5 0.490015 0.490014 0.500001 0.477696 0.500001L 0.477696 -0.499999C -0.0622706 -0.499999 -0.5 -0.0622695 -0.5 0.477698L 0.5 0.477698Z"/>
<path id="path7_stroke" d="M 0.477696 0.5L 2.92634 0.5L 2.92634 -0.5L 0.477696 -0.5L 0.477696 0.5ZM 2.92634 0.5C 2.91402 0.5 2.90403 0.490014 2.90403 0.477696L 3.90403 0.477696C 3.90403 -0.0622709 3.4663 -0.5 2.92634 -0.5L 2.92634 0.5ZM 2.90403 0.477696L 2.90403 6.90714L 3.90403 6.90714L 3.90403 0.477696L 2.90403 0.477696ZM 2.90403 6.90714C 2.90403 6.89483 2.91401 6.88484 2.92634 6.88484L 2.92634 7.88484C 3.46631 7.88484 3.90403 7.4471 3.90403 6.90714L 2.90403 6.90714ZM 2.92634 6.88484L 0.477696 6.88484L 0.477696 7.88484L 2.92634 7.88484L 2.92634 6.88484ZM 0.477696 6.88484C 0.490017 6.88484 0.499999 6.89483 0.499999 6.90714L -0.500001 6.90714C -0.500001 7.4471 -0.0622751 7.88484 0.477696 7.88484L 0.477696 6.88484ZM 0.499999 6.90714L 0.499999 0.477696L -0.500001 0.477696L -0.500001 6.90714L 0.499999 6.90714ZM 0.499999 0.477696C 0.499999 0.490014 0.490013 0.5 0.477696 0.5L 0.477696 -0.5C -0.0622713 -0.5 -0.500001 -0.0622709 -0.500001 0.477696L 0.499999 0.477696Z"/>
<path id="path8_stroke" d="M 0.477698 0.499999L 2.76356 0.499999L 2.76356 -0.500001L 0.477698 -0.500001L 0.477698 0.499999ZM 2.76356 0.499999C 2.75124 0.499999 2.74126 0.490012 2.74126 0.477698L 3.74126 0.477698C 3.74126 -0.0622655 3.30354 -0.500001 2.76356 -0.500001L 2.76356 0.499999ZM 2.74126 0.477698L 2.74126 1.59586L 3.74126 1.59586L 3.74126 0.477698L 2.74126 0.477698ZM 2.74126 1.59586C 2.74126 1.58354 2.75125 1.57356 2.76356 1.57356L 2.76356 2.57356C 3.30353 2.57356 3.74126 2.13583 3.74126 1.59586L 2.74126 1.59586ZM 2.76356 1.57356L 0.477698 1.57356L 0.477698 2.57356L 2.76356 2.57356L 2.76356 1.57356ZM 0.477698 1.57356C 0.490012 1.57356 0.499999 1.58354 0.499999 1.59586L -0.500001 1.59586C -0.500001 2.13583 -0.0622654 2.57356 0.477698 2.57356L 0.477698 1.57356ZM 0.499999 1.59586L 0.499999 0.477698L -0.500001 0.477698L -0.500001 1.59586L 0.499999 1.59586ZM 0.499999 0.477698C 0.499999 0.490016 0.490016 0.499999 0.477698 0.499999L 0.477698 -0.500001C -0.0622691 -0.500001 -0.500001 -0.0622692 -0.500001 0.477698L 0.499999 0.477698Z"/>
<path id="path9_stroke" d="M 0.477697 0.500001L 2.76356 0.500001L 2.76356 -0.499999L 0.477697 -0.499999L 0.477697 0.500001ZM 2.76356 0.500001C 2.75125 0.500001 2.74126 0.490015 2.74126 0.477697L 3.74126 0.477697C 3.74126 -0.0622704 3.30353 -0.499999 2.76356 -0.499999L 2.76356 0.500001ZM 2.74126 0.477697L 2.74126 2.28587L 3.74126 2.28587L 3.74126 0.477697L 2.74126 0.477697ZM 2.74126 2.28587C 2.74126 2.27355 2.75125 2.26356 2.76356 2.26356L 2.76356 3.26356C 3.30353 3.26356 3.74126 2.82583 3.74126 2.28587L 2.74126 2.28587ZM 2.76356 2.26356L 0.477697 2.26356L 0.477697 3.26356L 2.76356 3.26356L 2.76356 2.26356ZM 0.477697 2.26356C 0.490015 2.26356 0.500001 2.27355 0.500001 2.28587L -0.499999 2.28587C -0.499999 2.82583 -0.06227 3.26356 0.477697 3.26356L 0.477697 2.26356ZM 0.500001 2.28587L 0.500001 0.477697L -0.499999 0.477697L -0.499999 2.28587L 0.500001 2.28587ZM 0.500001 0.477697C 0.500001 0.490015 0.490015 0.500001 0.477697 0.500001L 0.477697 -0.499999C -0.06227 -0.499999 -0.499999 -0.0622702 -0.499999 0.477697L 0.500001 0.477697Z"/>
<path id="path10_stroke" d="M 0.477697 0.499999L 2.76356 0.499999L 2.76356 -0.500001L 0.477697 -0.500001L 0.477697 0.499999ZM 2.76356 0.499999C 2.75125 0.499999 2.74126 0.490013 2.74126 0.477696L 3.74126 0.477696C 3.74126 -0.0622714 3.30353 -0.500001 2.76356 -0.500001L 2.76356 0.499999ZM 2.74126 0.477696L 2.74126 2.05587L 3.74126 2.05587L 3.74126 0.477696L 2.74126 0.477696ZM 2.74126 2.05587C 2.74126 2.04355 2.75125 2.03356 2.76356 2.03356L 2.76356 3.03356C 3.30353 3.03356 3.74126 2.59583 3.74126 2.05587L 2.74126 2.05587ZM 2.76356 2.03356L 0.477697 2.03356L 0.477697 3.03356L 2.76356 3.03356L 2.76356 2.03356ZM 0.477697 2.03356C 0.490014 2.03356 0.5 2.04355 0.5 2.05587L -0.5 2.05587C -0.5 2.59583 -0.0622705 3.03356 0.477697 3.03356L 0.477697 2.03356ZM 0.5 2.05587L 0.5 0.477696L -0.5 0.477696L -0.5 2.05587L 0.5 2.05587ZM 0.5 0.477696C 0.5 0.490013 0.490014 0.499999 0.477697 0.499999L 0.477697 -0.500001C -0.0622704 -0.500001 -0.5 -0.0622714 -0.5 0.477696L 0.5 0.477696Z"/>
<path id="path11_stroke" d="M 0.477696 0.499999L 2.76357 0.499999L 2.76357 -0.500001L 0.477696 -0.500001L 0.477696 0.499999ZM 2.76357 0.499999C 2.75124 0.499999 2.74126 0.490012 2.74126 0.477698L 3.74126 0.477698C 3.74126 -0.0622652 3.30354 -0.500001 2.76357 -0.500001L 2.76357 0.499999ZM 2.74126 0.477698L 2.74126 1.59586L 3.74126 1.59586L 3.74126 0.477698L 2.74126 0.477698ZM 2.74126 1.59586C 2.74126 1.58354 2.75125 1.57356 2.76357 1.57356L 2.76357 2.57356C 3.30353 2.57356 3.74126 2.13583 3.74126 1.59586L 2.74126 1.59586ZM 2.76357 1.57356L 0.477696 1.57356L 0.477696 2.57356L 2.76357 2.57356L 2.76357 1.57356ZM 0.477696 1.57356C 0.490013 1.57356 0.499999 1.58354 0.499999 1.59586L -0.500001 1.59586C -0.500001 2.13583 -0.0622714 2.57356 0.477696 2.57356L 0.477696 1.57356ZM 0.499999 1.59586L 0.499999 0.477698L -0.500001 0.477698L -0.500001 1.59586L 0.499999 1.59586ZM 0.499999 0.477698C 0.499999 0.490012 0.490017 0.499999 0.477696 0.499999L 0.477696 -0.500001C -0.0622752 -0.500001 -0.500001 -0.0622652 -0.500001 0.477698L 0.499999 0.477698Z"/>
<path id="path12_stroke" d="M 0.477697 0.499999L 2.76356 0.499999L 2.76356 -0.500001L 0.477697 -0.500001L 0.477697 0.499999ZM 2.76356 0.499999C 2.75124 0.499999 2.74126 0.490012 2.74126 0.477698L 3.74126 0.477698C 3.74126 -0.0622658 3.30353 -0.500001 2.76356 -0.500001L 2.76356 0.499999ZM 2.74126 0.477698L 2.74126 2.28587L 3.74126 2.28587L 3.74126 0.477698L 2.74126 0.477698ZM 2.74126 2.28587C 2.74126 2.27355 2.75125 2.26356 2.76356 2.26356L 2.76356 3.26356C 3.30353 3.26356 3.74126 2.82584 3.74126 2.28587L 2.74126 2.28587ZM 2.76356 2.26356L 0.477697 2.26356L 0.477697 3.26356L 2.76356 3.26356L 2.76356 2.26356ZM 0.477697 2.26356C 0.490015 2.26356 0.500001 2.27355 0.500001 2.28587L -0.499999 2.28587C -0.499999 2.82584 -0.0622696 3.26356 0.477697 3.26356L 0.477697 2.26356ZM 0.500001 2.28587L 0.500001 0.477698L -0.499999 0.477698L -0.499999 2.28587L 0.500001 2.28587ZM 0.500001 0.477698C 0.500001 0.490012 0.490019 0.499999 0.477697 0.499999L 0.477697 -0.500001C -0.0622733 -0.500001 -0.499999 -0.0622655 -0.499999 0.477698L 0.500001 0.477698Z"/>
<path id="path13_stroke" d="M 0.477698 0.5L 2.76356 0.5L 2.76356 -0.5L 0.477698 -0.5L 0.477698 0.5ZM 2.76356 0.5C 2.75125 0.5 2.74126 0.490014 2.74126 0.477697L 3.74126 0.477697C 3.74126 -0.0622704 3.30353 -0.5 2.76356 -0.5L 2.76356 0.5ZM 2.74126 0.477697L 2.74126 2.05586L 3.74126 2.05586L 3.74126 0.477697L 2.74126 0.477697ZM 2.74126 2.05586C 2.74126 2.04355 2.75125 2.03356 2.76356 2.03356L 2.76356 3.03356C 3.30353 3.03356 3.74126 2.59583 3.74126 2.05586L 2.74126 2.05586ZM 2.76356 2.03356L 0.477698 2.03356L 0.477698 3.03356L 2.76356 3.03356L 2.76356 2.03356ZM 0.477698 2.03356C 0.490012 2.03356 0.499999 2.04354 0.499999 2.05586L -0.500001 2.05586C -0.500001 2.59584 -0.0622658 3.03356 0.477698 3.03356L 0.477698 2.03356ZM 0.499999 2.05586L 0.499999 0.477697L -0.500001 0.477697L -0.500001 2.05586L 0.499999 2.05586ZM 0.499999 0.477697C 0.499999 0.490018 0.490012 0.5 0.477698 0.5L 0.477698 -0.5C -0.0622657 -0.5 -0.500001 -0.0622741 -0.500001 0.477697L 0.499999 0.477697Z"/>
<path id="path14_stroke" d="M 34.1054 11.5461C 34.1054 12.0984 34.5531 12.5461 35.1054 12.5461C 35.6577 12.5461 36.1054 12.0984 36.1054 11.5461L 34.1054 11.5461ZM 35.1054 4.21435L 36.1054 4.21435L 35.1054 4.21435ZM 33.8711 1.23435L 33.1639 1.94146L 33.8711 1.23435ZM 30.8911 6.74914e-09L 30.8911 -1L 30.8911 6.74914e-09ZM 4.21435 6.74914e-09L 4.21435 1L 4.21435 6.74914e-09ZM 6.74914e-09 4.21435L -1 4.21435L 6.74914e-09 4.21435ZM 6.74914e-09 61.7857L 1 61.7857L 6.74914e-09 61.7857ZM 30.8946 66L 30.8946 67L 30.8946 66ZM 33.8746 64.7656L 34.5817 65.4728L 33.8746 64.7656ZM 35.1089 61.7857L 34.1089 61.7857L 35.1089 61.7857ZM 36.1089 36.726C 36.1089 36.1737 35.6612 35.726 35.1089 35.726C 34.5567 35.726 34.1089 36.1737 34.1089 36.726L 36.1089 36.726ZM 36.1054 11.5461L 36.1054 4.21435L 34.1054 4.21435L 34.1054 11.5461L 36.1054 11.5461ZM 36.1054 4.21435C 36.1054 2.83142 35.556 1.50513 34.5782 0.527247L 33.1639 1.94146C 33.7668 2.54427 34.1054 3.36185 34.1054 4.21435L 36.1054 4.21435ZM 34.5782 0.527247C 33.6003 -0.450633 32.274 -1 30.8911 -1L 30.8911 1C 31.7436 1 32.5611 1.33865 33.1639 1.94146L 34.5782 0.527247ZM 30.8911 -1L 4.21435 -1L 4.21435 1L 30.8911 1L 30.8911 -1ZM 4.21435 -1C 3.56289 -0.995185 2.82261 -0.847933 2.2189 -0.603081L 2.98427 1.24468C 3.40318 1.06595 3.75893 0.995185 4.21435 1L 4.21435 -1ZM 2.2189 -0.603081C 1.61888 -0.349332 0.991299 0.0700048 0.527247 0.527247L 1.94146 1.94146C 2.26009 1.61603 2.56167 1.41451 2.98427 1.24468L 2.2189 -0.603081ZM 0.527247 0.527247C -0.450633 1.50513 -1 2.83142 -1 4.21435L 1 4.21435C 1 3.36185 1.33865 2.54427 1.94146 1.94146L 0.527247 0.527247ZM -1 4.21435L -1 61.7857L 1 61.7857L 1 4.21435L -1 4.21435ZM -1 61.7857C -0.995185 62.4371 -0.847933 63.1774 -0.603081 63.7811L 1.24468 63.0157C 1.06595 62.5968 0.995185 62.2411 1 61.7857L -1 61.7857ZM -0.603081 63.7811C -0.349332 64.3811 0.0700055 65.0087 0.527247 65.4728L 1.94146 64.0585C 1.61603 63.7399 1.41451 63.4383 1.24468 63.0157L -0.603081 63.7811ZM 0.527247 65.4728C 0.9913 65.93 1.61888 66.3493 2.2189 66.6031L 2.98427 64.7553C 2.56167 64.5855 2.26008 64.384 1.94146 64.0585L 0.527247 65.4728ZM 2.2189 66.6031C 2.82261 66.8479 3.56289 66.9952 4.21435 67L 4.21435 65C 3.75893 65.0048 3.40318 64.9341 2.98427 64.7553L 2.2189 66.6031ZM 4.21435 67L 30.8946 67L 30.8946 65L 4.21435 65L 4.21435 67ZM 30.8946 67C 32.2775 67 33.6038 66.4506 34.5817 65.4728L 33.1675 64.0585C 32.5647 64.6613 31.7471 65 30.8946 65L 30.8946 67ZM 34.5817 65.4728C 35.5596 64.4949 36.1089 63.1686 36.1089 61.7857L 34.1089 61.7857C 34.1089 62.6382 33.7703 63.4557 33.1675 64.0585L 34.5817 65.4728ZM 36.1089 61.7857L 36.1089 36.726L 34.1089 36.726L 34.1089 61.7857L 36.1089 61.7857Z"/>
<path id="path15_stroke" d="M 6.74914e-09 1L 35.1054 1L 35.1054 -1L 6.74914e-09 -1L 6.74914e-09 1Z"/>
<path id="path16_stroke" d="M 4.61913 2.80956C 4.61913 3.80896 3.80896 4.61913 2.80957 4.61913L 2.80957 6.61913C 4.91353 6.61913 6.61913 4.91353 6.61913 2.80956L 4.61913 2.80956ZM 2.80957 4.61913C 1.81017 4.61913 1 3.80896 1 2.80956L -1 2.80956C -1 4.91353 0.705601 6.61913 2.80957 6.61913L 2.80957 4.61913ZM 1 2.80956C 1 1.81017 1.81017 0.999999 2.80957 0.999999L 2.80957 -1C 0.705601 -1 -1 0.7056 -1 2.80956L 1 2.80956ZM 2.80957 0.999999C 3.80896 0.999999 4.61913 1.81017 4.61913 2.80956L 6.61913 2.80956C 6.61913 0.705601 4.91353 -1 2.80957 -1L 2.80957 0.999999Z"/>
<path id="path17_stroke" d="M 6.74914e-09 0.999996L 35.1054 0.999996L 35.1054 -1L 6.74914e-09 -1L 6.74914e-09 0.999996Z"/>
</defs>
</svg>
