<svg width="206" height="136" viewBox="0 0 206 136" version="1.1" xmlns="http://www.w3.org/2000/svg" xmlns:xlink="http://www.w3.org/1999/xlink">
<title>icon-cartao-payment</title>
<desc>Created using Figma</desc>
<g id="Canvas" transform="matrix(2 0 0 2 4696 4572)">
<g id="icon-cartao-payment">
<g id="Camada 2">
<g id="icones">
<g id="Vector">
<use xlink:href="#path0_stroke" transform="matrix(6.12323e-17 -1 1 6.12323e-17 -2347 -2219)" fill="#4D4D4D"/>
</g>
<g id="Vector">
<use xlink:href="#path1_stroke" transform="translate(-2346.25 -2272.85)" fill="#4D4D4D"/>
</g>
<g id="Vector">
<use xlink:href="#path2_stroke" transform="translate(-2346.25 -2263.26)" fill="#4D4D4D"/>
</g>
<g id="Vector">
<use xlink:href="#path3_stroke" transform="translate(-2335.42 -2231.15)" fill="#4D4D4D"/>
</g>
<g id="Vector">
<use xlink:href="#path4_stroke" transform="translate(-2335.42 -2240.74)" fill="#4D4D4D"/>
</g>
<g id="Vector">
<use xlink:href="#path5_stroke" transform="translate(-2280.59 -2243.61)" fill="#D52B1E"/>
</g>
<g id="Vector">
<use xlink:href="#path6_stroke" transform="translate(-2269.29 -2243.61)" fill="#D52B1E"/>
</g>
</g>
</g>
</g>
</g>
<defs>
<path id="path0_stroke" d="M 6.4063 1L 59.5937 1L 59.5937 -1L 6.4063 -1L 6.4063 1ZM 59.5937 1C 62.5795 1 65 3.42048 65 6.4063L 67 6.4063C 67 2.31592 63.6841 -1 59.5937 -1L 59.5937 1ZM 65 6.4063L 65 94.0285L 67 94.0285L 67 6.4063L 65 6.4063ZM 65 94.0285C 65 97.0143 62.5795 99.4348 59.5937 99.4348L 59.5937 101.435C 63.6841 101.435 67 98.1189 67 94.0285L 65 94.0285ZM 59.5937 99.4348L 6.4063 99.4348L 6.4063 101.435L 59.5937 101.435L 59.5937 99.4348ZM 6.4063 99.4348C 3.42049 99.4348 1 97.0143 1 94.0285L -1 94.0285C -1 98.1189 2.31592 101.435 6.4063 101.435L 6.4063 99.4348ZM 1 94.0285L 1 6.4063L -1 6.4063L -1 94.0285L 1 94.0285ZM 1 6.4063C 1 3.42049 3.42049 1 6.4063 1L 6.4063 -1C 2.31592 -1 -1 2.31592 -1 6.4063L 1 6.4063Z"/>
<path id="path1_stroke" d="M 6.15742e-08 -0.999999C -0.552285 -0.999999 -1 -0.552284 -1 9.15527e-07C -1 0.552286 -0.552285 1 6.15742e-08 1L 6.15742e-08 -0.999999ZM 98.9283 1C 99.4805 1 99.9283 0.552286 99.9283 9.15527e-07C 99.9283 -0.552284 99.4805 -0.999999 98.9283 -0.999999L 98.9283 1ZM 6.15742e-08 1L 98.9283 1L 98.9283 -0.999999L 6.15742e-08 -0.999999L 6.15742e-08 1Z"/>
<path id="path2_stroke" d="M 6.15742e-08 -1C -0.552285 -1 -1 -0.552285 -1 -1.52588e-07C -1 0.552285 -0.552285 1 6.15742e-08 1L 6.15742e-08 -1ZM 98.9283 1C 99.4805 1 99.9283 0.552285 99.9283 -1.52588e-07C 99.9283 -0.552285 99.4805 -1 98.9283 -1L 98.9283 1ZM 6.15742e-08 1L 98.9283 1L 98.9283 -1L 6.15742e-08 -1L 6.15742e-08 1Z"/>
<path id="path3_stroke" d="M 0 -1C -0.552285 -1 -1 -0.552284 -1 3.05176e-07C -1 0.552285 -0.552285 1 0 1L 0 -1ZM 45.0378 1C 45.5901 1 46.0378 0.552285 46.0378 3.05176e-07C 46.0378 -0.552284 45.5901 -1 45.0378 -1L 45.0378 1ZM 0 1L 45.0378 1L 45.0378 -1L 0 -1L 0 1Z"/>
<path id="path4_stroke" d="M 0 -0.999999C -0.552285 -0.999999 -1 -0.552283 -1 1.37329e-06C -1 0.552286 -0.552285 1 0 1L 0 -0.999999ZM 23.9896 1C 24.5418 1 24.9896 0.552286 24.9896 1.37329e-06C 24.9896 -0.552283 24.5418 -0.999999 23.9896 -0.999999L 23.9896 1ZM 0 1L 23.9896 1L 23.9896 -0.999999L 0 -0.999999L 0 1Z"/>
<path id="path5_stroke" d="M 11.7265 6.23413C 11.7265 9.10563 9.34474 11.4683 6.36326 11.4683L 6.36326 13.4683C 10.4105 13.4683 13.7265 10.2487 13.7265 6.23413L 11.7265 6.23413ZM 6.36326 11.4683C 3.38179 11.4683 1 9.10563 1 6.23413L -1 6.23413C -1 10.2487 2.31607 13.4683 6.36326 13.4683L 6.36326 11.4683ZM 1 6.23413C 1 3.36263 3.38179 0.999999 6.36326 0.999999L 6.36326 -1C 2.31607 -1 -1 2.2196 -1 6.23413L 1 6.23413ZM 6.36326 0.999999C 9.34474 0.999999 11.7265 3.36263 11.7265 6.23413L 13.7265 6.23413C 13.7265 2.2196 10.4105 -1 6.36326 -1L 6.36326 0.999999Z"/>
<path id="path6_stroke" d="M 4.89261 1.78332e-05L 5.89261 1.78332e-05L 5.89261 -0.99759L 4.895 -0.999979L 4.89261 1.78332e-05ZM 2.1893e-07 2.25263L -0.761322 1.60425L -1.31461 2.25393L -0.760034 2.90251L 2.1893e-07 2.25263ZM 1.47016 6.23415L 0.470156 6.23415L 1.47016 6.23415ZM 2.1893e-07 10.2157L -0.760034 9.56579L -1.31461 10.2144L -0.761322 10.864L 2.1893e-07 10.2157ZM 4.89261 12.4683L 4.92653 11.4689L 4.90838 11.4682L 4.89021 11.4683L 4.89261 12.4683ZM 7.34246 12.0561L 6.9834 11.1228L 7.34246 12.0561ZM 7.34246 0.419322L 6.9834 1.35264L 7.34246 0.419322ZM 4.89261 0.00719328L 3.89261 0.00719328L 3.89261 1.04171L 4.92653 1.00662L 4.89261 0.00719328ZM 4.895 -0.999979C 3.81965 -1.00256 2.75664 -0.77093 1.77985 -0.321203L 2.61628 1.49549C 3.3293 1.16721 4.10525 0.998135 4.89021 1.00002L 4.895 -0.999979ZM 1.77985 -0.321203C 0.803054 0.128523 -0.0640921 0.785562 -0.761322 1.60425L 0.761323 2.901C 1.27027 2.30339 1.90325 1.82378 2.61628 1.49549L 1.77985 -0.321203ZM -0.760034 2.90251C 0.0338955 3.83101 0.470156 5.0125 0.470156 6.23415L 2.47016 6.23415C 2.47016 4.5359 1.8637 2.89347 0.760035 1.60274L -0.760034 2.90251ZM 0.470156 6.23415C 0.470156 7.4558 0.0338952 8.63729 -0.760034 9.56579L 0.760035 10.8656C 1.8637 9.57483 2.47016 7.9324 2.47016 6.23415L 0.470156 6.23415ZM -0.761322 10.864C -0.0640921 11.6827 0.803054 12.3398 1.77985 12.7895L 2.61628 10.9728C 1.90325 10.6445 1.27027 10.1649 0.761323 9.5673L -0.761322 10.864ZM 1.77985 12.7895C 2.75664 13.2392 3.81965 13.4709 4.895 13.4683L 4.89021 11.4683C 4.10525 11.4702 3.3293 11.3011 2.61628 10.9728L 1.77985 12.7895ZM 4.85869 13.4677C 5.82879 13.5006 6.79559 13.338 7.70151 12.9895L 6.9834 11.1228C 6.32793 11.375 5.62842 11.4927 4.92653 11.4689L 4.85869 13.4677ZM 7.70151 12.9895C 8.60744 12.6409 9.43396 12.1137 10.1319 11.4391L 8.74184 10.0011C 8.23689 10.4892 7.63887 10.8707 6.9834 11.1228L 7.70151 12.9895ZM 10.1319 11.4391C 10.8298 10.7644 11.3848 9.95629 11.7638 9.0627L 9.9226 8.28169C 9.64835 8.92823 9.24679 9.51296 8.74184 10.0011L 10.1319 11.4391ZM 11.7638 9.0627C 12.1428 8.16912 12.3382 7.20839 12.3382 6.23774L 10.3382 6.23774C 10.3382 6.94004 10.1969 7.63515 9.9226 8.28169L 11.7638 9.0627ZM 12.3382 6.23774C 12.3382 5.26708 12.1428 4.30635 11.7638 3.41277L 9.9226 4.19378C 10.1969 4.84032 10.3382 5.53544 10.3382 6.23774L 12.3382 6.23774ZM 11.7638 3.41277C 11.3848 2.51918 10.8298 1.71102 10.1319 1.03641L 8.74184 2.4744C 9.24679 2.96251 9.64835 3.54724 9.9226 4.19378L 11.7638 3.41277ZM 10.1319 1.03641C 9.43396 0.361791 8.60744 -0.165476 7.70151 -0.513995L 6.9834 1.35264C 7.63887 1.6048 8.23689 1.9863 8.74184 2.4744L 10.1319 1.03641ZM 7.70151 -0.513995C 6.79559 -0.862513 5.82879 -1.02515 4.85869 -0.992231L 4.92653 1.00662C 5.62842 0.982797 6.32793 1.10047 6.9834 1.35264L 7.70151 -0.513995ZM 5.89261 0.00719328L 5.89261 1.78332e-05L 3.89261 1.78332e-05L 3.89261 0.00719328L 5.89261 0.00719328Z"/>
</defs>
</svg>
