<svg width="102" height="136" viewBox="0 0 102 136" version="1.1" xmlns="http://www.w3.org/2000/svg" xmlns:xlink="http://www.w3.org/1999/xlink">
<title>icn_produto_claro</title>
<desc>Created using Figma</desc>
<g id="Canvas" transform="matrix(2 0 0 2 4896 4332)">
<g id="icn_produto_claro">
<g id="Camada 2">
<g id="icones">
<g id="Vector">
<use xlink:href="#path0_stroke" transform="translate(-2447 -2165)" fill="#4D4D4D"/>
</g>
<g id="Vector">
<use xlink:href="#path1_stroke" transform="translate(-2447 -2156.73)" fill="#4D4D4D"/>
</g>
<g id="Vector">
<use xlink:href="#path2_stroke" transform="translate(-2432.28 -2107.08)" fill="#4D4D4D"/>
</g>
<g id="Vector">
<use xlink:href="#path3_stroke" transform="translate(-2446.82 -2109.53)" fill="#4D4D4D"/>
</g>
<g id="Vector">
<use xlink:href="#path4_fill" transform="translate(-2428.73 -2141.43)" fill="#FFFFFF"/>
</g>
<g id="Vector">
<use xlink:href="#path5_stroke" transform="translate(-2413.92 -2136.9)" fill="#D52B1E"/>
</g>
<g id="Vector">
<use xlink:href="#path6_stroke" transform="translate(-2405.44 -2136.9)" fill="#D52B1E"/>
</g>
<g id="Vector">
<use xlink:href="#path7_stroke" transform="translate(-2409.76 -2136.9)" fill="#D52B1E"/>
</g>
<g id="Vector">
<use xlink:href="#path8_stroke" transform="translate(-2413.87 -2136.88)" fill="#D52B1E"/>
</g>
<g id="Vector">
<use xlink:href="#path9_stroke" transform="translate(-2413.87 -2132.35)" fill="#D52B1E"/>
</g>
<g id="Vector">
<use xlink:href="#path10_stroke" transform="translate(-2405.23 -2136.88)" fill="#D52B1E"/>
</g>
<g id="Vector">
<use xlink:href="#path11_stroke" transform="translate(-2405.23 -2132.35)" fill="#D52B1E"/>
</g>
<g id="Vector">
<use xlink:href="#path12_fill" transform="translate(-2429.26 -2141.92)" fill="#D52B1E"/>
</g>
</g>
</g>
</g>
</g>
<defs>
<path id="path0_stroke" d="M 4.20789 1L 30.8437 1L 30.8437 -1L 4.20789 -1L 4.20789 1ZM 30.8437 1C 32.6139 1 34.0516 2.43772 34.0516 4.21457L 36.0516 4.21457C 36.0516 1.33614 33.7214 -1 30.8437 -1L 30.8437 1ZM 34.0516 4.21457L 34.0516 61.7854L 36.0516 61.7854L 36.0516 4.21457L 34.0516 4.21457ZM 34.0516 61.7854C 34.0516 63.5623 32.6139 65 30.8437 65L 30.8437 67C 33.7214 67 36.0516 64.6639 36.0516 61.7854L 34.0516 61.7854ZM 30.8437 65L 4.20789 65L 4.20789 67L 30.8437 67L 30.8437 65ZM 4.20789 65C 2.43772 65 1 63.5623 1 61.7854L -1 61.7854C -1 64.6639 1.33015 67 4.20789 67L 4.20789 65ZM 1 61.7854L 1 4.21457L -1 4.21457L -1 61.7854L 1 61.7854ZM 1 4.21457C 1 2.43772 2.43772 1 4.20789 1L 4.20789 -1C 1.33015 -1 -1 1.33614 -1 4.21457L 1 4.21457Z"/>
<path id="path1_stroke" d="M 6.73879e-09 1L 35.0516 1L 35.0516 -1L 6.73879e-09 -1L 6.73879e-09 1Z"/>
<path id="path2_stroke" d="M 4.61051 2.80972C 4.61051 3.81069 3.80078 4.61943 2.80526 4.61943L 2.80526 6.61943C 4.90834 6.61943 6.61051 4.91226 6.61051 2.80972L 4.61051 2.80972ZM 2.80526 4.61943C 1.80974 4.61943 1 3.81069 1 2.80972L -1 2.80972C -1 4.91227 0.702176 6.61943 2.80526 6.61943L 2.80526 4.61943ZM 1 2.80972C 1 1.80874 1.80974 0.999999 2.80526 0.999999L 2.80526 -1C 0.702176 -1 -1 0.707165 -1 2.80972L 1 2.80972ZM 2.80526 0.999999C 3.80078 0.999999 4.61051 1.80874 4.61051 2.80972L 6.61051 2.80972C 6.61051 0.707166 4.90834 -1 2.80526 -1L 2.80526 0.999999Z"/>
<path id="path3_stroke" d="M 6.73879e-09 0.999996L 35.0516 0.999996L 35.0516 -1L 6.73879e-09 -1L 6.73879e-09 0.999996Z"/>
<path id="path4_fill" d="M 2.69552e-07 5.4425L 5.25721 6.47952e-07L 30.1441 0.176935L 31.2818 1.17838L 31.2818 17.704L 30.3173 18.6064L 1.22597 18.7833L 2.69552e-07 17.5554L 2.69552e-07 5.4425Z"/>
<path id="path5_stroke" d="M 1.21538 0.500001L 11.6662 0.500001L 11.6662 -0.499999L 1.21538 -0.499999L 1.21538 0.500001ZM 11.6662 0.500001C 12.0605 0.500001 12.3816 0.820401 12.3816 1.21731L 13.3816 1.21731C 13.3816 0.269611 12.6143 -0.499999 11.6662 -0.499999L 11.6662 0.500001ZM 12.3816 1.21731L 12.3816 8.23806L 13.3816 8.23806L 13.3816 1.21731L 12.3816 1.21731ZM 12.3816 8.23806C 12.3816 8.63496 12.0605 8.95537 11.6662 8.95537L 11.6662 9.95537C 12.6143 9.95537 13.3816 9.18575 13.3816 8.23806L 12.3816 8.23806ZM 11.6662 8.95537L 1.21538 8.95537L 1.21538 9.95537L 11.6662 9.95537L 11.6662 8.95537ZM 1.21538 8.95537C 0.821034 8.95537 0.5 8.63496 0.5 8.23806L -0.5 8.23806C -0.5 9.18575 0.267253 9.95537 1.21538 9.95537L 1.21538 8.95537ZM 0.5 8.23806L 0.5 1.21731L -0.5 1.21731L -0.5 8.23806L 0.5 8.23806ZM 0.5 1.21731C 0.5 0.820401 0.821033 0.500001 1.21538 0.500001L 1.21538 -0.499999C 0.267254 -0.499999 -0.5 0.269611 -0.5 1.21731L 0.5 1.21731Z"/>
<path id="path6_stroke" d="M 1.21538 0.500001L 3.18683 0.500001L 3.18683 -0.499999L 1.21538 -0.499999L 1.21538 0.500001ZM 3.18683 0.500001C 3.58117 0.500001 3.90221 0.820401 3.90221 1.21731L 4.90221 1.21731C 4.90221 0.269611 4.13495 -0.499999 3.18683 -0.499999L 3.18683 0.500001ZM 3.90221 1.21731L 3.90221 8.23806L 4.90221 8.23806L 4.90221 1.21731L 3.90221 1.21731ZM 3.90221 8.23806C 3.90221 8.63496 3.58117 8.95537 3.18683 8.95537L 3.18683 9.95537C 4.13495 9.95537 4.90221 9.18575 4.90221 8.23806L 3.90221 8.23806ZM 3.18683 8.95537L 1.21538 8.95537L 1.21538 9.95537L 3.18683 9.95537L 3.18683 8.95537ZM 1.21538 8.95537C 0.821034 8.95537 0.5 8.63496 0.5 8.23806L -0.5 8.23806C -0.5 9.18575 0.267253 9.95537 1.21538 9.95537L 1.21538 8.95537ZM 0.5 8.23806L 0.5 1.21731L -0.5 1.21731L -0.5 8.23806L 0.5 8.23806ZM 0.5 1.21731C 0.5 0.820401 0.821033 0.500001 1.21538 0.500001L 1.21538 -0.499999C 0.267254 -0.499999 -0.5 0.269611 -0.5 1.21731L 0.5 1.21731Z"/>
<path id="path7_stroke" d="M 1.21538 0.500001L 3.10203 0.500001L 3.10203 -0.499999L 1.21538 -0.499999L 1.21538 0.500001ZM 3.10203 0.500001C 3.49638 0.500001 3.81741 0.820401 3.81741 1.21731L 4.81741 1.21731C 4.81741 0.269611 4.05016 -0.499999 3.10203 -0.499999L 3.10203 0.500001ZM 3.81741 1.21731L 3.81741 8.16728L 4.81741 8.16728L 4.81741 1.21731L 3.81741 1.21731ZM 3.81741 8.16728C 3.81741 8.56419 3.49638 8.88459 3.10203 8.88459L 3.10203 9.88459C 4.05016 9.88459 4.81741 9.11498 4.81741 8.16728L 3.81741 8.16728ZM 3.10203 8.88459L 1.21538 8.88459L 1.21538 9.88459L 3.10203 9.88459L 3.10203 8.88459ZM 1.21538 8.88459C 0.821032 8.88459 0.5 8.56419 0.5 8.16728L -0.5 8.16728C -0.5 9.11498 0.267254 9.88459 1.21538 9.88459L 1.21538 8.88459ZM 0.5 8.16728L 0.5 1.21731L -0.5 1.21731L -0.5 8.16728L 0.5 8.16728ZM 0.5 1.21731C 0.5 0.820401 0.821032 0.500001 1.21538 0.500001L 1.21538 -0.499999C 0.267254 -0.499999 -0.5 0.269611 -0.5 1.21731L 0.5 1.21731Z"/>
<path id="path8_stroke" d="M 1.21537 0.499999L 2.89712 0.499999L 2.89712 -0.500001L 1.21537 -0.500001L 1.21537 0.499999ZM 2.89712 0.499999C 3.29146 0.499999 3.61249 0.8204 3.61249 1.21731L 4.61249 1.21731C 4.61249 0.269613 3.84524 -0.500001 2.89712 -0.500001L 2.89712 0.499999ZM 3.61249 1.21731L 3.61249 3.30867L 4.61249 3.30867L 4.61249 1.21731L 3.61249 1.21731ZM 3.61249 3.30867C 3.61249 3.70558 3.29146 4.02598 2.89712 4.02598L 2.89712 5.02598C 3.84524 5.02598 4.61249 4.25637 4.61249 3.30867L 3.61249 3.30867ZM 2.89712 4.02598L 1.21537 4.02598L 1.21537 5.02598L 2.89712 5.02598L 2.89712 4.02598ZM 1.21537 4.02598C 0.821032 4.02598 0.500001 3.70558 0.500001 3.30867L -0.499999 3.30867C -0.499999 4.25636 0.267251 5.02598 1.21537 5.02598L 1.21537 4.02598ZM 0.500001 3.30867L 0.500001 1.21731L -0.499999 1.21731L -0.499999 3.30867L 0.500001 3.30867ZM 0.500001 1.21731C 0.500001 0.820399 0.821033 0.499999 1.21537 0.499999L 1.21537 -0.500001C 0.267249 -0.500001 -0.499999 0.269615 -0.499999 1.21731L 0.500001 1.21731Z"/>
<path id="path9_stroke" d="M 1.21537 0.499999L 2.89712 0.499999L 2.89712 -0.500001L 1.21537 -0.500001L 1.21537 0.499999ZM 2.89712 0.499999C 3.29146 0.499999 3.61249 0.820401 3.61249 1.21731L 4.61249 1.21731C 4.61249 0.269614 3.84524 -0.500001 2.89712 -0.500001L 2.89712 0.499999ZM 3.61249 1.21731L 3.61249 3.62715L 4.61249 3.62715L 4.61249 1.21731L 3.61249 1.21731ZM 3.61249 3.62715C 3.61249 4.02406 3.29146 4.34446 2.89712 4.34446L 2.89712 5.34446C 3.84524 5.34446 4.61249 4.57484 4.61249 3.62715L 3.61249 3.62715ZM 2.89712 4.34446L 1.21537 4.34446L 1.21537 5.34446L 2.89712 5.34446L 2.89712 4.34446ZM 1.21537 4.34446C 0.821033 4.34446 0.500001 4.02406 0.500001 3.62715L -0.499999 3.62715C -0.499999 4.57484 0.267249 5.34446 1.21537 5.34446L 1.21537 4.34446ZM 0.500001 3.62715L 0.500001 1.21731L -0.499999 1.21731L -0.499999 3.62715L 0.500001 3.62715ZM 0.500001 1.21731C 0.500001 0.820399 0.821033 0.499999 1.21537 0.499999L 1.21537 -0.500001C 0.267249 -0.500001 -0.499999 0.269615 -0.499999 1.21731L 0.500001 1.21731Z"/>
<path id="path10_stroke" d="M 1.21538 0.499999L 2.89712 0.499999L 2.89712 -0.500001L 1.21538 -0.500001L 1.21538 0.499999ZM 2.89712 0.499999C 3.29146 0.499999 3.6125 0.8204 3.6125 1.21731L 4.6125 1.21731C 4.6125 0.269613 3.84524 -0.500001 2.89712 -0.500001L 2.89712 0.499999ZM 3.6125 1.21731L 3.6125 3.30867L 4.6125 3.30867L 4.6125 1.21731L 3.6125 1.21731ZM 3.6125 3.30867C 3.6125 3.70558 3.29146 4.02598 2.89712 4.02598L 2.89712 5.02598C 3.84524 5.02598 4.6125 4.25637 4.6125 3.30867L 3.6125 3.30867ZM 2.89712 4.02598L 1.21538 4.02598L 1.21538 5.02598L 2.89712 5.02598L 2.89712 4.02598ZM 1.21538 4.02598C 0.821032 4.02598 0.5 3.70558 0.5 3.30867L -0.5 3.30867C -0.5 4.25637 0.267254 5.02598 1.21538 5.02598L 1.21538 4.02598ZM 0.5 3.30867L 0.5 1.21731L -0.5 1.21731L -0.5 3.30867L 0.5 3.30867ZM 0.5 1.21731C 0.5 0.8204 0.821033 0.499999 1.21538 0.499999L 1.21538 -0.500001C 0.267252 -0.500001 -0.5 0.269613 -0.5 1.21731L 0.5 1.21731Z"/>
<path id="path11_stroke" d="M 1.21538 0.499999L 2.89712 0.499999L 2.89712 -0.500001L 1.21538 -0.500001L 1.21538 0.499999ZM 2.89712 0.499999C 3.29146 0.499999 3.6125 0.820401 3.6125 1.21731L 4.6125 1.21731C 4.6125 0.269614 3.84524 -0.500001 2.89712 -0.500001L 2.89712 0.499999ZM 3.6125 1.21731L 3.6125 3.62715L 4.6125 3.62715L 4.6125 1.21731L 3.6125 1.21731ZM 3.6125 3.62715C 3.6125 4.02406 3.29146 4.34446 2.89712 4.34446L 2.89712 5.34446C 3.84524 5.34446 4.6125 4.57484 4.6125 3.62715L 3.6125 3.62715ZM 2.89712 4.34446L 1.21538 4.34446L 1.21538 5.34446L 2.89712 5.34446L 2.89712 4.34446ZM 1.21538 4.34446C 0.821034 4.34446 0.5 4.02406 0.5 3.62715L -0.5 3.62715C -0.5 4.57484 0.267252 5.34446 1.21538 5.34446L 1.21538 4.34446ZM 0.5 3.62715L 0.5 1.21731L -0.5 1.21731L -0.5 3.62715L 0.5 3.62715ZM 0.5 1.21731C 0.5 0.820401 0.821034 0.499999 1.21538 0.499999L 1.21538 -0.500001C 0.267252 -0.500001 -0.5 0.269614 -0.5 1.21731L 0.5 1.21731Z"/>
<path id="path12_fill" d="M 30.1371 1.41901C 30.3245 1.41901 30.5042 1.49358 30.6367 1.6263C 30.7692 1.75903 30.8437 1.93904 30.8437 2.12675L 30.8437 17.3997C 30.8437 17.5874 30.7692 17.7674 30.6367 17.9002C 30.5042 18.0329 30.3245 18.1074 30.1371 18.1074L 2.10571 18.1074C 1.9183 18.1074 1.73857 18.0329 1.60606 17.9002C 1.47354 17.7674 1.3991 17.5874 1.3991 17.3997L 1.3991 6.24224C 2.618 5.06386 4.89683 2.79202 6.09101 1.41901L 30.1371 1.41901ZM 30.1371 0.0035376L 5.43386 0.0035376C 4.43754 1.27039 1.10585 4.60383 2.69552e-07 5.61943L 2.69552e-07 17.382C 2.69552e-07 17.9451 0.22334 18.4852 0.620887 18.8834C 1.01843 19.2815 1.55762 19.5052 2.11984 19.5052L 30.1371 19.5052C 30.6993 19.5052 31.2385 19.2815 31.636 18.8834C 32.0336 18.4852 32.2569 17.9451 32.2569 17.382L 32.2569 2.12321C 32.2569 1.5601 32.0336 1.02005 31.636 0.621873C 31.2385 0.223694 30.6993 8.63937e-07 30.1371 8.63937e-07L 30.1371 0.0035376Z"/>
</defs>
</svg>
