<svg width="118" height="136" viewBox="0 0 118 136" version="1.1" xmlns="http://www.w3.org/2000/svg" xmlns:xlink="http://www.w3.org/1999/xlink">
<title>icn_produto</title>
<desc>Created using Figma</desc>
<g id="Canvas" transform="matrix(2 0 0 2 4220 4332)">
<g id="icn_produto">
<g id="Camada 2">
<g id="icones">
<g id="Vector">
<use xlink:href="#path0_stroke" transform="translate(-2104.76 -2131.57)" fill="#4D4D4D"/>
</g>
<g id="Vector">
<use xlink:href="#path1_stroke" transform="translate(-2106.14 -2165)" fill="#D52B1E"/>
</g>
<g id="Vector">
<use xlink:href="#path2_stroke" transform="translate(-2080.48 -2165)" fill="#D52B1E"/>
</g>
<g id="Vector">
<use xlink:href="#path3_stroke" transform="translate(-2109 -2147.91)" fill="#4D4D4D"/>
</g>
<g id="Vector">
<use xlink:href="#path4_fill" transform="translate(-2087.61 -2147.81)" fill="#FFFFFF"/>
<use xlink:href="#path5_stroke" transform="translate(-2087.61 -2147.81)" fill="#4D4D4D"/>
</g>
</g>
</g>
</g>
</g>
<defs>
<path id="path0_stroke" d="M 47.999 28.6864L 46.999 28.6864L 46.999 28.6864L 47.999 28.6864ZM 44.2357 32.4699L 44.2357 33.4699L 44.241 33.4699L 44.2357 32.4699ZM 3.76731 32.4699L 3.76305 33.4699L 3.76731 33.4699L 3.76731 32.4699ZM 1.56623e-10 28.6864L 1 28.6864L 1 28.6864L 1.56623e-10 28.6864ZM 1.56623e-10 -8.61654e-07L 1.56623e-10 -1C -0.552285 -1 -1 -0.552286 -1 -8.61654e-07L 1.56623e-10 -8.61654e-07ZM 47.999 -8.61654e-07L 48.999 -8.61654e-07C 48.999 -0.552286 48.5512 -1 47.999 -1L 47.999 -8.61654e-07ZM 46.999 3.78345L 46.999 28.6864L 48.999 28.6864L 48.999 3.78345L 46.999 3.78345ZM 46.999 28.6864C 46.999 29.4221 46.7077 30.1278 46.1889 30.6494L 47.6069 32.0598C 48.4985 31.1635 48.999 29.9507 48.999 28.6864L 46.999 28.6864ZM 46.1889 30.6494C 45.6702 31.171 44.966 31.466 44.2303 31.4699L 44.241 33.4699C 45.5052 33.4631 46.7154 32.9562 47.6069 32.0598L 46.1889 30.6494ZM 44.2357 31.4699L 3.76731 31.4699L 3.76731 33.4699L 44.2357 33.4699L 44.2357 31.4699ZM 3.77158 31.4699C 3.03542 31.4668 2.33049 31.1721 1.81105 30.6505L 0.393819 32.0616C 1.28648 32.9581 2.49794 33.4645 3.76305 33.4699L 3.77158 31.4699ZM 1.81105 30.6505C 1.29162 30.1288 0.999993 29.4226 1 28.6864L -1 28.6864C -1.00001 29.9515 -0.498844 31.1652 0.393819 32.0616L 1.81105 30.6505ZM 1 28.6864L 1 -8.61654e-07L -1 -8.61654e-07L -1 28.6864L 1 28.6864ZM 1.56623e-10 0.999999L 47.999 0.999999L 47.999 -1L 1.56623e-10 -1L 1.56623e-10 0.999999ZM 46.999 -8.61654e-07L 46.999 3.78345L 48.999 3.78345L 48.999 -8.61654e-07L 46.999 -8.61654e-07Z"/>
<path id="path1_stroke" d="M 25.4427 16.9927L 25.4481 17.9927C 25.7904 17.9908 26.108 17.814 26.2898 17.524C 26.4717 17.234 26.4926 16.8712 26.3453 16.5622L 25.4427 16.9927ZM 15.4879 2.82692L 14.8245 3.57515L 14.8246 3.57523L 15.4879 2.82692ZM 2.85494 2.06055L 3.51127 2.81504L 3.51364 2.81296L 2.85494 2.06055ZM 1.3222 10.8657L 0.57538 11.5308L 0.575789 11.5312L 1.3222 10.8657ZM 12.4265 16.9927L 12.1404 17.9509C 12.2365 17.9795 12.3363 17.9936 12.4365 17.9926L 12.4265 16.9927ZM 18.1702 16.9927L 18.1606 17.9926L 18.1617 17.9926L 18.1702 16.9927ZM 25.4427 16.9927C 26.3453 16.5622 26.3452 16.5621 26.3451 16.5619C 26.3451 16.5617 26.345 16.5615 26.3449 16.5613C 26.3447 16.5609 26.3444 16.5603 26.344 16.5595C 26.3434 16.5582 26.3423 16.5561 26.3411 16.5535C 26.3388 16.5487 26.3351 16.541 26.3305 16.5315C 26.3217 16.5131 26.3079 16.4847 26.2904 16.4488C 26.256 16.3784 26.2037 16.2721 26.1364 16.1378C 26.0033 15.872 25.8041 15.4811 25.5502 15.002C 25.0457 14.0498 24.3055 12.7121 23.396 11.2292C 21.5833 8.27556 19.0048 4.61719 16.1513 2.07861L 14.8246 3.57523C 17.5132 5.94949 19.912 9.37399 21.6912 12.275C 22.5776 13.7194 23.287 15.0021 23.783 15.9383C 24.0294 16.4034 24.2182 16.7738 24.3481 17.0332C 24.4123 17.1615 24.4602 17.2588 24.4932 17.3263C 24.5093 17.3593 24.521 17.3835 24.5292 17.4005C 24.5331 17.4086 24.5358 17.4143 24.5378 17.4184C 24.5387 17.4203 24.5393 17.4215 24.5397 17.4224C 24.5399 17.4228 24.54 17.423 24.5401 17.4232C 24.5401 17.4233 24.5401 17.4232 24.5401 17.4233C 24.5401 17.4232 24.5401 17.4231 25.4427 16.9927ZM 16.1514 2.0787C 11.7344 -1.83782 5.8981 -1.93269 2.19624 1.30815L 3.51364 2.81296C 6.35416 0.326195 11.0534 0.231326 14.8245 3.57515L 16.1514 2.0787ZM 2.19861 1.30608C 0.532409 2.75552 -0.563268 4.51213 -0.894859 6.33233C -1.23089 8.17692 -0.766239 10.0241 0.57538 11.5308L 2.06902 10.2007C 1.14783 9.16622 0.8441 7.94594 1.07276 6.69077C 1.30586 5.41121 2.10796 4.03578 3.51127 2.81503L 2.19861 1.30608ZM 0.575789 11.5312C 2.43173 13.6129 5.3725 15.2147 7.74652 16.2787C 8.94742 16.8164 10.0524 17.2376 10.8371 17.5165C 11.2333 17.6572 11.5603 17.7663 11.7814 17.8379C 11.8937 17.8743 11.9837 17.9026 12.0427 17.921C 12.0731 17.9304 12.0976 17.9379 12.1131 17.9426C 12.1213 17.9451 12.1282 17.9472 12.1323 17.9484C 12.1346 17.9491 12.1366 17.9497 12.1378 17.9501C 12.1385 17.9503 12.1391 17.9505 12.1395 17.9506C 12.1397 17.9507 12.1399 17.9507 12.14 17.9508C 12.1403 17.9508 12.1404 17.9509 12.4265 16.9927C 12.7126 16.0345 12.7127 16.0345 12.7128 16.0345C 12.7128 16.0345 12.7128 16.0345 12.7128 16.0345C 12.7127 16.0345 12.7127 16.0345 12.7124 16.0344C 12.7117 16.0342 12.7109 16.034 12.7095 16.0335C 12.7062 16.0326 12.702 16.0313 12.6955 16.0293C 12.6818 16.0251 12.6627 16.0193 12.6359 16.0109C 12.5806 15.9938 12.5021 15.9691 12.3976 15.9352C 12.1849 15.8663 11.8846 15.7662 11.5067 15.6319C 10.7431 15.3607 9.7126 14.9686 8.56447 14.4536C 6.24045 13.4121 3.62906 11.9505 2.06861 10.2003L 0.575789 11.5312ZM 12.4265 16.9927C 12.4365 17.9926 12.4365 17.9926 12.4365 17.9926C 12.4365 17.9926 12.4365 17.9926 12.4366 17.9926C 12.4367 17.9926 12.4368 17.9926 12.4369 17.9926C 12.4373 17.9926 12.4377 17.9926 12.4384 17.9926C 12.4397 17.9926 12.4417 17.9926 12.4444 17.9925C 12.4497 17.9925 12.4577 17.9924 12.4683 17.9923C 12.4895 17.9921 12.5209 17.9918 12.5622 17.9915C 12.6448 17.9908 12.7658 17.9898 12.9204 17.9887C 13.2302 17.9865 13.6724 17.9838 14.2066 17.9821C 15.2758 17.9785 16.7053 17.9785 18.1606 17.9926L 18.1799 15.9927C 16.7149 15.9786 15.2725 15.9786 14.2 15.9821C 13.6632 15.9839 13.2171 15.9865 12.9062 15.9887C 12.7505 15.9898 12.628 15.9908 12.5449 15.9915C 12.5032 15.9919 12.4711 15.9922 12.4496 15.9924C 12.4388 15.9925 12.4305 15.9926 12.425 15.9926C 12.4222 15.9927 12.4201 15.9927 12.4187 15.9927C 12.418 15.9927 12.4174 15.9927 12.4171 15.9927C 12.4169 15.9927 12.4168 15.9927 12.4167 15.9927C 12.4166 15.9927 12.4166 15.9927 12.4165 15.9927C 12.4165 15.9927 12.4165 15.9927 12.4265 16.9927ZM 18.1617 17.9926C 19.5878 18.0048 21.4112 18.0048 22.8749 18.0017C 23.607 18.0002 24.2504 17.998 24.7104 17.9961C 24.9404 17.9951 25.1249 17.9943 25.2517 17.9936C 25.3151 17.9933 25.3642 17.9931 25.3974 17.9929C 25.414 17.9928 25.4267 17.9928 25.4352 17.9927C 25.4395 17.9927 25.4427 17.9927 25.4449 17.9927C 25.4459 17.9927 25.4468 17.9927 25.4473 17.9927C 25.4476 17.9927 25.4478 17.9927 25.4479 17.9927C 25.448 17.9927 25.4481 17.9927 25.4481 17.9927C 25.4481 17.9927 25.4481 17.9927 25.4427 16.9927C 25.4372 15.9927 25.4372 15.9927 25.4372 15.9927C 25.4371 15.9927 25.4371 15.9927 25.437 15.9927C 25.4369 15.9927 25.4367 15.9927 25.4364 15.9927C 25.4359 15.9927 25.4351 15.9927 25.4341 15.9927C 25.4319 15.9927 25.4288 15.9927 25.4246 15.9927C 25.4161 15.9928 25.4036 15.9929 25.3871 15.9929C 25.354 15.9931 25.3052 15.9934 25.242 15.9937C 25.1154 15.9943 24.9317 15.9951 24.7021 15.9961C 24.2428 15.998 23.6014 16.0002 22.8708 16.0017C 21.4091 16.0048 19.5963 16.0048 18.1787 15.9927L 18.1617 17.9926Z"/>
<path id="path2_stroke" d="M -1.23093e-06 16.9927L -0.902614 16.5622C -1.04995 16.8712 -1.02904 17.234 -0.847167 17.524C -0.665298 17.814 -0.34775 17.9908 -0.00546563 17.9927L -1.23093e-06 16.9927ZM 9.95474 2.82692L 10.6181 3.57523L 10.6182 3.57515L 9.95474 2.82692ZM 22.5877 2.06055L 21.929 2.81296L 21.9314 2.81503L 22.5877 2.06055ZM 24.1205 10.8657L 23.3742 10.2001L 23.3741 10.2003L 24.1205 10.8657ZM 13.0162 16.9927L 13.0062 17.9926C 13.1064 17.9936 13.2062 17.9795 13.3022 17.9509L 13.0162 16.9927ZM 7.27245 16.9927L 7.28096 17.9926L 7.28212 17.9926L 7.27245 16.9927ZM -1.23093e-06 16.9927C 0.902612 17.4231 0.902569 17.4232 0.902544 17.4233C 0.902558 17.4232 0.902549 17.4233 0.902576 17.4232C 0.902671 17.423 0.902753 17.4228 0.902942 17.4224C 0.903399 17.4215 0.903962 17.4203 0.904872 17.4184C 0.906851 17.4143 0.909566 17.4086 0.913495 17.4005C 0.921679 17.3835 0.933383 17.3593 0.949529 17.3263C 0.98249 17.2588 1.03038 17.1615 1.09461 17.0332C 1.22448 16.7738 1.41324 16.4034 1.65971 15.9383C 2.15572 15.0021 2.86505 13.7194 3.75147 12.275C 5.5307 9.37399 7.92953 5.94949 10.6181 3.57523L 9.29139 2.07861C 6.43789 4.61719 3.85934 8.27556 2.04672 11.2292C 1.13721 12.7121 0.39699 14.0498 -0.107559 15.002C -0.361378 15.4811 -0.560649 15.872 -0.69375 16.1378C -0.761004 16.2721 -0.813328 16.3784 -0.847713 16.4488C -0.865239 16.4847 -0.878989 16.5131 -0.887843 16.5315C -0.892432 16.541 -0.896131 16.5487 -0.898435 16.5535C -0.899668 16.5561 -0.900714 16.5582 -0.901331 16.5595C -0.90168 16.5603 -0.902001 16.5609 -0.902175 16.5613C -0.902282 16.5615 -0.902392 16.5617 -0.902445 16.5619C -0.902538 16.5621 -0.902614 16.5622 -1.23093e-06 16.9927ZM 10.6182 3.57515C 14.3893 0.231326 19.0885 0.326195 21.929 2.81296L 23.2464 1.30815C 19.5446 -1.93269 13.7083 -1.83782 9.29129 2.0787L 10.6182 3.57515ZM 21.9314 2.81503C 23.3345 4.03561 24.1368 5.41198 24.3699 6.69223C 24.5986 7.94818 24.2947 9.16807 23.3742 10.2001L 24.8668 11.5314C 26.2091 10.0263 26.6735 8.17872 26.3376 6.3339C 26.006 4.51337 24.9105 2.7557 23.2441 1.30608L 21.9314 2.81503ZM 23.3741 10.2003C 21.8136 11.9505 19.2022 13.4121 16.8782 14.4536C 15.7301 14.9686 14.6996 15.3607 13.936 15.6319C 13.5581 15.7662 13.2578 15.8663 13.0451 15.9352C 12.9406 15.9691 12.8621 15.9938 12.8068 16.0109C 12.78 16.0193 12.7609 16.0251 12.7471 16.0293C 12.7407 16.0313 12.7365 16.0326 12.7332 16.0335C 12.7317 16.034 12.731 16.0342 12.7303 16.0344C 12.73 16.0345 12.73 16.0345 12.7299 16.0345C 12.7298 16.0345 12.7299 16.0345 12.7299 16.0345C 12.73 16.0345 12.7301 16.0345 13.0162 16.9927C 13.3022 17.9509 13.3024 17.9508 13.3026 17.9508C 13.3028 17.9507 13.303 17.9507 13.3032 17.9506C 13.3036 17.9505 13.3042 17.9503 13.3049 17.9501C 13.3061 17.9497 13.3081 17.9491 13.3104 17.9484C 13.3145 17.9472 13.3213 17.9451 13.3295 17.9426C 13.3451 17.9379 13.3696 17.9304 13.3999 17.921C 13.4589 17.9026 13.549 17.8743 13.6613 17.8379C 13.8823 17.7663 14.2094 17.6572 14.6056 17.5165C 15.3903 17.2376 16.4953 16.8164 17.6962 16.2787C 20.0702 15.2147 23.011 13.6129 24.8669 11.5312L 23.3741 10.2003ZM 13.0162 16.9927C 13.0262 15.9927 13.0262 15.9927 13.0261 15.9927C 13.0261 15.9927 13.0261 15.9927 13.026 15.9927C 13.0259 15.9927 13.0258 15.9927 13.0256 15.9927C 13.0252 15.9927 13.0247 15.9927 13.024 15.9927C 13.0226 15.9927 13.0204 15.9927 13.0177 15.9926C 13.0122 15.9926 13.0039 15.9925 12.9931 15.9924C 12.9716 15.9922 12.9395 15.9919 12.8978 15.9915C 12.8147 15.9908 12.6922 15.9898 12.5365 15.9887C 12.2256 15.9865 11.7795 15.9839 11.2427 15.9821C 10.1702 15.9786 8.72775 15.9786 7.26278 15.9927L 7.28212 17.9926C 8.73742 17.9785 10.1669 17.9785 11.2361 17.9821C 11.7702 17.9838 12.2125 17.9865 12.5223 17.9887C 12.6769 17.9898 12.7979 17.9908 12.8805 17.9915C 12.9217 17.9918 12.9531 17.9921 12.9744 17.9923C 12.985 17.9924 12.9929 17.9925 12.9983 17.9925C 13.001 17.9926 13.0029 17.9926 13.0043 17.9926C 13.0049 17.9926 13.0054 17.9926 13.0058 17.9926C 13.0059 17.9926 13.006 17.9926 13.0061 17.9926C 13.0061 17.9926 13.0062 17.9926 13.0062 17.9926C 13.0062 17.9926 13.0062 17.9926 13.0162 16.9927ZM 7.26394 15.9927C 5.84637 16.0048 4.03355 16.0048 2.57193 16.0017C 1.84133 16.0002 1.19989 15.998 0.740546 15.9961C 0.510983 15.9951 0.327244 15.9943 0.200705 15.9937C 0.137486 15.9934 0.0886823 15.9931 0.0556022 15.9929C 0.0390865 15.9929 0.0265534 15.9928 0.0181114 15.9927C 0.0139024 15.9927 0.0107407 15.9927 0.00861313 15.9927C 0.00755524 15.9927 0.00676785 15.9927 0.006236 15.9927C 0.00597302 15.9927 0.00577983 15.9927 0.00564797 15.9927C 0.00558351 15.9927 0.00553731 15.9927 0.00550503 15.9927C 0.00547567 15.9927 0.00546317 15.9927 -1.23093e-06 16.9927C -0.00546563 17.9927 -0.00544435 17.9927 -0.00540621 17.9927C -0.00537101 17.9927 -0.00531601 17.9927 -0.00524568 17.9927C -0.00510794 17.9927 -0.00489709 17.9927 -0.00462232 17.9927C -0.00407865 17.9927 -0.00325563 17.9927 -0.00217396 17.9927C -2.24158e-05 17.9927 0.00321165 17.9927 0.00746912 17.9927C 0.0159602 17.9928 0.0286429 17.9928 0.0452591 17.9929C 0.0784427 17.9931 0.127566 17.9933 0.191002 17.9936C 0.317771 17.9943 0.502249 17.9951 0.732319 17.9961C 1.19224 17.998 1.83573 18.0002 2.56779 18.0017C 4.03148 18.0048 5.85488 18.0048 7.28096 17.9926L 7.26394 15.9927Z"/>
<path id="path3_stroke" d="M 3.22279 1L 53.2466 1L 53.2466 -0.999999L 3.22279 -0.999999L 3.22279 1ZM 53.2466 1C 54.4742 1 55.4694 1.99518 55.4694 3.22279L 57.4694 3.22279C 57.4694 0.890605 55.5787 -0.999999 53.2466 -0.999999L 53.2466 1ZM 55.4694 3.22279L 55.4694 13.0606L 57.4694 13.0606L 57.4694 3.22279L 55.4694 3.22279ZM 55.4694 13.0606C 55.4694 14.2882 54.4742 15.2833 53.2466 15.2833L 53.2466 17.2833C 55.5787 17.2833 57.4694 15.3927 57.4694 13.0606L 55.4694 13.0606ZM 53.2466 15.2833L 3.22279 15.2833L 3.22279 17.2833L 53.2466 17.2833L 53.2466 15.2833ZM 3.22279 15.2833C 1.99518 15.2833 1 14.2882 1 13.0606L -1 13.0606C -1 15.3927 0.890606 17.2833 3.22279 17.2833L 3.22279 15.2833ZM 1 13.0606L 1 3.22279L -1 3.22279L -1 13.0606L 1 13.0606ZM 1 3.22279C 1 1.99518 1.99518 1 3.22279 1L 3.22279 -0.999999C 0.890606 -0.999999 -1 0.890606 -1 3.22279L 1 3.22279Z"/>
<path id="path4_fill" d="M 11.2777 0L 2.42012 0C 1.08352 0 0 1.08352 0 2.42012L 0 46.3855C 0 47.7221 1.08352 48.8057 2.42012 48.8057L 11.2777 48.8057C 12.6143 48.8057 13.6979 47.7221 13.6979 46.3855L 13.6979 2.42012C 13.6979 1.08352 12.6143 0 11.2777 0Z"/>
<path id="path5_stroke" d="M 2.42012 1L 11.2777 1L 11.2777 -1L 2.42012 -1L 2.42012 1ZM 11.2777 1C 12.062 1 12.6979 1.63581 12.6979 2.42012L 14.6979 2.42012C 14.6979 0.531239 13.1666 -1 11.2777 -1L 11.2777 1ZM 12.6979 2.42012L 12.6979 46.3855L 14.6979 46.3855L 14.6979 2.42012L 12.6979 2.42012ZM 12.6979 46.3855C 12.6979 47.1699 12.062 47.8057 11.2777 47.8057L 11.2777 49.8057C 13.1666 49.8057 14.6979 48.2744 14.6979 46.3855L 12.6979 46.3855ZM 11.2777 47.8057L 2.42012 47.8057L 2.42012 49.8057L 11.2777 49.8057L 11.2777 47.8057ZM 2.42012 47.8057C 1.63581 47.8057 1 47.1699 1 46.3855L -1 46.3855C -1 48.2744 0.531238 49.8057 2.42012 49.8057L 2.42012 47.8057ZM 1 46.3855L 1 2.42012L -1 2.42012L -1 46.3855L 1 46.3855ZM 1 2.42012C 1 1.63581 1.63581 1 2.42012 1L 2.42012 -1C 0.531238 -1 -1 0.531239 -1 2.42012L 1 2.42012Z"/>
</defs>
</svg>
