<svg width="90" height="136" viewBox="0 0 90 136" version="1.1" xmlns="http://www.w3.org/2000/svg" xmlns:xlink="http://www.w3.org/1999/xlink">
<title>Group</title>
<desc>Created using Figma</desc>
<g id="Canvas" transform="matrix(2 0 0 2 5718 5170)">
<g id="Group">
<g id="Group">
<g id="icn-recarga">
<g id="Camada 2">
<g id="icones">
<g id="Vector">
<use xlink:href="#path0_stroke" transform="translate(-2858 -2584)" fill="#4D4D4D"/>
</g>
<g id="Vector">
<use xlink:href="#path1_stroke" transform="translate(-2858 -2575.73)" fill="#4D4D4D"/>
</g>
<g id="Vector">
<use xlink:href="#path2_stroke" transform="translate(-2843.26 -2526.08)" fill="#4D4D4D"/>
</g>
<g id="Vector">
<use xlink:href="#path3_stroke" transform="translate(-2857.82 -2528.53)" fill="#4D4D4D"/>
</g>
</g>
<g id="icones">
<g id="Vector">
<use xlink:href="#path4_stroke" transform="matrix(6.1547e-17 -1 1 6.09193e-17 -2833.94 -2541.6)" fill="#4D4D4D"/>
</g>
<g id="Vector">
<use xlink:href="#path5_stroke" transform="translate(-2832.29 -2545.87)" fill="#4D4D4D"/>
</g>
<g id="Vector">
<use xlink:href="#path5_stroke" transform="translate(-2831.19 -2545.87)" fill="#4D4D4D"/>
</g>
<g id="Vector">
<use xlink:href="#path5_stroke" transform="translate(-2830.09 -2545.87)" fill="#4D4D4D"/>
</g>
<g id="Vector">
<use xlink:href="#path6_stroke" transform="translate(-2828.99 -2545.87)" fill="#4D4D4D"/>
</g>
<g id="Vector">
<use xlink:href="#path6_stroke" transform="translate(-2827.89 -2545.87)" fill="#4D4D4D"/>
</g>
<g id="Vector">
<use xlink:href="#path6_stroke" transform="translate(-2826.79 -2545.87)" fill="#4D4D4D"/>
</g>
<g id="Vector">
<use xlink:href="#path6_stroke" transform="translate(-2825.69 -2545.87)" fill="#4D4D4D"/>
</g>
<g id="Vector">
<use xlink:href="#path7_stroke" transform="translate(-2824.59 -2545.87)" fill="#4D4D4D"/>
</g>
<g id="Vector">
<use xlink:href="#path7_stroke" transform="translate(-2823.49 -2545.87)" fill="#4D4D4D"/>
</g>
<g id="Vector">
<use xlink:href="#path7_stroke" transform="translate(-2822.39 -2545.87)" fill="#4D4D4D"/>
</g>
<g id="Vector">
<use xlink:href="#path7_stroke" transform="translate(-2821.29 -2545.87)" fill="#4D4D4D"/>
</g>
<g id="Vector">
<use xlink:href="#path7_stroke" transform="translate(-2820.19 -2545.87)" fill="#4D4D4D"/>
</g>
<g id="Vector">
<use xlink:href="#path7_stroke" transform="translate(-2819.09 -2545.87)" fill="#4D4D4D"/>
</g>
<g id="Vector">
<use xlink:href="#path8_stroke" transform="translate(-2832.22 -2556.58)" fill="#4D4D4D"/>
</g>
<g id="Vector">
<use xlink:href="#path9_stroke" transform="translate(-2832.22 -2558.84)" fill="#4D4D4D"/>
</g>
<g id="Vector">
<use xlink:href="#path10_stroke" transform="translate(-2832.22 -2552.3)" fill="#4D4D4D"/>
</g>
<g id="Vector">
<use xlink:href="#path11_stroke" transform="translate(-2832.22 -2554.38)" fill="#4D4D4D"/>
</g>
<g id="Vector">
<use xlink:href="#path12_stroke" transform="translate(-2832.22 -2547.79)" fill="#4D4D4D"/>
</g>
<g id="Vector">
<use xlink:href="#path11_stroke" transform="translate(-2832.22 -2549.87)" fill="#4D4D4D"/>
</g>
<g id="Vector">
<use xlink:href="#path13_stroke" transform="translate(-2826.31 -2556.58)" fill="#4D4D4D"/>
</g>
<g id="Vector">
<use xlink:href="#path14_stroke" transform="translate(-2831.94 -2561.25)" fill="#E20A0F"/>
</g>
<g id="Vector">
<use xlink:href="#path15_stroke" transform="translate(-2825.85 -2561.25)" fill="#4C4C4C"/>
</g>
</g>
</g>
</g>
</g>
</g>
</g>
<defs>
<path id="path0_stroke" d="M 36.1089 45.116C 36.1091 44.5637 35.6614 44.1159 35.1092 44.1158C 34.5569 44.1157 34.1091 44.5633 34.1089 45.1156L 36.1089 45.116ZM 35.1054 61.7857L 34.1054 61.7854L 34.1054 61.7857L 35.1054 61.7857ZM 32.5038 65.6792L 32.1211 64.7553L 32.5038 65.6792ZM 4.21435 66L 4.21435 67L 4.21435 66ZM 1.23435 64.7656L 0.527247 65.4728L 1.23435 64.7656ZM 4.21435 6.74914e-09L 4.21435 -1L 4.21435 6.74914e-09ZM 30.8946 6.74914e-09L 30.8946 -1L 30.8946 6.74914e-09ZM 33.8746 1.23435L 33.1675 1.94146L 33.8746 1.23435ZM 35.1089 4.21435L 36.1089 4.21435L 35.1089 4.21435ZM 34.1089 17.3386C 34.1089 17.8909 34.5567 18.3386 35.1089 18.3386C 35.6612 18.3386 36.1089 17.8909 36.1089 17.3386L 34.1089 17.3386ZM 34.1089 45.1156L 34.1054 61.7854L 36.1054 61.7859L 36.1089 45.116L 34.1089 45.1156ZM 34.1054 61.7857C 34.1102 62.2411 34.0395 62.5968 33.8607 63.0157L 35.7085 63.7811C 35.9533 63.1774 36.1006 62.4371 36.1054 61.7857L 34.1054 61.7857ZM 33.8607 63.0157C 33.6909 63.4383 33.4894 63.7399 33.1639 64.0585L 34.5782 65.4728C 35.0354 65.0087 35.4547 64.3811 35.7085 63.7811L 33.8607 63.0157ZM 33.1639 64.0585C 32.8453 64.384 32.5437 64.5855 32.1211 64.7553L 32.8865 66.6031C 33.4865 66.3493 34.1141 65.93 34.5782 65.4728L 33.1639 64.0585ZM 32.1211 64.7553C 31.7022 64.9341 31.3465 65.0048 30.8911 65L 30.8911 67C 31.5425 66.9952 32.2828 66.8479 32.8865 66.6031L 32.1211 64.7553ZM 30.8911 65L 4.21435 65L 4.21435 67L 30.8911 67L 30.8911 65ZM 4.21435 65C 3.75893 65.0048 3.40318 64.9341 2.98427 64.7553L 2.2189 66.6031C 2.82261 66.8479 3.56289 66.9952 4.21435 67L 4.21435 65ZM 2.98427 64.7553C 2.56167 64.5855 2.26008 64.384 1.94146 64.0585L 0.527247 65.4728C 0.9913 65.93 1.61888 66.3493 2.2189 66.6031L 2.98427 64.7553ZM 1.94146 64.0585C 1.33865 63.4557 1 62.6382 1 61.7857L -1 61.7857C -1 63.1686 -0.450633 64.4949 0.527247 65.4728L 1.94146 64.0585ZM 1 61.7857L 1 4.21435L -1 4.21435L -1 61.7857L 1 61.7857ZM 1 4.21435C 1 3.36185 1.33865 2.54427 1.94146 1.94146L 0.527247 0.527247C -0.450633 1.50513 -1 2.83142 -1 4.21435L 1 4.21435ZM 1.94146 1.94146C 2.54427 1.33865 3.36185 1 4.21435 1L 4.21435 -1C 2.83142 -1 1.50513 -0.450633 0.527247 0.527247L 1.94146 1.94146ZM 4.21435 1L 30.8946 1L 30.8946 -1L 4.21435 -1L 4.21435 1ZM 30.8946 1C 31.7471 1 32.5647 1.33865 33.1675 1.94146L 34.5817 0.527247C 33.6038 -0.450633 32.2775 -1 30.8946 -1L 30.8946 1ZM 33.1675 1.94146C 33.7703 2.54427 34.1089 3.36185 34.1089 4.21435L 36.1089 4.21435C 36.1089 2.83142 35.5596 1.50513 34.5817 0.527247L 33.1675 1.94146ZM 34.1089 4.21435L 34.1089 17.3386L 36.1089 17.3386L 36.1089 4.21435L 34.1089 4.21435Z"/>
<path id="path1_stroke" d="M 6.74914e-09 1L 35.1054 1L 35.1054 -1L 6.74914e-09 -1L 6.74914e-09 1Z"/>
<path id="path2_stroke" d="M 4.61913 2.80956C 4.61913 3.80896 3.80896 4.61913 2.80957 4.61913L 2.80957 6.61913C 4.91353 6.61913 6.61913 4.91353 6.61913 2.80956L 4.61913 2.80956ZM 2.80957 4.61913C 1.81017 4.61913 1 3.80896 1 2.80956L -1 2.80956C -1 4.91353 0.705601 6.61913 2.80957 6.61913L 2.80957 4.61913ZM 1 2.80956C 1 1.81017 1.81017 0.999999 2.80957 0.999999L 2.80957 -1C 0.705601 -1 -1 0.7056 -1 2.80956L 1 2.80956ZM 2.80957 0.999999C 3.80896 0.999999 4.61913 1.81017 4.61913 2.80956L 6.61913 2.80956C 6.61913 0.705601 4.91353 -1 2.80957 -1L 2.80957 0.999999Z"/>
<path id="path3_stroke" d="M 6.74914e-09 0.999996L 35.1054 0.999996L 35.1054 -1L 6.74914e-09 -1L 6.74914e-09 0.999996Z"/>
<path id="path4_stroke" d="M 1.65074 0.4L 20.6418 0.4L 20.6418 -0.4L 1.65074 -0.4L 1.65074 0.4ZM 20.6418 0.4C 21.3306 0.4 21.8925 0.961837 21.8925 1.65922L 22.6925 1.65922C 22.6925 0.523881 21.7763 -0.4 20.6418 -0.4L 20.6418 0.4ZM 21.8925 1.65922L 21.8925 17.4486L 22.6925 17.4486L 22.6925 1.65922L 21.8925 1.65922ZM 21.8925 17.4486C 21.8925 18.146 21.3306 18.7079 20.6418 18.7079L 20.6418 19.5079C 21.7763 19.5079 22.6925 18.584 22.6925 17.4486L 21.8925 17.4486ZM 20.6418 18.7079L 1.65074 18.7079L 1.65074 19.5079L 20.6418 19.5079L 20.6418 18.7079ZM 1.65074 18.7079C 0.961906 18.7079 0.4 18.146 0.4 17.4486L -0.4 17.4486C -0.4 18.584 0.516217 19.5079 1.65074 19.5079L 1.65074 18.7079ZM 0.4 17.4486L 0.4 1.65922L -0.4 1.65922L -0.4 17.4486L 0.4 17.4486ZM 0.4 1.65922C 0.4 0.961838 0.961906 0.4 1.65074 0.4L 1.65074 -0.4C 0.516217 -0.4 -0.4 0.523881 -0.4 1.65922L 0.4 1.65922Z"/>
<path id="path5_stroke" d="M 0.4 -7.51267e-07C 0.4 -0.220915 0.220914 -0.400001 2.28882e-07 -0.400001C -0.220914 -0.400001 -0.4 -0.220915 -0.4 -7.51267e-07L 0.4 -7.51267e-07ZM -0.4 1.84631C -0.4 2.06723 -0.220914 2.24631 2.28882e-07 2.24631C 0.220914 2.24631 0.4 2.06723 0.4 1.84631L -0.4 1.84631ZM -0.4 -7.51267e-07L -0.4 1.84631L 0.4 1.84631L 0.4 -7.51267e-07L -0.4 -7.51267e-07Z"/>
<path id="path6_stroke" d="M 0.399998 -7.51267e-07C 0.399998 -0.220915 0.220912 -0.400001 -1.67847e-06 -0.400001C -0.220916 -0.400001 -0.400002 -0.220915 -0.400002 -7.51267e-07L 0.399998 -7.51267e-07ZM -0.400002 1.84631C -0.400002 2.06723 -0.220916 2.24631 -1.67847e-06 2.24631C 0.220912 2.24631 0.399998 2.06723 0.399998 1.84631L -0.400002 1.84631ZM -0.400002 -7.51267e-07L -0.400002 1.84631L 0.399998 1.84631L 0.399998 -7.51267e-07L -0.400002 -7.51267e-07Z"/>
<path id="path7_stroke" d="M 0.400002 -7.51267e-07C 0.400002 -0.220915 0.220916 -0.400001 2.13623e-06 -0.400001C -0.220912 -0.400001 -0.399998 -0.220915 -0.399998 -7.51267e-07L 0.400002 -7.51267e-07ZM -0.399998 1.84631C -0.399998 2.06723 -0.220912 2.24631 2.13623e-06 2.24631C 0.220916 2.24631 0.400002 2.06723 0.400002 1.84631L -0.399998 1.84631ZM -0.399998 -7.51267e-07L -0.399998 1.84631L 0.400002 1.84631L 0.400002 -7.51267e-07L -0.399998 -7.51267e-07Z"/>
<path id="path8_stroke" d="M 3.14636e-08 -0.400002C -0.220914 -0.400002 -0.4 -0.220916 -0.4 -1.67847e-06C -0.4 0.220912 -0.220914 0.399998 3.14636e-08 0.399998L 3.14636e-08 -0.400002ZM 4.76185 0.399998C 4.98276 0.399998 5.16185 0.220912 5.16185 -1.67847e-06C 5.16185 -0.220916 4.98276 -0.400002 4.76185 -0.400002L 4.76185 0.399998ZM 3.14636e-08 0.399998L 4.76185 0.399998L 4.76185 -0.400002L 3.14636e-08 -0.400002L 3.14636e-08 0.399998Z"/>
<path id="path9_stroke" d="M 3.14636e-08 -0.400001C -0.220914 -0.400001 -0.4 -0.220915 -0.4 -1.37329e-06C -0.4 0.220913 -0.220914 0.399999 3.14636e-08 0.399999L 3.14636e-08 -0.400001ZM 15.9461 0.399999C 16.1671 0.399999 16.3461 0.220913 16.3461 -1.37329e-06C 16.3461 -0.220915 16.1671 -0.400001 15.9461 -0.400001L 15.9461 0.399999ZM 3.14636e-08 0.399999L 15.9461 0.399999L 15.9461 -0.400001L 3.14636e-08 -0.400001L 3.14636e-08 0.399999Z"/>
<path id="path10_stroke" d="M 3.14636e-08 -0.399998C -0.220914 -0.399998 -0.4 -0.220912 -0.4 2.13623e-06C -0.4 0.220916 -0.220914 0.400002 3.14636e-08 0.400002L 3.14636e-08 -0.399998ZM 10.9808 0.400002C 11.2018 0.400002 11.3808 0.220916 11.3808 2.13623e-06C 11.3808 -0.220912 11.2018 -0.399998 10.9808 -0.399998L 10.9808 0.400002ZM 3.14636e-08 0.400002L 10.9808 0.400002L 10.9808 -0.399998L 3.14636e-08 -0.399998L 3.14636e-08 0.400002Z"/>
<path id="path11_stroke" d="M 3.14636e-08 -0.399997C -0.220914 -0.399997 -0.4 -0.220911 -0.4 3.05176e-06C -0.4 0.220917 -0.220914 0.400003 3.14636e-08 0.400003L 3.14636e-08 -0.399997ZM 9.16078 0.400003C 9.38169 0.400003 9.56078 0.220917 9.56078 3.05176e-06C 9.56078 -0.220911 9.38169 -0.399997 9.16078 -0.399997L 9.16078 0.400003ZM 3.14636e-08 0.400003L 9.16078 0.400003L 9.16078 -0.399997L 3.14636e-08 -0.399997L 3.14636e-08 0.400003Z"/>
<path id="path12_stroke" d="M 3.14636e-08 -0.399998C -0.220914 -0.399998 -0.4 -0.220912 -0.4 2.13623e-06C -0.4 0.220916 -0.220914 0.400002 3.14636e-08 0.400002L 3.14636e-08 -0.399998ZM 13.1968 0.400002C 13.4177 0.400002 13.5968 0.220916 13.5968 2.13623e-06C 13.5968 -0.220912 13.4177 -0.399998 13.1968 -0.399998L 13.1968 0.400002ZM 3.14636e-08 0.400002L 13.1968 0.400002L 13.1968 -0.399998L 3.14636e-08 -0.399998L 3.14636e-08 0.400002Z"/>
<path id="path13_stroke" d="M -2.30733e-07 -0.400002C -0.220914 -0.400002 -0.4 -0.220916 -0.4 -1.67847e-06C -0.4 0.220912 -0.220914 0.399998 -2.30733e-07 0.399998L -2.30733e-07 -0.400002ZM 9.8976 0.399998C 10.1185 0.399998 10.2976 0.220912 10.2976 -1.67847e-06C 10.2976 -0.220916 10.1185 -0.400002 9.8976 -0.400002L 9.8976 0.399998ZM -2.30733e-07 0.399998L 9.8976 0.399998L 9.8976 -0.400002L -2.30733e-07 -0.400002L -2.30733e-07 0.399998Z"/>
<path id="path14_stroke" d="M 3.14636e-08 -0.399999C -0.220914 -0.399999 -0.4 -0.220913 -0.4 6.10352e-07C -0.4 0.220915 -0.220914 0.400001 3.14636e-08 0.400001L 3.14636e-08 -0.399999ZM 3.75422 0.400001C 3.97513 0.400001 4.15422 0.220915 4.15422 6.10352e-07C 4.15422 -0.220913 3.97513 -0.399999 3.75422 -0.399999L 3.75422 0.400001ZM 3.14636e-08 0.400001L 3.75422 0.400001L 3.75422 -0.399999L 3.14636e-08 -0.399999L 3.14636e-08 0.400001Z"/>
<path id="path15_stroke" d="M 2.51709e-07 -0.399999C -0.220914 -0.399999 -0.4 -0.220913 -0.4 6.10352e-07C -0.4 0.220915 -0.220914 0.400001 2.51709e-07 0.400001L 2.51709e-07 -0.399999ZM 9.57868 0.400001C 9.79959 0.400001 9.97868 0.220915 9.97868 6.10352e-07C 9.97868 -0.220913 9.79959 -0.399999 9.57868 -0.399999L 9.57868 0.400001ZM 2.39467 0.400001C 2.61558 0.400001 2.79467 0.220915 2.79467 6.10352e-07C 2.79467 -0.220913 2.61558 -0.399999 2.39467 -0.399999L 2.39467 0.400001ZM 7.18401 -0.399999C 6.96309 -0.399999 6.78401 -0.220913 6.78401 6.10352e-07C 6.78401 0.220915 6.96309 0.400001 7.18401 0.400001L 7.18401 -0.399999ZM 2.51709e-07 0.400001L 2.39467 0.400001L 2.39467 -0.399999L 2.51709e-07 -0.399999L 2.51709e-07 0.400001ZM 7.18401 0.400001L 9.57868 0.400001L 9.57868 -0.399999L 7.18401 -0.399999L 7.18401 0.400001Z"/>
</defs>
</svg>
