<svg width="156" height="132" viewBox="0 0 156 132" version="1.1" xmlns="http://www.w3.org/2000/svg" xmlns:xlink="http://www.w3.org/1999/xlink">
<title>Group 3</title>
<desc>Created using Figma</desc>
<g id="Canvas" transform="matrix(2 0 0 2 4936 4572)">
<g id="Group 3">
<g id="icon-nova-venda-big">
<g id="Group">
<g id="Group">
<g id="Vector">
<use xlink:href="#path0_fill" transform="translate(-2442.3 -2232.55)" fill="#4D4D4D"/>
</g>
</g>
</g>
<g id="Group">
<g id="Group">
<g id="Vector">
<use xlink:href="#path1_fill" transform="translate(-2418.37 -2232.55)" fill="#4D4D4D"/>
</g>
</g>
</g>
<g id="Group">
<g id="Group">
<g id="Vector">
<use xlink:href="#path2_fill" transform="translate(-2439.06 -2265.57)" fill="#D52B1E"/>
</g>
</g>
</g>
<g id="Group">
<g id="Group">
<g id="Vector">
<use xlink:href="#path3_fill" transform="translate(-2437.58 -2256.48)" fill="#D52B1E"/>
</g>
</g>
</g>
<g id="Group">
<g id="Group">
<g id="Vector">
<use xlink:href="#path4_fill" transform="translate(-2468 -2286)" fill="#4D4D4D"/>
</g>
</g>
</g>
</g>
</g>
</g>
<defs>
<path id="path0_fill" d="M 6.82181 4.08127e-07C 3.06026 4.08127e-07 8.87685e-07 2.81401 8.87685e-07 6.27288C 8.87685e-07 9.73174 3.06026 12.5458 6.82181 12.5458C 10.5834 12.5458 13.6436 9.73174 13.6436 6.27288C 13.6435 2.81401 10.5832 4.08127e-07 6.82181 4.08127e-07ZM 6.82181 9.04301C 5.16048 9.04301 3.80897 7.80011 3.80897 6.2726C 3.80897 4.74495 5.16063 3.50219 6.82181 3.50219C 8.48299 3.50219 9.83466 4.74509 9.83466 6.2726C 9.83466 7.80039 8.48299 9.04301 6.82181 9.04301Z"/>
<path id="path1_fill" d="M 6.82181 4.08127e-07C 3.06026 4.08127e-07 1.99729e-06 2.81401 1.99729e-06 6.27288C 1.99729e-06 9.73174 3.06026 12.5458 6.82181 12.5458C 10.5834 12.5458 13.6436 9.73174 13.6436 6.27288C 13.6435 2.81401 10.5832 4.08127e-07 6.82181 4.08127e-07ZM 6.82181 9.04301C 5.16048 9.04301 3.80897 7.80011 3.80897 6.2726C 3.80897 4.74495 5.16063 3.50219 6.82181 3.50219C 8.48314 3.50219 9.83465 4.74509 9.83465 6.2726C 9.83465 7.80039 8.48299 9.04301 6.82181 9.04301Z"/>
<path id="path2_fill" d="M 29.1967 6.80212e-07L 1.90448 6.80212e-07C 0.852632 6.80212e-07 3.32882e-07 0.784023 3.32882e-07 1.75124C 3.32882e-07 2.71845 0.852783 3.50247 1.90448 3.50247L 29.1967 3.50247C 30.2486 3.50247 31.1012 2.71845 31.1012 1.75124C 31.1012 0.783884 30.2486 6.80212e-07 29.1967 6.80212e-07Z"/>
<path id="path3_fill" d="M 26.2257 5.10159e-07L 1.90448 5.10159e-07C 0.852632 5.10159e-07 2.95895e-07 0.784023 2.95895e-07 1.75123C 2.95895e-07 2.71845 0.852632 3.50247 1.90448 3.50247L 26.2255 3.50247C 27.2774 3.50247 28.13 2.71845 28.13 1.75123C 28.13 0.784162 27.2774 5.10159e-07 26.2257 5.10159e-07Z"/>
<path id="path4_fill" d="M 76.7098 12.6254C 75.9835 11.8058 74.9073 11.3357 73.7573 11.3357L 14.4345 11.3357L 13.2365 5.98786C 12.9863 4.87228 12.1589 3.93558 11.0225 3.48185L 2.66325 0.14544C 1.69821 -0.240024 0.57667 0.167172 0.158081 1.05428C -0.260963 1.94167 0.181866 2.9731 1.14645 3.35801L 9.50582 6.69456L 18.7208 47.8266C 19.0838 49.4465 20.6528 50.6223 22.4515 50.6223L 68.0776 50.6223C 69.1294 50.6223 69.9821 49.8382 69.9821 48.871C 69.9821 47.9038 69.1294 47.1198 68.0776 47.1198L 22.4516 47.1198L 21.3307 42.1164L 68.4303 42.1164C 70.2289 42.1164 71.7979 40.9407 72.1608 39.3208L 77.4879 15.5445C 77.7198 14.5092 77.4362 13.445 76.7098 12.6254ZM 68.4303 38.6142L 20.5461 38.6142L 15.2193 14.8381L 73.7571 14.8382L 68.4303 38.6142Z"/>
</defs>
</svg>
