<svg width="23" height="29" viewBox="0 0 23 29" version="1.1" xmlns="http://www.w3.org/2000/svg" xmlns:xlink="http://www.w3.org/1999/xlink">
<g id="Canvas" fill="none">
<g id="Vector">
<path d="M 4.7757 26.7244C 5.26033 26.9818 5.83053 26.9262 6.2641 26.5792L 7.97019 25.2122L 7.97138 27.486C 7.97192 28.0635 8.2733 28.5823 8.75793 28.8397C 9.24247 29.0971 9.81273 29.0415 10.2463 28.6945L 19.8779 20.9773C 20.5807 20.4137 21.0002 19.518 21 18.5808L 20.9929 5.74405C 20.9924 5.1667 20.6911 4.6481 20.2065 4.39071C 19.7219 4.13329 19.1517 4.18891 18.7181 4.53594L 17.0121 5.90287L 17.0108 3.6288C 17.0102 3.05144 16.7089 2.5329 16.2243 2.27548C 15.7396 2.01806 15.1694 2.07368 14.7359 2.42073L 13.0299 3.78764L 13.0286 1.51404C 13.0285 0.936929 12.7273 0.41826 12.2428 0.160626C 11.7579 -0.0971501 11.1874 -0.041674 10.7537 0.305522L 1.12212 8.02256C 0.770667 8.30432 0.490206 8.66905 0.297481 9.08063C 0.104756 9.4922 -5.33628e-05 9.95047 2.03823e-08 10.419L 0.00700509 23.2558C 0.00749835 23.8334 0.309123 24.3521 0.794154 24.6095C 1.27892 24.8668 1.84907 24.8109 2.28179 24.4639L 3.98788 23.0969L 3.98911 25.371C 3.98974 25.9484 4.29108 26.467 4.7757 26.7244ZM 19.4254 5.53959C 19.5302 5.45575 19.63 5.48802 19.6801 5.51467C 19.7303 5.54131 19.8145 5.60691 19.8146 5.7461L 19.8216 18.5824C 19.8217 18.8546 19.7608 19.1206 19.6488 19.3596C 19.537 19.5985 19.3741 19.8104 19.1701 19.9739L 9.53886 27.6907C 9.4342 27.7745 9.33434 27.7423 9.28418 27.7157C 9.23402 27.689 9.14977 27.6235 9.14962 27.484L 9.14269 14.6479C 9.14259 14.1037 9.38619 13.5835 9.79421 13.2564L 19.4254 5.53959ZM 1.57421 23.4606C 1.46998 23.5441 1.37032 23.512 1.32012 23.4853C 1.2698 23.4587 1.18539 23.393 1.18529 23.2537L 1.17831 10.4174C 1.17822 9.87325 1.42177 9.35301 1.82983 9.02595L 11.4611 1.3092C 11.5658 1.22536 11.6658 1.25766 11.7161 1.28442C 11.7662 1.31104 11.8503 1.37647 11.8503 1.51571L 11.8521 4.73135L 5.10438 10.1378C 4.75293 10.4196 4.47247 10.7843 4.27977 11.1958C 4.08705 11.6074 3.98224 12.0657 3.98229 12.5342L 3.98718 21.5272L 1.57421 23.4606ZM 5.16749 25.3689L 5.16049 12.5326C 5.16039 11.9885 5.40394 11.4682 5.812 11.1412L 15.4432 3.42438C 15.5479 3.34052 15.6477 3.37279 15.6979 3.39943C 15.7482 3.42613 15.8323 3.49158 15.8325 3.63089L 15.8342 6.84654L 9.08652 12.253C 8.73509 12.5347 8.45459 12.8995 8.2619 13.311C 8.06923 13.7225 7.96435 14.1808 7.96449 14.6494L 7.96934 23.6424L 5.55677 25.5754C 5.45203 25.6593 5.35225 25.627 5.30205 25.6004C 5.25187 25.5738 5.16763 25.5082 5.16749 25.3689Z" transform="matrix(0.638283 0.769802 0.769802 -0.638283 -6.36426 15.6722)" fill="#5779C9"/>
</g>
</g>
</svg>

