<svg width="105" height="68" viewBox="0 0 105 68" version="1.1" xmlns="http://www.w3.org/2000/svg" xmlns:xlink="http://www.w3.org/1999/xlink">
<title>icn_dinheiro</title>
<desc>Created using Figma</desc>
<g id="Canvas" transform="translate(2258 2166)">
<g id="icn_dinheiro">
<g id="Camada 2">
<g id="icones">
<g id="Vector">
<use xlink:href="#path0_fill" transform="translate(-2204.92 -2139.63)" fill="#E20A0F"/>
</g>
<g id="Vector">
<use xlink:href="#path1_fill" transform="translate(-2213.91 -2138.09)" fill="#E20A0F"/>
</g>
<g id="Vector">
<use xlink:href="#path2_stroke" transform="translate(-2221.75 -2147.67)" fill="#4C4C4C"/>
</g>
<g id="Vector">
<use xlink:href="#path3_stroke" transform="translate(-2257 -2164.36)" fill="#4C4C4C"/>
</g>
<g id="Vector">
<use xlink:href="#path4_stroke" transform="translate(-2170.98 -2122.99)" fill="#4C4C4C"/>
</g>
<g id="Vector">
<use xlink:href="#path5_stroke" transform="translate(-2256.52 -2121.85)" fill="#4C4C4C"/>
</g>
<g id="Vector">
<use xlink:href="#path6_stroke" transform="translate(-2176.06 -2164.71)" fill="#4C4C4C"/>
</g>
<g id="Vector">
<use xlink:href="#path7_stroke" transform="matrix(6.12323e-17 -1 1 6.12323e-17 -2257 -2099)" fill="#4D4D4D"/>
</g>
</g>
</g>
</g>
</g>
<defs>
<path id="path0_fill" d="M 4.50415 7.51982L 4.50415 3.12227C 4.93593 3.28282 5.30803 3.57203 5.57017 3.95083C 5.83232 4.32963 5.97188 4.77976 5.97 5.24042C 5.97 5.43481 6.04722 5.62123 6.18467 5.75868C 6.32212 5.89613 6.50855 5.97335 6.70293 5.97335C 6.89731 5.97335 7.08374 5.89613 7.22119 5.75868C 7.35864 5.62123 7.43586 5.43481 7.43586 5.24042C 7.43327 4.37817 7.13383 3.54311 6.58789 2.8757C 6.04195 2.20829 5.28282 1.74925 4.43819 1.57579L 4.43819 0.732927C 4.43819 0.538543 4.36097 0.35212 4.22352 0.21467C 4.08607 0.0772194 3.89965 1.23019e-06 3.70526 1.23019e-06C 3.51088 1.23019e-06 3.32446 0.0772194 3.18701 0.21467C 3.04956 0.35212 2.97234 0.538543 2.97234 0.732927L 2.97234 1.5538C 2.13175 1.73109 1.37766 2.19197 0.8365 2.85918C 0.295338 3.52639 -2.27911e-06 4.35935 -2.27911e-06 5.21843C -2.27911e-06 6.07752 0.295338 6.91048 0.8365 7.57769C 1.37766 8.24489 2.13175 8.70577 2.97234 8.88307L 2.97234 13.3246C 2.54056 13.164 2.16847 12.8748 1.90632 12.496C 1.64418 12.1172 1.50461 11.6671 1.50649 11.2064C 1.50649 11.0121 1.42927 10.8256 1.29182 10.6882C 1.15437 10.5507 0.967943 10.4735 0.773559 10.4735C 0.579175 10.4735 0.392752 10.5507 0.255302 10.6882C 0.117851 10.8256 0.0406332 11.0121 0.0406332 11.2064C 0.0432151 12.0687 0.342658 12.9038 0.888599 13.5712C 1.43454 14.2386 2.19367 14.6976 3.0383 14.8711L 3.0383 15.6993C 3.0383 15.8937 3.11552 16.0801 3.25297 16.2175C 3.39042 16.355 3.57684 16.4322 3.77122 16.4322C 3.96561 16.4322 4.15203 16.355 4.28948 16.2175C 4.42693 16.0801 4.50415 15.8937 4.50415 15.6993L 4.50415 14.8931C 5.34474 14.7158 6.09883 14.2549 6.63999 13.5877C 7.18115 12.9205 7.47649 12.0875 7.47649 11.2284C 7.47649 10.3693 7.18115 9.53638 6.63999 8.86917C 6.09883 8.20197 5.34474 7.74109 4.50415 7.5638L 4.50415 7.51982ZM 1.50649 5.19645C 1.50461 4.73579 1.64418 4.28565 1.90632 3.90685C 2.16847 3.52805 2.54056 3.23884 2.97234 3.07829L 2.97234 7.3146C 2.54056 7.15405 2.16847 6.86484 1.90632 6.48604C 1.64418 6.10724 1.50461 5.65711 1.50649 5.19645ZM 4.50415 13.3099L 4.50415 9.10294C 4.94062 9.25937 5.31811 9.54682 5.58499 9.92596C 5.85186 10.3051 5.9951 10.7574 5.9951 11.2211C 5.9951 11.6848 5.85186 12.1371 5.58499 12.5162C 5.31811 12.8954 4.94062 13.1828 4.50415 13.3393L 4.50415 13.3099Z"/>
<path id="path1_fill" d="M 7.51982 3.78929C 7.52372 3.29122 7.42861 2.79733 7.24002 2.33632C 7.05143 1.87532 6.77312 1.45637 6.42126 1.10383C 6.0694 0.751284 5.65099 0.472164 5.19035 0.282683C 4.72971 0.0932027 4.23601 -0.00286171 3.73792 6.63132e-05L 0.732927 6.63132e-05C 0.538543 6.63132e-05 0.35212 0.0772845 0.21467 0.214735C 0.0772193 0.352185 1.11836e-06 0.538608 1.11836e-06 0.732992L 1.11836e-06 12.6357C 1.11836e-06 12.8301 0.0772193 13.0165 0.21467 13.154C 0.35212 13.2914 0.538543 13.3686 0.732927 13.3686C 0.927311 13.3686 1.11373 13.2914 1.25118 13.154C 1.38863 13.0165 1.46585 12.8301 1.46585 12.6357L 1.46585 7.50523L 3.74525 7.50523C 4.34014 7.51102 4.90868 7.75141 5.32729 8.17413C 5.74589 8.59686 5.9807 9.16773 5.98068 9.76264L 5.98068 12.6284C 5.98068 12.8228 6.05789 13.0092 6.19534 13.1466C 6.33279 13.2841 6.51922 13.3613 6.7136 13.3613C 6.90799 13.3613 7.09441 13.2841 7.23186 13.1466C 7.36931 13.0092 7.44653 12.8228 7.44653 12.6284L 7.44653 9.76997C 7.44596 9.18616 7.30919 8.61054 7.04708 8.08887C 6.78498 7.56721 6.40477 7.11389 5.9367 6.76497C 6.41435 6.42678 6.80627 5.98156 7.08116 5.46488C 7.35604 4.9482 7.50627 4.37439 7.51982 3.78929ZM 3.73792 5.98807L 1.53914 5.98807L 1.53914 1.50256L 3.81855 1.50256C 4.3686 1.5748 4.8728 1.84706 5.2349 2.26738C 5.597 2.6877 5.79164 3.22664 5.78167 3.78133C 5.7717 4.33602 5.55782 4.86762 5.18085 5.27465C 4.80388 5.68168 4.29022 5.93565 3.73792 5.98807Z"/>
<path id="path2_stroke" d="M 31.1901 16.0951C 31.1901 24.4318 24.4318 31.1901 16.0951 31.1901L 16.0951 33.1901C 25.5364 33.1901 33.1901 25.5364 33.1901 16.0951L 31.1901 16.0951ZM 16.0951 31.1901C 7.75829 31.1901 1 24.4318 1 16.0951L -0.999999 16.0951C -0.999999 25.5364 6.65372 33.1901 16.0951 33.1901L 16.0951 31.1901ZM 1 16.0951C 1 7.75829 7.75829 1 16.0951 1L 16.0951 -1C 6.65372 -1 -0.999999 6.65372 -0.999999 16.0951L 1 16.0951ZM 16.0951 1C 24.4318 1 31.1901 7.75829 31.1901 16.0951L 33.1901 16.0951C 33.1901 6.65372 25.5364 -1 16.0951 -1L 16.0951 1Z"/>
<path id="path3_stroke" d="M -0.118757 19.1988C 10.8893 20.5154 20.0873 12.2361 21.0861 0.081907L 19.0929 -0.081907C 18.1715 11.1296 9.8232 18.3736 0.118757 17.213L -0.118757 19.1988Z"/>
<path id="path4_stroke" d="M 15.8931 -0.985135C 4.99771 0.914777 -2.25666 11.5499 -0.817906 23.6233L 1.16804 23.3866C -0.163661 12.2116 6.53688 2.67656 16.2367 0.985133L 15.8931 -0.985135Z"/>
<path id="path5_stroke" d="M 17.63 22.7359C 17.8247 9.89427 10.5166 -0.777819 0.0211433 -0.999776L -0.0211433 0.999776C 8.89133 1.18826 15.8166 10.4078 15.6302 22.7056L 17.63 22.7359Z"/>
<path id="path6_stroke" d="M -0.973285 0.229599C 0.495489 6.45584 3.62054 11.4526 7.66738 14.4807C 11.7323 17.5224 16.7094 18.5547 21.713 16.8278L 21.0605 14.9372C 16.7414 16.4279 12.4506 15.5619 8.8656 12.8794C 5.26253 10.1834 2.35559 5.63011 0.973286 -0.229599L -0.973285 0.229599Z"/>
<path id="path7_stroke" d="M 7.4392 1L 58.5608 1L 58.5608 -1L 7.4392 -1L 7.4392 1ZM 58.5608 1C 62.1171 1 65 3.88293 65 7.4392L 67 7.4392C 67 2.77836 63.2216 -1 58.5608 -1L 58.5608 1ZM 65 7.4392L 65 95.1704L 67 95.1704L 67 7.4392L 65 7.4392ZM 65 95.1704C 65 98.7267 62.1171 101.61 58.5608 101.61L 58.5608 103.61C 63.2216 103.61 67 99.8313 67 95.1704L 65 95.1704ZM 58.5608 101.61L 7.4392 101.61L 7.4392 103.61L 58.5608 103.61L 58.5608 101.61ZM 7.4392 101.61C 3.88293 101.61 1 98.7267 1 95.1704L -1 95.1704C -1 99.8313 2.77836 103.61 7.4392 103.61L 7.4392 101.61ZM 1 95.1704L 1 7.4392L -1 7.4392L -1 95.1704L 1 95.1704ZM 1 7.4392C 1 3.88293 3.88293 1 7.4392 1L 7.4392 -1C 2.77836 -1 -1 2.77836 -1 7.4392L 1 7.4392Z"/>
</defs>
</svg>
