<svg width="68" height="65" viewBox="0 0 68 65" version="1.1" xmlns="http://www.w3.org/2000/svg" xmlns:xlink="http://www.w3.org/1999/xlink">
<title>Group</title>
<desc>Created using Figma</desc>
<g id="Canvas" transform="translate(-4108 5565)">
<g id="Group">
<g id="caixa">
<g id="Group">
<g id="Group">
<g id="Vector">
<mask id="mask0_outline_ins">
<use xlink:href="#path0_fill" fill="white" transform="translate(4111 -5565)"/>
<use xlink:href="#path1_fill" fill="white" transform="translate(4111 -5565)"/>
<use xlink:href="#path2_fill" fill="white" transform="translate(4111 -5565)"/>
</mask>
<g mask="url(#mask0_outline_ins)">
<use xlink:href="#path3_stroke_2x" transform="translate(4111 -5565)" fill="#4D4D4D"/>
</g>
</g>
</g>
</g>
<g id="Group">
<g id="Group">
<g id="Vector">
<use xlink:href="#path4_fill" transform="translate(4148 -5561)" fill="#4D4D4D"/>
</g>
</g>
</g>
<g id="Group">
<g id="Group">
<g id="Vector">
<use xlink:href="#path5_fill" transform="translate(4140.92 -5511.49)" fill="#4D4D4D"/>
</g>
</g>
</g>
<g id="Group">
<g id="Group">
<g id="Vector">
<use xlink:href="#path6_fill" transform="translate(4155.61 -5522.02)" fill="#4D4D4D"/>
</g>
</g>
</g>
<g id="Group">
<g id="Group">
<g id="Vector">
<use xlink:href="#path7_fill" transform="translate(4163.33 -5522.02)" fill="#4D4D4D"/>
</g>
</g>
</g>
<g id="Group">
<g id="Group">
<g id="Vector">
<use xlink:href="#path8_fill" transform="translate(4147.89 -5528)" fill="#4D4D4D"/>
</g>
</g>
</g>
<g id="Group">
<g id="Group">
<g id="Vector">
<use xlink:href="#path9_fill" transform="translate(4155.61 -5528)" fill="#4D4D4D"/>
</g>
</g>
</g>
<g id="Group">
<g id="Group">
<g id="Vector">
<use xlink:href="#path10_fill" transform="translate(4132.44 -5522.02)" fill="#4D4D4D"/>
</g>
</g>
</g>
<g id="Group">
<g id="Group">
<g id="Vector">
<use xlink:href="#path11_fill" transform="translate(4132.44 -5528)" fill="#4D4D4D"/>
</g>
</g>
</g>
<g id="Group">
<g id="Group">
<g id="Vector">
<use xlink:href="#path11_fill" transform="translate(4140.16 -5528)" fill="#4D4D4D"/>
</g>
</g>
</g>
<g id="Group">
<g id="Group">
<g id="Vector">
<use xlink:href="#path12_fill" transform="translate(4117 -5522.02)" fill="#4D4D4D"/>
</g>
</g>
</g>
<g id="Group">
<g id="Group">
<g id="Vector">
<use xlink:href="#path13_fill" transform="translate(4124.72 -5522.02)" fill="#4D4D4D"/>
</g>
</g>
</g>
<g id="Group">
<g id="Group">
<g id="Vector">
<use xlink:href="#path14_fill" transform="translate(4117 -5528)" fill="#4D4D4D"/>
</g>
</g>
</g>
<g id="Group">
<g id="Group">
<g id="Vector">
<use xlink:href="#path15_fill" transform="translate(4124.72 -5528)" fill="#4D4D4D"/>
</g>
</g>
</g>
<g id="Group">
<g id="Group">
<g id="Vector">
<use xlink:href="#path16_fill" transform="translate(4163.33 -5528)" fill="#4D4D4D"/>
</g>
</g>
</g>
<g id="Group">
<g id="Group">
<g id="Vector">
<use xlink:href="#path17_fill" transform="translate(4144 -5540)" fill="#4D4D4D"/>
</g>
</g>
</g>
</g>
<g id="Ellipse">
<use xlink:href="#path18_fill" transform="translate(4108 -5565)" fill="#F2F2F2"/>
<mask id="mask1_outline_ins">
<use xlink:href="#path18_fill" fill="white" transform="translate(4108 -5565)"/>
</mask>
<g mask="url(#mask1_outline_ins)">
<use xlink:href="#path19_stroke_2x" transform="translate(4108 -5565)" fill="#4D4D4D"/>
</g>
</g>
<g id="&#239;&#128;&#163;">
<use xlink:href="#path20_fill" transform="translate(4120 -5556)" fill="#4D4D4D"/>
</g>
</g>
</g>
<defs>
<path id="path0_fill" d="M 35.621 12.9729C 35.0597 12.9729 34.6033 12.5183 34.6033 11.9595L 34.6033 3.04052C 34.6033 2.48155 35.0598 2.02706 35.621 2.02706L 61.9465 2.02706C 62.5078 2.02706 62.9642 2.48168 62.9642 3.04052L 62.9642 11.9595C 62.9642 12.5184 62.5077 12.9729 61.9465 12.9729L 35.621 12.9729Z"/>
<path id="path1_fill" fill-rule="evenodd" d="M 34.6033 11.9595C 34.6033 12.5183 35.0597 12.9729 35.621 12.9729L 61.9465 12.9729C 62.5077 12.9729 62.9642 12.5184 62.9642 11.9595L 62.9642 3.04052C 62.9642 2.48168 62.5078 2.02706 61.9465 2.02706L 35.621 2.02706C 35.0598 2.02706 34.6033 2.48155 34.6033 3.04052L 34.6033 11.9595Z"/>
<path id="path2_fill" fill-rule="evenodd" d="M 61.9465 15C 63.6301 15 64.9997 13.6359 64.9997 11.9595L 64.9997 3.04052C 64.9997 1.36398 63.6299 0 61.9465 0L 35.621 0C 33.9374 0 32.5678 1.36411 32.5678 3.04052L 32.5678 11.9595C 32.5678 13.636 33.9376 15 35.621 15L 47.766 15L 47.766 19.4595L 28.4969 19.4595L 9.09196 19.4595L 5.08875 19.4595C 2.28273 19.4595 2.26207e-05 21.7327 2.26207e-05 24.527L 2.26207e-05 53.6674L 0 53.6742L 0.000277564 61.9595C 0.000277564 63.636 1.37008 65 3.05349 65L 61.9468 65C 63.6303 65 65 63.6359 65 61.9595L 65 24.527C 65 21.7327 62.7173 19.4595 59.9113 19.4595L 49.8018 19.4595L 49.8018 15L 61.9465 15ZM 2.03541 51.7568L 50.4369 51.7045L 62.9644 51.7568L 62.9644 49.7299L 48.241 49.7299L 2.03554 49.7299L 2.03554 24.5272C 2.03554 22.8506 3.40534 21.4867 5.08875 21.4867L 9.09183 21.4867L 28.4969 21.4867L 59.9111 21.4867C 61.5947 21.4867 62.9644 22.8508 62.9644 24.5272L 62.9644 49.7299L 62.9644 51.7568L 62.9644 61.9595C 62.9644 62.5185 62.5078 62.9729 61.9467 62.9729L 3.05336 62.9729C 2.49205 62.9729 2.03567 62.5183 2.03567 61.9595L 2.03567 58.8514L 2.03564 58.8441L 2.03541 51.7568ZM 34.6033 11.9595C 34.6033 12.5183 35.0597 12.9729 35.621 12.9729L 61.9465 12.9729C 62.5077 12.9729 62.9642 12.5184 62.9642 11.9595L 62.9642 3.04052C 62.9642 2.48168 62.5078 2.02706 61.9465 2.02706L 35.621 2.02706C 35.0598 2.02706 34.6033 2.48155 34.6033 3.04052L 34.6033 11.9595Z"/>
<path id="path3_stroke_2x" d="M 2.03564 58.8441L 1.28563 58.8441L 1.28566 58.8489L 2.03564 58.8441ZM 35.621 12.2229C 35.471 12.2229 35.3533 12.1012 35.3533 11.9595L 33.8533 11.9595C 33.8533 12.9354 34.6483 13.7229 35.621 13.7229L 35.621 12.2229ZM 35.3533 11.9595L 35.3533 3.04052L 33.8533 3.04052L 33.8533 11.9595L 35.3533 11.9595ZM 35.3533 3.04052C 35.3533 2.89877 35.471 2.77706 35.621 2.77706L 35.621 1.27706C 34.6486 1.27706 33.8533 2.06433 33.8533 3.04052L 35.3533 3.04052ZM 35.621 2.77706L 61.9465 2.77706L 61.9465 1.27706L 35.621 1.27706L 35.621 2.77706ZM 61.9465 2.77706C 62.0965 2.77706 62.2142 2.89876 62.2142 3.04052L 63.7142 3.04052C 63.7142 2.06459 62.9192 1.27706 61.9465 1.27706L 61.9465 2.77706ZM 62.2142 3.04052L 62.2142 11.9595L 63.7142 11.9595L 63.7142 3.04052L 62.2142 3.04052ZM 62.2142 11.9595C 62.2142 12.1012 62.0965 12.2229 61.9465 12.2229L 61.9465 13.7229C 62.9189 13.7229 63.7142 12.9357 63.7142 11.9595L 62.2142 11.9595ZM 61.9465 12.2229L 35.621 12.2229L 35.621 13.7229L 61.9465 13.7229L 61.9465 12.2229ZM 2.78567 58.8514C 2.78567 58.8474 2.78565 58.8433 2.78563 58.8393L 1.28566 58.8489C 1.28566 58.8499 1.28567 58.8508 1.28567 58.8514L 2.78567 58.8514ZM 2.78564 58.8441C 2.78561 57.8532 2.78555 56.0814 2.7855 54.5573C 2.78548 53.7952 2.78546 53.0951 2.78544 52.5855C 2.78543 52.3307 2.78542 52.1235 2.78542 51.98C 2.78542 51.9083 2.78541 51.8525 2.78541 51.8146C 2.78541 51.7956 2.78541 51.7812 2.78541 51.7715C 2.78541 51.7666 2.78541 51.7629 2.78541 51.7605C 2.78541 51.7592 2.78541 51.7583 2.78541 51.7577C 2.78541 51.7574 2.78541 51.7572 2.78541 51.757C 2.78541 51.7569 2.78541 51.7569 2.78541 51.7568C 2.78541 51.7568 2.78541 51.7568 2.03541 51.7568C 1.28541 51.7568 1.28541 51.7568 1.28541 51.7569C 1.28541 51.7569 1.28541 51.757 1.28541 51.757C 1.28541 51.7572 1.28541 51.7574 1.28541 51.7577C 1.28541 51.7584 1.28541 51.7593 1.28541 51.7605C 1.28541 51.763 1.28541 51.7667 1.28541 51.7715C 1.28541 51.7812 1.28541 51.7957 1.28541 51.8146C 1.28541 51.8525 1.28542 51.9083 1.28542 51.9801C 1.28542 52.1235 1.28543 52.3307 1.28544 52.5855C 1.28546 53.0951 1.28548 53.7953 1.2855 54.5573C 1.28555 56.0814 1.28561 57.8533 1.28564 58.8441L 2.78564 58.8441ZM 2.26207e-05 53.6674C -0.749968 53.6637 -0.749968 53.6637 -0.749968 53.6637C -0.749968 53.6637 -0.749968 53.6637 -0.749968 53.6637C -0.749968 53.6637 -0.749968 53.6637 -0.749968 53.6637C -0.749968 53.6637 -0.749968 53.6637 -0.749968 53.6637C -0.749968 53.6637 -0.749968 53.6637 -0.749968 53.6637C -0.749968 53.6637 -0.749969 53.6638 -0.749969 53.6638C -0.749969 53.6639 -0.749969 53.6639 -0.74997 53.664C -0.749971 53.6642 -0.749972 53.6644 -0.749973 53.6647C -0.749976 53.6653 -0.749979 53.6661 -0.749983 53.667C -0.749988 53.6684 -0.75 53.6714 -0.75 53.6742L 0.75 53.6742C 0.75 53.6748 0.75 53.6744 0.750005 53.673C 0.750007 53.6724 0.75001 53.6719 0.750011 53.6716C 0.750012 53.6714 0.750013 53.6713 0.750013 53.6712C 0.750013 53.6712 0.750013 53.6711 0.750013 53.6711C 0.750013 53.6711 0.750013 53.6711 0.750013 53.6711C 0.750013 53.6711 0.750013 53.6711 0.750013 53.6711C 0.750013 53.6711 0.750013 53.6711 0.750013 53.6711C 0.750013 53.6711 0.750013 53.6711 0.750013 53.6711C 0.750013 53.6711 0.750013 53.6711 0.750013 53.6711C 0.750013 53.6711 0.750013 53.6711 2.26207e-05 53.6674ZM 63.7144 51.7568L 63.7144 49.7299L 62.2144 49.7299L 62.2144 51.7568L 63.7144 51.7568ZM 47.766 15L 49.266 15L 49.266 13.5L 47.766 13.5L 47.766 15ZM 47.766 19.4595L 47.766 20.9595L 49.266 20.9595L 49.266 19.4595L 47.766 19.4595ZM 2.03541 51.7568L 2.03379 50.2568L 0.535362 50.2584L 0.535411 51.7568L 2.03541 51.7568ZM 50.4369 51.7045L 50.4432 50.2045L 50.4353 50.2045L 50.4369 51.7045ZM 2.03554 49.7299L 0.535538 49.7299L 0.535538 51.2299L 2.03554 51.2299L 2.03554 49.7299ZM 62.9644 49.7299L 62.9644 51.2299L 64.4644 51.2299L 64.4644 49.7299L 62.9644 49.7299ZM 62.9644 51.7568L 64.4644 51.7568L 64.4644 50.263L 62.9706 50.2568L 62.9644 51.7568ZM 2.03567 58.8514L 3.53567 58.8514L 3.53566 58.8465L 2.03567 58.8514ZM 0 53.6742L -1.5 53.6693L -1.5 53.6743L 0 53.6742ZM 0.000277564 61.9595L 1.50028 61.9595L 1.50028 61.9594L 0.000277564 61.9595ZM 49.8018 19.4595L 48.3018 19.4595L 48.3018 20.9595L 49.8018 20.9595L 49.8018 19.4595ZM 49.8018 15L 49.8018 13.5L 48.3018 13.5L 48.3018 15L 49.8018 15ZM 2.26207e-05 53.6674L 1.50002 53.6724L 1.50002 53.6674L 2.26207e-05 53.6674ZM 2.03564 58.8441L 0.535634 58.8442L 0.53565 58.849L 2.03564 58.8441ZM 61.9465 16.5C 64.4526 16.5 66.4997 14.4702 66.4997 11.9595L 63.4997 11.9595C 63.4997 12.8016 62.8075 13.5 61.9465 13.5L 61.9465 16.5ZM 66.4997 11.9595L 66.4997 3.04052L 63.4997 3.04052L 63.4997 11.9595L 66.4997 11.9595ZM 66.4997 3.04052C 66.4997 0.52963 64.4524 -1.5 61.9465 -1.5L 61.9465 1.5C 62.8074 1.5 63.4997 2.19833 63.4997 3.04052L 66.4997 3.04052ZM 61.9465 -1.5L 35.621 -1.5L 35.621 1.5L 61.9465 1.5L 61.9465 -1.5ZM 35.621 -1.5C 33.1149 -1.5 31.0678 0.529841 31.0678 3.04052L 34.0678 3.04052C 34.0678 2.19838 34.76 1.5 35.621 1.5L 35.621 -1.5ZM 31.0678 3.04052L 31.0678 11.9595L 34.0678 11.9595L 34.0678 3.04052L 31.0678 3.04052ZM 31.0678 11.9595C 31.0678 14.4704 33.1151 16.5 35.621 16.5L 35.621 13.5C 34.7601 13.5 34.0678 12.8017 34.0678 11.9595L 31.0678 11.9595ZM 35.621 16.5L 47.766 16.5L 47.766 13.5L 35.621 13.5L 35.621 16.5ZM 46.266 15L 46.266 19.4595L 49.266 19.4595L 49.266 15L 46.266 15ZM 47.766 17.9595L 28.4969 17.9595L 28.4969 20.9595L 47.766 20.9595L 47.766 17.9595ZM 9.09196 17.9595L 5.08875 17.9595L 5.08875 20.9595L 9.09196 20.9595L 9.09196 17.9595ZM 5.08875 17.9595C 1.4602 17.9595 -1.49998 20.8984 -1.49998 24.527L 1.50002 24.527C 1.50002 22.567 3.10526 20.9595 5.08875 20.9595L 5.08875 17.9595ZM 2.03703 53.2568L 50.4385 53.2045L 50.4353 50.2045L 2.03379 50.2568L 2.03703 53.2568ZM 3.53554 49.7299L 3.53554 24.5272L 0.535538 24.5272L 0.535538 49.7299L 3.53554 49.7299ZM 3.53554 24.5272C 3.53554 23.685 4.22783 22.9867 5.08875 22.9867L 5.08875 19.9867C 2.58285 19.9867 0.535538 22.0163 0.535538 24.5272L 3.53554 24.5272ZM 5.08875 22.9867L 9.09183 22.9867L 9.09183 19.9867L 5.08875 19.9867L 5.08875 22.9867ZM 28.4969 22.9867L 59.9111 22.9867L 59.9111 19.9867L 28.4969 19.9867L 28.4969 22.9867ZM 59.9111 22.9867C 60.7721 22.9867 61.4644 23.685 61.4644 24.5272L 64.4644 24.5272C 64.4644 22.0165 62.4173 19.9867 59.9111 19.9867L 59.9111 22.9867ZM 61.4644 24.5272L 61.4644 49.7299L 64.4644 49.7299L 64.4644 24.5272L 61.4644 24.5272ZM 62.9644 48.2299L 48.241 48.2299L 48.241 51.2299L 62.9644 51.2299L 62.9644 48.2299ZM 61.4644 51.7568L 61.4644 61.9595L 64.4644 61.9595L 64.4644 51.7568L 61.4644 51.7568ZM 61.4644 61.9595C 61.4644 61.684 61.6854 61.4729 61.9467 61.4729L 61.9467 64.4729C 63.3302 64.4729 64.4644 63.3529 64.4644 61.9595L 61.4644 61.9595ZM 61.9467 61.4729L 3.05336 61.4729L 3.05336 64.4729L 61.9467 64.4729L 61.9467 61.4729ZM 3.05336 61.4729C 3.3147 61.4729 3.53567 61.6841 3.53567 61.9595L 0.535666 61.9595C 0.535666 63.3525 1.66941 64.4729 3.05336 64.4729L 3.05336 61.4729ZM 3.53567 61.9595L 3.53567 58.8514L 0.535666 58.8514L 0.535666 61.9595L 3.53567 61.9595ZM -1.5 53.6743L -1.49972 61.9595L 1.50028 61.9594L 1.5 53.6742L -1.5 53.6743ZM -1.49972 61.9595C -1.49972 64.4704 0.547595 66.5 3.05349 66.5L 3.05349 63.5C 2.19256 63.5 1.50028 62.8017 1.50028 61.9595L -1.49972 61.9595ZM 3.05349 66.5L 61.9468 66.5L 61.9468 63.5L 3.05349 63.5L 3.05349 66.5ZM 61.9468 66.5C 64.4529 66.5 66.5 64.4702 66.5 61.9595L 63.5 61.9595C 63.5 62.8016 62.8078 63.5 61.9468 63.5L 61.9468 66.5ZM 66.5 61.9595L 66.5 24.527L 63.5 24.527L 63.5 61.9595L 66.5 61.9595ZM 66.5 24.527C 66.5 20.8984 63.5398 17.9595 59.9113 17.9595L 59.9113 20.9595C 61.8948 20.9595 63.5 22.567 63.5 24.527L 66.5 24.527ZM 59.9113 17.9595L 49.8018 17.9595L 49.8018 20.9595L 59.9113 20.9595L 59.9113 17.9595ZM 51.3018 19.4595L 51.3018 15L 48.3018 15L 48.3018 19.4595L 51.3018 19.4595ZM 49.8018 16.5L 61.9465 16.5L 61.9465 13.5L 49.8018 13.5L 49.8018 16.5ZM 9.09183 22.9867L 28.4969 22.9867L 28.4969 19.9867L 9.09183 19.9867L 9.09183 22.9867ZM 9.09196 20.9595L 28.4969 20.9595L 28.4969 17.9595L 9.09196 17.9595L 9.09196 20.9595ZM -1.49998 24.527L -1.49998 53.6674L 1.50002 53.6674L 1.50002 24.527L -1.49998 24.527ZM 3.53564 58.8441L 3.53541 51.7567L 0.535411 51.7568L 0.535642 58.8442L 3.53564 58.8441ZM -1.49997 53.6624L -1.49999 53.6693L 1.49999 53.6792L 1.50001 53.6724L -1.49997 53.6624ZM 3.53566 58.8465L 3.53563 58.8392L 0.53565 58.849L 0.535674 58.8564L 3.53566 58.8465ZM 62.9706 50.2568L 50.4432 50.2046L 50.4306 53.2045L 62.9581 53.2568L 62.9706 50.2568ZM 48.241 48.2299L 2.03554 48.2299L 2.03554 51.2299L 48.241 51.2299L 48.241 48.2299Z"/>
<path id="path4_fill" d="M 23.0576 7.28001e-08L 0.94237 7.28001e-08C 0.421783 7.28001e-08 1.18162e-06 0.460727 1.18162e-06 1.02938L 1.18162e-06 5.97062C 1.18162e-06 6.53927 0.421783 7 0.94237 7L 23.0576 7C 23.5782 7 24 6.53927 24 5.97062L 24 1.02938C 24.0001 0.460856 23.5782 7.28001e-08 23.0576 7.28001e-08ZM 22.1153 4.94137L 1.88485 4.94137L 1.88485 2.05889L 22.1153 2.05889L 22.1153 4.94137Z"/>
<path id="path5_fill" d="M 3.61095 6.25081e-07C 1.61982 6.25081e-07 -1.123e-07 1.63931 -1.123e-07 3.65441C -1.123e-07 5.66951 1.61982 7.30882 3.61095 7.30882C 5.60209 7.30882 7.22191 5.66951 7.22191 3.65441C 7.22191 1.63931 5.60209 6.25081e-07 3.61095 6.25081e-07ZM 3.61095 5.45072C 2.63235 5.45072 1.83601 4.64491 1.83601 3.65441C 1.83601 2.66391 2.63235 1.85822 3.61095 1.85822C 4.58956 1.85822 5.3859 2.66403 5.3859 3.65453C 5.3859 4.64503 4.58956 5.45072 3.61095 5.45072Z"/>
<path id="path6_fill" d="M 4.76563 1.71478e-07L 0.90484 1.71478e-07C 0.404985 1.71478e-07 -8.57843e-07 0.358513 -8.57843e-07 0.801009L -8.57843e-07 4.21877C -8.57843e-07 4.66126 0.404985 5.01977 0.90484 5.01977L 4.76563 5.01977C 5.26549 5.01977 5.67047 4.66126 5.67047 4.21877L 5.67047 0.801009C 5.67047 0.358513 5.26549 1.71478e-07 4.76563 1.71478e-07ZM 3.86068 3.41776L 1.80957 3.41776L 1.80957 1.60202L 3.86068 1.60202L 3.86068 3.41776Z"/>
<path id="path7_fill" d="M 4.76563 1.71478e-07L 0.90484 1.71478e-07C 0.404984 1.71478e-07 -1.66034e-06 0.358513 -1.66034e-06 0.801009L -1.66034e-06 4.21877C -1.66034e-06 4.66126 0.404984 5.01977 0.90484 5.01977L 4.76563 5.01977C 5.26549 5.01977 5.67047 4.66126 5.67047 4.21877L 5.67047 0.801009C 5.67059 0.358513 5.26549 1.71478e-07 4.76563 1.71478e-07ZM 3.86079 3.41776L 1.80968 3.41776L 1.80968 1.60202L 3.86079 1.60202L 3.86079 3.41776Z"/>
<path id="path8_fill" d="M 4.76563 -7.1041e-07L 0.90484 -7.1041e-07C 0.404985 -7.1041e-07 -8.57843e-07 0.358512 -8.57843e-07 0.801008L -8.57843e-07 4.21877C -8.57843e-07 4.66126 0.404985 5.01978 0.90484 5.01978L 4.76563 5.01978C 5.26549 5.01978 5.67047 4.66126 5.67047 4.21877L 5.67047 0.801008C 5.67047 0.358512 5.26549 -7.1041e-07 4.76563 -7.1041e-07ZM 3.86079 3.41776L 1.80968 3.41776L 1.80968 1.60202L 3.86079 1.60202L 3.86079 3.41776Z"/>
<path id="path9_fill" d="M 4.76563 -7.1041e-07L 0.90484 -7.1041e-07C 0.404985 -7.1041e-07 -8.57843e-07 0.358512 -8.57843e-07 0.801008L -8.57843e-07 4.21877C -8.57843e-07 4.66126 0.404985 5.01978 0.90484 5.01978L 4.76563 5.01978C 5.26549 5.01978 5.67047 4.66126 5.67047 4.21877L 5.67047 0.801008C 5.67047 0.358512 5.26549 -7.1041e-07 4.76563 -7.1041e-07ZM 3.86068 3.41776L 1.80957 3.41776L 1.80957 1.60202L 3.86068 1.60202L 3.86068 3.41776Z"/>
<path id="path10_fill" d="M 20.209 1.71478e-07L 0.90484 1.71478e-07C 0.404985 1.71478e-07 -8.57843e-07 0.358513 -8.57843e-07 0.801009L -8.57843e-07 4.21877C -8.57843e-07 4.66126 0.404985 5.01977 0.90484 5.01977L 20.209 5.01977C 20.7089 5.01977 21.1139 4.66126 21.1139 4.21877L 21.1139 0.801009C 21.1139 0.358513 20.7089 1.71478e-07 20.209 1.71478e-07ZM 19.3042 3.41776L 1.80968 3.41776L 1.80968 1.60202L 19.3041 1.60202L 19.3041 3.41776L 19.3042 3.41776Z"/>
<path id="path11_fill" d="M 4.76563 -7.1041e-07L 0.90484 -7.1041e-07C 0.404985 -7.1041e-07 -8.57843e-07 0.358512 -8.57843e-07 0.801008L -8.57843e-07 4.21877C -8.57843e-07 4.66126 0.404985 5.01978 0.90484 5.01978L 4.76563 5.01978C 5.26549 5.01978 5.67047 4.66126 5.67047 4.21877L 5.67047 0.801008C 5.67059 0.358512 5.26549 -7.1041e-07 4.76563 -7.1041e-07ZM 3.86079 3.41776L 1.80968 3.41776L 1.80968 1.60202L 3.86079 1.60202L 3.86079 3.41776Z"/>
<path id="path12_fill" d="M 4.76563 1.71478e-07L 0.904841 1.71478e-07C 0.404985 1.71478e-07 -5.53447e-08 0.358513 -5.53447e-08 0.801009L -5.53447e-08 4.21877C -5.53447e-08 4.66126 0.404985 5.01977 0.904841 5.01977L 4.76563 5.01977C 5.26549 5.01977 5.67047 4.66126 5.67047 4.21877L 5.67047 0.801009C 5.67047 0.358513 5.26549 1.71478e-07 4.76563 1.71478e-07ZM 3.86079 3.41776L 1.80968 3.41776L 1.80968 1.60202L 3.86079 1.60202L 3.86079 3.41776L 3.86079 3.41776Z"/>
<path id="path13_fill" d="M 4.76563 1.71478e-07L 0.904841 1.71478e-07C 0.404985 1.71478e-07 -5.53447e-08 0.358513 -5.53447e-08 0.801009L -5.53447e-08 4.21877C -5.53447e-08 4.66126 0.404985 5.01977 0.904841 5.01977L 4.76563 5.01977C 5.26549 5.01977 5.67047 4.66126 5.67047 4.21877L 5.67047 0.801009C 5.67047 0.358513 5.26549 1.71478e-07 4.76563 1.71478e-07ZM 3.86068 3.41776L 1.80957 3.41776L 1.80957 1.60202L 3.86068 1.60202L 3.86068 3.41776Z"/>
<path id="path14_fill" d="M 4.76563 -7.1041e-07L 0.904841 -7.1041e-07C 0.404985 -7.1041e-07 -5.53447e-08 0.358512 -5.53447e-08 0.801008L -5.53447e-08 4.21877C -5.53447e-08 4.66126 0.404985 5.01978 0.904841 5.01978L 4.76563 5.01978C 5.26549 5.01978 5.67047 4.66126 5.67047 4.21877L 5.67047 0.801008C 5.67047 0.358512 5.26549 -7.1041e-07 4.76563 -7.1041e-07ZM 3.86079 3.41776L 1.80968 3.41776L 1.80968 1.60202L 3.86079 1.60202L 3.86079 3.41776L 3.86079 3.41776Z"/>
<path id="path15_fill" d="M 4.76563 -7.1041e-07L 0.904841 -7.1041e-07C 0.404985 -7.1041e-07 -5.53447e-08 0.358512 -5.53447e-08 0.801008L -5.53447e-08 4.21877C -5.53447e-08 4.66126 0.404985 5.01978 0.904841 5.01978L 4.76563 5.01978C 5.26549 5.01978 5.67047 4.66126 5.67047 4.21877L 5.67047 0.801008C 5.67047 0.358512 5.26549 -7.1041e-07 4.76563 -7.1041e-07ZM 3.86068 3.41776L 1.80957 3.41776L 1.80957 1.60202L 3.86068 1.60202L 3.86068 3.41776Z"/>
<path id="path16_fill" d="M 4.76563 -7.1041e-07L 0.90484 -7.1041e-07C 0.404984 -7.1041e-07 -1.66034e-06 0.358512 -1.66034e-06 0.801008L -1.66034e-06 4.21877C -1.66034e-06 4.66126 0.404984 5.01978 0.90484 5.01978L 4.76563 5.01978C 5.26549 5.01978 5.67047 4.66126 5.67047 4.21877L 5.67047 0.801008C 5.67059 0.358512 5.26549 -7.1041e-07 4.76563 -7.1041e-07ZM 3.86079 3.41776L 1.80968 3.41776L 1.80968 1.60202L 3.86079 1.60202L 3.86079 3.41776Z"/>
<path id="path17_fill" d="M 21.5774 8.34796e-07L 3.18353 8.34796e-07C 1.42813 8.34796e-07 -1.94713e-06 1.33602 -1.94713e-06 2.97792L -1.94713e-06 6.41913C -1.94713e-06 8.06115 1.42827 9.39705 3.18353 9.39705L 21.5773 9.39705C 23.3327 9.39705 24.7608 8.06103 24.7608 6.41913L 24.7608 2.97792C 24.7609 1.33602 23.3327 8.34796e-07 21.5774 8.34796e-07ZM 22.6385 6.41913C 22.6385 6.9666 22.1625 7.41173 21.5774 7.41173L 3.18353 7.41173C 2.59826 7.41173 2.1224 6.96647 2.1224 6.41913L 2.1224 2.97792C 2.1224 2.43046 2.5984 1.98532 3.18353 1.98532L 21.5773 1.98532C 22.1625 1.98532 22.6384 2.43058 22.6384 2.97792L 22.6384 6.41913L 22.6385 6.41913Z"/>
<path id="path18_fill" d="M 34 17C 34 26.3888 26.3888 34 17 34C 7.61116 34 0 26.3888 0 17C 0 7.61116 7.61116 0 17 0C 26.3888 0 34 7.61116 34 17Z"/>
<path id="path19_stroke_2x" d="M 32 17C 32 25.2843 25.2843 32 17 32L 17 36C 27.4934 36 36 27.4934 36 17L 32 17ZM 17 32C 8.71573 32 2 25.2843 2 17L -2 17C -2 27.4934 6.50659 36 17 36L 17 32ZM 2 17C 2 8.71573 8.71573 2 17 2L 17 -2C 6.50659 -2 -2 6.50659 -2 17L 2 17ZM 17 2C 25.2843 2 32 8.71573 32 17L 36 17C 36 6.50659 27.4934 -2 17 -2L 17 2Z"/>
<path id="path20_fill" d="M 2.85714 7.14286L 2.85714 5.42857C 2.85714 4.16964 3.88393 3.14286 5.14286 3.14286C 6.40179 3.14286 7.42857 4.16964 7.42857 5.42857L 7.42857 7.14286L 2.85714 7.14286ZM 10.2857 8C 10.2857 7.52679 9.90179 7.14286 9.42857 7.14286L 9.14286 7.14286L 9.14286 5.42857C 9.14286 3.23214 7.33929 1.42857 5.14286 1.42857C 2.94643 1.42857 1.14286 3.23214 1.14286 5.42857L 1.14286 7.14286L 0.857143 7.14286C 0.383929 7.14286 0 7.52679 0 8L 0 13.1429C 0 13.6161 0.383929 14 0.857143 14L 9.42857 14C 9.90179 14 10.2857 13.6161 10.2857 13.1429L 10.2857 8Z"/>
</defs>
</svg>
