<svg width="11" height="25" viewBox="0 0 11 25" version="1.1" xmlns="http://www.w3.org/2000/svg" xmlns:xlink="http://www.w3.org/1999/xlink">
<title>info</title>
<desc>Created using Figma</desc>
<g id="Canvas" transform="translate(-4287 1137)">
<g id="info">
<g id="Group">
<g id="Vector">
<use xlink:href="#path0_fill" transform="translate(4287 -1137)" fill="#0D4F97"/>
</g>
</g>
</g>
</g>
<defs>
<path id="path0_fill" d="M 10.6707 22.3021L 10.3228 23.73C 9.27923 24.1436 8.44563 24.4584 7.82488 24.6749C 7.20347 24.892 6.48143 25 5.65876 25C 4.3954 25 3.41275 24.6892 2.7119 24.0719C 2.01105 23.4522 1.66052 22.6669 1.66052 21.7142C 1.66052 21.3453 1.68596 20.966 1.73884 20.5795C 1.79217 20.1926 1.87695 19.7568 1.99298 19.2697L 3.29717 14.6343C 3.41319 14.1904 3.51182 13.7699 3.5908 13.3722C 3.67091 12.9769 3.70951 12.6133 3.70951 12.2859C 3.70951 11.6939 3.58746 11.2799 3.34447 11.0471C 3.10148 10.815 2.63782 10.6971 1.94947 10.6971C 1.61232 10.6971 1.26581 10.7513 0.912595 10.8562C 0.557821 10.9615 0.254589 11.0632 -1.36187e-08 11.1578L 0.348749 9.72871C 1.20311 9.3794 2.01976 9.08028 2.80093 8.83202C 3.5821 8.58309 4.32021 8.45851 5.01838 8.45851C 6.27303 8.45851 7.24118 8.76301 7.92105 9.372C 8.60093 9.98145 8.94075 10.7715 8.94075 11.745C 8.94075 11.9465 8.91844 12.3014 8.87046 12.8086C 8.82361 13.317 8.73636 13.7829 8.60918 14.2066L 7.31057 18.8233C 7.20414 19.1941 7.10842 19.6181 7.02519 20.0951C 6.93929 20.569 6.89823 20.9311 6.89823 21.1739C 6.89823 21.787 7.03434 22.2055 7.30723 22.428C 7.58212 22.6505 8.0556 22.7612 8.72811 22.7612C 9.04383 22.7612 9.40307 22.7049 9.80225 22.5945C 10.2003 22.484 10.4906 22.387 10.6707 22.3021ZM 11 2.91951C 11 3.72389 10.6981 4.41086 10.0914 4.97571C 9.4863 5.54258 8.75712 5.82625 7.9041 5.82625C 7.0484 5.82625 6.31743 5.54258 5.70539 4.97571C 5.09446 4.41063 4.78833 3.72389 4.78833 2.91951C 4.78833 2.1167 5.09446 1.42861 5.70539 0.856583C 6.31631 0.285453 7.04862 0 7.9041 0C 8.75689 0 9.4863 0.286125 10.0914 0.856583C 10.6986 1.42861 11 2.11692 11 2.91951Z"/>
</defs>
</svg>
