<svg width="72" height="66" viewBox="0 0 72 66" version="1.1" xmlns="http://www.w3.org/2000/svg" xmlns:xlink="http://www.w3.org/1999/xlink">
<title>stats</title>
<desc>Created using Figma</desc>
<g id="Canvas" transform="translate(-3637 6210)">
<g id="stats">
<g id="Group">
<g id="Group">
<g id="Vector">
<use xlink:href="#path0_fill" transform="translate(3637.5 -6210)" fill="#4D4D4D"/>
</g>
</g>
</g>
</g>
</g>
<defs>
<path id="path0_fill" d="M 65.9999 11.7858C 63.3999 11.7858 61.2856 13.9002 61.2856 16.5C 61.2856 17.3722 61.5391 18.1782 61.9538 18.8796L 49.5222 31.3111C 48.821 30.8963 48.0149 30.643 47.1427 30.643C 46.2741 30.643 45.4692 30.8951 44.7691 31.3077L 39.4065 25.9452C 39.8191 25.2451 40.0713 24.4401 40.0713 23.5715C 40.0713 20.9716 37.9569 18.8573 35.357 18.8573C 32.7571 18.8573 30.6428 20.9717 30.6428 23.5715C 30.6428 24.1279 30.7572 24.6535 30.9351 25.1485L 7.77855 48.3049C 6.95236 47.5907 5.8893 47.1428 4.71423 47.1428L 4.71423 5.89289C 4.71423 3.94355 6.3006 2.35718 8.24993 2.35718L 62.464 2.35718C 64.4134 2.35718 65.9997 3.94355 65.9997 5.89289L 65.9997 8.25007C 65.9999 15.883 66.4036 13.6732 67.0541 13.6732C 67.7046 13.6732 68.3484 16.2974 68.3568 8.25007L 68.3568 5.89289C 68.3568 2.64363 65.7133 0 62.4639 0L 8.24993 0C 5.00067 0 2.35704 2.64349 2.35704 5.89289L 2.35704 47.7993C 0.95464 48.6172 0 50.1198 0 51.857C 0 54.457 2.11438 56.5713 4.71423 56.5713C 7.31421 56.5713 9.42845 54.4569 9.42845 51.857C 9.42845 51.3007 9.3141 50.7751 9.13621 50.2801L 32.2927 27.1235C 33.1189 27.8377 34.182 28.2856 35.357 28.2856C 36.2316 28.2856 37.0401 28.0311 37.7424 27.6151L 43.099 32.9717C 42.683 33.6741 42.4285 34.4826 42.4285 35.357C 42.4285 37.957 44.5428 40.0713 47.1427 40.0713C 49.7427 40.0713 51.8569 37.9569 51.8569 35.357C 51.8569 34.4849 51.6035 33.6788 51.1887 32.9775L 63.6203 20.5459C 64.3215 20.9608 65.1277 21.2141 65.9999 21.2141L 65.9999 60.1068C 65.9999 62.0562 64.4135 63.6425 62.4642 63.6425L 58.9285 63.6425L 58.9285 31.8212C 58.9285 31.1707 58.4004 30.6427 57.7499 30.6427C 57.0994 30.6427 56.5714 31.1707 56.5714 31.8212L 56.5714 63.6425L 49.5 63.6425L 49.5 43.6071C 49.5 42.9566 48.972 42.4286 48.3215 42.4286C 47.671 42.4286 47.143 42.9566 47.143 43.6071L 47.143 63.6428L 40.0715 63.6428L 40.0715 34.1785C 40.0715 33.528 39.5435 33 38.893 33C 38.2425 33 37.7145 33.528 37.7145 34.1785L 37.7145 63.6427L 30.6431 63.6427L 30.6431 34.1785C 30.6431 33.528 30.1151 33 29.4646 33C 28.8141 33 28.286 33.528 28.286 34.1785L 28.286 63.6427L 21.2146 63.6427L 21.2146 43.6071C 21.2146 42.9566 20.6866 42.4286 20.0361 42.4286C 19.3856 42.4286 18.8576 42.9566 18.8576 43.6071L 18.8576 63.6428L 11.7862 63.6428L 11.7862 58.9286C 11.7862 58.2781 11.2582 57.7501 10.6077 57.7501C 9.95715 57.7501 9.42914 58.2781 9.42914 58.9286L 9.42914 63.6428L 8.25062 63.6428C 6.30129 63.6428 4.71492 62.0564 4.71492 60.1071C 4.71492 51.857 4.10335 55.0382 3.45284 55.0382C 2.80232 55.0382 2.5551 52.8029 2.35787 60.1071C 2.35787 63.3564 5.00136 66 8.25076 66L 62.4648 66C 65.7141 66 68.3577 63.3565 68.3577 60.1071L 68.3577 20.5579C 69.7603 19.74 70.7149 18.2373 70.7149 16.5001C 70.7141 13.9002 68.5997 11.7858 65.9999 11.7858ZM 4.71423 54.2142C 3.4143 54.2142 2.35704 53.1571 2.35704 51.857C 2.35704 50.5571 3.41416 49.4999 4.71423 49.4999C 6.01415 49.4999 7.07141 50.557 7.07141 51.857C 7.07141 53.1571 6.01429 54.2142 4.71423 54.2142ZM 35.357 25.9286C 34.0571 25.9286 32.9999 24.8715 32.9999 23.5714C 32.9999 22.2715 34.057 21.2142 35.357 21.2142C 36.657 21.2142 37.7142 22.2713 37.7142 23.5714C 37.7142 24.8715 36.657 25.9286 35.357 25.9286ZM 47.1427 37.7142C 45.8428 37.7142 44.7855 36.6571 44.7855 35.357C 44.7855 34.0571 45.8426 32.9999 47.1427 32.9999C 48.4426 32.9999 49.4999 34.057 49.4999 35.357C 49.4999 36.6571 48.4427 37.7142 47.1427 37.7142ZM 65.9999 18.8572C 65.3575 18.8572 64.7741 18.5967 64.3487 18.1784C 64.344 18.1737 64.3428 18.1666 64.3381 18.1618C 64.3334 18.1571 64.3263 18.1558 64.3215 18.1511C 63.9032 17.7256 63.6427 17.1422 63.6427 16.5C 63.6427 15.2001 64.6998 14.1428 65.9999 14.1428C 67.2999 14.1428 68.357 15.1999 68.357 16.5C 68.357 17.8001 67.2998 18.8572 65.9999 18.8572Z"/>
</defs>
</svg>
