<svg width="67" height="66" viewBox="0 0 67 66" version="1.1" xmlns="http://www.w3.org/2000/svg" xmlns:xlink="http://www.w3.org/1999/xlink">
<title>Group 2</title>
<desc>Created using Figma</desc>
<g id="Canvas" transform="translate(-3386 6178)">
<g id="Group 2">
<g id="planning">
<g id="Group">
<g id="Group">
<g id="Vector">
<mask id="mask0_outline_ins">
<use xlink:href="#path0_fill" fill="white" transform="translate(3386 -6178)"/>
</mask>
<g mask="url(#mask0_outline_ins)">
<use xlink:href="#path1_stroke_2x" transform="translate(3386 -6178)" fill="#4D4D4D"/>
</g>
</g>
</g>
</g>
<g id="Group">
<g id="Group">
<g id="Vector">
<use xlink:href="#path2_fill" transform="translate(3400.63 -6164.6)" fill="#4D4D4D"/>
</g>
</g>
</g>
<g id="Group">
<g id="Group">
<g id="Vector">
<use xlink:href="#path3_fill" transform="translate(3398.08 -6167.72)" fill="#4D4D4D"/>
</g>
</g>
</g>
<g id="Group">
<g id="Group">
<g id="Vector">
<use xlink:href="#path4_fill" transform="translate(3411.89 -6165.54)" fill="#4D4D4D"/>
</g>
</g>
</g>
<g id="Group">
<g id="Group">
<g id="Vector">
<use xlink:href="#path5_fill" transform="translate(3411.89 -6161.03)" fill="#4D4D4D"/>
</g>
</g>
</g>
<g id="Group">
<g id="Group">
<g id="Vector">
<use xlink:href="#path6_fill" transform="translate(3400.63 -6149.24)" fill="#4D4D4D"/>
</g>
</g>
</g>
<g id="Group">
<g id="Group">
<g id="Vector">
<use xlink:href="#path7_fill" transform="translate(3398.08 -6152.36)" fill="#4D4D4D"/>
</g>
</g>
</g>
<g id="Group">
<g id="Group">
<g id="Vector">
<use xlink:href="#path8_fill" transform="translate(3411.89 -6150.17)" fill="#4D4D4D"/>
</g>
</g>
</g>
<g id="Group">
<g id="Group">
<g id="Vector">
<use xlink:href="#path9_fill" transform="translate(3411.89 -6145.66)" fill="#4D4D4D"/>
</g>
</g>
</g>
<g id="Group">
<g id="Group">
<g id="Vector">
<use xlink:href="#path10_fill" transform="translate(3400.63 -6133.87)" fill="#4D4D4D"/>
</g>
</g>
</g>
<g id="Group">
<g id="Group">
<g id="Vector">
<use xlink:href="#path11_fill" transform="translate(3398.08 -6136.99)" fill="#4D4D4D"/>
</g>
</g>
</g>
<g id="Group">
<g id="Group">
<g id="Vector">
<mask id="mask1_outline_ins">
<use xlink:href="#path12_fill" fill="white" transform="translate(3391.39 -6172.24)"/>
</mask>
<g mask="url(#mask1_outline_ins)">
<use xlink:href="#path13_stroke_2x" transform="translate(3391.39 -6172.24)" fill="#4D4D4D"/>
</g>
</g>
</g>
</g>
<g id="Vector">
<use xlink:href="#path14_fill" transform="translate(3432 -6135)" fill="#4D4D4D"/>
</g>
</g>
</g>
</g>
<defs>
<path id="path0_fill" d="M 51.3621 0L 4.2679 0C 3.73369 0 3.30054 0.433145 3.30054 0.967358L 3.30054 7.57282C 1.41907 7.9602 0 9.62962 0 11.6239C 0 13.6182 1.41907 15.2874 3.30054 15.675L 3.30054 17.4354C 1.41907 17.823 0 19.4922 0 21.4866C 0 23.481 1.41907 25.1501 3.30054 25.5377L 3.30054 27.2981C 1.41907 27.6855 0 29.3547 0 31.349C 0 33.3434 1.41907 35.0126 3.30054 35.4001L 3.30054 37.1605C 1.41907 37.5482 0 39.2173 0 41.2118C 0 43.2062 1.41907 44.8754 3.30054 45.2629L 3.30054 47.0233C 1.41907 47.4108 0 49.08 0 51.0744C 0 53.0688 1.41907 54.738 3.30054 55.1255L 3.30054 61.7309C 3.30054 62.2652 3.73369 62.6983 4.2679 62.6983L 13.0507 62.6983C 13.5849 62.6983 14.0181 62.2652 14.0181 61.7309C 14.0179 61.1967 13.5849 60.7636 13.0506 60.7636L 5.23513 60.7636L 5.23513 49.1699C 5.89271 49.5509 6.3372 50.261 6.3372 51.0741C 6.3372 51.6084 6.77034 52.0415 7.30456 52.0415C 7.83877 52.0415 8.27191 51.6084 8.27191 51.0741C 8.27191 49.1742 6.98369 47.5704 5.23526 47.0877L 5.23526 39.3072C 5.89284 39.6882 6.33733 40.3983 6.33733 41.2115C 6.33733 41.7457 6.77047 42.1788 7.30469 42.1788C 7.8389 42.1788 8.27204 41.7457 8.27204 41.2115C 8.27204 39.3115 6.98382 37.7077 5.23539 37.225L 5.23539 29.4445C 5.89297 29.8255 6.33746 30.5356 6.33746 31.3488C 6.33746 31.883 6.7706 32.3161 7.30481 32.3161C 7.83903 32.3161 8.27217 31.883 8.27217 31.3488C 8.27217 29.4489 6.98395 27.8451 5.23551 27.3623L 5.23551 19.5818C 5.8931 19.9628 6.33759 20.6729 6.33759 21.4861C 6.33759 22.0203 6.77073 22.4534 7.30494 22.4534C 7.83916 22.4534 8.2723 22.0203 8.2723 21.4861C 8.2723 19.5862 6.98408 17.9824 5.23564 17.4996L 5.23564 9.7196C 5.89322 10.1007 6.33771 10.8107 6.33771 11.6239C 6.33771 12.1581 6.77086 12.5912 7.30507 12.5912C 7.83928 12.5912 8.27243 12.1581 8.27243 11.6239C 8.27243 9.72398 6.98421 8.12018 5.23577 7.63741L 5.23577 1.93459L 50.3954 1.93459L 50.3954 8.45523C 50.3954 8.98944 50.8286 9.42258 51.3628 9.42258C 51.897 9.42258 52.3301 8.98944 52.3301 8.45523L 52.3301 0.967358C 52.3295 0.433145 51.8963 0 51.3621 0ZM 3.30054 53.1101C 2.5 52.7803 1.93459 51.9925 1.93459 51.0744C 1.93459 50.1564 2.5 49.3686 3.30054 49.0389L 3.30054 53.1101ZM 3.30054 43.2474C 2.5 42.9176 1.93459 42.1298 1.93459 41.2118C 1.93459 40.2939 2.5 39.5061 3.30054 39.1762L 3.30054 43.2474ZM 3.30054 33.3847C 2.5 33.055 1.93459 32.2673 1.93459 31.3491C 1.93459 30.4312 2.5 29.6434 3.30054 29.3135L 3.30054 33.3847ZM 3.30054 23.5222C 2.5 23.1925 1.93459 22.4047 1.93459 21.4867C 1.93459 20.5687 2.5 19.7809 3.30054 19.4511L 3.30054 23.5222ZM 3.30054 13.6594C 2.5 13.3298 1.93459 12.542 1.93459 11.6238C 1.93459 10.7058 2.5 9.918 3.30054 9.58824L 3.30054 13.6594Z"/>
<path id="path1_stroke_2x" d="M 3.30054 7.57282L 3.5022 8.55228L 4.30054 8.38791L 4.30054 7.57282L 3.30054 7.57282ZM 3.30054 15.675L 4.30054 15.675L 4.30054 14.8599L 3.50227 14.6955L 3.30054 15.675ZM 3.30054 17.4354L 3.50233 18.4148L 4.30054 18.2504L 4.30054 17.4354L 3.30054 17.4354ZM 3.30054 25.5377L 4.30054 25.5377L 4.30054 24.7226L 3.50227 24.5582L 3.30054 25.5377ZM 3.30054 27.2981L 3.5022 28.2775L 4.30054 28.1132L 4.30054 27.2981L 3.30054 27.2981ZM 3.30054 35.4001L 4.30054 35.4001L 4.30054 34.5851L 3.50227 34.4206L 3.30054 35.4001ZM 3.30054 37.1605L 3.50233 38.1399L 4.30054 37.9755L 4.30054 37.1605L 3.30054 37.1605ZM 3.30054 45.2629L 4.30054 45.2629L 4.30054 44.4479L 3.50227 44.2835L 3.30054 45.2629ZM 3.30054 47.0233L 3.50227 48.0028L 4.30054 47.8384L 4.30054 47.0233L 3.30054 47.0233ZM 3.30054 55.1255L 4.30054 55.1255L 4.30054 54.3104L 3.50227 54.146L 3.30054 55.1255ZM 14.0181 61.7309L 15.0181 61.7309L 15.0181 61.7307L 14.0181 61.7309ZM 5.23513 60.7636L 4.23513 60.7636L 4.23513 61.7636L 5.23513 61.7636L 5.23513 60.7636ZM 5.23513 49.1699L 5.73652 48.3046L 4.23513 47.4346L 4.23513 49.1699L 5.23513 49.1699ZM 5.23526 47.0877L 4.23526 47.0877L 4.23526 47.849L 4.9691 48.0516L 5.23526 47.0877ZM 5.23526 39.3072L 5.73665 38.4419L 4.23526 37.5719L 4.23526 39.3072L 5.23526 39.3072ZM 5.23539 37.225L 4.23539 37.225L 4.23539 37.9863L 4.96923 38.1889L 5.23539 37.225ZM 5.23539 29.4445L 5.73678 28.5792L 4.23539 27.7092L 4.23539 29.4445L 5.23539 29.4445ZM 5.23551 27.3623L 4.23551 27.3623L 4.23551 28.1236L 4.96936 28.3262L 5.23551 27.3623ZM 5.23551 19.5818L 5.73691 18.7166L 4.23551 17.8465L 4.23551 19.5818L 5.23551 19.5818ZM 5.23564 17.4996L 4.23564 17.4996L 4.23564 18.2609L 4.96948 18.4635L 5.23564 17.4996ZM 5.23564 9.7196L 5.73703 8.85438L 4.23564 7.98433L 4.23564 9.7196L 5.23564 9.7196ZM 5.23577 7.63741L 4.23577 7.63741L 4.23577 8.39871L 4.96961 8.60134L 5.23577 7.63741ZM 5.23577 1.93459L 5.23577 0.934587L 4.23577 0.934587L 4.23577 1.93459L 5.23577 1.93459ZM 50.3954 1.93459L 51.3954 1.93459L 51.3954 0.934587L 50.3954 0.934587L 50.3954 1.93459ZM 52.3301 0.967358L 53.3301 0.967358L 53.3301 0.966151L 52.3301 0.967358ZM 3.30054 53.1101L 2.91967 54.0347L 4.30054 54.6035L 4.30054 53.1101L 3.30054 53.1101ZM 3.30054 49.0389L 4.30054 49.0389L 4.30054 47.5454L 2.91967 48.1143L 3.30054 49.0389ZM 3.30054 43.2474L 2.91967 44.172L 4.30054 44.7408L 4.30054 43.2474L 3.30054 43.2474ZM 3.30054 39.1762L 4.30054 39.1762L 4.30054 37.6825L 2.91954 38.2516L 3.30054 39.1762ZM 3.30054 33.3847L 2.9198 34.3094L 4.30054 34.8779L 4.30054 33.3847L 3.30054 33.3847ZM 3.30054 29.3135L 4.30054 29.3135L 4.30054 27.8198L 2.91954 28.3889L 3.30054 29.3135ZM 3.30054 23.5222L 2.91967 24.4469L 4.30054 25.0157L 4.30054 23.5222L 3.30054 23.5222ZM 3.30054 19.4511L 4.30054 19.4511L 4.30054 17.9574L 2.91954 18.5265L 3.30054 19.4511ZM 3.30054 13.6594L 2.9198 14.5841L 4.30054 15.1526L 4.30054 13.6594L 3.30054 13.6594ZM 3.30054 9.58824L 4.30054 9.58824L 4.30054 8.09481L 2.91967 8.66361L 3.30054 9.58824ZM 51.3621 -1L 4.2679 -1L 4.2679 1L 51.3621 1L 51.3621 -1ZM 4.2679 -1C 3.1814 -1 2.30054 -0.119139 2.30054 0.967358L 4.30054 0.967358C 4.30054 0.970056 4.2998 0.975126 4.29756 0.980419C 4.2956 0.985044 4.29321 0.988244 4.291 0.990456C 4.28879 0.992668 4.28558 0.995062 4.28096 0.997018C 4.27567 0.999257 4.2706 1 4.2679 1L 4.2679 -1ZM 2.30054 0.967358L 2.30054 7.57282L 4.30054 7.57282L 4.30054 0.967358L 2.30054 0.967358ZM 3.09888 6.59337C 0.762662 7.07438 -1 9.14486 -1 11.6239L 1 11.6239C 1 10.1144 2.07547 8.84603 3.5022 8.55228L 3.09888 6.59337ZM -1 11.6239C -1 14.103 0.762703 16.1733 3.09881 16.6544L 3.50227 14.6955C 2.07543 14.4016 1 13.1334 1 11.6239L -1 11.6239ZM 2.30054 15.675L 2.30054 17.4354L 4.30054 17.4354L 4.30054 15.675L 2.30054 15.675ZM 3.09875 16.456C 0.762724 16.9372 -1 19.0073 -1 21.4866L 1 21.4866C 1 19.977 2.07541 18.7088 3.50233 18.4148L 3.09875 16.456ZM -1 21.4866C -1 23.9658 0.762721 26.036 3.09881 26.5171L 3.50227 24.5582C 2.07541 24.2643 1 22.9962 1 21.4866L -1 21.4866ZM 2.30054 25.5377L 2.30054 27.2981L 4.30054 27.2981L 4.30054 25.5377L 2.30054 25.5377ZM 3.09888 26.3186C 0.7627 26.7996 -1 28.87 -1 31.349L 1 31.349C 1 29.8395 2.07543 28.5713 3.5022 28.2775L 3.09888 26.3186ZM -1 31.349C -1 33.8282 0.762721 35.8984 3.09881 36.3795L 3.50227 34.4206C 2.07541 34.1268 1 32.8586 1 31.349L -1 31.349ZM 2.30054 35.4001L 2.30054 37.1605L 4.30054 37.1605L 4.30054 35.4001L 2.30054 35.4001ZM 3.09875 36.1811C 0.762705 36.6624 -1 38.7325 -1 41.2118L 1 41.2118C 1 39.7021 2.07543 38.4339 3.50233 38.1399L 3.09875 36.1811ZM -1 41.2118C -1 43.6911 0.762722 45.7612 3.09881 46.2424L 3.50227 44.2835C 2.07541 43.9896 1 42.7214 1 41.2118L -1 41.2118ZM 2.30054 45.2629L 2.30054 47.0233L 4.30054 47.0233L 4.30054 45.2629L 2.30054 45.2629ZM 3.09881 46.0439C 0.762723 46.525 -1 48.5952 -1 51.0744L 1 51.0744C 1 49.5648 2.07541 48.2967 3.50227 48.0028L 3.09881 46.0439ZM -1 51.0744C -1 53.5536 0.762721 55.6238 3.09881 56.1049L 3.50227 54.146C 2.07541 53.8522 1 52.584 1 51.0744L -1 51.0744ZM 2.30054 55.1255L 2.30054 61.7309L 4.30054 61.7309L 4.30054 55.1255L 2.30054 55.1255ZM 2.30054 61.7309C 2.30054 62.8174 3.1814 63.6983 4.2679 63.6983L 4.2679 61.6983C 4.2706 61.6983 4.27567 61.699 4.28096 61.7013C 4.28558 61.7032 4.28878 61.7056 4.291 61.7078C 4.29321 61.7101 4.2956 61.7133 4.29756 61.7179C 4.2998 61.7232 4.30054 61.7282 4.30054 61.7309L 2.30054 61.7309ZM 4.2679 63.6983L 13.0507 63.6983L 13.0507 61.6983L 4.2679 61.6983L 4.2679 63.6983ZM 13.0507 63.6983C 14.1372 63.6983 15.0181 62.8174 15.0181 61.7309L 13.0181 61.7309C 13.0181 61.7282 13.0188 61.7232 13.021 61.7179C 13.023 61.7133 13.0254 61.7101 13.0276 61.7078C 13.0298 61.7056 13.033 61.7032 13.0376 61.7013C 13.0429 61.699 13.048 61.6983 13.0507 61.6983L 13.0507 63.6983ZM 15.0181 61.7307C 15.0178 60.6445 14.1373 59.7636 13.0506 59.7636L 13.0506 61.7636C 13.0325 61.7636 13.0181 61.7489 13.0181 61.7312L 15.0181 61.7307ZM 13.0506 59.7636L 5.23513 59.7636L 5.23513 61.7636L 13.0506 61.7636L 13.0506 59.7636ZM 6.23513 60.7636L 6.23513 49.1699L 4.23513 49.1699L 4.23513 60.7636L 6.23513 60.7636ZM 4.73374 50.0351C 5.09803 50.2462 5.3372 50.635 5.3372 51.0741L 7.3372 51.0741C 7.3372 49.8869 6.68739 48.8557 5.73652 48.3046L 4.73374 50.0351ZM 5.3372 51.0741C 5.3372 52.1606 6.21806 53.0415 7.30456 53.0415L 7.30456 51.0415C 7.30726 51.0415 7.31233 51.0422 7.31762 51.0445C 7.32224 51.0464 7.32544 51.0488 7.32766 51.051C 7.32987 51.0533 7.33226 51.0565 7.33422 51.0611C 7.33646 51.0664 7.3372 51.0714 7.3372 51.0741L 5.3372 51.0741ZM 7.30456 53.0415C 8.39105 53.0415 9.27191 52.1606 9.27191 51.0741L 7.27191 51.0741C 7.27191 51.0714 7.27266 51.0664 7.2749 51.0611C 7.27685 51.0565 7.27925 51.0533 7.28146 51.051C 7.28367 51.0488 7.28687 51.0464 7.2915 51.0445C 7.29679 51.0422 7.30186 51.0415 7.30456 51.0415L 7.30456 53.0415ZM 9.27191 51.0741C 9.27191 48.7115 7.6708 46.7227 5.50142 46.1237L 4.9691 48.0516C 6.29659 48.4181 7.27191 49.637 7.27191 51.0741L 9.27191 51.0741ZM 6.23526 47.0877L 6.23526 39.3072L 4.23526 39.3072L 4.23526 47.0877L 6.23526 47.0877ZM 4.73387 40.1724C 5.09816 40.3835 5.33733 40.7723 5.33733 41.2115L 7.33733 41.2115C 7.33733 40.0242 6.68752 38.993 5.73665 38.4419L 4.73387 40.1724ZM 5.33733 41.2115C 5.33733 42.298 6.21819 43.1788 7.30469 43.1788L 7.30469 41.1788C 7.30738 41.1788 7.31245 41.1796 7.31775 41.1818C 7.32237 41.1837 7.32557 41.1861 7.32778 41.1884C 7.33 41.1906 7.33239 41.1938 7.33435 41.1984C 7.33658 41.2037 7.33733 41.2088 7.33733 41.2115L 5.33733 41.2115ZM 7.30469 43.1788C 8.39118 43.1788 9.27204 42.2979 9.27204 41.2115L 7.27204 41.2115C 7.27204 41.2088 7.27279 41.2037 7.27503 41.1984C 7.27698 41.1938 7.27937 41.1906 7.28159 41.1884C 7.2838 41.1861 7.287 41.1837 7.29163 41.1818C 7.29692 41.1796 7.30199 41.1788 7.30469 41.1788L 7.30469 43.1788ZM 9.27204 41.2115C 9.27204 38.8488 7.67093 36.8601 5.50154 36.261L 4.96923 38.1889C 6.29672 38.5554 7.27204 39.7743 7.27204 41.2115L 9.27204 41.2115ZM 6.23539 37.225L 6.23539 29.4445L 4.23539 29.4445L 4.23539 37.225L 6.23539 37.225ZM 4.73399 30.3097C 5.09829 30.5208 5.33746 30.9096 5.33746 31.3488L 7.33746 31.3488C 7.33746 30.1615 6.68765 29.1303 5.73678 28.5792L 4.73399 30.3097ZM 5.33746 31.3488C 5.33746 32.4353 6.21832 33.3161 7.30481 33.3161L 7.30481 31.3161C 7.30751 31.3161 7.31258 31.3169 7.31787 31.3191C 7.3225 31.3211 7.3257 31.3234 7.32791 31.3257C 7.33012 31.3279 7.33252 31.3311 7.33447 31.3357C 7.33671 31.341 7.33746 31.3461 7.33746 31.3488L 5.33746 31.3488ZM 7.30481 33.3161C 8.39131 33.3161 9.27217 32.4353 9.27217 31.3488L 7.27217 31.3488C 7.27217 31.3461 7.27292 31.341 7.27515 31.3357C 7.27711 31.3311 7.2795 31.3279 7.28172 31.3257C 7.28393 31.3234 7.28713 31.3211 7.29176 31.3191C 7.29705 31.3169 7.30212 31.3161 7.30481 31.3161L 7.30481 33.3161ZM 9.27217 31.3488C 9.27217 28.9861 7.67106 26.9974 5.50167 26.3983L 4.96936 28.3262C 6.29685 28.6928 7.27217 29.9116 7.27217 31.3488L 9.27217 31.3488ZM 6.23551 27.3623L 6.23551 19.5818L 4.23551 19.5818L 4.23551 27.3623L 6.23551 27.3623ZM 4.73412 20.447C 5.09842 20.6581 5.33759 21.047 5.33759 21.4861L 7.33759 21.4861C 7.33759 20.2988 6.68777 19.2676 5.73691 18.7166L 4.73412 20.447ZM 5.33759 21.4861C 5.33759 22.5726 6.21845 23.4534 7.30494 23.4534L 7.30494 21.4534C 7.30764 21.4534 7.31271 21.4542 7.318 21.4564C 7.32263 21.4584 7.32583 21.4608 7.32804 21.463C 7.33025 21.4652 7.33265 21.4684 7.3346 21.473C 7.33684 21.4783 7.33759 21.4834 7.33759 21.4861L 5.33759 21.4861ZM 7.30494 23.4534C 8.39144 23.4534 9.2723 22.5726 9.2723 21.4861L 7.2723 21.4861C 7.2723 21.4834 7.27304 21.4783 7.27528 21.473C 7.27724 21.4684 7.27963 21.4652 7.28184 21.463C 7.28406 21.4608 7.28726 21.4584 7.29188 21.4564C 7.29717 21.4542 7.30224 21.4534 7.30494 21.4534L 7.30494 23.4534ZM 9.2723 21.4861C 9.2723 19.1234 7.67119 17.1347 5.5018 16.5357L 4.96948 18.4635C 6.29697 18.8301 7.2723 20.0489 7.2723 21.4861L 9.2723 21.4861ZM 6.23564 17.4996L 6.23564 9.7196L 4.23564 9.7196L 4.23564 17.4996L 6.23564 17.4996ZM 4.73425 10.5848C 5.09855 10.7959 5.33771 11.1848 5.33771 11.6239L 7.33771 11.6239C 7.33771 10.4367 6.6879 9.4054 5.73703 8.85438L 4.73425 10.5848ZM 5.33771 11.6239C 5.33771 12.7104 6.21858 13.5912 7.30507 13.5912L 7.30507 11.5912C 7.30777 11.5912 7.31284 11.592 7.31813 11.5942C 7.32276 11.5962 7.32596 11.5986 7.32817 11.6008C 7.33038 11.603 7.33278 11.6062 7.33473 11.6108C 7.33697 11.6161 7.33771 11.6212 7.33771 11.6239L 5.33771 11.6239ZM 7.30507 13.5912C 8.39157 13.5912 9.27243 12.7104 9.27243 11.6239L 7.27243 11.6239C 7.27243 11.6212 7.27317 11.6161 7.27541 11.6108C 7.27737 11.6062 7.27976 11.603 7.28197 11.6008C 7.28419 11.5986 7.28739 11.5962 7.29201 11.5942C 7.2973 11.592 7.30237 11.5912 7.30507 11.5912L 7.30507 13.5912ZM 9.27243 11.6239C 9.27243 9.26126 7.67132 7.27249 5.50193 6.67348L 4.96961 8.60134C 6.2971 8.96788 7.27243 10.1867 7.27243 11.6239L 9.27243 11.6239ZM 6.23577 7.63741L 6.23577 1.93459L 4.23577 1.93459L 4.23577 7.63741L 6.23577 7.63741ZM 5.23577 2.93459L 50.3954 2.93459L 50.3954 0.934587L 5.23577 0.934587L 5.23577 2.93459ZM 49.3954 1.93459L 49.3954 8.45523L 51.3954 8.45523L 51.3954 1.93459L 49.3954 1.93459ZM 49.3954 8.45523C 49.3954 9.54173 50.2763 10.4226 51.3628 10.4226L 51.3628 8.42258C 51.3655 8.42258 51.3705 8.42333 51.3758 8.42557C 51.3805 8.42752 51.3837 8.42992 51.3859 8.43213C 51.3881 8.43434 51.3905 8.43754 51.3924 8.44217C 51.3947 8.44746 51.3954 8.45253 51.3954 8.45523L 49.3954 8.45523ZM 51.3628 10.4226C 52.4493 10.4226 53.3301 9.54173 53.3301 8.45523L 51.3301 8.45523C 51.3301 8.45253 51.3309 8.44746 51.3331 8.44217C 51.3351 8.43754 51.3375 8.43434 51.3397 8.43213C 51.3419 8.42992 51.3451 8.42752 51.3497 8.42557C 51.355 8.42333 51.3601 8.42258 51.3628 8.42258L 51.3628 10.4226ZM 53.3301 8.45523L 53.3301 0.967358L 51.3301 0.967358L 51.3301 8.45523L 53.3301 8.45523ZM 53.3301 0.966151C 53.3288 -0.119171 52.4489 -1 51.3621 -1L 51.3621 1C 51.3594 1 51.3544 0.999255 51.3491 0.99703C 51.3445 0.995089 51.3414 0.992735 51.3393 0.990619C 51.3372 0.988504 51.3349 0.985453 51.333 0.98103C 51.3309 0.975946 51.3301 0.971087 51.3301 0.968564L 53.3301 0.966151ZM 3.68141 52.1854C 3.24069 52.0039 2.93459 51.5716 2.93459 51.0744L 0.934587 51.0744C 0.934587 52.4135 1.7593 53.5567 2.91967 54.0347L 3.68141 52.1854ZM 2.93459 51.0744C 2.93459 50.5774 3.24066 50.1451 3.68141 49.9635L 2.91967 48.1143C 1.75933 48.5922 0.934587 49.7354 0.934587 51.0744L 2.93459 51.0744ZM 2.30054 49.0389L 2.30054 53.1101L 4.30054 53.1101L 4.30054 49.0389L 2.30054 49.0389ZM 3.68141 42.3227C 3.24066 42.1412 2.93459 41.7088 2.93459 41.2118L 0.934587 41.2118C 0.934587 42.5508 1.75933 43.694 2.91967 44.172L 3.68141 42.3227ZM 2.93459 41.2118C 2.93459 40.7149 3.24065 40.2824 3.68154 40.1008L 2.91954 38.2516C 1.75934 38.7297 0.934587 39.8728 0.934587 41.2118L 2.93459 41.2118ZM 2.30054 39.1762L 2.30054 43.2474L 4.30054 43.2474L 4.30054 39.1762L 2.30054 39.1762ZM 3.68128 32.46C 3.24071 32.2786 2.93459 31.8463 2.93459 31.3491L 0.934587 31.3491C 0.934587 32.6882 1.75929 33.8315 2.9198 34.3094L 3.68128 32.46ZM 2.93459 31.3491C 2.93459 30.8522 3.24065 30.4197 3.68154 30.2381L 2.91954 28.3889C 1.75934 28.867 0.934587 30.0101 0.934587 31.3491L 2.93459 31.3491ZM 2.30054 29.3135L 2.30054 33.3847L 4.30054 33.3847L 4.30054 29.3135L 2.30054 29.3135ZM 3.68141 22.5976C 3.24066 22.4161 2.93459 21.9837 2.93459 21.4867L 0.934587 21.4867C 0.934587 22.8257 1.75933 23.9689 2.91967 24.4469L 3.68141 22.5976ZM 2.93459 21.4867C 2.93459 20.9897 3.24065 20.5573 3.68154 20.3756L 2.91954 18.5265C 1.75934 19.0046 0.934587 20.1477 0.934587 21.4867L 2.93459 21.4867ZM 2.30054 19.4511L 2.30054 23.5222L 4.30054 23.5222L 4.30054 19.4511L 2.30054 19.4511ZM 3.68128 12.7347C 3.24074 12.5533 2.93459 12.1211 2.93459 11.6238L 0.934587 11.6238C 0.934587 12.9629 1.75926 14.1062 2.9198 14.5841L 3.68128 12.7347ZM 2.93459 11.6238C 2.93459 11.1268 3.24066 10.6944 3.68141 10.5129L 2.91967 8.66361C 1.75933 9.14157 0.934587 10.2848 0.934587 11.6238L 2.93459 11.6238ZM 2.30054 9.58824L 2.30054 13.6594L 4.30054 13.6594L 4.30054 9.58824L 2.30054 9.58824Z"/>
<path id="path2_fill" d="M 5.60942 0.283285C 5.23171 -0.0944281 4.61912 -0.0944281 4.24154 0.283285L 2.28658 2.23824L 1.65117 1.60283C 1.27346 1.22512 0.660869 1.22512 0.283285 1.60283C -0.0944283 1.98054 -0.0944283 2.59314 0.283285 2.97072L 1.6027 4.29014C 1.79156 4.47899 2.0392 4.57349 2.28671 4.57349C 2.53422 4.57349 2.78186 4.47912 2.97059 4.29014L 5.60955 1.65117C 5.98727 1.27346 5.98727 0.660998 5.60942 0.283285Z"/>
<path id="path3_fill" d="M 9.97974 -2.67518e-07L 0.967358 -2.67518e-07C 0.433145 -2.67518e-07 2.20309e-07 0.433146 2.20309e-07 0.967358L 2.20309e-07 9.97975C 2.20309e-07 10.514 0.433145 10.9471 0.967358 10.9471L 9.97974 10.9471C 10.514 10.9471 10.9471 10.514 10.9471 9.97975L 10.9471 0.967228C 10.9471 0.433016 10.514 -2.67518e-07 9.97974 -2.67518e-07ZM 9.01252 9.01239L 1.93472 9.01239L 1.93472 1.93459L 9.01252 1.93459L 9.01252 9.01239Z"/>
<path id="path4_fill" d="M 15.8102 -3.85541e-07L 0.967357 -3.85541e-07C 0.433145 -3.85541e-07 -1.25891e-07 0.433146 -1.25891e-07 0.967358C -1.25891e-07 1.50157 0.433145 1.93472 0.967357 1.93472L 15.8101 1.93472C 16.3443 1.93472 16.7774 1.50157 16.7774 0.967358C 16.7774 0.433146 16.3443 -3.85541e-07 15.8102 -3.85541e-07Z"/>
<path id="path5_fill" d="M 9.45945 -5.82245e-07L 0.967357 -5.82245e-07C 0.433145 -5.82245e-07 -1.25891e-07 0.433144 -1.25891e-07 0.967357C -1.25891e-07 1.50157 0.433145 1.93472 0.967357 1.93472L 9.45945 1.93472C 9.99367 1.93472 10.4268 1.50157 10.4268 0.967357C 10.4268 0.433144 9.99367 -5.82245e-07 9.45945 -5.82245e-07Z"/>
<path id="path6_fill" d="M 5.60942 0.283285C 5.23171 -0.0944279 4.61912 -0.0944279 4.24154 0.283285L 2.28658 2.23824L 1.65117 1.60283C 1.27346 1.22512 0.660869 1.22512 0.283285 1.60283C -0.0944283 1.98054 -0.0944283 2.59314 0.283285 2.97072L 1.6027 4.29014C 1.79156 4.47899 2.0392 4.57349 2.28671 4.57349C 2.53422 4.57349 2.78186 4.47899 2.97059 4.29014L 5.60955 1.65117C 5.98727 1.27346 5.98727 0.660869 5.60942 0.283285Z"/>
<path id="path7_fill" d="M 9.97974 4.72091e-08L 0.967358 4.72091e-08C 0.433145 4.72091e-08 2.20309e-07 0.433145 2.20309e-07 0.967358L 2.20309e-07 9.97974C 2.20309e-07 10.514 0.433145 10.9471 0.967358 10.9471L 9.97974 10.9471C 10.514 10.9471 10.9471 10.514 10.9471 9.97974L 10.9471 0.967358C 10.9471 0.433145 10.514 4.72091e-08 9.97974 4.72091e-08ZM 9.01252 9.01252L 1.93472 9.01252L 1.93472 1.93472L 9.01252 1.93472L 9.01252 9.01252Z"/>
<path id="path8_fill" d="M 15.8102 9.12709e-07L 0.967357 9.12709e-07C 0.433145 9.12709e-07 -1.25891e-07 0.433146 -1.25891e-07 0.967358C -1.25891e-07 1.50157 0.433145 1.93472 0.967357 1.93472L 15.8101 1.93472C 16.3444 1.93472 16.7775 1.50157 16.7775 0.967358C 16.7775 0.433146 16.3443 9.12709e-07 15.8102 9.12709e-07Z"/>
<path id="path9_fill" d="M 9.45945 -2.67518e-07L 0.967357 -2.67518e-07C 0.433145 -2.67518e-07 -1.25891e-07 0.433147 -1.25891e-07 0.967359C -1.25891e-07 1.50157 0.433145 1.93472 0.967357 1.93472L 9.45945 1.93472C 9.99367 1.93472 10.4268 1.50157 10.4268 0.967359C 10.4268 0.433147 9.99367 -2.67518e-07 9.45945 -2.67518e-07Z"/>
<path id="path10_fill" d="M 5.60942 0.283285C 5.23184 -0.0944282 4.61925 -0.0944282 4.24154 0.283285L 2.28658 2.23824L 1.65117 1.60283C 1.27346 1.22512 0.660869 1.22512 0.283285 1.60283C -0.0944283 1.98054 -0.0944283 2.59313 0.283285 2.97072L 1.6027 4.29014C 1.79156 4.47912 2.0392 4.57349 2.28671 4.57349C 2.53422 4.57349 2.78186 4.47899 2.97059 4.29014L 5.60955 1.65117C 5.98727 1.27333 5.98727 0.660869 5.60942 0.283285Z"/>
<path id="path11_fill" d="M 9.97974 -1.60511e-06L 0.967358 -1.60511e-06C 0.433145 -1.60511e-06 2.20309e-07 0.433143 2.20309e-07 0.967356L 2.20309e-07 9.97974C 2.20309e-07 10.514 0.433145 10.9471 0.967358 10.9471L 9.97974 10.9471C 10.514 10.9471 10.9471 10.514 10.9471 9.97974L 10.9471 0.967356C 10.9471 0.433143 10.514 -1.60511e-06 9.97974 -1.60511e-06ZM 9.01252 9.01239L 1.93472 9.01239L 1.93472 1.93459L 9.01252 1.93459L 9.01252 9.01239Z"/>
<path id="path12_fill" d="M 46.9411 29.3245L 46.9411 0.23744C 46.9411 -0.296772 46.4443 0.237393 45.9101 0.237393C 45.3759 0.237393 45.0063 0.20358 45.0063 0.737793L 45.0063 29.2154C 44.862 29.2163 44.7184 29.2195 44.5749 29.2244C 44.5421 29.2256 44.5095 29.2274 44.4768 29.2288C 44.3436 29.2341 44.2107 29.2412 44.0784 29.2498C 44.0307 29.2529 43.983 29.2563 43.9355 29.2598C 43.7942 29.2703 43.6534 29.2826 43.5133 29.2969C 43.4916 29.2991 43.47 29.3008 43.4483 29.3031C 43.2882 29.3201 43.1291 29.3402 42.9706 29.362C 42.9279 29.3679 42.8855 29.3744 42.8429 29.3806C 42.7191 29.3987 42.5954 29.4183 42.4726 29.4395C 42.4315 29.4466 42.3901 29.4533 42.3491 29.4607C 42.1921 29.489 42.0358 29.5191 41.8804 29.552C 41.8596 29.5564 41.8391 29.5614 41.8183 29.5659C 41.6818 29.5954 41.5462 29.6269 41.4111 29.66C 41.3684 29.6705 41.3259 29.6812 41.2832 29.692C 41.1523 29.7253 41.0218 29.7602 40.8922 29.7968C 40.8683 29.8036 40.844 29.8098 40.8201 29.8168C 40.6672 29.8608 40.5154 29.9073 40.3643 29.9558C 40.3312 29.9665 40.2983 29.9777 40.2653 29.9885C 40.1427 30.0289 40.0208 30.0706 39.8996 30.1139C 39.8639 30.1267 39.8281 30.1392 39.7925 30.1522C 39.4932 30.2617 39.1982 30.3801 38.9078 30.5071C 38.8745 30.5217 38.8413 30.5365 38.8081 30.5513C 38.6826 30.6073 38.5578 30.6648 38.4341 30.7241C 38.4139 30.7337 38.3934 30.7432 38.3733 30.7528C 38.228 30.8231 38.0841 30.8957 37.9413 30.9702C 37.9225 30.98 37.9039 30.9903 37.8851 31.0002C 37.761 31.0658 37.6377 31.1331 37.5155 31.2021C 37.4886 31.2173 37.4616 31.2324 37.4348 31.2477C 37.1553 31.4074 36.8814 31.5753 36.613 31.7515C 36.5915 31.7656 36.5702 31.78 36.5488 31.7942C 36.4272 31.8749 36.3067 31.9571 36.1876 32.0412C 36.1743 32.0506 36.1609 32.0596 36.1476 32.069C 36.0116 32.1654 35.8773 32.2639 35.7448 32.3646L 35.7405 32.368C 35.6138 32.4641 35.4889 32.5627 35.3654 32.6628C 35.3484 32.6766 35.3314 32.6904 35.3143 32.7042C 35.0596 32.912 34.8114 33.1276 34.5705 33.3508C 34.5612 33.3594 34.5521 33.3681 34.5428 33.3767C 34.4279 33.4837 34.3146 33.5924 34.203 33.7027C 34.1956 33.7101 34.1882 33.7173 34.1807 33.7246C 33.9441 33.9595 33.7153 34.2021 33.4941 34.4517C 33.4852 34.4618 33.4764 34.4717 33.4675 34.4817C 33.245 34.7341 33.0304 34.9936 32.8245 35.2602L 32.823 35.2622C 32.7207 35.3946 32.6207 35.5288 32.5227 35.6645C 32.5187 35.6701 32.5147 35.6756 32.5107 35.6811C 32.3133 35.9553 32.1247 36.2362 31.945 36.5233C 31.9406 36.5304 31.9362 36.5374 31.9318 36.5445C 31.7516 36.8335 31.5805 37.1286 31.4191 37.4298L 21.4716 37.4298C 20.9374 37.4298 20.5042 37.863 20.5042 38.3972C 20.5042 38.9314 20.9374 39.3645 21.4716 39.3645L 30.5482 39.3645C 30.5474 39.3666 30.5469 39.3685 30.5461 39.3706C 30.4748 39.5638 30.4078 39.7592 30.344 39.9559C 30.3372 39.977 30.3302 39.998 30.3235 40.0192C 30.2616 40.213 30.2035 40.4082 30.1491 40.6053C 30.1438 40.6247 30.1386 40.644 30.1335 40.6632C 30.0204 41.0795 29.9237 41.5022 29.8455 41.9314C 29.8451 41.9339 29.8445 41.9362 29.8441 41.9385L 21.4716 41.9385C 20.9374 41.9385 20.5042 42.3717 20.5042 42.9059C 20.5042 43.4401 20.9374 43.8733 21.4716 43.8733L 29.6164 43.8733L 29.6164 43.8745C 29.6089 44.0112 29.6033 44.1481 29.5994 44.2856C 29.5993 44.2905 29.599 44.2953 29.5989 44.3002C 29.595 44.4418 29.5928 44.5837 29.5928 44.7261C 29.5928 44.853 29.5946 44.9798 29.5976 45.1062C 29.5986 45.1482 29.6006 45.1901 29.6018 45.2321C 29.6046 45.3164 29.6074 45.4009 29.6115 45.4849C 29.6138 45.5339 29.6171 45.5826 29.6199 45.6316C 29.6244 45.7091 29.629 45.7866 29.6347 45.8638C 29.6383 45.9135 29.6426 45.9633 29.6466 46.0131C 29.6529 46.0899 29.6596 46.1669 29.6671 46.2436C 29.6717 46.2911 29.6766 46.3387 29.6818 46.3863C 29.6904 46.4671 29.6997 46.5479 29.7095 46.6285C 29.7146 46.6701 29.7197 46.7118 29.7252 46.7533C 29.7371 46.8437 29.7498 46.9338 29.7631 47.0237C 29.7678 47.0546 29.7721 47.0854 29.7769 47.116C 29.7941 47.2268 29.8125 47.3374 29.832 47.4475C 29.8336 47.4565 29.835 47.4657 29.8366 47.4747C 30.3369 50.271 31.5941 52.8698 33.482 55.001L 5.11157 55.001C 4.57736 55.001 0.611572 55.2032 0.611572 55.7374C 0.611572 56.2716 -2.30823 56.9357 4.61176 56.9357L 35.5465 56.9357C 38.1822 59.0034 41.5013 60.2376 45.1034 60.2376C 53.6565 60.2376 60.6148 53.2792 60.6148 44.7261C 60.6148 36.7953 54.6311 30.2364 46.9411 29.3245ZM 45.1034 58.3033C 38.5667 58.3033 33.0945 53.6596 31.8114 47.4978C 31.8077 47.4796 31.8037 47.4615 31.7999 47.4434C 31.7833 47.3615 31.7678 47.2791 31.7526 47.1969C 31.7455 47.1585 31.7383 47.1199 31.7316 47.0814C 31.7192 47.011 31.7076 46.9401 31.6964 46.8693C 31.6883 46.8185 31.6804 46.7676 31.6729 46.7165C 31.6637 46.6535 31.6548 46.5903 31.6464 46.5268C 31.6385 46.4675 31.6312 46.4082 31.6241 46.3486C 31.6173 46.2913 31.6104 46.2339 31.6044 46.1761C 31.5974 46.1101 31.5911 46.0439 31.585 45.9776C 31.5801 45.9246 31.5751 45.8718 31.5709 45.8185C 31.5651 45.7466 31.5604 45.6743 31.5559 45.6021C 31.5528 45.5538 31.5493 45.5055 31.5466 45.4571C 31.5422 45.3757 31.5393 45.294 31.5364 45.2124C 31.535 45.1724 31.533 45.1327 31.5319 45.0926C 31.5287 44.9708 31.5269 44.8485 31.5269 44.7261C 31.5269 37.2398 37.6174 31.1494 45.1037 31.1494C 45.2336 31.1494 45.3642 31.1514 45.4975 31.1554C 45.5042 31.1555 45.5108 31.1559 45.5175 31.1562C 45.6454 31.1603 45.7758 31.1661 45.9103 31.174C 53.0224 31.5929 58.6805 37.5107 58.6805 44.7261C 58.6802 52.2127 52.5896 58.3033 45.1034 58.3033Z"/>
<path id="path13_stroke_2x" d="M 46.9411 29.3245L 45.4411 29.3245L 45.4411 30.6571L 46.7644 30.814L 46.9411 29.3245ZM 45.0063 29.2154L 45.0157 30.7154L 46.5063 30.7061L 46.5063 29.2154L 45.0063 29.2154ZM 44.5749 29.2244L 44.5237 27.7253L 44.5218 27.7254L 44.5749 29.2244ZM 44.4768 29.2288L 44.5363 30.7277L 44.5417 30.7274L 44.4768 29.2288ZM 44.0784 29.2498L 44.1755 30.7467L 44.1762 30.7466L 44.0784 29.2498ZM 43.9355 29.2598L 43.826 27.7638L 43.8236 27.7639L 43.9355 29.2598ZM 43.5133 29.2969L 43.6643 30.7893L 43.6657 30.7891L 43.5133 29.2969ZM 43.4483 29.3031L 43.6068 30.7947L 43.6081 30.7945L 43.4483 29.3031ZM 42.9706 29.362L 42.7664 27.8759L 42.7641 27.8763L 42.9706 29.362ZM 42.8429 29.3806L 42.627 27.8962L 42.6252 27.8964L 42.8429 29.3806ZM 42.4726 29.4395L 42.2182 27.9612L 42.2177 27.9613L 42.4726 29.4395ZM 42.3491 29.4607L 42.6145 30.9371L 42.6182 30.9364L 42.3491 29.4607ZM 41.8804 29.552L 42.1903 31.0196L 42.1907 31.0196L 41.8804 29.552ZM 41.8183 29.5659L 42.1354 31.032L 42.137 31.0317L 41.8183 29.5659ZM 41.4111 29.66L 41.7677 31.117L 41.7684 31.1169L 41.4111 29.66ZM 41.2832 29.692L 40.9143 28.2381L 40.914 28.2381L 41.2832 29.692ZM 40.8922 29.7968L 40.4843 28.3533L 40.4812 28.3542L 40.8922 29.7968ZM 40.8201 29.8168L 41.2345 31.2584L 41.2383 31.2573L 40.8201 29.8168ZM 40.3643 29.9558L 39.9061 28.5275L 39.9034 28.5284L 40.3643 29.9558ZM 40.2653 29.9885L 39.7977 28.5633L 39.7964 28.5637L 40.2653 29.9885ZM 39.8996 30.1139L 40.4044 31.5264L 40.4045 31.5264L 39.8996 30.1139ZM 39.7925 30.1522L 40.3076 31.561L 40.308 31.5609L 39.7925 30.1522ZM 38.9078 30.5071L 38.3069 29.1327L 38.306 29.1331L 38.9078 30.5071ZM 38.8081 30.5513L 39.4186 31.9215L 39.4208 31.9205L 38.8081 30.5513ZM 38.4341 30.7241L 39.0807 32.0776L 39.0829 32.0765L 38.4341 30.7241ZM 38.3733 30.7528L 37.7234 29.4009L 37.7203 29.4024L 38.3733 30.7528ZM 37.9413 30.9702L 38.6339 32.3007L 38.6351 32.3001L 37.9413 30.9702ZM 37.8851 31.0002L 37.1854 29.6734L 37.1842 29.6741L 37.8851 31.0002ZM 37.5155 31.2021L 36.7783 29.8958L 36.778 29.8959L 37.5155 31.2021ZM 37.4348 31.2477L 38.1791 32.55L 38.1797 32.5497L 37.4348 31.2477ZM 36.613 31.7515L 37.4329 33.0076L 37.4363 33.0054L 36.613 31.7515ZM 36.5488 31.7942L 35.7202 30.5438L 35.7192 30.5445L 36.5488 31.7942ZM 36.1876 32.0412L 35.3228 30.8156L 35.3202 30.8174L 36.1876 32.0412ZM 36.1476 32.069L 35.2803 30.8452L 35.2801 30.8454L 36.1476 32.069ZM 35.7448 32.3646L 34.8374 31.1702L 34.8267 31.1783L 34.8163 31.1865L 35.7448 32.3646ZM 35.7405 32.368L 36.6473 33.5628L 36.6583 33.5545L 36.669 33.546L 35.7405 32.368ZM 35.3654 32.6628L 34.4212 31.4972L 34.4208 31.4975L 35.3654 32.6628ZM 35.3143 32.7042L 34.3698 31.5389L 34.3661 31.5419L 35.3143 32.7042ZM 34.5705 33.3508L 33.5513 32.2503L 33.5487 32.2527L 34.5705 33.3508ZM 34.5428 33.3767L 33.521 32.2786L 33.5204 32.2791L 34.5428 33.3767ZM 34.203 33.7027L 33.1485 32.6359L 33.1423 32.6421L 34.203 33.7027ZM 34.1807 33.7246L 33.1293 32.6548L 33.1238 32.6602L 34.1807 33.7246ZM 33.4941 34.4517L 32.3716 33.4567L 32.3706 33.4578L 33.4941 34.4517ZM 33.4675 34.4817L 32.344 33.4879L 32.3423 33.4898L 33.4675 34.4817ZM 32.8245 35.2602L 33.9954 36.1978L 34.0036 36.1875L 34.0117 36.1771L 32.8245 35.2602ZM 32.823 35.2622L 31.6521 34.3246L 31.6438 34.3349L 31.6357 34.3454L 32.823 35.2622ZM 32.5227 35.6645L 31.3065 34.7867L 31.306 34.7873L 32.5227 35.6645ZM 32.5107 35.6811L 31.294 34.8039L 31.2936 34.8045L 32.5107 35.6811ZM 31.945 36.5233L 30.6735 35.7274L 30.6691 35.7346L 31.945 36.5233ZM 31.9318 36.5445L 33.2046 37.3381L 33.2077 37.3332L 31.9318 36.5445ZM 31.4191 37.4298L 31.4191 38.9298L 32.3172 38.9298L 32.7413 38.1382L 31.4191 37.4298ZM 30.5482 39.3645L 31.9527 39.8912L 32.7127 37.8645L 30.5482 37.8645L 30.5482 39.3645ZM 30.5461 39.3706L 29.1416 38.8439L 29.1388 38.8514L 30.5461 39.3706ZM 30.344 39.9559L 28.9172 39.493L 28.9167 39.4946L 30.344 39.9559ZM 30.3235 40.0192L 31.7525 40.4752L 31.7533 40.4725L 30.3235 40.0192ZM 30.1491 40.6053L 28.7031 40.2063L 28.7022 40.2098L 30.1491 40.6053ZM 30.1335 40.6632L 31.581 41.0564L 31.5822 41.0521L 30.1335 40.6632ZM 29.8455 41.9314L 28.3698 41.6625L 28.3666 41.6799L 28.3638 41.6975L 29.8455 41.9314ZM 29.8441 41.9385L 29.8441 43.4385L 31.1148 43.4385L 31.3237 42.1851L 29.8441 41.9385ZM 29.6164 43.8733L 31.1164 43.8733L 31.1164 42.3733L 29.6164 42.3733L 29.6164 43.8733ZM 29.6164 43.8745L 31.1142 43.9565L 31.1164 43.9155L 31.1164 43.8745L 29.6164 43.8745ZM 29.5994 44.2856L 28.1 44.2435L 28.0999 44.2462L 29.5994 44.2856ZM 29.5989 44.3002L 31.0983 44.3412L 31.0984 44.3397L 29.5989 44.3002ZM 29.5976 45.1062L 28.098 45.1414L 28.098 45.143L 29.5976 45.1062ZM 29.6018 45.2321L 28.1025 45.2781L 28.1026 45.2803L 29.6018 45.2321ZM 29.6115 45.4849L 31.1098 45.4139L 31.1097 45.4114L 29.6115 45.4849ZM 29.6199 45.6316L 28.1224 45.7183L 28.1224 45.7188L 29.6199 45.6316ZM 29.6347 45.8638L 31.1308 45.7553L 31.1307 45.7539L 29.6347 45.8638ZM 29.6466 46.0131L 28.1514 46.1332L 28.1516 46.136L 29.6466 46.0131ZM 29.6671 46.2436L 28.1742 46.3891L 28.1742 46.3892L 29.6671 46.2436ZM 29.6818 46.3863L 31.1733 46.2269L 31.173 46.2246L 29.6818 46.3863ZM 29.7095 46.6285L 28.2204 46.8096L 28.2209 46.8128L 29.7095 46.6285ZM 29.7252 46.7533L 31.2125 46.5581L 31.212 46.5547L 29.7252 46.7533ZM 29.7631 47.0237L 28.2792 47.2427L 28.2798 47.2472L 29.7631 47.0237ZM 29.7769 47.116L 31.2592 46.8865L 31.2591 46.8856L 29.7769 47.116ZM 29.832 47.4475L 28.3548 47.7087L 28.3572 47.7214L 29.832 47.4475ZM 29.8366 47.4747L 28.3581 47.7281L 28.36 47.7389L 29.8366 47.4747ZM 33.482 55.001L 33.482 56.501L 36.8147 56.501L 34.6048 54.0063L 33.482 55.001ZM 35.5465 56.9357L 36.4724 55.7555L 36.0647 55.4357L 35.5465 55.4357L 35.5465 56.9357ZM 60.6148 44.7261L 59.1148 44.7261L 60.6148 44.7261ZM 31.8114 47.4978L 30.3422 47.7999L 30.3429 47.8035L 31.8114 47.4978ZM 31.7999 47.4434L 30.3299 47.742L 30.3307 47.7455L 31.7999 47.4434ZM 31.7526 47.1969L 30.2775 47.4691L 30.2776 47.4697L 31.7526 47.1969ZM 31.7316 47.0814L 33.2094 46.8244L 33.2089 46.8216L 31.7316 47.0814ZM 31.6964 46.8693L 33.1779 46.6345L 33.1776 46.6325L 31.6964 46.8693ZM 31.6729 46.7165L 33.1571 46.4992L 33.1569 46.498L 31.6729 46.7165ZM 31.6464 46.5268L 33.1335 46.3307L 33.1334 46.3296L 31.6464 46.5268ZM 31.6241 46.3486L 33.1136 46.1713L 33.1136 46.1712L 31.6241 46.3486ZM 31.6044 46.1761L 33.0962 46.0196L 33.0961 46.0188L 31.6044 46.1761ZM 31.585 45.9776L 33.0788 45.841L 33.0787 45.8395L 31.585 45.9776ZM 31.5709 45.8185L 33.0661 45.6991L 33.066 45.698L 31.5709 45.8185ZM 31.5559 45.6021L 33.053 45.5085L 33.0528 45.5063L 31.5559 45.6021ZM 31.5466 45.4571L 30.0488 45.5378L 30.0489 45.5407L 31.5466 45.4571ZM 31.5364 45.2124L 33.0355 45.1603L 33.0355 45.1592L 31.5364 45.2124ZM 31.5319 45.0926L 33.0314 45.0541L 33.0314 45.053L 31.5319 45.0926ZM 45.4975 31.1554L 45.4526 32.6547L 45.4606 32.655L 45.4687 32.6551L 45.4975 31.1554ZM 45.5175 31.1562L 45.4598 32.6551L 45.4691 32.6554L 45.5175 31.1562ZM 45.9103 31.174L 45.9985 29.6766L 45.9979 29.6765L 45.9103 31.174ZM 58.6805 44.7261L 60.1805 44.7262L 60.1805 44.7261L 58.6805 44.7261ZM 48.4411 29.3245L 48.4411 0.23744L 45.4411 0.23744L 45.4411 29.3245L 48.4411 29.3245ZM 48.4411 0.23744C 48.4411 0.0335104 48.4158 -0.924806 47.4775 -1.35271C 47.0901 -1.52937 46.736 -1.50837 46.5544 -1.48376C 46.3665 -1.45831 46.2112 -1.40694 46.1309 -1.37887C 46.0463 -1.34932 45.959 -1.31405 45.9176 -1.29763C 45.8631 -1.27598 45.8339 -1.26481 45.81 -1.25662C 45.7556 -1.23796 45.8045 -1.26261 45.9101 -1.26261L 45.9101 1.73739C 46.2827 1.73739 46.5941 1.64598 46.7831 1.58117C 46.8809 1.54763 46.9686 1.5129 47.0245 1.49073C 47.0563 1.47809 47.0753 1.47049 47.0945 1.46305C 47.103 1.45974 47.1093 1.45734 47.114 1.4556C 47.1163 1.45474 47.118 1.45412 47.1192 1.45368C 47.1198 1.45347 47.1202 1.45331 47.1205 1.4532C 47.1208 1.45309 47.1209 1.45304 47.1209 1.45304C 47.1209 1.45305 47.1208 1.4531 47.1205 1.45321C 47.1201 1.45332 47.1196 1.45349 47.119 1.45371C 47.1177 1.45415 47.1156 1.45482 47.1129 1.45569C 47.1075 1.45738 47.0985 1.46014 47.0863 1.46344C 47.0639 1.4695 47.0188 1.48073 46.957 1.48909C 46.8524 1.50326 46.5651 1.52844 46.2327 1.37684C 45.8501 1.20237 45.6288 0.898013 45.5262 0.641766C 45.4407 0.428187 45.4411 0.263501 45.4411 0.23744L 48.4411 0.23744ZM 45.9101 -1.26261C 45.8161 -1.26261 45.6295 -1.26527 45.4728 -1.25788C 45.3157 -1.25047 45.0376 -1.22955 44.7418 -1.12115C 44.4049 -0.99772 44.0369 -0.75707 43.7848 -0.335113C 43.5538 0.0514742 43.5063 0.448288 43.5063 0.737793L 46.5063 0.737793C 46.5063 0.760192 46.5051 0.960902 46.3601 1.20358C 46.194 1.48163 45.9517 1.63057 45.774 1.69568C 45.6373 1.74576 45.5518 1.74173 45.6142 1.73879C 45.677 1.73583 45.737 1.73739 45.9101 1.73739L 45.9101 -1.26261ZM 43.5063 0.737793L 43.5063 29.2154L 46.5063 29.2154L 46.5063 0.737793L 43.5063 0.737793ZM 44.997 27.7154C 44.8365 27.7164 44.6788 27.72 44.5237 27.7253L 44.6261 30.7236C 44.7579 30.7191 44.8874 30.7162 45.0157 30.7154L 44.997 27.7154ZM 44.5218 27.7254C 44.4853 27.7267 44.4166 27.73 44.4119 27.7302L 44.5417 30.7274C 44.6025 30.7248 44.599 30.7245 44.628 30.7235L 44.5218 27.7254ZM 44.4173 27.73C 44.2706 27.7358 44.1249 27.7436 43.9807 27.753L 44.1762 30.7466C 44.2965 30.7388 44.4167 30.7324 44.5363 30.7276L 44.4173 27.73ZM 43.9813 27.753C 43.9284 27.7564 43.8764 27.7601 43.826 27.7638L 44.0449 30.7558C 44.0897 30.7525 44.1331 30.7494 44.1755 30.7467L 43.9813 27.753ZM 43.8236 27.7639C 43.6703 27.7754 43.5159 27.7888 43.3609 27.8046L 43.6657 30.7891C 43.7909 30.7763 43.9181 30.7653 44.0474 30.7556L 43.8236 27.7639ZM 43.3623 27.8045C 43.3625 27.8045 43.3617 27.8046 43.3586 27.8048C 43.3551 27.8052 43.352 27.8055 43.3451 27.8061C 43.3342 27.8071 43.3126 27.809 43.2885 27.8116L 43.6081 30.7945C 43.6057 30.7948 43.6058 30.7948 43.6165 30.7938C 43.6237 30.7931 43.6439 30.7913 43.6643 30.7893L 43.3623 27.8045ZM 43.2898 27.8115C 43.1103 27.8306 42.9354 27.8527 42.7664 27.8759L 43.1747 30.848C 43.3229 30.8277 43.4661 30.8096 43.6068 30.7947L 43.2898 27.8115ZM 42.7641 27.8763C 42.7159 27.883 42.6561 27.8919 42.627 27.8962L 43.0589 30.8649C 43.1148 30.8568 43.1399 30.8529 43.177 30.8477L 42.7641 27.8763ZM 42.6252 27.8964C 42.49 27.9163 42.3541 27.9378 42.2182 27.9612L 42.727 30.9177C 42.8368 30.8988 42.9482 30.8812 43.0607 30.8647L 42.6252 27.8964ZM 42.2177 27.9613C 42.1984 27.9646 42.1289 27.9761 42.0799 27.9851L 42.6182 30.9364C 42.6512 30.9304 42.6646 30.9285 42.7274 30.9177L 42.2177 27.9613ZM 42.0836 27.9844C 41.9141 28.0149 41.7427 28.0479 41.5701 28.0844L 42.1907 31.0196C 42.3289 30.9903 42.47 30.963 42.6145 30.9371L 42.0836 27.9844ZM 41.5704 28.0844C 41.5457 28.0896 41.5239 28.0946 41.5136 28.097C 41.4996 28.1002 41.4994 28.1002 41.4997 28.1002L 42.137 31.0317C 42.1484 31.0292 42.1586 31.0269 42.1665 31.0251C 42.1737 31.0235 42.1815 31.0217 42.1851 31.0208C 42.1955 31.0185 42.1942 31.0188 42.1903 31.0196L 41.5704 28.0844ZM 41.5013 28.0998C 41.3502 28.1325 41.2012 28.1671 41.0539 28.2032L 41.7684 31.1169C 41.8913 31.0867 42.0134 31.0584 42.1354 31.032L 41.5013 28.0998ZM 41.0546 28.203C 41.0059 28.2149 40.9588 28.2268 40.9143 28.2381L 41.6522 31.1459C 41.693 31.1355 41.7309 31.126 41.7677 31.117L 41.0546 28.203ZM 40.914 28.2381C 40.7705 28.2746 40.6271 28.313 40.4843 28.3533L 41.3001 31.2403C 41.4165 31.2074 41.534 31.1759 41.6524 31.1459L 40.914 28.2381ZM 40.4812 28.3542C 40.4817 28.3541 40.4809 28.3543 40.4777 28.3552C 40.474 28.3562 40.4706 28.3571 40.4633 28.3591C 40.4516 28.3623 40.4279 28.3687 40.4018 28.3763L 41.2383 31.2573C 41.2362 31.2579 41.2366 31.2578 41.249 31.2544C 41.2577 31.252 41.2802 31.246 41.3033 31.2394L 40.4812 28.3542ZM 40.4056 28.3752C 40.2358 28.424 40.0694 28.4751 39.9061 28.5275L 40.8226 31.3841C 40.9615 31.3395 41.0985 31.2975 41.2345 31.2584L 40.4056 28.3752ZM 39.9034 28.5284C 39.8748 28.5376 39.7994 28.5627 39.7977 28.5633L 40.733 31.4137C 40.7973 31.3926 40.7877 31.3953 40.8253 31.3832L 39.9034 28.5284ZM 39.7964 28.5637C 39.6624 28.6078 39.5285 28.6536 39.3947 28.7015L 40.4045 31.5264C 40.5131 31.4876 40.6231 31.4499 40.7343 31.4133L 39.7964 28.5637ZM 39.3948 28.7014C 39.3742 28.7088 39.3188 28.7283 39.277 28.7436L 40.308 31.5609C 40.3374 31.5501 40.3536 31.5446 40.4044 31.5264L 39.3948 28.7014ZM 39.2774 28.7434C 38.9486 28.8636 38.6251 28.9936 38.3069 29.1327L 39.5086 31.8815C 39.7713 31.7667 40.0377 31.6597 40.3076 31.561L 39.2774 28.7434ZM 38.306 29.1331C 38.2671 29.1502 38.2294 29.167 38.1955 29.1822L 39.4208 31.9205C 39.4531 31.9061 39.4819 31.8932 39.5096 31.8811L 38.306 29.1331ZM 38.1976 29.1812C 38.0606 29.2422 37.923 29.3056 37.7854 29.3716L 39.0829 32.0765C 39.1925 32.0239 39.3045 31.9723 39.4186 31.9215L 38.1976 29.1812ZM 37.7876 29.3706C 37.7833 29.3726 37.7785 29.3749 37.7667 29.3804C 37.7568 29.385 37.7407 29.3926 37.7234 29.4009L 39.0232 32.1047C 39.0774 32.0786 38.9963 32.1179 39.0807 32.0776L 37.7876 29.3706ZM 37.7203 29.4024C 37.5599 29.48 37.4024 29.5595 37.2475 29.6402L 38.6351 32.3001C 38.7659 32.2318 38.8961 32.1662 39.0263 32.1032L 37.7203 29.4024ZM 37.2487 29.6396C 37.2284 29.6502 37.2103 29.66 37.2009 29.6651C 37.195 29.6682 37.1923 29.6697 37.1891 29.6714C 37.1878 29.6721 37.1869 29.6726 37.1862 29.673C 37.1856 29.6733 37.1853 29.6734 37.1854 29.6734L 38.5848 32.327C 38.6021 32.3179 38.6191 32.3087 38.6255 32.3052C 38.6348 32.3002 38.6354 32.2999 38.6339 32.3007L 37.2487 29.6396ZM 37.1842 29.6741C 37.048 29.746 36.9127 29.8199 36.7783 29.8958L 38.2527 32.5084C 38.3628 32.4463 38.4739 32.3856 38.5861 32.3264L 37.1842 29.6741ZM 36.778 29.8959C 36.7577 29.9074 36.7216 29.9276 36.6899 29.9457L 38.1797 32.5497C 38.2016 32.5371 38.2195 32.5272 38.253 32.5083L 36.778 29.8959ZM 36.6905 29.9454C 36.3846 30.1202 36.0843 30.3042 35.7897 30.4976L 37.4363 33.0054C 37.6785 32.8463 37.9261 32.6946 38.1791 32.55L 36.6905 29.9454ZM 35.7931 30.4954C 35.7753 30.507 35.7591 30.5178 35.7475 30.5256C 35.7339 30.5347 35.7277 30.5388 35.7202 30.5438L 37.3774 33.0446C 37.4208 33.0158 37.4136 33.0202 37.4329 33.0076L 35.7931 30.4954ZM 35.7192 30.5445C 35.5871 30.6322 35.4547 30.7225 35.3228 30.8156L 37.0524 33.2668C 37.1587 33.1918 37.2674 33.1176 37.3784 33.0439L 35.7192 30.5445ZM 35.3202 30.8174C 35.3222 30.816 35.323 30.8155 35.3151 30.8209C 35.3096 30.8247 35.2955 30.8344 35.2803 30.8452L 37.015 33.2928C 37.013 33.2942 37.0122 33.2947 37.0201 33.2893C 37.0256 33.2855 37.0397 33.2758 37.0549 33.265L 35.3202 30.8174ZM 35.2801 30.8454C 35.1311 30.951 34.9834 31.0592 34.8374 31.1702L 36.6522 33.559C 36.7712 33.4686 36.8922 33.3799 37.0152 33.2927L 35.2801 30.8454ZM 34.8163 31.1865L 34.812 31.1899L 36.669 33.546L 36.6733 33.5427L 34.8163 31.1865ZM 34.8337 31.1731C 34.6919 31.2807 34.5544 31.3894 34.4212 31.4972L 36.3095 33.8284C 36.4234 33.7361 36.5357 33.6476 36.6473 33.5628L 34.8337 31.1731ZM 34.4208 31.4975C 34.4123 31.5044 34.4038 31.5114 34.3953 31.5183C 34.3868 31.5252 34.3783 31.532 34.3698 31.5389L 36.2589 33.8694C 36.2674 33.8625 36.276 33.8556 36.2845 33.8487C 36.293 33.8418 36.3015 33.8349 36.3099 33.828L 34.4208 31.4975ZM 34.3661 31.5419C 34.0873 31.7694 33.8154 32.0056 33.5513 32.2503L 35.5898 34.4513C 35.8075 34.2497 36.0319 34.0546 36.2625 33.8665L 34.3661 31.5419ZM 33.5487 32.2527C 33.5418 32.2591 33.5353 32.2652 33.531 32.2692C 33.5261 32.2738 33.5234 32.2764 33.521 32.2786L 35.5646 34.4748C 35.5715 34.4684 35.578 34.4623 35.5823 34.4583C 35.5872 34.4537 35.5899 34.4511 35.5924 34.4489L 33.5487 32.2527ZM 33.5204 32.2791C 33.3949 32.396 33.2709 32.515 33.1485 32.6359L 35.2575 34.7695C 35.3584 34.6698 35.461 34.5714 35.5652 34.4743L 33.5204 32.2791ZM 33.1423 32.6421C 33.1446 32.6398 33.1455 32.6389 33.143 32.6414C 33.1414 32.6429 33.1407 32.6436 33.1379 32.6463C 33.1357 32.6485 33.1327 32.6515 33.1293 32.6548L 35.2321 34.7945C 35.2343 34.7923 35.2338 34.7928 35.2408 34.786C 35.2457 34.7812 35.2541 34.773 35.2636 34.7634L 33.1423 32.6421ZM 33.1238 32.6602C 32.864 32.9182 32.6133 33.184 32.3716 33.4567L 34.6166 35.4467C 34.8173 35.2202 35.0243 35.0008 35.2376 34.7891L 33.1238 32.6602ZM 32.3706 33.4578C 32.3659 33.4631 32.3613 33.4683 32.357 33.4733C 32.3525 33.4783 32.3483 33.4831 32.344 33.4879L 34.591 35.4756C 34.5957 35.4703 34.6003 35.4651 34.6047 35.4602C 34.6091 35.4551 34.6134 35.4503 34.6176 35.4456L 32.3706 33.4578ZM 32.3423 33.4898C 32.099 33.7658 31.8636 34.0504 31.6373 34.3434L 34.0117 36.1771C 34.1972 35.9369 34.3911 35.7025 34.5928 35.4736L 32.3423 33.4898ZM 31.6537 34.3226L 31.6521 34.3246L 33.9938 36.1998L 33.9954 36.1978L 31.6537 34.3226ZM 31.6357 34.3454C 31.5231 34.4913 31.4134 34.6385 31.3065 34.7867L 33.739 36.5424C 33.828 36.4191 33.9184 36.2979 34.0102 36.1789L 31.6357 34.3454ZM 31.306 34.7873C 31.3041 34.79 31.3021 34.7926 31.3001 34.7954C 31.2981 34.7982 31.2961 34.801 31.294 34.8039L 33.7275 36.5583C 33.7294 36.5557 33.7314 36.553 33.7334 36.5502C 33.7354 36.5475 33.7374 36.5446 33.7395 36.5417L 31.306 34.7873ZM 31.2936 34.8045C 31.0769 35.1054 30.8702 35.4133 30.6735 35.7274L 33.2164 37.3192C 33.3791 37.0592 33.5497 36.8053 33.7279 36.5578L 31.2936 34.8045ZM 30.6691 35.7346C 30.6686 35.7353 30.6679 35.7364 30.6655 35.7403C 30.6636 35.7434 30.6599 35.7494 30.6559 35.7557L 33.2077 37.3332C 33.2081 37.3325 33.2088 37.3314 33.2113 37.3275C 33.2132 37.3244 33.2169 37.3184 33.2208 37.3121L 30.6691 35.7346ZM 30.659 35.7508C 30.4617 36.0672 30.2741 36.3907 30.0969 36.7215L 32.7413 38.1382C 32.8869 37.8664 33.0415 37.5998 33.2046 37.3381L 30.659 35.7508ZM 31.4191 35.9298L 21.4716 35.9298L 21.4716 38.9298L 31.4191 38.9298L 31.4191 35.9298ZM 21.4716 35.9298C 20.109 35.9298 19.0042 37.0345 19.0042 38.3972L 22.0042 38.3972C 22.0042 38.6914 21.7658 38.9298 21.4716 38.9298L 21.4716 35.9298ZM 19.0042 38.3972C 19.0042 39.7598 20.109 40.8645 21.4716 40.8645L 21.4716 37.8645C 21.7658 37.8645 22.0042 38.103 22.0042 38.3972L 19.0042 38.3972ZM 21.4716 40.8645L 30.5482 40.8645L 30.5482 37.8645L 21.4716 37.8645L 21.4716 40.8645ZM 29.1437 38.8379C 29.1356 38.8594 29.1295 38.8773 29.1255 38.8892C 29.1235 38.8951 29.1219 38.8999 29.1209 38.903C 29.1204 38.9046 29.12 38.9059 29.1197 38.9067C 29.1195 38.9075 29.1192 38.9082 29.1192 38.9082C 29.119 38.9088 29.1197 38.9069 29.1204 38.9045C 29.1213 38.9019 29.1227 38.8976 29.1245 38.8922C 29.1281 38.8813 29.1339 38.8645 29.1416 38.8439L 31.9506 39.8973C 31.9587 39.8757 31.9649 39.8578 31.9688 39.846C 31.9708 39.8401 31.9724 39.8352 31.9734 39.8321C 31.9739 39.8306 31.9743 39.8293 31.9746 39.8284C 31.9749 39.8277 31.9751 39.827 31.9751 39.8269C 31.9753 39.8263 31.9747 39.8283 31.9739 39.8306C 31.9731 39.8332 31.9716 39.8376 31.9698 39.843C 31.9662 39.8538 31.9604 39.8707 31.9527 39.8912L 29.1437 38.8379ZM 29.1388 38.8514C 29.0597 39.066 28.9862 39.2803 28.9172 39.493L 31.7708 40.4187C 31.8294 40.238 31.89 40.0617 31.9534 39.8898L 29.1388 38.8514ZM 28.9167 39.4946C 28.9151 39.4996 28.9014 39.5413 28.8936 39.5658L 31.7533 40.4725C 31.759 40.4547 31.7593 40.4545 31.7713 40.4171L 28.9167 39.4946ZM 28.8945 39.5631C 28.8267 39.7755 28.7629 39.9897 28.7031 40.2063L 31.595 41.0044C 31.6441 40.8267 31.6965 40.6506 31.7525 40.4752L 28.8945 39.5631ZM 28.7022 40.2098C 28.6957 40.2335 28.6891 40.2583 28.6848 40.2743L 31.5822 41.0521C 31.5882 41.0297 31.5919 41.0158 31.596 41.0008L 28.7022 40.2098ZM 28.6859 40.2701C 28.5622 40.7255 28.456 41.1896 28.3698 41.6625L 31.3212 42.2004C 31.3915 41.8147 31.4786 41.4335 31.581 41.0564L 28.6859 40.2701ZM 28.3638 41.6975C 28.368 41.671 28.3722 41.6496 28.3749 41.6359C 28.3763 41.629 28.3775 41.6233 28.3783 41.6197C 28.379 41.6162 28.3796 41.6135 28.3797 41.6134C 28.3799 41.6123 28.3793 41.615 28.3788 41.6173C 28.3782 41.6201 28.3771 41.6252 28.3758 41.6315C 28.3732 41.6438 28.3689 41.6652 28.3645 41.6919L 31.3237 42.1851C 31.3194 42.2107 31.3153 42.2309 31.313 42.2421C 31.3118 42.2478 31.3108 42.2523 31.3104 42.2545C 31.31 42.2562 31.3095 42.2584 31.3099 42.2567C 31.3101 42.2559 31.3108 42.2527 31.3116 42.2486C 31.3125 42.2444 31.3139 42.2382 31.3154 42.2306C 31.3184 42.2158 31.3228 42.1931 31.3271 42.1654L 28.3638 41.6975ZM 29.8441 40.4385L 21.4716 40.4385L 21.4716 43.4385L 29.8441 43.4385L 29.8441 40.4385ZM 21.4716 40.4385C 20.109 40.4385 19.0042 41.5433 19.0042 42.9059L 22.0042 42.9059C 22.0042 43.2001 21.7658 43.4385 21.4716 43.4385L 21.4716 40.4385ZM 19.0042 42.9059C 19.0042 44.2685 20.109 45.3733 21.4716 45.3733L 21.4716 42.3733C 21.7658 42.3733 22.0042 42.6117 22.0042 42.9059L 19.0042 42.9059ZM 21.4716 45.3733L 29.6164 45.3733L 29.6164 42.3733L 21.4716 42.3733L 21.4716 45.3733ZM 28.1164 43.8733L 28.1164 43.8745L 31.1164 43.8745L 31.1164 43.8733L 28.1164 43.8733ZM 28.1187 43.7926C 28.1105 43.9425 28.1042 44.0927 28.1 44.2435L 31.0988 44.3278C 31.1023 44.2035 31.1074 44.0799 31.1142 43.9565L 28.1187 43.7926ZM 28.0999 44.2462C 28.1001 44.2408 28.1002 44.2367 28.1003 44.2346C 28.1003 44.2328 28.1004 44.2315 28.1003 44.2331C 28.1003 44.2339 28.1002 44.2376 28.1 44.2419C 28.0998 44.2464 28.0996 44.2529 28.0994 44.2608L 31.0984 44.3397C 31.0982 44.345 31.0981 44.3492 31.098 44.3513C 31.0979 44.353 31.0979 44.3544 31.0979 44.3528C 31.098 44.352 31.0981 44.3482 31.0983 44.344C 31.0984 44.3395 31.0987 44.3329 31.0989 44.3251L 28.0999 44.2462ZM 28.0994 44.2592C 28.0953 44.4126 28.0928 44.5683 28.0928 44.7261L 31.0928 44.7261C 31.0928 44.5991 31.0948 44.4709 31.0983 44.3412L 28.0994 44.2592ZM 28.0928 44.7261C 28.0928 44.8671 28.0948 45.0059 28.098 45.1414L 31.0972 45.071C 31.0944 44.9538 31.0928 44.8389 31.0928 44.7261L 28.0928 44.7261ZM 28.098 45.143C 28.0988 45.1739 28.0998 45.2027 28.1006 45.2244C 28.1015 45.2486 28.1021 45.2631 28.1025 45.2781L 31.1011 45.1861C 31.0985 45.1008 31.0983 45.1177 31.0971 45.0694L 28.098 45.143ZM 28.1026 45.2803C 28.1053 45.3646 28.1085 45.4604 28.1133 45.5584L 31.1097 45.4114C 31.1063 45.3413 31.1038 45.2683 31.1011 45.184L 28.1026 45.2803ZM 28.1132 45.5559C 28.116 45.615 28.1205 45.6861 28.1224 45.7183L 31.1174 45.5449C 31.1136 45.4792 31.1117 45.4529 31.1098 45.4139L 28.1132 45.5559ZM 28.1224 45.7188C 28.127 45.7968 28.1322 45.8841 28.1387 45.9737L 31.1307 45.7539C 31.1259 45.689 31.1218 45.6214 31.1174 45.5444L 28.1224 45.7188ZM 28.1386 45.9723C 28.1428 46.0297 28.1482 46.0938 28.1514 46.1332L 31.1418 45.893C 31.1369 45.8328 31.1338 45.7974 31.1308 45.7553L 28.1386 45.9723ZM 28.1516 46.136C 28.1583 46.2174 28.1657 46.3024 28.1742 46.3891L 31.16 46.098C 31.1535 46.0313 31.1475 45.9624 31.1415 45.8902L 28.1516 46.136ZM 28.1742 46.3892C 28.1793 46.4421 28.1848 46.495 28.1905 46.5479L 31.173 46.2246C 31.1685 46.1824 31.1641 46.1402 31.16 46.0979L 28.1742 46.3892ZM 28.1903 46.5457C 28.1997 46.6343 28.2098 46.7224 28.2205 46.8096L 31.1985 46.4474C 31.1895 46.3735 31.1811 46.2999 31.1733 46.2269L 28.1903 46.5457ZM 28.2209 46.8128C 28.2253 46.8484 28.2316 46.901 28.2384 46.9518L 31.212 46.5547C 31.2077 46.5225 31.204 46.4919 31.1981 46.4441L 28.2209 46.8128ZM 28.238 46.9485C 28.2511 47.0488 28.2651 47.1471 28.2792 47.2427L 31.247 46.8048C 31.2346 46.7204 31.223 46.6385 31.2125 46.5581L 28.238 46.9485ZM 28.2798 47.2472C 28.2815 47.258 28.2898 47.3148 28.2947 47.3465L 31.2591 46.8856C 31.2545 46.856 31.254 46.8511 31.2464 46.8003L 28.2798 47.2472ZM 28.2946 47.3456C 28.3135 47.4677 28.3337 47.5889 28.3549 47.7086L 31.309 47.1863C 31.2913 47.0859 31.2746 46.9859 31.2592 46.8865L 28.2946 47.3456ZM 28.3572 47.7214C 28.3562 47.7163 28.3556 47.7125 28.3552 47.7103C 28.3548 47.7082 28.3546 47.707 28.3547 47.7078C 28.3548 47.7081 28.3549 47.7086 28.3551 47.7097C 28.3552 47.7105 28.3555 47.7122 28.3557 47.7137C 28.3563 47.7169 28.3571 47.7221 28.3582 47.7281L 31.315 47.2212C 31.3153 47.2227 31.3154 47.2234 31.3152 47.2221C 31.3151 47.2213 31.3149 47.2207 31.3147 47.2193C 31.3145 47.2181 31.3142 47.2163 31.3139 47.2144C 31.3127 47.2074 31.3101 47.1919 31.3067 47.1736L 28.3572 47.7214ZM 28.36 47.7389C 28.9089 50.8065 30.2884 53.658 32.3592 55.9956L 34.6048 54.0063C 32.8998 52.0816 31.7649 49.7356 31.3131 47.2105L 28.36 47.7389ZM 33.482 53.501L 5.11157 53.501L 5.11157 56.501L 33.482 56.501L 33.482 53.501ZM 5.11157 53.501C 4.77822 53.501 3.59688 53.5559 2.49594 53.678C 1.94928 53.7386 1.35775 53.8224 0.879207 53.9409C 0.65224 53.9971 0.360212 54.0822 0.0936345 54.2202C -0.0378541 54.2882 -0.243218 54.4093 -0.433168 54.61C -0.631928 54.82 -0.888428 55.2025 -0.888428 55.7374L 2.11157 55.7374C 2.11157 56.2055 1.88605 56.5239 1.74565 56.6722C 1.61405 56.8112 1.49441 56.8732 1.47241 56.8846C 1.42479 56.9092 1.44677 56.8909 1.59994 56.853C 1.88167 56.7833 2.31498 56.7164 2.82654 56.6597C 3.84205 56.5471 4.91071 56.501 5.11157 56.501L 5.11157 53.501ZM -0.888428 55.7374C -0.888428 55.4262 -0.782849 55.2005 -0.719467 55.0904C -0.656269 54.9807 -0.595592 54.9172 -0.583936 54.905C -0.57433 54.895 -0.571498 54.8937 -0.694225 54.9955C -0.752801 55.0441 -0.970047 55.2182 -1.14119 55.4431C -1.29592 55.6466 -1.78829 56.4148 -1.28081 57.2896C -1.08403 57.6288 -0.811489 57.8215 -0.632106 57.9238C -0.446216 58.0299 -0.260894 58.0951 -0.112139 58.1382C 0.18387 58.2239 0.53453 58.2774 0.916699 58.316C 1.69476 58.3945 2.87217 58.4357 4.61176 58.4357L 4.61176 55.4357C 2.89135 55.4357 1.83874 55.3938 1.21802 55.3312C 0.900795 55.2991 0.759871 55.2675 0.722264 55.2566C 0.704211 55.2513 0.762217 55.2655 0.854052 55.3178C 0.939381 55.3665 1.15113 55.5032 1.31415 55.7842C 1.50261 56.109 1.53611 56.4709 1.46624 56.7787C 1.40727 57.0385 1.28879 57.2038 1.24649 57.2595C 1.17423 57.3544 1.11415 57.3933 1.22118 57.3045C 1.26406 57.2689 1.44094 57.1281 1.58319 56.9795C 1.66117 56.8981 1.77782 56.7655 1.88041 56.5873C 1.98318 56.4088 2.11157 56.1153 2.11157 55.7374L -0.888428 55.7374ZM 4.61176 58.4357L 35.5465 58.4357L 35.5465 55.4357L 4.61176 55.4357L 4.61176 58.4357ZM 34.6207 58.1158C 37.5103 60.3828 41.1528 61.7376 45.1034 61.7376L 45.1034 58.7376C 41.8499 58.7376 38.8542 57.6241 36.4724 55.7555L 34.6207 58.1158ZM 45.1034 61.7376C 54.4849 61.7376 62.1148 54.1076 62.1148 44.7261L 59.1148 44.7261C 59.1148 52.4508 52.828 58.7376 45.1034 58.7376L 45.1034 61.7376ZM 62.1148 44.7261C 62.1148 36.0253 55.5526 28.8352 47.1177 27.8349L 46.7644 30.814C 53.7096 31.6376 59.1148 37.5654 59.1148 44.7261L 62.1148 44.7261ZM 45.1034 56.8033C 39.2928 56.8033 34.4213 52.6735 33.2799 47.192L 30.3429 47.8035C 31.7676 54.6457 37.8405 59.8033 45.1034 59.8033L 45.1034 56.8033ZM 33.2806 47.1956C 33.2774 47.1799 33.2743 47.1652 33.2725 47.1571C 33.2704 47.1471 33.2697 47.1437 33.2692 47.1412L 30.3307 47.7455C 30.3339 47.7612 30.337 47.7759 30.3388 47.784C 30.3409 47.794 30.3416 47.7974 30.3422 47.7999L 33.2806 47.1956ZM 33.2699 47.1447C 33.256 47.0764 33.2425 47.0047 33.2276 46.9241L 30.2776 47.4697C 30.2931 47.5536 30.3106 47.6466 30.33 47.742L 33.2699 47.1447ZM 33.2277 46.9246C 33.2196 46.8808 33.2144 46.853 33.2094 46.8244L 30.2538 47.3384C 30.2622 47.3868 30.2714 47.4361 30.2775 47.4691L 33.2277 46.9246ZM 33.2089 46.8216C 33.1986 46.7626 33.1884 46.7007 33.1779 46.6345L 30.2149 47.1041C 30.2268 47.1794 30.2399 47.2594 30.2543 47.3411L 33.2089 46.8216ZM 33.1776 46.6325C 33.1703 46.5869 33.1635 46.5425 33.1571 46.4992L 30.1888 46.9339C 30.1974 46.9926 30.2063 47.0502 30.2152 47.1061L 33.1776 46.6325ZM 33.1569 46.498C 33.1486 46.4412 33.1408 46.3856 33.1335 46.3307L 30.1593 46.7229C 30.1688 46.795 30.1788 46.8658 30.1889 46.935L 33.1569 46.498ZM 33.1334 46.3296C 33.1266 46.2786 33.1201 46.2262 33.1136 46.1713L 30.1346 46.5259C 30.1423 46.5902 30.1504 46.6564 30.1594 46.724L 33.1334 46.3296ZM 33.1136 46.1712C 33.1065 46.1122 33.101 46.0652 33.0962 46.0196L 30.1126 46.3327C 30.1199 46.4026 30.128 46.4703 30.1346 46.526L 33.1136 46.1712ZM 33.0961 46.0188C 33.0902 45.9625 33.0845 45.9038 33.0788 45.841L 30.0913 46.1142C 30.0976 46.184 30.1047 46.2578 30.1126 46.3335L 33.0961 46.0188ZM 33.0787 45.8395C 33.0732 45.7808 33.0694 45.7404 33.0661 45.6991L 30.0756 45.938C 30.0808 46.0031 30.087 46.0684 30.0914 46.1157L 33.0787 45.8395ZM 33.066 45.698C 33.0614 45.6409 33.0575 45.5806 33.053 45.5085L 30.0588 45.6957C 30.0633 45.768 30.0687 45.8523 30.0757 45.9391L 33.066 45.698ZM 33.0528 45.5063C 33.0486 45.4405 33.0466 45.4148 33.0443 45.3734L 30.0489 45.5407C 30.052 45.5962 30.057 45.667 30.059 45.6979L 33.0528 45.5063ZM 33.0444 45.3764C 33.0409 45.3109 33.0384 45.2422 33.0355 45.1603L 30.0373 45.2645C 30.0402 45.3458 30.0435 45.4405 30.0488 45.5378L 33.0444 45.3764ZM 33.0355 45.1592C 33.0327 45.0795 33.0324 45.0913 33.0314 45.0541L 30.0324 45.1312C 30.0335 45.1742 30.0374 45.2654 30.0374 45.2656L 33.0355 45.1592ZM 33.0314 45.053C 33.0285 44.9428 33.0269 44.8338 33.0269 44.7261L 30.0269 44.7261C 30.0269 44.8632 30.0289 44.9988 30.0324 45.1323L 33.0314 45.053ZM 33.0269 44.7261C 33.0269 38.0682 38.4458 32.6494 45.1037 32.6494L 45.1037 29.6494C 36.7889 29.6494 30.0269 36.4114 30.0269 44.7261L 33.0269 44.7261ZM 45.1037 32.6494C 45.2176 32.6494 45.3332 32.6512 45.4526 32.6547L 45.5425 29.6561C 45.3952 29.6517 45.2496 29.6494 45.1037 29.6494L 45.1037 32.6494ZM 45.4687 32.6551C 45.4608 32.655 45.4544 32.6548 45.4501 32.6546C 45.4459 32.6545 45.4429 32.6544 45.4423 32.6543C 45.442 32.6543 45.442 32.6543 45.4426 32.6543C 45.4428 32.6544 45.4444 32.6544 45.4456 32.6545C 45.4483 32.6546 45.4535 32.6548 45.4598 32.6551L 45.5751 29.6573C 45.5781 29.6574 45.58 29.6575 45.5794 29.6575C 45.5788 29.6574 45.5788 29.6574 45.5774 29.6574C 45.5763 29.6573 45.5746 29.6573 45.5726 29.6572C 45.5655 29.6569 45.5479 29.6561 45.5263 29.6557L 45.4687 32.6551ZM 45.4691 32.6554C 45.5845 32.6591 45.7019 32.6644 45.8227 32.6714L 45.9979 29.6765C 45.8498 29.6679 45.7062 29.6615 45.5658 29.657L 45.4691 32.6554ZM 45.8221 32.6714C 52.1467 33.044 57.1805 38.3102 57.1805 44.7261L 60.1805 44.7261C 60.1805 36.7112 53.898 30.1419 45.9985 29.6766L 45.8221 32.6714ZM 57.1805 44.7261C 57.1802 51.3843 51.7611 56.8033 45.1034 56.8033L 45.1034 59.8033C 53.4181 59.8033 60.1802 53.0411 60.1805 44.7262L 57.1805 44.7261Z"/>
<path id="path14_fill" d="M 8.71289 4.25351C 9.28136 4.25351 9.74194 3.79293 9.74194 3.22446C 9.74194 2.65598 9.28136 2.1954 8.71289 2.1954L 5.90003 2.1954L 5.90003 1.02906C 5.90003 0.460581 5.43945 1.96695e-09 4.87097 1.96695e-09C 4.3025 1.96695e-09 3.84191 0.460581 3.84191 1.02906L 3.84191 2.1954L 2.95002 2.1954C 1.62602 2.1954 0.548753 3.27267 0.548753 4.59666L 0.548753 6.79206C 0.548753 8.11605 1.62602 9.19332 2.95002 9.19332L 3.84191 9.19332L 3.84191 12.0748L 1.02906 12.0748C 0.460581 12.0748 -3.61919e-07 12.5353 -3.61919e-07 13.1038C -3.61919e-07 13.6723 0.460581 14.1329 1.02906 14.1329L 3.84191 14.1329L 3.84191 15.2992C 3.84191 15.8677 4.3025 16.3283 4.87097 16.3283C 5.43945 16.3283 5.90003 15.8677 5.90003 15.2992L 5.90003 14.1329L 6.79193 14.1329C 8.11592 14.1329 9.19319 13.0556 9.19319 11.7316L 9.19319 9.53621C 9.19319 8.21222 8.11592 7.13495 6.79193 7.13495L 5.90003 7.13495L 5.90003 4.25351L 8.71289 4.25351ZM 3.84179 7.13508L 2.94989 7.13508C 2.76065 7.13508 2.60687 6.98129 2.60687 6.79206L 2.60687 4.59666C 2.60687 4.40743 2.76065 4.25364 2.94989 4.25364L 3.84179 4.25364L 3.84179 7.13508ZM 6.7918 9.19332C 6.98103 9.19332 7.13482 9.3471 7.13482 9.53634L 7.13482 11.7317C 7.13482 11.921 6.98103 12.0748 6.7918 12.0748L 5.8999 12.0748L 5.8999 9.19332L 6.7918 9.19332L 6.7918 9.19332Z"/>
</defs>
</svg>
