<svg width="71" height="101" viewBox="0 0 71 101" version="1.1" xmlns="http://www.w3.org/2000/svg" xmlns:xlink="http://www.w3.org/1999/xlink">
<title>checked-2</title>
<desc>Created using Figma</desc>
<g id="Canvas" transform="translate(-1720 -296)">
<g id="checked-2">
<g id="Group">
<g id="Group">
<g id="Vector">
<use xlink:href="#path0_fill" transform="translate(1720 296)" fill="#6A707E"/>
</g>
</g>
</g>
<g id="Group">
<g id="Group">
<g id="Vector">
<use xlink:href="#path1_fill" transform="translate(1780.29 347.146)" fill="#6A707E"/>
</g>
</g>
</g>
<g id="Group">
<g id="Group">
<g id="Vector">
<use xlink:href="#path2_fill" transform="translate(1742.49 347.146)" fill="#6A707E"/>
</g>
</g>
</g>
<g id="Group">
<g id="Group">
<g id="Vector">
<use xlink:href="#path3_fill" transform="translate(1760.06 338.974)" fill="#6A707E"/>
</g>
</g>
</g>
<g id="Group">
<g id="Group">
<g id="Vector">
<use xlink:href="#path3_fill" transform="matrix(6.12323e-17 1 -1 6.12323e-17 1737.84 360)" fill="#6A707E"/>
</g>
</g>
</g>
<g id="Group">
<g id="Group">
<g id="Vector">
<use xlink:href="#path3_fill" transform="matrix(6.12323e-17 1 -1 6.12323e-17 1762.84 360)" fill="#6A707E"/>
</g>
</g>
</g>
<g id="Group">
<g id="Group">
<g id="Vector">
<use xlink:href="#path4_fill" transform="matrix(6.12323e-17 1 -1 6.12323e-17 1750 360)" fill="#6A707E"/>
</g>
</g>
</g>
<g id="Group">
<g id="Group">
<g id="Vector">
<use xlink:href="#path4_fill" transform="matrix(6.12323e-17 1 -1 6.12323e-17 1776 360)" fill="#6A707E"/>
</g>
</g>
</g>
<g id="Group">
<g id="Group">
<g id="Vector">
<use xlink:href="#path5_fill" transform="translate(1728.02 325.436)" fill="#D32E28"/>
</g>
</g>
</g>
</g>
</g>
<defs>
<path id="path0_fill" d="M 66.0143 22.4446L 55.5766 22.4446L 69.8655 8.12153C 70.597 7.38786 71 6.41273 71 5.37562C 71 4.3385 70.597 3.36337 69.8654 2.62984L 68.3747 1.13553C 66.8643 -0.378512 64.4066 -0.378512 62.896 1.13553L 41.638 22.4446L 4.55703 22.4446C 2.0443 22.4446 0 24.4939 0 27.0128L 0 55.4319C 0 57.9508 2.0443 60 4.55703 60L 66.0143 60C 68.5271 60 70.5714 57.9508 70.5714 55.4319L 70.5714 27.0128C 70.5714 24.4939 68.5271 22.4446 66.0143 22.4446ZM 64.8962 3.14055C 65.3036 2.73229 65.9669 2.73201 66.3743 3.14055L 67.865 4.63486C 68.0625 4.8328 68.1712 5.0958 68.1712 5.37562C 68.1712 5.65557 68.0625 5.91857 67.865 6.11651L 64.2439 9.74636L 61.7011 7.19756L 61.2751 6.77053L 64.8962 3.14055ZM 59.275 8.77513L 62.2438 11.7511L 33.9641 40.099L 29.5109 41.5869L 30.9952 37.1231L 59.275 8.77513ZM 67.7426 55.4319C 67.7426 56.3871 66.9673 57.1644 66.0143 57.1644L 4.55703 57.1644C 3.60408 57.1644 2.82877 56.3872 2.82877 55.4319L 2.82877 27.0128C 2.82877 26.0575 3.60408 25.2802 4.55703 25.2802L 38.8094 25.2802L 28.759 35.3549C 28.6037 35.5106 28.4868 35.7005 28.4173 35.9091L 25.9329 43.3805C 25.7634 43.89 25.8957 44.4517 26.2746 44.8313C 26.5442 45.1015 26.9057 45.2465 27.275 45.2465C 27.4246 45.2465 27.5755 45.2228 27.722 45.1737L 35.1755 42.6834C 35.3838 42.6138 35.5731 42.4966 35.7284 42.3409L 52.7479 25.2803L 66.0142 25.2803C 66.9671 25.2803 67.7425 26.0575 67.7425 27.0129L 67.7425 55.4319L 67.7426 55.4319Z"/>
<path id="path1_fill" d="M 2.25744 1.2896e-06L 1.41431 1.2896e-06C 0.633175 1.2896e-06 -1.38807e-06 0.63484 -1.38807e-06 1.41772C -1.38807e-06 2.2006 0.633175 2.83543 1.41431 2.83543L 2.25744 2.83543C 3.03858 2.83543 3.67175 2.2006 3.67175 1.41772C 3.67175 0.63484 3.03858 1.2896e-06 2.25744 1.2896e-06Z"/>
<path id="path2_fill" d="M 33.5991 1.2896e-06L 1.41431 1.2896e-06C 0.633176 1.2896e-06 -6.26326e-07 0.63484 -6.26326e-07 1.41772C -6.26326e-07 2.2006 0.633176 2.83543 1.41431 2.83543L 33.5991 2.83543C 34.3802 2.83543 35.0134 2.2006 35.0134 1.41772C 35.0134 0.63484 34.3802 1.2896e-06 33.5991 1.2896e-06Z"/>
<path id="path3_fill" d="M 22.496 1.76472e-06L 1.41432 1.76472e-06C 0.633177 1.76472e-06 8.46386e-07 0.634836 8.46386e-07 1.41771C 8.46386e-07 2.20059 0.633177 2.83543 1.41432 2.83543L 22.496 2.83543C 23.2772 2.83543 23.9104 2.20059 23.9104 1.41771C 23.9104 0.634836 23.2772 1.76472e-06 22.496 1.76472e-06Z"/>
<path id="path4_fill" d="M 34.8114 1.86714e-06L 2.18858 1.86714e-06C 0.979808 1.86714e-06 1.30974e-06 0.671682 1.30974e-06 1.5C 1.30974e-06 2.32831 0.979808 3 2.18858 3L 34.8114 3C 36.0202 3 37 2.32831 37 1.5C 37 0.671682 36.0202 1.86714e-06 34.8114 1.86714e-06Z"/>
<path id="path5_fill" d="M 6.89726 8.9336L 6.89726 3.67683C 8.70554 3.80639 9.37713 4.63513 9.99713 4.63513C 10.772 4.63513 11.1338 3.65112 11.1338 3.15918C 11.1338 1.89034 8.65396 1.34654 6.89726 1.29483L 6.89726 0.595638C 6.89726 0.284822 6.50967 -9.50232e-07 6.12236 -9.50232e-07C 5.68319 -9.50232e-07 5.37312 0.284822 5.37312 0.595638L 5.37312 1.34669C 2.9189 1.60551 0.464967 2.90021 0.464967 6.16308C 0.464967 9.47766 3.04829 10.41 5.37312 11.2386L 5.37312 17.3238C 2.73822 17.1167 2.0407 15.3039 1.18828 15.3039C 0.542484 15.3039 -1.35422e-07 16.1584 -1.35422e-07 16.7799C -1.35422e-07 18.0487 2.16994 19.7838 5.37326 19.8355L 5.37326 20.6383C 5.37326 20.9489 5.68333 21.2339 6.1225 21.2339C 6.51009 21.2339 6.8974 20.9489 6.8974 20.6383L 6.8974 19.7578C 9.68734 19.3693 11.5989 17.6085 11.5989 14.4233C 11.5989 10.9015 9.14472 9.76221 6.89726 8.9336ZM 5.52815 8.44166C 4.15905 7.92386 3.04829 7.38007 3.04829 5.90397C 3.04829 4.55743 4.08167 3.91022 5.52815 3.72882L 5.52815 8.44166ZM 6.74223 17.2717L 6.74223 11.8078C 8.00802 12.3516 9.01547 13.0767 9.01547 14.7082C 9.01561 16.1841 8.13727 17.0129 6.74223 17.2717Z"/>
</defs>
</svg>
