<svg width="66" height="66" viewBox="0 0 66 66" version="1.1" xmlns="http://www.w3.org/2000/svg" xmlns:xlink="http://www.w3.org/1999/xlink">
<title>caixa</title>
<desc>Created using Figma</desc>
<g id="Canvas" transform="translate(-3413 5526)">
<g id="caixa">
<g id="Group">
<g id="Group">
<g id="Vector">
<mask id="mask0_outline_ins">
<use xlink:href="#path0_fill" fill="white" transform="translate(3413 -5526)"/>
</mask>
<g mask="url(#mask0_outline_ins)">
<use xlink:href="#path1_stroke_2x" transform="translate(3413 -5526)" fill="#4D4D4D"/>
</g>
</g>
</g>
</g>
<g id="Group">
<g id="Group">
<g id="Vector">
<use xlink:href="#path2_fill" transform="translate(3450 -5522)" fill="#4D4D4D"/>
</g>
</g>
</g>
<g id="Group">
<g id="Group">
<g id="Vector">
<use xlink:href="#path3_fill" transform="translate(3442 -5471)" fill="#4D4D4D"/>
</g>
</g>
</g>
<g id="Group">
<g id="Group">
<g id="Vector">
<use xlink:href="#path4_fill" transform="translate(3459.09 -5483.48)" fill="#4D4D4D"/>
</g>
</g>
</g>
<g id="Group">
<g id="Group">
<g id="Vector">
<use xlink:href="#path5_fill" transform="translate(3467.11 -5483.48)" fill="#4D4D4D"/>
</g>
</g>
</g>
<g id="Group">
<g id="Group">
<g id="Vector">
<use xlink:href="#path6_fill" transform="translate(3451.07 -5490)" fill="#4D4D4D"/>
</g>
</g>
</g>
<g id="Group">
<g id="Group">
<g id="Vector">
<use xlink:href="#path7_fill" transform="translate(3459.09 -5490)" fill="#4D4D4D"/>
</g>
</g>
</g>
<g id="Group">
<g id="Group">
<g id="Vector">
<use xlink:href="#path8_fill" transform="translate(3435.04 -5483.48)" fill="#4D4D4D"/>
</g>
</g>
</g>
<g id="Group">
<g id="Group">
<g id="Vector">
<use xlink:href="#path9_fill" transform="translate(3435.04 -5490)" fill="#4D4D4D"/>
</g>
</g>
</g>
<g id="Group">
<g id="Group">
<g id="Vector">
<use xlink:href="#path9_fill" transform="translate(3443.06 -5490)" fill="#4D4D4D"/>
</g>
</g>
</g>
<g id="Group">
<g id="Group">
<g id="Vector">
<use xlink:href="#path10_fill" transform="translate(3419 -5483.48)" fill="#4D4D4D"/>
</g>
</g>
</g>
<g id="Group">
<g id="Group">
<g id="Vector">
<use xlink:href="#path11_fill" transform="translate(3427.02 -5483.48)" fill="#4D4D4D"/>
</g>
</g>
</g>
<g id="Group">
<g id="Group">
<g id="Vector">
<use xlink:href="#path12_fill" transform="translate(3419 -5490)" fill="#4D4D4D"/>
</g>
</g>
</g>
<g id="Group">
<g id="Group">
<g id="Vector">
<use xlink:href="#path13_fill" transform="translate(3427.02 -5490)" fill="#4D4D4D"/>
</g>
</g>
</g>
<g id="Group">
<g id="Group">
<g id="Vector">
<use xlink:href="#path14_fill" transform="translate(3467.11 -5490)" fill="#4D4D4D"/>
</g>
</g>
</g>
<g id="Group">
<g id="Group">
<g id="Vector">
<use xlink:href="#path15_fill" transform="translate(3449 -5502)" fill="#4D4D4D"/>
</g>
</g>
</g>
<g id="Group">
<g id="Group">
<g id="Vector">
<use xlink:href="#path16_fill" transform="translate(3427.54 -5503.5)" fill="#4D4D4D"/>
</g>
</g>
</g>
<g id="Group">
<g id="Group">
<g id="Vector">
<use xlink:href="#path17_fill" transform="translate(3427.54 -5499.11)" fill="#4D4D4D"/>
</g>
</g>
</g>
<g id="Group">
<g id="Group">
<g id="Vector">
<use xlink:href="#path18_fill" transform="translate(3427.27 -5521.88)" fill="#4D4D4D"/>
</g>
</g>
</g>
</g>
</g>
<defs>
<path id="path0_fill" d="M 62.6382 15.2308C 64.3405 15.2308 65.7255 13.8457 65.7255 12.1435L 65.7255 3.0873C 65.7255 1.38497 64.3404 0 62.6382 0L 36.0187 0C 34.3164 0 32.9314 1.3851 32.9314 3.0873L 32.9314 12.1435C 32.9314 13.8458 34.3165 15.2308 36.0187 15.2308L 48.2993 15.2308L 48.2993 19.7588L 28.815 19.7588L 28.815 3.0873C 28.815 1.38497 27.4299 0 25.7277 0L 12.2808 0C 10.5784 0 9.19347 1.3851 9.19347 3.0873L 9.19347 19.7588L 5.14556 19.7588C 2.30821 19.7588 2.28733e-05 22.067 2.28733e-05 24.9044L 2.28733e-05 55.0915C 2.28733e-05 55.6599 0.460604 61.5 1.02908 61.5C 1.59756 61.5 2.05839 61.0685 2.05839 60.5C 2.05839 59.9315 2.05814 52.553 2.05814 52.553L 51 52.5C 51.5685 52.5 49.5 52.0685 49.5 51.5C 49.5 50.9315 49.5685 50.5 49 50.5L 2.05827 50.4949L 2.05827 24.9045C 2.05827 23.2022 3.44336 21.8172 5.14556 21.8172L 9.19334 21.8172L 9.19334 31.285L 6.24333 31.285C 5.67485 31.285 5.21427 31.7456 5.21427 32.314C 5.21427 32.8825 5.67485 33.3431 6.24333 33.3431L 31.7652 33.3431C 32.3336 33.3431 32.7942 32.8825 32.7942 32.314C 32.7942 31.7456 32.3336 31.285 31.7652 31.285L 28.815 31.285L 28.815 21.8172L 60.5801 21.8172C 62.2824 21.8172 63.6674 23.2023 63.6674 24.9045L 63.6674 50.4949L 48.7796 50.4949C 48.2111 50.4949 47.7505 50.9555 47.7505 51.524C 47.7505 52.0925 43.9315 52.507 44.5 52.507L 63.6674 52.553L 63.6674 62.9127C 63.6674 63.4803 63.2057 63.9418 62.6383 63.9418L 3.08745 63.9418C 2.51988 63.9418 2.05839 63.4802 2.05839 62.9127L 2.05839 59.7568C 2.05839 59.1884 1.59756 53.5 1.02908 53.5C 0.460604 53.5 0 53.9315 0 54.5L 0.000280663 62.9127C 0.000280663 64.615 1.38538 66 3.08758 66L 62.6384 66C 64.3408 66 65.7257 64.6149 65.7257 62.9127L 65.7257 24.9044C 65.7257 22.067 63.4175 19.7588 60.5802 19.7588L 50.3578 19.7588L 50.3578 15.2308L 62.6382 15.2308ZM 26.7568 31.2847L 11.2516 31.2847L 11.2516 3.0873C 11.2516 2.51973 11.7132 2.05824 12.2806 2.05824L 25.7276 2.05824C 26.2952 2.05824 26.7567 2.51985 26.7567 3.0873L 26.7568 31.2847ZM 36.0187 13.1725C 35.4511 13.1725 34.9896 12.7109 34.9896 12.1435L 34.9896 3.0873C 34.9896 2.51973 35.4512 2.05824 36.0187 2.05824L 62.6382 2.05824C 63.2057 2.05824 63.6672 2.51985 63.6672 3.0873L 63.6672 12.1435C 63.6672 12.711 63.2056 13.1725 62.6382 13.1725L 36.0187 13.1725Z"/>
<path id="path1_stroke_2x" d="M 48.2993 15.2308L 49.7993 15.2308L 49.7993 13.7308L 48.2993 13.7308L 48.2993 15.2308ZM 48.2993 19.7588L 48.2993 21.2588L 49.7993 21.2588L 49.7993 19.7588L 48.2993 19.7588ZM 28.815 19.7588L 27.315 19.7588L 27.315 21.2588L 28.815 21.2588L 28.815 19.7588ZM 9.19347 19.7588L 9.19347 21.2588L 10.6935 21.2588L 10.6935 19.7588L 9.19347 19.7588ZM 2.05814 52.553L 2.05651 51.053L 0.558084 51.0547L 0.558136 52.5531L 2.05814 52.553ZM 51 52.5L 51 51L 50.9984 51L 51 52.5ZM 49 50.5L 48.9999 52L 49 52L 49 50.5ZM 2.05827 50.4949L 0.558265 50.4949L 0.558265 51.9948L 2.0581 51.9949L 2.05827 50.4949ZM 9.19334 21.8172L 10.6933 21.8172L 10.6933 20.3172L 9.19334 20.3172L 9.19334 21.8172ZM 9.19334 31.285L 9.19334 32.785L 10.6933 32.785L 10.6933 31.285L 9.19334 31.285ZM 28.815 31.285L 27.315 31.285L 27.315 32.785L 28.815 32.785L 28.815 31.285ZM 28.815 21.8172L 28.815 20.3172L 27.315 20.3172L 27.315 21.8172L 28.815 21.8172ZM 63.6674 50.4949L 63.6674 51.9949L 65.1674 51.9949L 65.1674 50.4949L 63.6674 50.4949ZM 44.5 52.507L 44.5036 51.007L 44.5 51.007L 44.5 52.507ZM 63.6674 52.553L 65.1674 52.553L 65.1674 51.0566L 63.671 51.0531L 63.6674 52.553ZM 0 54.5L -1.5 54.5L -1.5 54.5001L 0 54.5ZM 0.000280663 62.9127L 1.50028 62.9127L 1.50028 62.9127L 0.000280663 62.9127ZM 50.3578 19.7588L 48.8578 19.7588L 48.8578 21.2588L 50.3578 21.2588L 50.3578 19.7588ZM 50.3578 15.2308L 50.3578 13.7308L 48.8578 13.7308L 48.8578 15.2308L 50.3578 15.2308ZM 26.7568 31.2847L 26.7568 32.7847L 28.2568 32.7847L 28.2568 31.2847L 26.7568 31.2847ZM 11.2516 31.2847L 9.75158 31.2847L 9.75158 32.7847L 11.2516 32.7847L 11.2516 31.2847ZM 26.7567 3.0873L 25.2567 3.0873L 25.2567 3.08731L 26.7567 3.0873ZM 62.6382 16.7308C 65.169 16.7308 67.2255 14.6741 67.2255 12.1435L 64.2255 12.1435C 64.2255 13.0173 63.512 13.7308 62.6382 13.7308L 62.6382 16.7308ZM 67.2255 12.1435L 67.2255 3.0873L 64.2255 3.0873L 64.2255 12.1435L 67.2255 12.1435ZM 67.2255 3.0873C 67.2255 0.556496 65.1687 -1.5 62.6382 -1.5L 62.6382 1.5C 63.512 1.5 64.2255 2.21344 64.2255 3.0873L 67.2255 3.0873ZM 62.6382 -1.5L 36.0187 -1.5L 36.0187 1.5L 62.6382 1.5L 62.6382 -1.5ZM 36.0187 -1.5C 33.4879 -1.5 31.4314 0.556709 31.4314 3.0873L 34.4314 3.0873C 34.4314 2.21348 35.1448 1.5 36.0187 1.5L 36.0187 -1.5ZM 31.4314 3.0873L 31.4314 12.1435L 34.4314 12.1435L 34.4314 3.0873L 31.4314 3.0873ZM 31.4314 12.1435C 31.4314 14.6743 33.4881 16.7308 36.0187 16.7308L 36.0187 13.7308C 35.1449 13.7308 34.4314 13.0173 34.4314 12.1435L 31.4314 12.1435ZM 36.0187 16.7308L 48.2993 16.7308L 48.2993 13.7308L 36.0187 13.7308L 36.0187 16.7308ZM 46.7993 15.2308L 46.7993 19.7588L 49.7993 19.7588L 49.7993 15.2308L 46.7993 15.2308ZM 48.2993 18.2588L 28.815 18.2588L 28.815 21.2588L 48.2993 21.2588L 48.2993 18.2588ZM 30.315 19.7588L 30.315 3.0873L 27.315 3.0873L 27.315 19.7588L 30.315 19.7588ZM 30.315 3.0873C 30.315 0.556498 28.2583 -1.5 25.7277 -1.5L 25.7277 1.5C 26.6015 1.5 27.315 2.21343 27.315 3.0873L 30.315 3.0873ZM 25.7277 -1.5L 12.2808 -1.5L 12.2808 1.5L 25.7277 1.5L 25.7277 -1.5ZM 12.2808 -1.5C 9.74997 -1.5 7.69347 0.556709 7.69347 3.0873L 10.6935 3.0873C 10.6935 2.21348 11.4069 1.5 12.2808 1.5L 12.2808 -1.5ZM 7.69347 3.0873L 7.69347 19.7588L 10.6935 19.7588L 10.6935 3.0873L 7.69347 3.0873ZM 9.19347 18.2588L 5.14556 18.2588L 5.14556 21.2588L 9.19347 21.2588L 9.19347 18.2588ZM 5.14556 18.2588C 1.47979 18.2588 -1.49998 21.2386 -1.49998 24.9044L 1.50002 24.9044C 1.50002 22.8955 3.13664 21.2588 5.14556 21.2588L 5.14556 18.2588ZM -1.49998 24.9044L -1.49998 55.0915L 1.50002 55.0915L 1.50002 24.9044L -1.49998 24.9044ZM -1.49998 55.0915C -1.49998 55.4727 -1.37479 57.1513 -1.18766 58.69C -1.09296 59.4686 -0.975223 60.274 -0.836106 60.9027C -0.769022 61.2059 -0.681819 61.5396 -0.56297 61.8249C -0.50674 61.9598 -0.407998 62.1722 -0.243862 62.3758C -0.106297 62.5464 0.31331 63 1.02908 63L 1.02908 60C 1.67379 60 2.02318 60.408 2.09154 60.4927C 2.18648 60.6105 2.21703 60.6969 2.20627 60.671C 2.19112 60.6347 2.14907 60.5078 2.09303 60.2545C 1.98591 59.7704 1.88191 59.0803 1.7904 58.3278C 1.70012 57.5855 1.62661 56.8218 1.57573 56.2086C 1.55032 55.9024 1.53085 55.6372 1.51786 55.4342C 1.51135 55.3326 1.50665 55.2493 1.50365 55.186C 1.50033 55.1161 1.50002 55.0895 1.50002 55.0915L -1.49998 55.0915ZM 1.02908 63C 2.36867 63 3.55839 61.9531 3.55839 60.5L 0.558394 60.5C 0.558394 60.3639 0.618394 60.2269 0.717748 60.1315C 0.813345 60.0396 0.929375 60 1.02908 60L 1.02908 63ZM 3.55839 60.5C 3.55839 60.2157 3.55833 58.2289 3.55827 56.3133C 3.55823 55.3555 3.5582 54.4154 3.55818 53.7148C 3.55816 53.3645 3.55815 53.074 3.55815 52.8711C 3.55814 52.7697 3.55814 52.6902 3.55814 52.636C 3.55814 52.6089 3.55814 52.5882 3.55814 52.5742C 3.55814 52.5672 3.55814 52.5619 3.55814 52.5583C 3.55814 52.5566 3.55814 52.5552 3.55814 52.5543C 3.55814 52.5539 3.55814 52.5536 3.55814 52.5533C 3.55814 52.5532 3.55814 52.5531 3.55814 52.5531C 3.55814 52.553 3.55814 52.553 2.05814 52.553C 0.558136 52.5531 0.558136 52.5531 0.558136 52.5532C 0.558136 52.5532 0.558136 52.5533 0.558136 52.5534C 0.558136 52.5537 0.558136 52.554 0.558136 52.5544C 0.558136 52.5553 0.558136 52.5567 0.558136 52.5584C 0.558137 52.562 0.558137 52.5673 0.558137 52.5743C 0.558137 52.5883 0.558138 52.609 0.558139 52.6361C 0.558141 52.6903 0.558144 52.7698 0.558147 52.8713C 0.558154 53.0741 0.558164 53.3646 0.558176 53.7149C 0.558201 54.4155 0.558233 55.3556 0.558265 56.3134C 0.55833 58.2291 0.558394 60.2158 0.558394 60.5L 3.55839 60.5ZM 2.05976 54.053L 51.0016 54L 50.9984 51L 2.05651 51.053L 2.05976 54.053ZM 51 54C 51.0518 54 51.2049 54 51.3784 53.9644C 51.4454 53.9506 51.685 53.9007 51.9366 53.73C 52.076 53.6354 52.2773 53.4644 52.4248 53.1847C 52.5847 52.8816 52.6305 52.546 52.5783 52.2334C 52.4908 51.7093 52.1611 51.4147 52.0993 51.3587C 51.9884 51.258 51.8856 51.1946 51.8388 51.1668C 51.7384 51.1072 51.6446 51.0658 51.6014 51.0471C 51.5043 51.0051 51.3863 50.9608 51.305 50.9302C 51.2087 50.8938 51.1164 50.859 51.0217 50.821C 50.8147 50.738 50.6881 50.675 50.6324 50.6388C 50.604 50.6203 50.6605 50.6508 50.7377 50.743C 50.815 50.8353 51 51.0965 51 51.5L 48 51.5C 48 52.0456 48.2497 52.4447 48.4378 52.6693C 48.626 52.894 48.8396 53.0514 48.9963 53.1534C 49.3107 53.3579 49.6657 53.5094 49.9047 53.6053C 50.0331 53.6568 50.1549 53.7026 50.2454 53.7368C 50.293 53.7548 50.3298 53.7687 50.3608 53.7807C 50.3758 53.7866 50.3874 53.7912 50.3962 53.7947C 50.4006 53.7965 50.4039 53.7979 50.4062 53.7988C 50.4086 53.7998 50.4097 53.8003 50.4096 53.8003C 50.4096 53.8002 50.4078 53.7995 50.4047 53.7981C 50.4016 53.7967 50.3962 53.7942 50.389 53.7907C 50.3773 53.785 50.3468 53.7699 50.3066 53.746C 50.2757 53.7277 50.1855 53.673 50.0834 53.5804C 50.0303 53.5323 49.7057 53.245 49.6193 52.7273C 49.5676 52.418 49.6129 52.0853 49.7713 51.7851C 49.9173 51.5083 50.1161 51.3399 50.2519 51.2477C 50.4963 51.0819 50.7244 51.0361 50.7753 51.0256C 50.8597 51.0083 50.9239 51.0035 50.9479 51.0019C 50.9771 51 50.9962 51 51 51L 51 54ZM 51 51.5C 51 51.4373 51.0041 51.2011 51.0015 51.0732C 50.9984 50.9204 50.9873 50.6457 50.8994 50.3539C 50.8008 50.0268 50.5879 49.6221 50.1538 49.3308C 49.7469 49.0577 49.3156 49 49 49L 49 52C 48.9686 52 48.742 51.9962 48.4821 51.8219C 48.1951 51.6292 48.0717 51.3679 48.027 51.2197C 47.993 51.1068 48.0004 51.0466 48.0022 51.1346C 48.0029 51.1688 48.0027 51.2115 48.002 51.2766C 48.0013 51.3349 48 51.4176 48 51.5L 51 51.5ZM 49.0002 49L 2.05843 48.9949L 2.0581 51.9949L 48.9999 52L 49.0002 49ZM 3.55827 50.4949L 3.55827 24.9045L 0.558265 24.9045L 0.558265 50.4949L 3.55827 50.4949ZM 3.55827 24.9045C 3.55827 24.0306 4.27175 23.3172 5.14556 23.3172L 5.14556 20.3172C 2.61497 20.3172 0.558265 22.3737 0.558265 24.9045L 3.55827 24.9045ZM 5.14556 23.3172L 9.19334 23.3172L 9.19334 20.3172L 5.14556 20.3172L 5.14556 23.3172ZM 7.69334 21.8172L 7.69334 31.285L 10.6933 31.285L 10.6933 21.8172L 7.69334 21.8172ZM 9.19334 29.785L 6.24333 29.785L 6.24333 32.785L 9.19334 32.785L 9.19334 29.785ZM 6.24333 29.785C 4.84643 29.785 3.71427 30.9171 3.71427 32.314L 6.71427 32.314C 6.71427 32.574 6.50328 32.785 6.24333 32.785L 6.24333 29.785ZM 3.71427 32.314C 3.71427 33.7109 4.84643 34.8431 6.24333 34.8431L 6.24333 31.8431C 6.50328 31.8431 6.71427 32.0541 6.71427 32.314L 3.71427 32.314ZM 6.24333 34.8431L 31.7652 34.8431L 31.7652 31.8431L 6.24333 31.8431L 6.24333 34.8431ZM 31.7652 34.8431C 33.1621 34.8431 34.2942 33.7109 34.2942 32.314L 31.2942 32.314C 31.2942 32.0541 31.5052 31.8431 31.7652 31.8431L 31.7652 34.8431ZM 34.2942 32.314C 34.2942 30.9171 33.1621 29.785 31.7652 29.785L 31.7652 32.785C 31.5052 32.785 31.2942 32.574 31.2942 32.314L 34.2942 32.314ZM 31.7652 29.785L 28.815 29.785L 28.815 32.785L 31.7652 32.785L 31.7652 29.785ZM 30.315 31.285L 30.315 21.8172L 27.315 21.8172L 27.315 31.285L 30.315 31.285ZM 28.815 23.3172L 60.5801 23.3172L 60.5801 20.3172L 28.815 20.3172L 28.815 23.3172ZM 60.5801 23.3172C 61.4539 23.3172 62.1674 24.0307 62.1674 24.9045L 65.1674 24.9045C 65.1674 22.3739 63.1109 20.3172 60.5801 20.3172L 60.5801 23.3172ZM 62.1674 24.9045L 62.1674 50.4949L 65.1674 50.4949L 65.1674 24.9045L 62.1674 24.9045ZM 63.6674 48.9949L 48.7796 48.9949L 48.7796 51.9949L 63.6674 51.9949L 63.6674 48.9949ZM 48.7796 48.9949C 47.3827 48.9949 46.2505 50.1271 46.2505 51.524L 49.2505 51.524C 49.2505 51.7839 49.0396 51.9949 48.7796 51.9949L 48.7796 48.9949ZM 46.2505 51.524C 46.2505 51.1155 46.4266 50.8269 46.5435 50.683C 46.6545 50.5463 46.7585 50.4791 46.7823 50.4639C 46.8294 50.434 46.815 50.4513 46.6795 50.4974C 46.429 50.5826 46.0503 50.6723 45.6212 50.7572C 45.2032 50.8398 44.8056 50.905 44.5142 50.955C 44.3998 50.9747 44.2312 51.0034 44.1143 51.0325C 44.0943 51.0375 43.9915 51.0622 43.8748 51.1106C 43.8555 51.1186 43.6296 51.205 43.4139 51.4085C 43.3069 51.5094 43.0251 51.803 42.9567 52.294C 42.8742 52.886 43.1501 53.3368 43.3956 53.5762C 43.6026 53.778 43.8149 53.8674 43.895 53.899C 43.996 53.9388 44.0807 53.9594 44.1278 53.9697C 44.2225 53.9904 44.2997 53.9977 44.3325 54.0005C 44.4055 54.0067 44.4689 54.007 44.5 54.007L 44.5 51.007C 44.5018 51.007 44.5094 51.0071 44.5212 51.0074C 44.5315 51.0077 44.5549 51.0086 44.5862 51.0112C 44.6095 51.0132 44.6793 51.0194 44.7685 51.0389C 44.8129 51.0486 44.8953 51.0687 44.9945 51.1077C 45.0729 51.1386 45.2839 51.2273 45.4901 51.4283C 45.7347 51.6669 46.0103 52.1169 45.928 52.7079C 45.8597 53.1981 45.5785 53.4907 45.4725 53.5907C 45.2589 53.7922 45.037 53.8764 45.0233 53.8821C 44.9596 53.9085 44.9092 53.9239 44.8896 53.9297C 44.8653 53.937 44.8471 53.9416 44.8387 53.9437C 44.8218 53.9479 44.8583 53.9398 45.0219 53.9118C 45.2868 53.8663 45.7373 53.7923 46.203 53.7002C 46.6576 53.6103 47.1981 53.4898 47.6459 53.3375C 47.8596 53.2647 48.1391 53.1564 48.3928 52.995C 48.52 52.9141 48.7054 52.7796 48.8721 52.5745C 49.0447 52.3619 49.2505 52.0035 49.2505 51.524L 46.2505 51.524ZM 44.4964 54.007L 63.6638 54.053L 63.671 51.0531L 44.5036 51.0071L 44.4964 54.007ZM 62.1674 52.553L 62.1674 62.9127L 65.1674 62.9127L 65.1674 52.553L 62.1674 52.553ZM 62.1674 62.9127C 62.1674 62.6517 62.3774 62.4418 62.6383 62.4418L 62.6383 65.4418C 64.034 65.4418 65.1674 64.3088 65.1674 62.9127L 62.1674 62.9127ZM 62.6383 62.4418L 3.08745 62.4418L 3.08745 65.4418L 62.6383 65.4418L 62.6383 62.4418ZM 3.08745 62.4418C 3.34843 62.4418 3.55839 62.6518 3.55839 62.9127L 0.558394 62.9127C 0.558394 64.3085 1.69133 65.4418 3.08745 65.4418L 3.08745 62.4418ZM 3.55839 62.9127L 3.55839 59.7568L 0.558394 59.7568L 0.558394 62.9127L 3.55839 62.9127ZM 3.55839 59.7568C 3.55839 59.3734 3.43268 57.731 3.24538 56.2296C 3.15056 55.4695 3.03243 54.6816 2.89248 54.0654C 2.82506 53.7686 2.73677 53.4388 2.61566 53.1556C 2.55819 53.0213 2.4572 52.8098 2.2898 52.6075C 2.14535 52.433 1.72796 52 1.02908 52L 1.02908 55C 0.401263 55 0.0540883 54.6114 -0.0211592 54.5205C -0.119357 54.4019 -0.152155 54.3131 -0.14261 54.3354C -0.129712 54.3656 -0.0887309 54.4846 -0.0330069 54.7299C 0.0733298 55.1981 0.177004 55.8679 0.268452 56.6009C 0.35861 57.3236 0.432052 58.0678 0.482887 58.6663C 0.508273 58.9652 0.527713 59.2241 0.540671 59.4225C 0.547161 59.5219 0.551836 59.6032 0.55482 59.6651C 0.558114 59.7334 0.558394 59.7592 0.558394 59.7568L 3.55839 59.7568ZM 1.02908 52C -0.310962 52 -1.5 53.0474 -1.5 54.5L 1.5 54.5C 1.5 54.6358 1.44013 54.7728 1.3407 54.8684C 1.245 54.9603 1.12883 55 1.02908 55L 1.02908 52ZM -1.5 54.5001L -1.49972 62.9128L 1.50028 62.9127L 1.5 54.4999L -1.5 54.5001ZM -1.49972 62.9127C -1.49972 65.4435 0.556995 67.5 3.08758 67.5L 3.08758 64.5C 2.21376 64.5 1.50028 63.7866 1.50028 62.9127L -1.49972 62.9127ZM 3.08758 67.5L 62.6384 67.5L 62.6384 64.5L 3.08758 64.5L 3.08758 67.5ZM 62.6384 67.5C 65.1692 67.5 67.2257 65.4433 67.2257 62.9127L 64.2257 62.9127C 64.2257 63.7865 63.5123 64.5 62.6384 64.5L 62.6384 67.5ZM 67.2257 62.9127L 67.2257 24.9044L 64.2257 24.9044L 64.2257 62.9127L 67.2257 62.9127ZM 67.2257 24.9044C 67.2257 21.2386 64.246 18.2588 60.5802 18.2588L 60.5802 21.2588C 62.5891 21.2588 64.2257 22.8955 64.2257 24.9044L 67.2257 24.9044ZM 60.5802 18.2588L 50.3578 18.2588L 50.3578 21.2588L 60.5802 21.2588L 60.5802 18.2588ZM 51.8578 19.7588L 51.8578 15.2308L 48.8578 15.2308L 48.8578 19.7588L 51.8578 19.7588ZM 50.3578 16.7308L 62.6382 16.7308L 62.6382 13.7308L 50.3578 13.7308L 50.3578 16.7308ZM 26.7568 29.7847L 11.2516 29.7847L 11.2516 32.7847L 26.7568 32.7847L 26.7568 29.7847ZM 12.7516 31.2847L 12.7516 3.0873L 9.75158 3.0873L 9.75158 31.2847L 12.7516 31.2847ZM 12.7516 3.0873C 12.7516 3.34827 12.5415 3.55824 12.2806 3.55824L 12.2806 0.558242C 10.8849 0.558242 9.75158 1.69118 9.75158 3.0873L 12.7516 3.0873ZM 12.2806 3.55824L 25.7276 3.55824L 25.7276 0.558242L 12.2806 0.558242L 12.2806 3.55824ZM 25.7276 3.55824C 25.4666 3.55824 25.2567 3.34816 25.2567 3.0873L 28.2567 3.0873C 28.2567 1.69155 27.1237 0.558242 25.7276 0.558242L 25.7276 3.55824ZM 25.2567 3.08731L 25.2568 31.2847L 28.2568 31.2847L 28.2567 3.08729L 25.2567 3.08731ZM 36.0187 11.6725C 36.2797 11.6725 36.4896 11.8826 36.4896 12.1435L 33.4896 12.1435C 33.4896 13.5392 34.6226 14.6725 36.0187 14.6725L 36.0187 11.6725ZM 36.4896 12.1435L 36.4896 3.0873L 33.4896 3.0873L 33.4896 12.1435L 36.4896 12.1435ZM 36.4896 3.0873C 36.4896 3.34828 36.2795 3.55824 36.0187 3.55824L 36.0187 0.558242C 34.6229 0.558242 33.4896 1.69117 33.4896 3.0873L 36.4896 3.0873ZM 36.0187 3.55824L 62.6382 3.55824L 62.6382 0.558242L 36.0187 0.558242L 36.0187 3.55824ZM 62.6382 3.55824C 62.3772 3.55824 62.1672 3.34815 62.1672 3.0873L 65.1672 3.0873C 65.1672 1.69156 64.0343 0.558242 62.6382 0.558242L 62.6382 3.55824ZM 62.1672 3.0873L 62.1672 12.1435L 65.1672 12.1435L 65.1672 3.0873L 62.1672 3.0873ZM 62.1672 12.1435C 62.1672 11.8825 62.3773 11.6725 62.6382 11.6725L 62.6382 14.6725C 64.0339 14.6725 65.1672 13.5396 65.1672 12.1435L 62.1672 12.1435ZM 62.6382 11.6725L 36.0187 11.6725L 36.0187 14.6725L 62.6382 14.6725L 62.6382 11.6725Z"/>
<path id="path2_fill" d="M 24.0184 7.28001e-08L 0.981635 7.28001e-08C 0.439357 7.28001e-08 1.23086e-06 0.460727 1.23086e-06 1.02938L 1.23086e-06 5.97062C 1.23086e-06 6.53927 0.439357 7 0.981635 7L 24.0184 7C 24.5606 7 25 6.53927 25 5.97062L 25 1.02938C 25.0001 0.460856 24.5606 7.28001e-08 24.0184 7.28001e-08ZM 23.0367 4.94137L 1.96339 4.94137L 1.96339 2.05889L 23.0367 2.05889L 23.0367 4.94137Z"/>
<path id="path3_fill" d="M 3.5 5.9867e-07C 1.57005 5.9867e-07 -1.08849e-07 1.57005 -1.08849e-07 3.5C -1.08849e-07 5.42996 1.57005 7 3.5 7C 5.42995 7 7 5.42996 7 3.5C 7 1.57005 5.42995 5.9867e-07 3.5 5.9867e-07ZM 3.5 5.22041C 2.55146 5.22041 1.77959 4.44865 1.77959 3.5C 1.77959 2.55135 2.55146 1.7797 3.5 1.7797C 4.44854 1.7797 5.22041 2.55147 5.22041 3.50011C 5.22041 4.44876 4.44854 5.22041 3.5 5.22041Z"/>
<path id="path4_fill" d="M 4.94889 1.87063e-07L 0.939635 1.87063e-07C 0.420558 1.87063e-07 -8.90831e-07 0.391095 -8.90831e-07 0.873806L -8.90831e-07 4.60217C -8.90831e-07 5.08489 0.420558 5.47598 0.939635 5.47598L 4.94889 5.47598C 5.46797 5.47598 5.88853 5.08489 5.88853 4.60217L 5.88853 0.873806C 5.88853 0.391095 5.46797 1.87063e-07 4.94889 1.87063e-07ZM 4.00914 3.72837L 1.87915 3.72837L 1.87915 1.74761L 4.00914 1.74761L 4.00914 3.72837Z"/>
<path id="path5_fill" d="M 4.94889 1.87063e-07L 0.939634 1.87063e-07C 0.420557 1.87063e-07 -1.72419e-06 0.391095 -1.72419e-06 0.873806L -1.72419e-06 4.60217C -1.72419e-06 5.08489 0.420557 5.47598 0.939634 5.47598L 4.94889 5.47598C 5.46797 5.47598 5.88853 5.08489 5.88853 4.60217L 5.88853 0.873806C 5.88864 0.391095 5.46797 1.87063e-07 4.94889 1.87063e-07ZM 4.00925 3.72837L 1.87927 3.72837L 1.87927 1.74761L 4.00925 1.74761L 4.00925 3.72837Z"/>
<path id="path6_fill" d="M 4.94889 -7.74973e-07L 0.939635 -7.74973e-07C 0.420558 -7.74973e-07 -8.90831e-07 0.391094 -8.90831e-07 0.873805L -8.90831e-07 4.60217C -8.90831e-07 5.08489 0.420558 5.47598 0.939635 5.47598L 4.94889 5.47598C 5.46797 5.47598 5.88853 5.08489 5.88853 4.60217L 5.88853 0.873805C 5.88853 0.391094 5.46797 -7.74973e-07 4.94889 -7.74973e-07ZM 4.00925 3.72837L 1.87927 3.72837L 1.87927 1.74761L 4.00925 1.74761L 4.00925 3.72837Z"/>
<path id="path7_fill" d="M 4.94889 -7.74973e-07L 0.939635 -7.74973e-07C 0.420558 -7.74973e-07 -8.90831e-07 0.391094 -8.90831e-07 0.873805L -8.90831e-07 4.60217C -8.90831e-07 5.08489 0.420558 5.47598 0.939635 5.47598L 4.94889 5.47598C 5.46797 5.47598 5.88853 5.08489 5.88853 4.60217L 5.88853 0.873805C 5.88853 0.391094 5.46797 -7.74973e-07 4.94889 -7.74973e-07ZM 4.00914 3.72837L 1.87915 3.72837L 1.87915 1.74761L 4.00914 1.74761L 4.00914 3.72837Z"/>
<path id="path8_fill" d="M 20.9861 1.87063e-07L 0.939635 1.87063e-07C 0.420558 1.87063e-07 -8.90831e-07 0.391095 -8.90831e-07 0.873806L -8.90831e-07 4.60217C -8.90831e-07 5.08489 0.420558 5.47598 0.939635 5.47598L 20.9861 5.47598C 21.5052 5.47598 21.9258 5.08489 21.9258 4.60217L 21.9258 0.873806C 21.9258 0.391095 21.5052 1.87063e-07 20.9861 1.87063e-07ZM 20.0465 3.72837L 1.87927 3.72837L 1.87927 1.74761L 20.0464 1.74761L 20.0464 3.72837L 20.0465 3.72837Z"/>
<path id="path9_fill" d="M 4.94889 -7.74973e-07L 0.939635 -7.74973e-07C 0.420558 -7.74973e-07 -8.90831e-07 0.391094 -8.90831e-07 0.873805L -8.90831e-07 4.60217C -8.90831e-07 5.08489 0.420558 5.47598 0.939635 5.47598L 4.94889 5.47598C 5.46797 5.47598 5.88853 5.08489 5.88853 4.60217L 5.88853 0.873805C 5.88864 0.391094 5.46797 -7.74973e-07 4.94889 -7.74973e-07ZM 4.00925 3.72837L 1.87927 3.72837L 1.87927 1.74761L 4.00925 1.74761L 4.00925 3.72837Z"/>
<path id="path10_fill" d="M 4.94889 1.87063e-07L 0.939636 1.87063e-07C 0.420559 1.87063e-07 -5.7473e-08 0.391095 -5.7473e-08 0.873806L -5.7473e-08 4.60217C -5.7473e-08 5.08489 0.420559 5.47598 0.939636 5.47598L 4.94889 5.47598C 5.46797 5.47598 5.88853 5.08489 5.88853 4.60217L 5.88853 0.873806C 5.88853 0.391095 5.46797 1.87063e-07 4.94889 1.87063e-07ZM 4.00925 3.72837L 1.87927 3.72837L 1.87927 1.74761L 4.00925 1.74761L 4.00925 3.72837L 4.00925 3.72837Z"/>
<path id="path11_fill" d="M 4.94889 1.87063e-07L 0.939636 1.87063e-07C 0.420559 1.87063e-07 -5.7473e-08 0.391095 -5.7473e-08 0.873806L -5.7473e-08 4.60217C -5.7473e-08 5.08489 0.420559 5.47598 0.939636 5.47598L 4.94889 5.47598C 5.46797 5.47598 5.88853 5.08489 5.88853 4.60217L 5.88853 0.873806C 5.88853 0.391095 5.46797 1.87063e-07 4.94889 1.87063e-07ZM 4.00914 3.72837L 1.87915 3.72837L 1.87915 1.74761L 4.00914 1.74761L 4.00914 3.72837Z"/>
<path id="path12_fill" d="M 4.94889 -7.74973e-07L 0.939636 -7.74973e-07C 0.420559 -7.74973e-07 -5.7473e-08 0.391094 -5.7473e-08 0.873805L -5.7473e-08 4.60217C -5.7473e-08 5.08489 0.420559 5.47598 0.939636 5.47598L 4.94889 5.47598C 5.46797 5.47598 5.88853 5.08489 5.88853 4.60217L 5.88853 0.873805C 5.88853 0.391094 5.46797 -7.74973e-07 4.94889 -7.74973e-07ZM 4.00925 3.72837L 1.87927 3.72837L 1.87927 1.74761L 4.00925 1.74761L 4.00925 3.72837L 4.00925 3.72837Z"/>
<path id="path13_fill" d="M 4.94889 -7.74973e-07L 0.939636 -7.74973e-07C 0.420559 -7.74973e-07 -5.7473e-08 0.391094 -5.7473e-08 0.873805L -5.7473e-08 4.60217C -5.7473e-08 5.08489 0.420559 5.47598 0.939636 5.47598L 4.94889 5.47598C 5.46797 5.47598 5.88853 5.08489 5.88853 4.60217L 5.88853 0.873805C 5.88853 0.391094 5.46797 -7.74973e-07 4.94889 -7.74973e-07ZM 4.00914 3.72837L 1.87915 3.72837L 1.87915 1.74761L 4.00914 1.74761L 4.00914 3.72837Z"/>
<path id="path14_fill" d="M 4.94889 -7.74973e-07L 0.939634 -7.74973e-07C 0.420557 -7.74973e-07 -1.72419e-06 0.391094 -1.72419e-06 0.873805L -1.72419e-06 4.60217C -1.72419e-06 5.08489 0.420557 5.47598 0.939634 5.47598L 4.94889 5.47598C 5.46797 5.47598 5.88853 5.08489 5.88853 4.60217L 5.88853 0.873805C 5.88864 0.391094 5.46797 -7.74973e-07 4.94889 -7.74973e-07ZM 4.00925 3.72837L 1.87927 3.72837L 1.87927 1.74761L 4.00925 1.74761L 4.00925 3.72837Z"/>
<path id="path15_fill" d="M 20.9144 7.99524e-07L 3.08571 7.99524e-07C 1.38425 7.99524e-07 -1.8873e-06 1.27957 -1.8873e-06 2.8521L -1.8873e-06 6.1479C -1.8873e-06 7.72055 1.38438 9 3.08571 9L 20.9143 9C 22.6157 9 24 7.72043 24 6.1479L 24 2.8521C 24.0001 1.27957 22.6157 7.99524e-07 20.9144 7.99524e-07ZM 21.9429 6.1479C 21.9429 6.67224 21.4816 7.09856 20.9144 7.09856L 3.08571 7.09856C 2.51843 7.09856 2.05718 6.67212 2.05718 6.1479L 2.05718 2.8521C 2.05718 2.32776 2.51856 1.90144 3.08571 1.90144L 20.9143 1.90144C 21.4816 1.90144 21.9428 2.32788 21.9428 2.8521L 21.9428 6.1479L 21.9429 6.1479Z"/>
<path id="path16_fill" d="M 8.43857 9.44136e-07L 1.02906 9.44136e-07C 0.460581 9.44136e-07 4.09126e-07 0.46058 4.09126e-07 1.02906C 4.09126e-07 1.59753 0.460581 2.05811 1.02906 2.05811L 8.43857 2.05811C 9.00705 2.05811 9.46763 1.59753 9.46763 1.02906C 9.46763 0.46058 9.00705 9.44136e-07 8.43857 9.44136e-07Z"/>
<path id="path17_fill" d="M 8.43857 4.87803e-07L 1.02906 4.87803e-07C 0.460581 4.87803e-07 4.09126e-07 0.460582 4.09126e-07 1.02906C 4.09126e-07 1.59753 0.460581 2.05811 1.02906 2.05811L 8.43857 2.05811C 9.00705 2.05811 9.46763 1.59753 9.46763 1.02906C 9.46763 0.460582 9.00705 4.87803e-07 8.43857 4.87803e-07Z"/>
<path id="path18_fill" d="M 8.71289 4.25351C 9.28136 4.25351 9.74194 3.79293 9.74194 3.22446C 9.74194 2.65598 9.28136 2.1954 8.71289 2.1954L 5.90003 2.1954L 5.90003 1.02906C 5.90003 0.460581 5.43945 1.96695e-09 4.87097 1.96695e-09C 4.3025 1.96695e-09 3.84191 0.460581 3.84191 1.02906L 3.84191 2.1954L 2.95002 2.1954C 1.62602 2.1954 0.548753 3.27267 0.548753 4.59666L 0.548753 6.79206C 0.548753 8.11605 1.62602 9.19332 2.95002 9.19332L 3.84191 9.19332L 3.84191 12.0748L 1.02906 12.0748C 0.460581 12.0748 -3.61919e-07 12.5353 -3.61919e-07 13.1038C -3.61919e-07 13.6723 0.460581 14.1329 1.02906 14.1329L 3.84191 14.1329L 3.84191 15.2992C 3.84191 15.8677 4.3025 16.3283 4.87097 16.3283C 5.43945 16.3283 5.90003 15.8677 5.90003 15.2992L 5.90003 14.1329L 6.79193 14.1329C 8.11592 14.1329 9.19319 13.0556 9.19319 11.7316L 9.19319 9.53621C 9.19319 8.21222 8.11592 7.13495 6.79193 7.13495L 5.90003 7.13495L 5.90003 4.25351L 8.71289 4.25351ZM 3.84179 7.13508L 2.94989 7.13508C 2.76065 7.13508 2.60687 6.98129 2.60687 6.79206L 2.60687 4.59666C 2.60687 4.40743 2.76065 4.25364 2.94989 4.25364L 3.84179 4.25364L 3.84179 7.13508ZM 6.7918 9.19332C 6.98103 9.19332 7.13482 9.3471 7.13482 9.53634L 7.13482 11.7317C 7.13482 11.921 6.98103 12.0748 6.7918 12.0748L 5.8999 12.0748L 5.8999 9.19332L 6.7918 9.19332L 6.7918 9.19332Z"/>
</defs>
</svg>
