<svg width="118" height="136" viewBox="0 0 118 136" version="1.1" xmlns="http://www.w3.org/2000/svg" xmlns:xlink="http://www.w3.org/1999/xlink">
<title>icn-boleto</title>
<desc>Created using Figma</desc>
<g id="Canvas" transform="matrix(2 0 0 2 3462 4572)">
<g id="icn-boleto">
<g id="Camada 2">
<g id="icones">
<g id="Vector">
<use xlink:href="#path0_stroke" transform="matrix(6.12323e-17 -1 1 6.12323e-17 -1730 -2219)" fill="#4D4D4D"/>
</g>
<g id="Vector">
<use xlink:href="#path1_stroke" transform="translate(-1725.14 -2231.66)" fill="#4D4D4D"/>
</g>
<g id="Vector">
<use xlink:href="#path1_stroke" transform="translate(-1721.9 -2231.66)" fill="#4D4D4D"/>
</g>
<g id="Vector">
<use xlink:href="#path1_stroke" transform="translate(-1718.66 -2231.66)" fill="#4D4D4D"/>
</g>
<g id="Vector">
<use xlink:href="#path2_stroke" transform="translate(-1715.42 -2231.66)" fill="#4D4D4D"/>
</g>
<g id="Vector">
<use xlink:href="#path2_stroke" transform="translate(-1712.18 -2231.66)" fill="#4D4D4D"/>
</g>
<g id="Vector">
<use xlink:href="#path2_stroke" transform="translate(-1708.94 -2231.66)" fill="#4D4D4D"/>
</g>
<g id="Vector">
<use xlink:href="#path2_stroke" transform="translate(-1705.71 -2231.66)" fill="#4D4D4D"/>
</g>
<g id="Vector">
<use xlink:href="#path3_stroke" transform="translate(-1702.47 -2231.66)" fill="#4D4D4D"/>
</g>
<g id="Vector">
<use xlink:href="#path3_stroke" transform="translate(-1699.23 -2231.66)" fill="#4D4D4D"/>
</g>
<g id="Vector">
<use xlink:href="#path3_stroke" transform="translate(-1695.99 -2231.66)" fill="#4D4D4D"/>
</g>
<g id="Vector">
<use xlink:href="#path3_stroke" transform="translate(-1692.75 -2231.66)" fill="#4D4D4D"/>
</g>
<g id="Vector">
<use xlink:href="#path3_stroke" transform="translate(-1689.51 -2231.66)" fill="#4D4D4D"/>
</g>
<g id="Vector">
<use xlink:href="#path3_stroke" transform="translate(-1686.27 -2231.66)" fill="#4D4D4D"/>
</g>
<g id="Vector">
<use xlink:href="#path4_stroke" transform="translate(-1724.94 -2263.34)" fill="#4D4D4D"/>
</g>
<g id="Vector">
<use xlink:href="#path5_stroke" transform="translate(-1724.94 -2270.05)" fill="#4D4D4D"/>
</g>
<g id="Vector">
<use xlink:href="#path6_stroke" transform="translate(-1724.94 -2250.69)" fill="#4D4D4D"/>
</g>
<g id="Vector">
<use xlink:href="#path7_stroke" transform="translate(-1724.94 -2256.85)" fill="#4D4D4D"/>
</g>
<g id="Vector">
<use xlink:href="#path8_stroke" transform="translate(-1724.94 -2237.33)" fill="#4D4D4D"/>
</g>
<g id="Vector">
<use xlink:href="#path7_stroke" transform="translate(-1724.94 -2243.48)" fill="#4D4D4D"/>
</g>
<g id="Vector">
<use xlink:href="#path9_stroke" transform="translate(-1707.53 -2263.34)" fill="#4D4D4D"/>
</g>
<g id="Vector">
<use xlink:href="#path10_stroke" transform="translate(-1724.13 -2277.17)" fill="#E20A0F"/>
</g>
<g id="Vector">
<use xlink:href="#path11_stroke" transform="translate(-1706.18 -2277.17)" fill="#4C4C4C"/>
</g>
</g>
</g>
</g>
</g>
<defs>
<path id="path0_stroke" d="M 4.88724 1L 61.1128 1L 61.1128 -1L 4.88724 -1L 4.88724 1ZM 61.1128 1C 63.2596 1 65 2.74038 65 4.88724L 67 4.88724C 67 1.63581 64.3642 -1 61.1128 -1L 61.1128 1ZM 65 4.88724L 65 51.395L 67 51.395L 67 4.88724L 65 4.88724ZM 65 51.395C 65 53.5418 63.2596 55.2822 61.1128 55.2822L 61.1128 57.2822C 64.3642 57.2822 67 54.6464 67 51.395L 65 51.395ZM 61.1128 55.2822L 4.88724 55.2822L 4.88724 57.2822L 61.1128 57.2822L 61.1128 55.2822ZM 4.88724 55.2822C 2.74038 55.2822 1 53.5418 1 51.395L -1 51.395C -1 54.6464 1.63581 57.2822 4.88724 57.2822L 4.88724 55.2822ZM 1 51.395L 1 4.88724L -1 4.88724L -1 51.395L 1 51.395ZM 1 4.88724C 1 2.74038 2.74038 1 4.88724 1L 4.88724 -1C 1.63581 -1 -1 1.63581 -1 4.88724L 1 4.88724Z"/>
<path id="path1_stroke" d="M 1 -2.22423e-06C 1 -0.552287 0.552285 -1 2.28882e-07 -1C -0.552285 -1 -1 -0.552287 -1 -2.22423e-06L 1 -2.22423e-06ZM -1 5.46626C -1 6.01854 -0.552285 6.46626 2.28882e-07 6.46626C 0.552285 6.46626 1 6.01854 1 5.46626L -1 5.46626ZM -1 -2.22423e-06L -1 5.46626L 1 5.46626L 1 -2.22423e-06L -1 -2.22423e-06Z"/>
<path id="path2_stroke" d="M 0.999998 -2.22423e-06C 0.999998 -0.552287 0.552283 -1 -1.67847e-06 -1C -0.552286 -1 -1 -0.552287 -1 -2.22423e-06L 0.999998 -2.22423e-06ZM -1 5.46626C -1 6.01854 -0.552286 6.46626 -1.67847e-06 6.46626C 0.552283 6.46626 0.999998 6.01854 0.999998 5.46626L -1 5.46626ZM -1 -2.22423e-06L -1 5.46626L 0.999998 5.46626L 0.999998 -2.22423e-06L -1 -2.22423e-06Z"/>
<path id="path3_stroke" d="M 1 -2.22423e-06C 1 -0.552287 0.552287 -1 2.13623e-06 -1C -0.552283 -1 -0.999998 -0.552287 -0.999998 -2.22423e-06L 1 -2.22423e-06ZM -0.999998 5.46626C -0.999998 6.01854 -0.552283 6.46626 2.13623e-06 6.46626C 0.552287 6.46626 1 6.01854 1 5.46626L -0.999998 5.46626ZM -0.999998 -2.22423e-06L -0.999998 5.46626L 1 5.46626L 1 -2.22423e-06L -0.999998 -2.22423e-06Z"/>
<path id="path4_stroke" d="M 9.26761e-08 -1C -0.552285 -1 -1 -0.552286 -1 -1.67847e-06C -1 0.552283 -0.552285 0.999998 9.26761e-08 0.999998L 9.26761e-08 -1ZM 14.026 0.999998C 14.5783 0.999998 15.026 0.552283 15.026 -1.67847e-06C 15.026 -0.552286 14.5783 -1 14.026 -1L 14.026 0.999998ZM 9.26761e-08 0.999998L 14.026 0.999998L 14.026 -1L 9.26761e-08 -1L 9.26761e-08 0.999998Z"/>
<path id="path5_stroke" d="M 9.26761e-08 -1C -0.552285 -1 -1 -0.552286 -1 -1.37329e-06C -1 0.552283 -0.552285 0.999999 9.26761e-08 0.999999L 9.26761e-08 -1ZM 46.9693 0.999999C 47.5216 0.999999 47.9693 0.552283 47.9693 -1.37329e-06C 47.9693 -0.552286 47.5216 -1 46.9693 -1L 46.9693 0.999999ZM 9.26761e-08 0.999999L 46.9693 0.999999L 46.9693 -1L 9.26761e-08 -1L 9.26761e-08 0.999999Z"/>
<path id="path6_stroke" d="M 9.26761e-08 -0.999998C -0.552285 -0.999998 -1 -0.552283 -1 2.13623e-06C -1 0.552287 -0.552285 1 9.26761e-08 1L 9.26761e-08 -0.999998ZM 32.344 1C 32.8963 1 33.344 0.552287 33.344 2.13623e-06C 33.344 -0.552283 32.8963 -0.999998 32.344 -0.999998L 32.344 1ZM 9.26761e-08 1L 32.344 1L 32.344 -0.999998L 9.26761e-08 -0.999998L 9.26761e-08 1Z"/>
<path id="path7_stroke" d="M 9.26761e-08 -0.999997C -0.552285 -0.999997 -1 -0.552282 -1 3.05176e-06C -1 0.552288 -0.552285 1 9.26761e-08 1L 9.26761e-08 -0.999997ZM 26.9831 1C 27.5354 1 27.9831 0.552288 27.9831 3.05176e-06C 27.9831 -0.552282 27.5354 -0.999997 26.9831 -0.999997L 26.9831 1ZM 9.26761e-08 1L 26.9831 1L 26.9831 -0.999997L 9.26761e-08 -0.999997L 9.26761e-08 1Z"/>
<path id="path8_stroke" d="M 9.26761e-08 -0.999998C -0.552285 -0.999998 -1 -0.552283 -1 2.13623e-06C -1 0.552287 -0.552285 1 9.26761e-08 1L 9.26761e-08 -0.999998ZM 38.8712 1C 39.4235 1 39.8712 0.552287 39.8712 2.13623e-06C 39.8712 -0.552283 39.4235 -0.999998 38.8712 -0.999998L 38.8712 1ZM 9.26761e-08 1L 38.8712 1L 38.8712 -0.999998L 9.26761e-08 -0.999998L 9.26761e-08 1Z"/>
<path id="path9_stroke" d="M -6.79625e-07 -1C -0.552285 -1 -1 -0.552286 -1 -1.67847e-06C -1 0.552283 -0.552285 0.999998 -6.79625e-07 0.999998L -6.79625e-07 -1ZM 29.1534 0.999998C 29.7057 0.999998 30.1534 0.552283 30.1534 -1.67847e-06C 30.1534 -0.552286 29.7057 -1 29.1534 -1L 29.1534 0.999998ZM -6.79625e-07 0.999998L 29.1534 0.999998L 29.1534 -1L -6.79625e-07 -1L -6.79625e-07 0.999998Z"/>
<path id="path10_stroke" d="M 9.26761e-08 -0.999999C -0.552285 -0.999999 -1 -0.552284 -1 6.10352e-07C -1 0.552285 -0.552285 1 9.26761e-08 1L 9.26761e-08 -0.999999ZM 11.058 1C 11.6103 1 12.058 0.552285 12.058 6.10352e-07C 12.058 -0.552284 11.6103 -0.999999 11.058 -0.999999L 11.058 1ZM 9.26761e-08 1L 11.058 1L 11.058 -0.999999L 9.26761e-08 -0.999999L 9.26761e-08 1Z"/>
<path id="path11_stroke" d="M 7.41409e-07 -0.999999C -0.552284 -0.999999 -0.999999 -0.552284 -0.999999 6.10352e-07C -0.999999 0.552285 -0.552284 1 7.41409e-07 1L 7.41409e-07 -0.999999ZM 28.214 1C 28.7663 1 29.214 0.552285 29.214 6.10352e-07C 29.214 -0.552284 28.7663 -0.999999 28.214 -0.999999L 28.214 1ZM 7.0535 1C 7.60578 1 8.0535 0.552285 8.0535 6.10352e-07C 8.0535 -0.552284 7.60578 -0.999999 7.0535 -0.999999L 7.0535 1ZM 21.1605 -0.999999C 20.6082 -0.999999 20.1605 -0.552284 20.1605 6.10352e-07C 20.1605 0.552285 20.6082 1 21.1605 1L 21.1605 -0.999999ZM 7.41409e-07 1L 7.0535 1L 7.0535 -0.999999L 7.41409e-07 -0.999999L 7.41409e-07 1ZM 21.1605 1L 28.214 1L 28.214 -0.999999L 21.1605 -0.999999L 21.1605 1Z"/>
</defs>
</svg>
