<svg width="74" height="80" viewBox="0 0 74 80" version="1.1" xmlns="http://www.w3.org/2000/svg" xmlns:xlink="http://www.w3.org/1999/xlink">
<g id="Canvas" fill="none">
<g id="invoice">
<g id="Group">
<g id="Group_2">
<g id="Group_3">
<g id="Vector">
<path d="M 1.27071 2.53656L 41.152 2.53656C 41.8538 2.53656 42.4227 1.9689 42.4227 1.26828C 42.4227 0.567656 41.8538 4.00542e-07 41.152 4.00542e-07L 1.27071 4.00542e-07C 0.568898 4.00542e-07 2.86649e-08 0.567656 2.86649e-08 1.26828C 2.86649e-08 1.9689 0.569054 2.53656 1.27071 2.53656Z" transform="translate(10.1455 32.0565)" fill="#6A707E"/>
</g>
<g id="Vector_2">
<path d="M 42.4229 1.26828C 42.4229 0.567654 41.854 -1.7929e-06 41.1521 -1.7929e-06L 1.27071 -1.7929e-06C 0.568898 -1.7929e-06 2.86649e-08 0.567654 2.86649e-08 1.26828C 2.86649e-08 1.9689 0.568898 2.53656 1.27071 2.53656L 41.152 2.53656C 41.854 2.53656 42.4229 1.96874 42.4229 1.26828Z" transform="translate(10.1455 40.9385)" fill="#6A707E"/>
</g>
<g id="Vector_3">
<path d="M 68.3267 0L 5.67333 0C 2.54517 0 6.68849e-08 2.53999 6.68849e-08 5.66233L 6.68849e-08 65.5339C 6.68849e-08 65.8703 0.133849 66.1928 0.372273 66.4308L 13.5952 79.6286C 13.8334 79.8664 14.1567 80 14.4936 80L 68.3267 80C 71.4548 80 74 77.46 74 74.3377L 74 5.66233C 74 2.53999 71.4548 0 68.3267 0ZM 13.2229 75.6697L 4.33844 66.8022L 11.1051 66.8022C 12.273 66.8022 13.2229 67.7503 13.2229 68.916L 13.2229 75.6697ZM 68.3267 77.4631L 15.7643 77.4631L 15.7643 68.9156C 15.7643 66.3516 13.6744 64.2655 11.1053 64.2655L 2.54141 64.2655L 2.54141 5.66233C 2.54141 3.9389 3.94644 2.53656 5.67333 2.53656L 68.3267 2.53656C 70.0536 2.53656 71.4586 3.9389 71.4586 5.66233L 71.4586 74.3374C 71.4586 76.0611 70.0537 77.4631 68.3267 77.4631Z" fill="#6A707E"/>
</g>
<g id="Vector_4">
<path d="M 1.27071 2.53656L 41.152 2.53656C 41.8538 2.53656 42.4227 1.9689 42.4227 1.26828C 42.4227 0.567656 41.8538 2.09808e-07 41.152 2.09808e-07L 1.27071 2.09808e-07C 0.568898 2.09808e-07 2.86649e-08 0.567656 2.86649e-08 1.26828C 0.000156577 1.9689 0.569054 2.53656 1.27071 2.53656Z" transform="translate(10.1455 23.1745)" fill="#6A707E"/>
</g>
<g id="Vector_5">
<path d="M 6.0157 -1.7929e-06L 1.27071 -1.7929e-06C 0.568898 -1.7929e-06 -1.5288e-06 0.567654 -1.5288e-06 1.26828C -1.5288e-06 1.9689 0.568898 2.53656 1.27071 2.53656L 6.0157 2.53656C 6.71751 2.53656 7.28641 1.9689 7.28641 1.26828C 7.28641 0.567654 6.71751 -1.7929e-06 6.0157 -1.7929e-06Z" transform="translate(56.5669 40.9385)" fill="#6A707E"/>
</g>
<g id="Vector_6">
<path d="M 6.0157 4.00542e-07L 1.27071 4.00542e-07C 0.568898 4.00542e-07 -1.5288e-06 0.567656 -1.5288e-06 1.26828C -1.5288e-06 1.9689 0.568898 2.53656 1.27071 2.53656L 6.0157 2.53656C 6.71751 2.53656 7.28641 1.9689 7.28641 1.26828C 7.28641 0.567813 6.71751 4.00542e-07 6.0157 4.00542e-07Z" transform="translate(56.5669 32.0565)" fill="#6A707E"/>
</g>
<g id="Vector_7">
<path d="M 6.0157 -1.06811e-06L 1.27071 -1.06811e-06C 0.568898 -1.06811e-06 -1.5288e-06 0.567655 -1.5288e-06 1.26828C -1.5288e-06 1.9689 0.568898 2.53656 1.27071 2.53656L 6.0157 2.53656C 6.71751 2.53656 7.28641 1.9689 7.28641 1.26828C 7.28641 0.567655 6.71751 -1.06811e-06 6.0157 -1.06811e-06Z" transform="translate(56.5669 23.1746)" fill="#6A707E"/>
</g>
<g id="Vector_8">
<path d="M 52.4374 1.23977e-07L 1.27071 1.23977e-07C 0.568898 1.23977e-07 2.86649e-08 0.567655 2.86649e-08 1.26828L 2.86649e-08 8.35483C 2.86649e-08 9.05545 0.568898 9.62311 1.27071 9.62311L 52.4374 9.62311C 53.1392 9.62311 53.7081 9.05545 53.7081 8.35483L 53.7081 1.26828C 53.7081 0.567655 53.1392 1.23977e-07 52.4374 1.23977e-07ZM 2.54141 7.08655L 2.54141 2.5364L 51.1667 2.5364L 51.1667 7.08655L 2.54141 7.08655Z" transform="translate(10.1455 7.84265)" fill="#6A707E"/>
</g>
<g id="Vector_9">
<path d="M 7.1355 7.55264L 7.1355 4.27296C 7.71927 4.42374 8.32448 4.6828 8.92986 5.00624C 9.16797 5.13608 9.42674 5.20046 9.6863 5.20046C 10.508 5.20046 11.1568 4.57484 11.1568 3.75468C 11.1568 3.10703 10.7893 2.69749 10.3787 2.45999C 9.44897 1.94187 8.41074 1.59672 7.24351 1.42391L 7.24351 1.12203C 7.24351 0.495781 6.74569 1.2207e-06 6.11886 1.2207e-06C 5.49173 1.2207e-06 4.99469 0.495781 4.99469 1.12203L 4.99469 1.38047C 2.27027 1.6614 0.454146 3.25827 0.454146 5.63218C 0.454146 8.20014 1.98927 9.38701 5.10286 10.2287L 5.10286 13.66C 4.10847 13.444 3.24338 13.034 2.33539 12.4514C 2.07599 12.2787 1.77323 12.1704 1.49207 12.1704C 0.648737 12.1704 -1.83456e-06 12.7964 -1.83456e-06 13.6383C -1.83456e-06 14.2206 0.281474 14.6522 0.735622 14.9331C 2.01087 15.71 3.45973 16.2492 4.99485 16.4437L 4.99485 17.6089C 4.99485 18.2348 5.49189 18.7312 6.11902 18.7312C 6.74584 18.7312 7.24367 18.235 7.24367 17.6089L 7.24367 16.4654C 9.96762 16.1631 11.8273 14.6089 11.8273 12.1923C 11.8274 9.77561 10.4216 8.43733 7.1355 7.55264ZM 5.10333 6.99139C 3.91403 6.55983 3.61142 6.10655 3.61142 5.43749C 3.61142 4.74702 4.06541 4.22921 5.10333 4.07812L 5.10333 6.99139ZM 7.1355 13.7676L 7.1355 10.7683C 8.30288 11.1781 8.67061 11.6526 8.67061 12.3647C 8.67061 13.1415 8.15118 13.6167 7.1355 13.7676Z" transform="translate(50.9624 52.8449)" fill="#D32E28"/>
</g>
<g id="Vector_10">
<path d="M 21.2113 2.28881e-06L 1.27071 2.28881e-06C 0.568897 2.28881e-06 6.30629e-07 0.56781 6.30629e-07 1.26828L 6.30629e-07 8.35483C 6.30629e-07 9.05545 0.568897 9.62311 1.27071 9.62311L 21.2114 9.62311C 21.9132 9.62311 22.4821 9.05545 22.4821 8.35483L 22.4821 1.26828C 22.482 0.56781 21.9131 2.28881e-06 21.2113 2.28881e-06ZM 19.9406 7.0867L 2.54126 7.0867L 2.54126 2.53656L 19.9406 2.53656L 19.9406 7.0867Z" transform="translate(22.3159 53.3421)" fill="#6A707E"/>
</g>
</g>
</g>
</g>
</g>
</g>
</svg>

