<svg width="20" height="21" viewBox="0 0 20 21" version="1.1" xmlns="http://www.w3.org/2000/svg" xmlns:xlink="http://www.w3.org/1999/xlink">
<title>icon-search</title>
<desc>Created using Figma</desc>
<g id="Canvas" transform="translate(-3987 1136)">
<g id="icon-search">
<g id="Vector">
<use xlink:href="#path0_fill" transform="translate(3987 -1136)" fill="#767676"/>
</g>
</g>
</g>
<defs>
<path id="path0_fill" d="M 19.6959 18.8686L 14.7656 13.7408C 16.0332 12.2339 16.7278 10.3378 16.7278 8.36391C 16.7278 3.75212 12.9757 0 8.36391 0C 3.75212 0 0 3.75212 0 8.36391C 0 12.9757 3.75212 16.7278 8.36391 16.7278C 10.0952 16.7278 11.7451 16.2056 13.1557 15.2143L 18.1235 20.381C 18.3311 20.5967 18.6104 20.7156 18.9097 20.7156C 19.193 20.7156 19.4617 20.6076 19.6657 20.4112C 20.0992 19.9941 20.113 19.3024 19.6959 18.8686ZM 8.36391 2.18189C 11.7727 2.18189 14.5459 4.95507 14.5459 8.36391C 14.5459 11.7727 11.7727 14.5459 8.36391 14.5459C 4.95507 14.5459 2.18189 11.7727 2.18189 8.36391C 2.18189 4.95507 4.95507 2.18189 8.36391 2.18189Z"/>
</defs>
</svg>
