<svg width="154" height="16" viewBox="0 0 154 16" version="1.1" xmlns="http://www.w3.org/2000/svg" xmlns:xlink="http://www.w3.org/1999/xlink">
  <title>Mercurio</title>
  <desc>Created using Figma</desc>
  <g id="Canvas" transform="translate(-3114 1133)">
    <g id="Mercurio">
      <use xlink:href="#path0_fill" transform="translate(3114.36 -1132.24)"/>
      <use xlink:href="#path1_fill" transform="translate(3114.36 -1132.24)"/>
      <use xlink:href="#path2_fill" transform="translate(3114.36 -1132.24)"/>
      <use xlink:href="#path3_fill" transform="translate(3114.36 -1132.24)"/>
      <use xlink:href="#path4_fill" transform="translate(3114.36 -1132.24)"/>
      <use xlink:href="#path5_fill" transform="translate(3114.36 -1132.24)"/>
      <use xlink:href="#path6_fill" transform="translate(3114.36 -1132.24)"/>
      <use xlink:href="#path7_fill" transform="translate(3114.36 -1132.24)"/>
    </g>
  </g>
  <defs>
    <path id="path0_fill" d="M 0 0.22L 3.98 0.22L 8.04 8.42L 12.08 0.22L 16.06 0.22L 16.06 14.24L 12.82 14.24L 12.8 5.36L 9.22 12.84L 6.86 12.84L 3.26 5.36L 3.26 14.24L 0 14.24L 0 0.22Z"/>
    <path id="path1_fill" d="M 24.8051 0.22L 35.8651 0.22L 35.8651 3.14L 28.4651 3.14L 28.4651 5.76L 35.1451 5.76L 35.1451 8.66L 28.4651 8.68L 28.4651 11.32L 36.0651 11.32L 36.0651 14.24L 24.8051 14.24L 24.8051 0.22Z"/>
    <path
      id="path2_fill"
      d="M 52.7372 14.24L 50.6972 10.36L 47.9772 10.36L 47.9772 14.24L 44.3172 14.24L 44.3172 0.22L 50.6172 0.22C 52.4705 0.22 53.9038 0.653333 54.9172 1.52C 55.9438 2.37333 56.4572 3.58 56.4572 5.14C 56.4572 6.19333 56.2438 7.10667 55.8172 7.88C 55.3905 8.64 54.7705 9.23333 53.9572 9.66L 56.8772 14.24L 52.7372 14.24ZM 47.9772 7.44L 50.6372 7.44C 51.3838 7.44 51.9572 7.25333 52.3572 6.88C 52.7705 6.50667 52.9772 5.96667 52.9772 5.26C 52.9772 4.58 52.7705 4.06 52.3572 3.7C 51.9572 3.32667 51.3838 3.14 50.6372 3.14L 47.9772 3.14L 47.9772 7.44Z"/>
    <path
      id="path3_fill"
      d="M 74.9458 4.98C 74.4925 4.40667 73.9525 3.95333 73.3258 3.62C 72.6991 3.27333 72.0792 3.1 71.4658 3.1C 70.7592 3.1 70.1125 3.28 69.5258 3.64C 68.9525 3.98667 68.4992 4.47333 68.1658 5.1C 67.8325 5.71333 67.6658 6.4 67.6658 7.16C 67.6658 7.92 67.8325 8.61333 68.1658 9.24C 68.4992 9.85333 68.9525 10.34 69.5258 10.7C 70.1125 11.0467 70.7592 11.22 71.4658 11.22C 72.0392 11.22 72.6391 11.0733 73.2658 10.78C 73.8925 10.4867 74.4525 10.0867 74.9458 9.58L 77.0858 11.88C 76.3258 12.68 75.4191 13.32 74.3658 13.8C 73.3258 14.2667 72.2925 14.5 71.2658 14.5C 69.8791 14.5 68.6258 14.18 67.5058 13.54C 66.3858 12.9 65.5058 12.0267 64.8658 10.92C 64.2258 9.81333 63.9058 8.57333 63.9058 7.2C 63.9058 5.84 64.2325 4.61333 64.8858 3.52C 65.5392 2.42667 66.4325 1.56667 67.5658 0.94C 68.7125 0.313333 69.9925 0 71.4058 0C 72.4458 0 73.4725 0.22 74.4858 0.66C 75.4992 1.08667 76.3592 1.67333 77.0658 2.42L 74.9458 4.98Z"/>
    <path
      id="path4_fill"
      d="M 88.0895 8.46C 88.0895 9.34 88.3495 10.0467 88.8695 10.58C 89.3895 11.1133 90.0495 11.38 90.8495 11.38C 91.6361 11.38 92.2695 11.12 92.7495 10.6C 93.2428 10.0667 93.4895 9.35333 93.4895 8.46L 93.4895 0.22L 97.1495 0.22L 97.1495 8.46C 97.1495 9.67333 96.8895 10.74 96.3695 11.66C 95.8628 12.5667 95.1295 13.2667 94.1695 13.76C 93.2228 14.2533 92.1095 14.5 90.8295 14.5C 89.5495 14.5 88.4228 14.2533 87.4495 13.76C 86.4895 13.2667 85.7428 12.5667 85.2095 11.66C 84.6895 10.74 84.4295 9.67333 84.4295 8.46L 84.4295 0.22L 88.0895 0.22L 88.0895 8.46Z"/>
    <path
      id="path5_fill"
      d="M 114.086 14.24L 112.046 10.36L 109.326 10.36L 109.326 14.24L 105.666 14.24L 105.666 0.22L 111.966 0.22C 113.819 0.22 115.253 0.653333 116.266 1.52C 117.293 2.37333 117.806 3.58 117.806 5.14C 117.806 6.19333 117.593 7.10667 117.166 7.88C 116.739 8.64 116.119 9.23333 115.306 9.66L 118.226 14.24L 114.086 14.24ZM 109.326 7.44L 111.986 7.44C 112.733 7.44 113.306 7.25333 113.706 6.88C 114.119 6.50667 114.326 5.96667 114.326 5.26C 114.326 4.58 114.119 4.06 113.706 3.7C 113.306 3.32667 112.733 3.14 111.986 3.14L 109.326 3.14L 109.326 7.44Z"/>
    <path id="path6_fill" d="M 126.155 0.22L 129.815 0.22L 129.815 14.24L 126.155 14.24L 126.155 0.22Z"/>
    <path
      id="path7_fill"
      d="M 145.237 0C 146.664 0 147.951 0.313333 149.097 0.94C 150.257 1.56667 151.164 2.42667 151.817 3.52C 152.484 4.61333 152.817 5.84 152.817 7.2C 152.817 8.57333 152.484 9.81333 151.817 10.92C 151.164 12.0267 150.257 12.9 149.097 13.54C 147.951 14.18 146.664 14.5 145.237 14.5C 143.811 14.5 142.517 14.1867 141.357 13.56C 140.211 12.92 139.304 12.0467 138.637 10.94C 137.984 9.82 137.657 8.57333 137.657 7.2C 137.657 5.84 137.984 4.61333 138.637 3.52C 139.304 2.42667 140.211 1.56667 141.357 0.94C 142.517 0.313333 143.811 0 145.237 0ZM 145.277 3.1C 144.584 3.1 143.937 3.28 143.337 3.64C 142.751 4 142.284 4.5 141.937 5.14C 141.591 5.76667 141.417 6.46 141.417 7.22C 141.417 7.99333 141.591 8.7 141.937 9.34C 142.297 9.96667 142.771 10.4667 143.357 10.84C 143.944 11.2 144.584 11.38 145.277 11.38C 145.971 11.38 146.604 11.2 147.177 10.84C 147.764 10.4667 148.224 9.96667 148.557 9.34C 148.891 8.7 149.057 7.99333 149.057 7.22C 149.057 6.46 148.891 5.76667 148.557 5.14C 148.224 4.5 147.764 4 147.177 3.64C 146.604 3.28 145.971 3.1 145.277 3.1Z"/>
  </defs>
</svg>
