<svg width="250" height="105" viewBox="0 0 250 105" version="1.1" xmlns="http://www.w3.org/2000/svg" xmlns:xlink="http://www.w3.org/1999/xlink">
<title>Logotipo</title>
<desc>Created using Figma</desc>
<g id="Canvas" transform="translate(-45 537)">
<g id="Logotipo">
<g id="logo_siv">
<g id="Group">
<g id="Vector">
<use xlink:href="#path0_fill" transform="translate(45 -512.313)" fill="#FFFFFF"/>
</g>
<g id="Vector">
<use xlink:href="#path1_fill" transform="translate(134.939 -512.313)" fill="#FFFFFF"/>
</g>
<g id="Vector">
<use xlink:href="#path2_fill" transform="translate(135.819 -537)" fill="#FFFFFF"/>
</g>
<g id="Vector">
<use xlink:href="#path3_fill" transform="translate(170.915 -512.348)" fill="#FFFFFF"/>
</g>
</g>
</g>
</g>
</g>
<defs>
<path id="path0_fill" d="M 46.7122 11.8316C 42.2416 16.4936 36.5038 24.6168 29.4987 36.2718C 23.5497 46.0196 19.0087 52.6948 15.8406 56.2972C 10.6308 62.266 5.35061 65.2328 0 65.2328L 0 80.2077C 9.36356 80.2077 17.8471 76.252 25.4858 68.3761C 30.062 63.7141 35.8702 55.5202 42.8752 43.7946C 48.6835 34.0468 53.1892 27.4069 56.3574 23.9104C 61.4616 17.9417 66.7066 14.9749 72.022 14.9749L 72.022 5.38913e-07C 62.764 5.38913e-07 54.3157 3.92032 46.7122 11.8316Z"/>
<path id="path1_fill" d="M 0 18.1536L 0 80.2077L 14.9254 80.2077L 14.9254 18.7893C 14.9254 15.8226 15.8758 13.7388 17.7415 12.538L 9.53957 5.38913e-07C 3.16812 4.27351 0 10.3482 0 18.1536Z"/>
<path id="path2_fill" d="M 8.27232 16.7762C 10.5604 16.7762 12.5317 15.9285 14.1861 14.2686C 15.7702 12.6792 16.5446 10.7014 16.5446 8.3351C 16.5446 6.03942 15.7702 4.09691 14.1861 2.50759C 12.5317 0.847637 10.5604 0 8.27232 0C 5.98423 0 4.01296 0.847637 2.35849 2.50759C 0.774434 4.09691 0 6.03942 0 8.3351C 0 10.7014 0.774434 12.6792 2.35849 14.2686C 4.01296 15.9285 5.98423 16.7762 8.27232 16.7762Z"/>
<path id="path3_fill" d="M 109.371 5.12114C 106.942 6.88705 104.618 9.14742 102.366 11.8669C 99.655 15.1162 96.4165 20.0607 92.65 26.6653C 91.0307 29.5613 89.2706 32.7753 87.4401 36.3071C 82.512 45.7371 78.675 52.3063 75.9645 55.9794C 75.8589 56.1206 75.7885 56.2266 75.6829 56.3326C 71.7404 61.595 67.7626 64.5264 63.7145 65.1268C 63.1512 65.1621 62.588 65.1621 62.0248 65.1621C 61.532 65.1621 61.0744 65.1621 60.6167 65.1268C 57.9766 64.7736 55.3717 63.4668 52.802 61.2065C 51.3236 59.8997 49.8099 58.2751 48.3667 56.3326C 45.6562 52.7301 41.7136 46.055 36.6094 36.2718C 36.2574 35.6008 35.9054 34.965 35.5886 34.294C 32.9837 29.3141 30.5548 25.0406 28.3723 21.4382C 25.873 17.3766 23.6553 14.1626 21.7192 11.8316C 19.4663 9.1121 17.1079 6.88705 14.7142 5.08582C 10.1028 1.69527 5.1746 1.07783e-06 4.29704e-06 1.07783e-06L 4.29704e-06 14.9749C 0.457622 14.9749 0.950441 15.0102 1.40806 15.0809C 5.52662 15.646 9.50436 18.5774 13.4469 23.9104C 14.3974 25.1466 15.5238 26.7712 16.7558 28.8197C 17.5655 30.1264 18.4455 31.6098 19.3607 33.2344C 21.0504 36.2012 22.9513 39.733 25.0282 43.7946C 25.9434 45.5958 26.8586 47.3264 27.7387 48.9864C 32.5965 57.9925 36.715 64.4557 40.0591 68.4114C 43.8961 73.0027 48.0146 76.2873 52.3796 78.1945C 55.5125 79.5719 58.7511 80.243 62.1656 80.243C 66.777 80.243 71.1419 78.9362 75.2957 76.3227C 78.3582 74.3802 81.2447 71.7666 84.0608 68.4114C 85.2577 67.034 86.5249 65.3387 87.8978 63.3256C 90.4323 59.6171 93.2484 54.8492 96.3813 48.9864C 97.0501 47.7502 97.7189 46.4435 98.423 45.1014C 98.6342 44.6775 98.8806 44.2184 99.0918 43.7946C 102.33 37.4726 105.076 32.4928 107.364 28.7843C 108.631 26.7712 109.723 25.1112 110.673 23.8751C 114.686 18.4008 118.805 15.4341 123.029 15.0102C 123.381 14.9749 123.733 14.9396 124.085 14.9396L 124.085 0.0353188C 118.91 0.0353188 113.982 1.73059 109.371 5.12114Z"/>
</defs>
</svg>
