<svg width="1284" height="204" viewBox="0 0 1284 204" version="1.1" xmlns="http://www.w3.org/2000/svg" xmlns:xlink="http://www.w3.org/1999/xlink">
<title>Mercurio</title>
<desc>Created using Figma</desc>
<g id="Canvas" transform="matrix(2 0 0 2 348 -2)">
<g id="Mercurio">
<use xlink:href="#path0_fill" transform="translate(-180 -8)" fill="#FFFFFF"/>
</g>
</g>
<defs>
<path id="path0_fill" d="M 6.016 103.496L 15.872 99.272C 16.512 98.9733 17.0667 98.6107 17.536 98.184C 18.0053 97.7147 18.24 97.032 18.24 96.136L 18.24 29.512C 18.24 28.6587 18.0053 27.9973 17.536 27.528C 17.0667 27.0587 16.512 26.7173 15.872 26.504L 6.016 22.728L 6.016 17.224L 46.848 17.224L 65.024 69.512L 68.16 80.648L 69.184 80.648L 90.688 17.224L 130.944 17.224L 130.944 22.728L 121.216 26.504C 120.533 26.76 119.915 27.1227 119.36 27.592C 118.848 28.0187 118.592 28.6587 118.592 29.512L 118.592 96.52C 118.592 97.4587 118.848 98.1627 119.36 98.632C 119.872 99.1013 120.491 99.464 121.216 99.72L 130.944 103.496L 130.944 109L 85.44 109L 85.44 103.496L 95.104 99.72C 95.8293 99.4213 96.4267 99.0587 96.896 98.632C 97.408 98.1627 97.664 97.4587 97.664 96.52L 97.664 32.648L 96.512 32.648L 93.312 42.568L 75.072 94.792L 68.992 109L 57.344 109L 34.304 42.568L 31.232 32.584L 30.08 32.584L 30.08 96.136C 30.08 97.0747 30.3147 97.7573 30.784 98.184C 31.296 98.6107 31.872 98.9733 32.512 99.272L 42.24 103.496L 42.24 109L 6.016 109L 6.016 103.496ZM 178.057 110.536C 172.894 110.536 168.115 109.768 163.721 108.232C 159.326 106.696 155.529 104.435 152.329 101.448C 149.171 98.4187 146.675 94.6853 144.841 90.248C 143.049 85.8107 142.153 80.712 142.153 74.952C 142.153 69.832 143.006 65.032 144.713 60.552C 146.462 56.072 148.894 52.1893 152.009 48.904C 155.166 45.576 158.963 42.9733 163.401 41.096C 167.838 39.176 172.787 38.216 178.249 38.216C 183.283 38.216 187.763 38.9627 191.689 40.456C 195.614 41.9067 198.921 43.8907 201.609 46.408C 204.339 48.8827 206.409 51.784 207.817 55.112C 209.267 58.3973 209.993 61.8533 209.993 65.48C 209.993 65.9067 209.971 66.568 209.929 67.464C 209.929 68.36 209.886 69.2987 209.801 70.28C 209.758 71.2613 209.694 72.2 209.609 73.096C 209.523 73.9493 209.459 74.5467 209.417 74.888L 162.761 74.888C 162.761 82.184 164.702 87.752 168.585 91.592C 172.467 95.432 178.27 97.352 185.993 97.352C 188.382 97.352 190.601 97.1813 192.649 96.84C 194.697 96.456 196.574 96.008 198.281 95.496C 200.03 94.984 201.609 94.408 203.017 93.768C 204.425 93.128 205.683 92.5093 206.793 91.912L 209.865 91.912L 209.865 99.592C 208.03 100.915 205.939 102.216 203.593 103.496C 201.289 104.776 198.771 105.949 196.041 107.016C 193.353 108.04 190.494 108.872 187.465 109.512C 184.435 110.195 181.299 110.536 178.057 110.536ZM 189.385 65.736C 189.385 62.8773 189.171 60.3173 188.745 58.056C 188.318 55.752 187.614 53.8107 186.633 52.232C 185.651 50.6107 184.371 49.3733 182.793 48.52C 181.214 47.6667 179.273 47.24 176.969 47.24C 174.963 47.24 173.129 47.6453 171.465 48.456C 169.801 49.2667 168.35 50.4613 167.113 52.04C 165.918 53.6187 164.937 55.56 164.169 57.864C 163.443 60.168 162.995 62.792 162.825 65.736L 189.385 65.736ZM 219.867 103.624L 227.547 100.488C 228.272 100.189 228.87 99.8267 229.339 99.4C 229.851 98.9307 230.107 98.248 230.107 97.352L 230.107 56.776C 230.107 55.9227 230.064 55.1973 229.979 54.6C 229.936 54.0027 229.808 53.512 229.595 53.128C 229.424 52.744 229.168 52.424 228.827 52.168C 228.486 51.912 228.059 51.6773 227.547 51.464L 219.227 47.88L 219.227 42.504L 249.307 38.856L 249.307 53.32L 249.883 53.32C 251.718 50.4187 253.51 48.008 255.259 46.088C 257.008 44.168 258.758 42.632 260.507 41.48C 262.256 40.328 264.027 39.5173 265.819 39.048C 267.611 38.5787 269.403 38.344 271.195 38.344C 272.262 38.344 273.307 38.408 274.331 38.536C 275.355 38.6213 276.336 38.792 277.275 39.048C 278.256 39.2613 279.195 39.5813 280.091 40.008C 281.03 40.4347 281.947 40.9467 282.843 41.544L 282.843 62.792L 269.723 62.792L 267.675 58.056C 267.547 57.7147 267.291 57.3307 266.907 56.904C 266.523 56.4773 266.075 56.0933 265.563 55.752C 265.051 55.368 264.454 55.0693 263.771 54.856C 263.131 54.6 262.47 54.472 261.787 54.472C 260.72 54.472 259.696 54.5573 258.715 54.728C 257.776 54.8987 256.838 55.2187 255.899 55.688C 254.96 56.1573 254.022 56.776 253.083 57.544C 252.187 58.2693 251.227 59.2293 250.203 60.424L 250.203 97.352C 250.203 98.248 250.438 98.9307 250.907 99.4C 251.376 99.8693 251.995 100.232 252.763 100.488L 262.939 103.624L 262.939 109L 219.867 109L 219.867 103.624ZM 322.22 110.536C 316.929 110.536 312.215 109.683 308.076 107.976C 303.937 106.227 300.439 103.795 297.58 100.68C 294.721 97.5653 292.545 93.8747 291.052 89.608C 289.559 85.3413 288.812 80.6693 288.812 75.592C 288.812 71.9653 289.281 68.5307 290.22 65.288C 291.201 62.0453 292.567 59.0587 294.316 56.328C 296.108 53.5547 298.199 51.0587 300.588 48.84C 302.977 46.6213 305.601 44.744 308.46 43.208C 311.319 41.672 314.369 40.4987 317.612 39.688C 320.855 38.8347 324.161 38.408 327.532 38.408C 330.177 38.408 332.567 38.6 334.7 38.984C 336.833 39.368 338.753 39.8373 340.46 40.392C 342.167 40.9467 343.66 41.5227 344.94 42.12C 346.22 42.6747 347.287 43.1653 348.14 43.592L 347.5 60.232L 343.276 60.232C 341.612 59.1227 339.799 57.928 337.836 56.648C 335.916 55.3253 333.911 54.1307 331.82 53.064C 329.772 51.9547 327.703 51.0373 325.612 50.312C 323.521 49.5867 321.516 49.224 319.596 49.224C 318.572 49.224 317.655 49.4587 316.844 49.928C 316.033 50.3547 315.223 51.1013 314.412 52.168C 313.9 52.8933 313.345 53.896 312.748 55.176C 312.193 56.4133 311.681 57.9067 311.212 59.656C 310.785 61.4053 310.423 63.3893 310.124 65.608C 309.825 67.784 309.676 70.1947 309.676 72.84C 309.676 76.808 310.103 80.3067 310.956 83.336C 311.852 86.3653 313.153 88.9253 314.86 91.016C 316.609 93.064 318.764 94.6427 321.324 95.752C 323.927 96.8187 326.956 97.352 330.412 97.352C 332.033 97.352 333.633 97.1813 335.212 96.84C 336.791 96.4987 338.284 96.072 339.692 95.56C 341.143 95.0053 342.508 94.3867 343.788 93.704C 345.068 92.9787 346.241 92.2747 347.308 91.592L 350.38 91.592L 350.38 99.72C 348.673 101 346.817 102.301 344.812 103.624C 342.849 104.904 340.716 106.056 338.412 107.08C 336.108 108.104 333.612 108.936 330.924 109.576C 328.236 110.216 325.335 110.536 322.22 110.536ZM 388.616 110.344C 385.501 110.344 382.6 109.896 379.912 109C 377.224 108.104 374.877 106.739 372.872 104.904C 370.867 103.027 369.267 100.616 368.072 97.672C 366.92 94.728 366.344 91.208 366.344 87.112L 366.344 54.344C 366.344 53.448 366.088 52.744 365.576 52.232C 365.064 51.72 364.424 51.3147 363.656 51.016L 356.232 47.88L 356.232 42.504L 386.632 38.856L 386.632 79.368C 386.632 82.2267 386.76 84.7867 387.016 87.048C 387.272 89.2667 387.805 91.144 388.616 92.68C 389.427 94.1733 390.579 95.3253 392.072 96.136C 393.608 96.904 395.635 97.288 398.152 97.288C 399.261 97.288 400.413 97.224 401.608 97.096C 402.845 96.968 404.04 96.7333 405.192 96.392C 406.344 96.008 407.432 95.4533 408.456 94.728C 409.48 94.0027 410.397 93.0427 411.208 91.848L 411.208 54.344C 411.208 53.448 410.931 52.7653 410.376 52.296C 409.864 51.8267 409.203 51.4213 408.392 51.08L 400.84 48.008L 400.84 42.632L 431.368 38.856L 431.368 94.792C 431.368 95.688 431.624 96.392 432.136 96.904C 432.648 97.3733 433.309 97.7787 434.12 98.12L 441.672 101.128L 441.672 106.504L 412.68 110.28L 412.36 110.28L 412.36 98.824L 411.592 98.824C 409.672 101.384 407.731 103.411 405.768 104.904C 403.805 106.397 401.843 107.549 399.88 108.36C 397.96 109.171 396.061 109.704 394.184 109.96C 392.307 110.216 390.451 110.344 388.616 110.344ZM 449.93 103.624L 457.61 100.488C 458.335 100.189 458.932 99.8267 459.401 99.4C 459.913 98.9307 460.169 98.248 460.169 97.352L 460.169 56.776C 460.169 55.9227 460.127 55.1973 460.041 54.6C 459.999 54.0027 459.871 53.512 459.658 53.128C 459.487 52.744 459.231 52.424 458.889 52.168C 458.548 51.912 458.122 51.6773 457.61 51.464L 449.289 47.88L 449.289 42.504L 479.37 38.856L 479.37 53.32L 479.945 53.32C 481.78 50.4187 483.572 48.008 485.322 46.088C 487.071 44.168 488.82 42.632 490.57 41.48C 492.319 40.328 494.09 39.5173 495.882 39.048C 497.673 38.5787 499.466 38.344 501.257 38.344C 502.324 38.344 503.37 38.408 504.394 38.536C 505.418 38.6213 506.399 38.792 507.337 39.048C 508.319 39.2613 509.257 39.5813 510.154 40.008C 511.092 40.4347 512.01 40.9467 512.905 41.544L 512.905 62.792L 499.786 62.792L 497.738 58.056C 497.61 57.7147 497.353 57.3307 496.969 56.904C 496.585 56.4773 496.137 56.0933 495.625 55.752C 495.113 55.368 494.516 55.0693 493.834 54.856C 493.194 54.6 492.532 54.472 491.849 54.472C 490.783 54.472 489.759 54.5573 488.778 54.728C 487.839 54.8987 486.9 55.2187 485.962 55.688C 485.023 56.1573 484.084 56.776 483.146 57.544C 482.25 58.2693 481.289 59.2293 480.265 60.424L 480.265 97.352C 480.265 98.248 480.5 98.9307 480.969 99.4C 481.439 99.8693 482.058 100.232 482.826 100.488L 493.002 103.624L 493.002 109L 449.93 109L 449.93 103.624ZM 541.642 30.856C 540.106 30.856 538.57 30.5573 537.034 29.96C 535.498 29.3627 534.112 28.5733 532.874 27.592C 531.68 26.6107 530.698 25.4373 529.93 24.072C 529.205 22.7067 528.842 21.2347 528.842 19.656C 528.842 18.0347 529.184 16.5627 529.866 15.24C 530.592 13.9173 531.53 12.8293 532.682 11.976C 533.877 11.08 535.242 10.3973 536.778 9.928C 538.314 9.45867 539.936 9.224 541.642 9.224C 543.605 9.224 545.397 9.43733 547.018 9.864C 548.64 10.2907 550.026 10.9307 551.178 11.784C 552.373 12.5947 553.29 13.6187 553.93 14.856C 554.57 16.0507 554.89 17.4373 554.89 19.016C 554.89 20.68 554.528 22.2373 553.802 23.688C 553.077 25.1387 552.096 26.3973 550.858 27.464C 549.664 28.488 548.256 29.32 546.634 29.96C 545.056 30.5573 543.392 30.856 541.642 30.856ZM 520.586 103.624L 530.122 100.232C 530.933 99.9333 531.573 99.5707 532.042 99.144C 532.512 98.6747 532.746 97.992 532.746 97.096L 532.746 55.432C 532.746 54.536 532.49 53.832 531.978 53.32C 531.466 52.808 530.784 52.3813 529.93 52.04L 520.778 48.456L 520.778 43.08L 552.906 40.968L 552.906 97.096C 552.906 97.992 553.162 98.696 553.674 99.208C 554.186 99.6773 554.784 100.019 555.466 100.232L 564.874 103.624L 564.874 109L 520.586 109L 520.586 103.624ZM 609.611 110.728C 604.106 110.728 599.093 109.939 594.571 108.36C 590.091 106.739 586.251 104.392 583.051 101.32C 579.851 98.2053 577.355 94.408 575.562 89.928C 573.813 85.448 572.938 80.3493 572.938 74.632C 572.938 69.3413 573.792 64.456 575.499 59.976C 577.248 55.496 579.744 51.656 582.986 48.456C 586.229 45.256 590.155 42.76 594.763 40.968C 599.413 39.1333 604.619 38.216 610.379 38.216C 616.651 38.216 622.091 39.176 626.698 41.096C 631.306 43.016 635.104 45.6187 638.091 48.904C 641.12 52.1893 643.381 56.0293 644.875 60.424C 646.368 64.776 647.115 69.4267 647.115 74.376C 647.115 79.5813 646.24 84.424 644.49 88.904C 642.784 93.3413 640.309 97.1813 637.067 100.424C 633.866 103.624 629.941 106.141 625.29 107.976C 620.683 109.811 615.456 110.728 609.611 110.728ZM 610.506 101.512C 613.493 101.512 615.947 100.723 617.866 99.144C 619.786 97.5653 621.301 95.5387 622.41 93.064C 623.562 90.5893 624.352 87.816 624.779 84.744C 625.205 81.672 625.418 78.6213 625.418 75.592C 625.418 71.9653 625.141 68.4667 624.587 65.096C 624.032 61.6827 623.136 58.6747 621.899 56.072C 620.661 53.4693 619.019 51.3787 616.971 49.8C 614.965 48.2213 612.49 47.432 609.547 47.432C 606.56 47.432 604.106 48.2213 602.187 49.8C 600.309 51.336 598.795 53.3413 597.643 55.816C 596.49 58.248 595.701 60.9787 595.274 64.008C 594.848 67.0373 594.635 70.0453 594.635 73.032C 594.635 76.36 594.869 79.7093 595.338 83.08C 595.808 86.4507 596.64 89.5227 597.835 92.296C 599.072 95.0267 600.715 97.2453 602.763 98.952C 604.811 100.659 607.392 101.512 610.506 101.512Z"/>
</defs>
</svg>
